<svg width="32" height="32" viewBox="0 0 32 32" fill="none" xmlns="http://www.w3.org/2000/svg">
<path d="M31.8115 9.15521C31.8069 8.1252 31.6262 7.10201 31.3036 6.1243C30.2926 3.07974 27.5064 1.01516 24.0226 0.876465H9.09C8.05377 0.881012 7.02441 1.06064 6.0408 1.38351C2.97787 2.38852 0.900848 5.15795 0.761312 8.62088C0.7087 9.90328 0.75445 21.0765 0.761312 23.464C0.765887 24.494 0.946598 25.5172 1.26913 26.4949C2.28019 29.5394 5.06634 31.604 8.55016 31.7427C9.84029 31.795 21.0809 31.7495 23.4828 31.7427C24.519 31.7382 25.5484 31.5585 26.532 31.2379C29.5949 30.2329 31.6719 27.4635 31.8115 24.0006C31.8641 22.7182 31.8183 11.5449 31.8115 9.15749V9.15521ZM9.50632 16.338L17.103 5.03062V13.4321C17.103 15.0374 15.7946 16.338 14.1796 16.338H9.50403H9.50632ZM16.291 16.3039V16.3153H16.2795V16.3039H16.291ZM15.3005 27.6454V18.9801C15.3005 17.5204 16.49 16.338 17.9585 16.338H22.8995L15.3028 27.6454H15.3005Z" fill="#8E8BFF"/>
</svg>
