<svg width="23" height="22" viewBox="0 0 23 22" fill="none" xmlns="http://www.w3.org/2000/svg">
<path d="M7.01693 8.3941C6.80281 7.88662 5.91662 7.89565 5.71585 8.40718L4.04351 12.2721C3.76778 12.9181 4.88175 13.2911 5.16363 12.6476L5.43313 12.0248H7.2927L7.55907 12.6461C7.84315 13.2928 8.95333 12.9176 8.68052 12.2736L7.0234 8.40848C7.02136 8.40365 7.0192 8.39886 7.01693 8.3941ZM5.88965 10.9697L6.36719 9.86612L6.84037 10.9697H5.88965ZM18.348 9.08516C18.679 9.08516 18.9473 8.84897 18.9473 8.55763C18.9473 8.2663 18.679 8.0301 18.348 8.0301H16.4885C16.1575 8.0301 15.8892 8.2663 15.8892 8.55763V12.442C15.8892 12.7333 16.1575 12.9695 16.4885 12.9695H18.348C18.679 12.9695 18.9473 12.7333 18.9473 12.442C18.9473 12.1506 18.679 11.9144 18.348 11.9144H17.0878V11.0273H18.2109C18.5418 11.0273 18.8102 10.7911 18.8102 10.4998C18.8102 10.2085 18.5418 9.97226 18.2109 9.97226H17.0878V9.08516H18.348ZM12.2181 9.05502C12.5443 9.05502 12.8588 9.1395 13.1276 9.29938C13.4019 9.46245 13.7744 9.39901 13.9597 9.15758C14.145 8.91618 14.0729 8.58827 13.7986 8.42515C13.3309 8.14701 12.7843 8 12.2181 8C10.6597 8 9.39195 9.11594 9.39195 10.4876C9.39195 11.8592 10.6597 12.9752 12.2181 12.9752C13.7027 12.9752 14.7396 11.9523 14.7396 10.4876C14.7396 10.1962 14.4713 9.96005 14.1403 9.96005H12.808C12.477 9.96005 12.2087 10.1962 12.2087 10.4876C12.2087 10.7789 12.477 11.0151 12.808 11.0151H13.4642C13.3156 11.5005 12.9381 11.9201 12.2181 11.9201C11.3206 11.9201 10.5906 11.2775 10.5906 10.4876C10.5906 9.69766 11.3206 9.05502 12.2181 9.05502Z" fill="#26292D"/>
<path d="M18.0723 0.485372C18.4643 0.450394 18.8105 0.740213 18.8453 1.13228L19.0406 3.33128C19.0406 3.33155 19.0406 3.33181 19.0406 3.33208C19.0802 3.71283 18.7809 4.07272 18.4004 4.10551L16.2092 4.38155L16.209 4.38157C15.9834 4.40958 15.7961 4.34424 15.6601 4.22324C15.526 4.10395 15.4472 3.93548 15.425 3.76319C15.4029 3.59089 15.4366 3.40793 15.5367 3.25865C15.6383 3.10723 15.8039 2.99703 16.0305 2.96734L16.031 2.96727L16.5873 2.89719C16.086 2.55661 15.5517 2.26682 14.9923 2.03227L15.0306 1.94105L14.9923 2.03227C13.8746 1.56349 12.6873 1.32579 11.4631 1.32579C9.02229 1.32579 6.72801 2.2761 5.00206 4.00206C3.2761 5.72801 2.32579 8.02225 2.32579 10.4631C2.32579 12.904 3.2761 15.1982 5.00206 16.9242C6.72801 18.6501 9.02229 19.6004 11.4631 19.6004C13.9039 19.6004 16.1982 18.6501 17.9242 16.9242C19.6501 15.1982 20.6004 12.904 20.6004 10.4631C20.6004 10.0695 20.9195 9.75039 21.3131 9.75039C21.7068 9.75039 22.0259 10.0695 22.0259 10.4631C22.0259 13.2843 20.927 15.9372 18.9321 17.9321C16.9372 19.927 14.2843 21.0259 11.4631 21.0259C8.64189 21.0259 5.98903 19.927 3.99413 17.9321C1.99922 15.9372 0.900351 13.2843 0.900351 10.4631C0.900351 7.64189 1.99922 4.98903 3.99413 2.99413C5.98903 0.999218 8.64189 -0.0996486 11.4631 -0.0996486C12.8772 -0.0996486 14.2502 0.175305 15.5434 0.717685C16.2214 1.00192 16.8675 1.35631 17.4713 1.77493L17.4254 1.25834C17.3906 0.866297 17.6802 0.520215 18.0723 0.485372ZM18.0723 0.485372C18.0723 0.485371 18.0723 0.485369 18.0723 0.485368L18.0811 0.584626L18.0723 0.485372Z" fill="#26292D" stroke="#26292D" stroke-width="0.199297"/>
</svg>
