<svg width="164" height="30" viewBox="0 0 164 30" fill="none" xmlns="http://www.w3.org/2000/svg">
<rect width="164" height="30" rx="15" fill="#00D689"/>
<path d="M17.386 19V9.2H26.052V19H24.26V10.292L24.68 10.74H18.758L19.178 10.292V19H17.386ZM31.9514 19.098C31.186 19.098 30.5047 18.9347 29.9074 18.608C29.31 18.272 28.8387 17.8147 28.4934 17.236C28.148 16.6573 27.9754 15.9993 27.9754 15.262C27.9754 14.5153 28.148 13.8573 28.4934 13.288C28.8387 12.7093 29.31 12.2567 29.9074 11.93C30.5047 11.6033 31.186 11.44 31.9514 11.44C32.726 11.44 33.412 11.6033 34.0094 11.93C34.616 12.2567 35.0874 12.7047 35.4234 13.274C35.7687 13.8433 35.9414 14.506 35.9414 15.262C35.9414 15.9993 35.7687 16.6573 35.4234 17.236C35.0874 17.8147 34.616 18.272 34.0094 18.608C33.412 18.9347 32.726 19.098 31.9514 19.098ZM31.9514 17.6C32.3807 17.6 32.7634 17.5067 33.0994 17.32C33.4354 17.1333 33.6967 16.8627 33.8834 16.508C34.0794 16.1533 34.1774 15.738 34.1774 15.262C34.1774 14.7767 34.0794 14.3613 33.8834 14.016C33.6967 13.6613 33.4354 13.3907 33.0994 13.204C32.7634 13.0173 32.3854 12.924 31.9654 12.924C31.536 12.924 31.1534 13.0173 30.8174 13.204C30.4907 13.3907 30.2294 13.6613 30.0334 14.016C29.8374 14.3613 29.7394 14.7767 29.7394 15.262C29.7394 15.738 29.8374 16.1533 30.0334 16.508C30.2294 16.8627 30.4907 17.1333 30.8174 17.32C31.1534 17.5067 31.5314 17.6 31.9514 17.6ZM39.9268 19.126C39.3574 19.126 38.7928 19.0607 38.2328 18.93C37.6821 18.79 37.1828 18.594 36.7348 18.342L37.2248 17.04C37.5888 17.2453 37.9994 17.404 38.4568 17.516C38.9141 17.628 39.3714 17.684 39.8288 17.684C40.2208 17.684 40.5568 17.6467 40.8368 17.572C41.1168 17.488 41.3314 17.3667 41.4808 17.208C41.6394 17.0493 41.7188 16.8673 41.7188 16.662C41.7188 16.3633 41.5881 16.1393 41.3268 15.99C41.0748 15.8313 40.7108 15.752 40.2348 15.752H38.7928V14.576H40.0948C40.3934 14.576 40.6454 14.5433 40.8508 14.478C41.0654 14.4127 41.2288 14.3147 41.3408 14.184C41.4528 14.0533 41.5088 13.8993 41.5088 13.722C41.5088 13.5447 41.4388 13.3907 41.2988 13.26C41.1681 13.12 40.9768 13.0173 40.7248 12.952C40.4728 12.8773 40.1694 12.84 39.8148 12.84C39.4414 12.84 39.0541 12.8867 38.6528 12.98C38.2608 13.0733 37.8594 13.2087 37.4488 13.386L37.0008 12.098C37.4768 11.8833 37.9388 11.72 38.3868 11.608C38.8441 11.4867 39.2968 11.4213 39.7448 11.412C40.4261 11.384 41.0328 11.454 41.5648 11.622C42.0968 11.79 42.5168 12.0327 42.8248 12.35C43.1328 12.6673 43.2868 13.0407 43.2868 13.47C43.2868 13.8247 43.1748 14.1467 42.9508 14.436C42.7361 14.716 42.4374 14.9353 42.0548 15.094C41.6814 15.2527 41.2521 15.332 40.7668 15.332L40.8228 14.954C41.6534 14.954 42.3068 15.122 42.7828 15.458C43.2588 15.7847 43.4968 16.2327 43.4968 16.802C43.4968 17.2593 43.3428 17.6653 43.0348 18.02C42.7268 18.3653 42.3021 18.636 41.7608 18.832C41.2288 19.028 40.6174 19.126 39.9268 19.126ZM45.299 19V11.524H48.953C49.8584 11.524 50.5677 11.692 51.081 12.028C51.6037 12.364 51.865 12.84 51.865 13.456C51.865 14.0627 51.6224 14.5387 51.137 14.884C50.6517 15.22 50.0077 15.388 49.205 15.388L49.415 14.954C50.3204 14.954 50.9924 15.122 51.431 15.458C51.879 15.7847 52.103 16.2653 52.103 16.9C52.103 17.5627 51.8557 18.0807 51.361 18.454C50.8664 18.818 50.115 19 49.107 19H45.299ZM46.965 17.726H48.967C49.443 17.726 49.8024 17.6513 50.045 17.502C50.2877 17.3433 50.409 17.1053 50.409 16.788C50.409 16.452 50.297 16.2047 50.073 16.046C49.849 15.8873 49.499 15.808 49.023 15.808H46.965V17.726ZM46.965 14.646H48.799C49.247 14.646 49.583 14.5667 49.807 14.408C50.0404 14.24 50.157 14.0067 50.157 13.708C50.157 13.4 50.0404 13.1713 49.807 13.022C49.583 12.8727 49.247 12.798 48.799 12.798H46.965V14.646ZM58.503 19V17.488L58.405 17.166V14.52C58.405 14.0067 58.251 13.61 57.943 13.33C57.635 13.0407 57.1683 12.896 56.543 12.896C56.123 12.896 55.7077 12.9613 55.297 13.092C54.8957 13.2227 54.555 13.4047 54.275 13.638L53.589 12.364C53.9903 12.056 54.4663 11.8273 55.017 11.678C55.577 11.5193 56.1557 11.44 56.753 11.44C57.8357 11.44 58.671 11.7013 59.259 12.224C59.8563 12.7373 60.155 13.5353 60.155 14.618V19H58.503ZM56.151 19.098C55.591 19.098 55.101 19.0047 54.681 18.818C54.261 18.622 53.9343 18.356 53.701 18.02C53.477 17.6747 53.365 17.2873 53.365 16.858C53.365 16.438 53.463 16.06 53.659 15.724C53.8643 15.388 54.1957 15.122 54.653 14.926C55.1103 14.73 55.717 14.632 56.473 14.632H58.643V15.794H56.599C56.0017 15.794 55.6003 15.892 55.395 16.088C55.1897 16.2747 55.087 16.508 55.087 16.788C55.087 17.1053 55.213 17.3573 55.465 17.544C55.717 17.7307 56.067 17.824 56.515 17.824C56.9443 17.824 57.327 17.726 57.663 17.53C58.0083 17.334 58.2557 17.0447 58.405 16.662L58.699 17.712C58.531 18.1507 58.2277 18.4913 57.789 18.734C57.3597 18.9767 56.8137 19.098 56.151 19.098ZM63.8745 19V12.588L64.2805 13.008H61.2425V11.524H68.2425V13.008H65.2185L65.6245 12.588V19H63.8745ZM73.2639 13.988C74.2253 13.988 74.9579 14.2027 75.4619 14.632C75.9659 15.0613 76.2179 15.668 76.2179 16.452C76.2179 17.264 75.9379 17.8987 75.3779 18.356C74.8179 18.804 74.0293 19.0233 73.0119 19.014L69.5119 19V11.524H71.2619V13.974L73.2639 13.988ZM72.8579 17.726C73.3713 17.7353 73.7633 17.628 74.0339 17.404C74.3046 17.18 74.4399 16.8533 74.4399 16.424C74.4399 15.9947 74.3046 15.6867 74.0339 15.5C73.7726 15.304 73.3806 15.2013 72.8579 15.192L71.2619 15.178V17.712L72.8579 17.726ZM81.6252 19V11.524H83.3752V16.452L87.5052 11.524H89.1012V19H87.3512V14.072L83.2352 19H81.6252ZM91.4553 19V11.524H97.1953V13.008H92.7993L93.2053 12.616V19H91.4553ZM102.613 19.098C102.006 19.098 101.451 18.958 100.947 18.678C100.452 18.398 100.056 17.978 99.757 17.418C99.4676 16.8487 99.323 16.13 99.323 15.262C99.323 14.3847 99.463 13.666 99.743 13.106C100.032 12.546 100.424 12.1307 100.919 11.86C101.414 11.58 101.978 11.44 102.613 11.44C103.35 11.44 103.999 11.5987 104.559 11.916C105.128 12.2333 105.576 12.6767 105.903 13.246C106.239 13.8153 106.407 14.4873 106.407 15.262C106.407 16.0367 106.239 16.7133 105.903 17.292C105.576 17.8613 105.128 18.3047 104.559 18.622C103.999 18.9393 103.35 19.098 102.613 19.098ZM98.469 21.716V11.524H100.135V13.288L100.079 15.276L100.219 17.264V21.716H98.469ZM102.417 17.6C102.837 17.6 103.21 17.5067 103.537 17.32C103.873 17.1333 104.139 16.8627 104.335 16.508C104.531 16.1533 104.629 15.738 104.629 15.262C104.629 14.7767 104.531 14.3613 104.335 14.016C104.139 13.6613 103.873 13.3907 103.537 13.204C103.21 13.0173 102.837 12.924 102.417 12.924C101.997 12.924 101.619 13.0173 101.283 13.204C100.947 13.3907 100.681 13.6613 100.485 14.016C100.289 14.3613 100.191 14.7767 100.191 15.262C100.191 15.738 100.289 16.1533 100.485 16.508C100.681 16.8627 100.947 17.1333 101.283 17.32C101.619 17.5067 101.997 17.6 102.417 17.6ZM112.589 19V17.488L112.491 17.166V14.52C112.491 14.0067 112.337 13.61 112.029 13.33C111.721 13.0407 111.254 12.896 110.629 12.896C110.209 12.896 109.794 12.9613 109.383 13.092C108.982 13.2227 108.641 13.4047 108.361 13.638L107.675 12.364C108.076 12.056 108.552 11.8273 109.103 11.678C109.663 11.5193 110.242 11.44 110.839 11.44C111.922 11.44 112.757 11.7013 113.345 12.224C113.942 12.7373 114.241 13.5353 114.241 14.618V19H112.589ZM110.237 19.098C109.677 19.098 109.187 19.0047 108.767 18.818C108.347 18.622 108.02 18.356 107.787 18.02C107.563 17.6747 107.451 17.2873 107.451 16.858C107.451 16.438 107.549 16.06 107.745 15.724C107.95 15.388 108.282 15.122 108.739 14.926C109.196 14.73 109.803 14.632 110.559 14.632H112.729V15.794H110.685C110.088 15.794 109.686 15.892 109.481 16.088C109.276 16.2747 109.173 16.508 109.173 16.788C109.173 17.1053 109.299 17.3573 109.551 17.544C109.803 17.7307 110.153 17.824 110.601 17.824C111.03 17.824 111.413 17.726 111.749 17.53C112.094 17.334 112.342 17.0447 112.491 16.662L112.785 17.712C112.617 18.1507 112.314 18.4913 111.875 18.734C111.446 18.9767 110.9 19.098 110.237 19.098ZM117.96 19V12.588L118.366 13.008H115.328V11.524H122.328V13.008H119.304L119.71 12.588V19H117.96ZM127.35 13.988C128.311 13.988 129.044 14.2027 129.548 14.632C130.052 15.0613 130.304 15.668 130.304 16.452C130.304 17.264 130.024 17.8987 129.464 18.356C128.904 18.804 128.115 19.0233 127.098 19.014L123.598 19V11.524H125.348V13.974L127.35 13.988ZM126.944 17.726C127.457 17.7353 127.849 17.628 128.12 17.404C128.391 17.18 128.526 16.8533 128.526 16.424C128.526 15.9947 128.391 15.6867 128.12 15.5C127.859 15.304 127.467 15.2013 126.944 15.192L125.348 15.178V17.712L126.944 17.726Z" fill="white"/>
<path d="M149.766 18.6974L148.746 17.6771V13.7226C148.746 11.2946 147.448 9.26197 145.186 8.72416V8.18635C145.186 7.5299 144.657 7 144 7C143.344 7 142.814 7.5299 142.814 8.18635V8.72416C140.544 9.26197 139.255 11.2867 139.255 13.7226V17.6771L138.234 18.6974C137.736 19.1957 138.084 20.0498 138.788 20.0498H149.204C149.916 20.0498 150.264 19.1957 149.766 18.6974ZM147.164 18.468H140.837V13.7226C140.837 11.7612 142.031 10.1636 144 10.1636C145.969 10.1636 147.164 11.7612 147.164 13.7226V18.468ZM144 22.4225C144.87 22.4225 145.582 21.7107 145.582 20.8407H142.418C142.418 21.7107 143.122 22.4225 144 22.4225Z" fill="white"/>
</svg>
