<svg width="20" height="20" viewBox="0 0 20 20" fill="none" xmlns="http://www.w3.org/2000/svg">
<g clip-path="url(#clip0_4761_2169)">
<path d="M4.98242 9.13478C4.98242 6.78603 4.98242 5.61166 5.71208 4.882C6.44174 4.15234 7.61611 4.15234 9.96485 4.15234H12.4561C14.8048 4.15234 15.9792 4.15234 16.7088 4.882C17.4385 5.61166 17.4385 6.78603 17.4385 9.13478V13.2868C17.4385 15.6355 17.4385 16.8099 16.7088 17.5396C15.9792 18.2692 14.8048 18.2692 12.4561 18.2692H9.96485C7.61611 18.2692 6.44174 18.2692 5.71208 17.5396C4.98242 16.8099 4.98242 15.6355 4.98242 13.2868V9.13478Z" stroke="#8E8BFF" stroke-width="1.49473"/>
<path opacity="0.5" d="M4.9834 15.778C3.60754 15.778 2.49219 14.6627 2.49219 13.2868V8.30438C2.49219 5.17272 2.49219 3.60689 3.46507 2.63401C4.43795 1.66113 6.00378 1.66113 9.13543 1.66113H12.4571C13.8329 1.66113 14.9483 2.77649 14.9483 4.15235" stroke="#8E8BFF" stroke-width="1.49473"/>
</g>
<defs>
<clipPath id="clip0_4761_2169">
<rect width="19.9297" height="19.9297" fill="white"/>
</clipPath>
</defs>
</svg>
