<svg width="79" height="31" viewBox="0 0 79 31" fill="none" xmlns="http://www.w3.org/2000/svg">
<path d="M29.3384 13.9509C28.3732 13.9509 27.4736 13.796 26.6395 13.4862C25.8173 13.1645 25.1023 12.7117 24.4946 12.1278C23.8869 11.5439 23.4103 10.8588 23.0647 10.0723C22.7311 9.28589 22.5643 8.42199 22.5643 7.48064C22.5643 6.53929 22.7311 5.6754 23.0647 4.88895C23.4103 4.10251 23.8869 3.41735 24.4946 2.83347C25.1142 2.2496 25.8352 1.80275 26.6573 1.49294C27.4795 1.17121 28.3792 1.01035 29.3563 1.01035C30.4406 1.01035 31.4177 1.201 32.2876 1.58231C33.1693 1.9517 33.9081 2.49983 34.5039 3.22669L32.6451 4.94257C32.2161 4.45402 31.7394 4.09059 31.2152 3.85227C30.6909 3.60204 30.1189 3.47693 29.4993 3.47693C28.9154 3.47693 28.3792 3.57225 27.8906 3.76291C27.4021 3.95356 26.9791 4.22762 26.6216 4.5851C26.2641 4.94257 25.9841 5.36558 25.7815 5.85413C25.5909 6.34268 25.4956 6.88485 25.4956 7.48064C25.4956 8.07643 25.5909 8.6186 25.7815 9.10715C25.9841 9.5957 26.2641 10.0187 26.6216 10.3762C26.9791 10.7337 27.4021 11.0077 27.8906 11.1984C28.3792 11.389 28.9154 11.4844 29.4993 11.4844C30.1189 11.4844 30.6909 11.3652 31.2152 11.1269C31.7394 10.8767 32.2161 10.5013 32.6451 10.0008L34.5039 11.7167C33.9081 12.4436 33.1693 12.9977 32.2876 13.379C31.4177 13.7603 30.4347 13.9509 29.3384 13.9509ZM40.5004 13.9509C39.4995 13.9509 38.5403 13.8199 37.6227 13.5577C36.7052 13.2836 35.9664 12.9321 35.4064 12.5032L36.3895 10.3226C36.9257 10.7039 37.5572 11.0196 38.2841 11.2699C39.0229 11.5082 39.7676 11.6273 40.5183 11.6273C41.0903 11.6273 41.549 11.5737 41.8946 11.4665C42.252 11.3473 42.5142 11.1865 42.681 10.9839C42.8478 10.7813 42.9312 10.549 42.9312 10.2868C42.9312 9.95318 42.8002 9.69103 42.538 9.50037C42.2759 9.29781 41.9303 9.13694 41.5013 9.01778C41.0724 8.88671 40.5957 8.76755 40.0714 8.66031C39.5591 8.54115 39.0407 8.39816 38.5164 8.23134C38.0041 8.06452 37.5334 7.85003 37.1044 7.58788C36.6754 7.32574 36.3239 6.98018 36.0499 6.55121C35.7877 6.12224 35.6566 5.57411 35.6566 4.90682C35.6566 4.19188 35.8473 3.54246 36.2286 2.95859C36.6218 2.3628 37.2057 1.89212 37.9802 1.54656C38.7667 1.18909 39.7497 1.01035 40.9294 1.01035C41.7158 1.01035 42.4904 1.10568 43.253 1.29633C44.0156 1.47507 44.6888 1.74913 45.2727 2.11852L44.379 4.31699C43.7951 3.98335 43.2113 3.73907 42.6274 3.58417C42.0435 3.41735 41.4716 3.33394 40.9115 3.33394C40.3515 3.33394 39.8927 3.39947 39.5352 3.53055C39.1778 3.66162 38.9216 3.8344 38.7667 4.04888C38.6118 4.25145 38.5343 4.48977 38.5343 4.76383C38.5343 5.08556 38.6654 5.34771 38.9275 5.55028C39.1897 5.74093 39.5352 5.89584 39.9642 6.015C40.3932 6.13415 40.8639 6.25331 41.3762 6.37247C41.9005 6.49163 42.4189 6.62866 42.9312 6.78357C43.4555 6.93847 43.9322 7.147 44.3611 7.40915C44.7901 7.6713 45.1357 8.01685 45.3978 8.44582C45.6719 8.87479 45.8089 9.41696 45.8089 10.0723C45.8089 10.7754 45.6123 11.4188 45.2191 12.0027C44.8259 12.5866 44.236 13.0572 43.4496 13.4147C42.6751 13.7722 41.692 13.9509 40.5004 13.9509ZM46.8938 13.7365V11.8597L51.7197 7.30191C52.101 6.95635 52.381 6.64653 52.5597 6.37247C52.7385 6.09841 52.8576 5.84817 52.9172 5.62177C52.9887 5.39537 53.0245 5.18685 53.0245 4.99619C53.0245 4.49573 52.8517 4.11442 52.5061 3.85227C52.1725 3.57821 51.678 3.44118 51.0226 3.44118C50.4983 3.44118 50.0098 3.54246 49.557 3.74503C49.1161 3.9476 48.7407 4.26337 48.4309 4.69234L46.3218 3.33394C46.7984 2.61899 47.4657 2.05298 48.3237 1.63593C49.1816 1.21888 50.1706 1.01035 51.2907 1.01035C52.2201 1.01035 53.0304 1.16526 53.7215 1.47507C54.4246 1.77296 54.9667 2.19597 55.348 2.7441C55.7413 3.29223 55.9379 3.9476 55.9379 4.71021C55.9379 5.11535 55.8843 5.52049 55.777 5.92563C55.6817 6.31885 55.4791 6.7359 55.1693 7.17679C54.8714 7.61767 54.4305 8.11218 53.8467 8.66031L49.8429 12.4317L49.2889 11.3771H56.349V13.7365H46.8938Z" fill="#615C7E"/>
<path d="M1.56619 28.7365V21.0364H4.87719C5.71319 21.0364 6.36952 21.2051 6.84619 21.5424C7.32285 21.8798 7.56119 22.3711 7.56119 23.0164C7.56119 23.6471 7.33385 24.1311 6.87919 24.4685C6.42452 24.7984 5.82685 24.9634 5.08619 24.9634L5.28419 24.6334C6.14219 24.6334 6.79852 24.8058 7.25319 25.1505C7.71519 25.4878 7.94619 25.9828 7.94619 26.6355C7.94619 27.2955 7.70419 27.8125 7.22019 28.1865C6.74352 28.5531 6.03219 28.7365 5.08619 28.7365H1.56619ZM2.65519 27.8675H5.06419C5.65085 27.8675 6.09085 27.7611 6.38419 27.5485C6.68485 27.3285 6.83519 26.9948 6.83519 26.5475C6.83519 26.1001 6.68485 25.7738 6.38419 25.5685C6.09085 25.3631 5.65085 25.2605 5.06419 25.2605H2.65519V27.8675ZM2.65519 24.4244H4.80019C5.33552 24.4244 5.74252 24.3181 6.02119 24.1054C6.30719 23.8928 6.45019 23.5811 6.45019 23.1704C6.45019 22.7524 6.30719 22.4371 6.02119 22.2245C5.74252 22.0118 5.33552 21.9054 4.80019 21.9054H2.65519V24.4244ZM15.6531 28.8025C15.1691 28.8025 14.7254 28.6925 14.3221 28.4725C13.9261 28.2451 13.6071 27.9115 13.3651 27.4715C13.1304 27.0315 13.0131 26.4815 13.0131 25.8215C13.0131 25.1614 13.1267 24.6114 13.3541 24.1714C13.5887 23.7314 13.9041 23.4015 14.3001 23.1815C14.7034 22.9615 15.1544 22.8514 15.6531 22.8514C16.2251 22.8514 16.7311 22.9761 17.1711 23.2254C17.6111 23.4748 17.9594 23.8231 18.2161 24.2704C18.4727 24.7105 18.6011 25.2275 18.6011 25.8215C18.6011 26.4155 18.4727 26.9361 18.2161 27.3835C17.9594 27.8308 17.6111 28.1791 17.1711 28.4285C16.7311 28.6778 16.2251 28.8025 15.6531 28.8025ZM12.5621 30.8705V22.9064H13.5741V24.4794L13.5081 25.8325L13.6181 27.1855V30.8705H12.5621ZM15.5651 27.8785C15.9391 27.8785 16.2727 27.7941 16.5661 27.6255C16.8667 27.4568 17.1014 27.2185 17.2701 26.9105C17.4461 26.5951 17.5341 26.2321 17.5341 25.8215C17.5341 25.4034 17.4461 25.0441 17.2701 24.7435C17.1014 24.4354 16.8667 24.1971 16.5661 24.0284C16.2727 23.8598 15.9391 23.7754 15.5651 23.7754C15.1984 23.7754 14.8647 23.8598 14.5641 24.0284C14.2707 24.1971 14.0361 24.4354 13.8601 24.7435C13.6914 25.0441 13.6071 25.4034 13.6071 25.8215C13.6071 26.2321 13.6914 26.5951 13.8601 26.9105C14.0361 27.2185 14.2707 27.4568 14.5641 27.6255C14.8647 27.7941 15.1984 27.8785 15.5651 27.8785ZM23.6566 28.7365V27.5045L23.6016 27.2735V25.1725C23.6016 24.7251 23.4696 24.3805 23.2056 24.1385C22.9489 23.8891 22.5603 23.7644 22.0396 23.7644C21.6949 23.7644 21.3576 23.8231 21.0276 23.9404C20.6976 24.0504 20.4189 24.2008 20.1916 24.3915L19.7516 23.5995C20.0523 23.3575 20.4116 23.1741 20.8296 23.0494C21.2549 22.9174 21.6986 22.8514 22.1606 22.8514C22.9599 22.8514 23.5759 23.0458 24.0086 23.4344C24.4413 23.8231 24.6576 24.4171 24.6576 25.2164V28.7365H23.6566ZM21.7426 28.8025C21.3099 28.8025 20.9286 28.7291 20.5986 28.5825C20.2759 28.4358 20.0266 28.2341 19.8506 27.9775C19.6746 27.7135 19.5866 27.4165 19.5866 27.0865C19.5866 26.7711 19.6599 26.4851 19.8066 26.2285C19.9606 25.9718 20.2063 25.7665 20.5436 25.6125C20.8883 25.4585 21.3503 25.3815 21.9296 25.3815H23.7776V26.1405H21.9736C21.4456 26.1405 21.0899 26.2285 20.9066 26.4045C20.7233 26.5805 20.6316 26.7931 20.6316 27.0425C20.6316 27.3285 20.7453 27.5595 20.9726 27.7355C21.1999 27.9041 21.5153 27.9885 21.9186 27.9885C22.3146 27.9885 22.6593 27.9005 22.9526 27.7245C23.2533 27.5485 23.4696 27.2918 23.6016 26.9545L23.8106 27.6805C23.6713 28.0251 23.4256 28.3001 23.0736 28.5055C22.7216 28.7035 22.2779 28.8025 21.7426 28.8025ZM28.1675 28.8135C27.7275 28.8135 27.2948 28.7585 26.8695 28.6485C26.4515 28.5311 26.0775 28.3661 25.7475 28.1535L26.0665 27.3505C26.3451 27.5265 26.6641 27.6658 27.0235 27.7685C27.3828 27.8638 27.7458 27.9115 28.1125 27.9115C28.4498 27.9115 28.7395 27.8711 28.9815 27.7905C29.2308 27.7098 29.4215 27.5998 29.5535 27.4605C29.6855 27.3138 29.7515 27.1451 29.7515 26.9545C29.7515 26.6831 29.6305 26.4741 29.3885 26.3275C29.1465 26.1808 28.8091 26.1075 28.3765 26.1075H27.3205V25.3484H28.3105C28.5671 25.3484 28.7908 25.3191 28.9815 25.2605C29.1721 25.2018 29.3188 25.1138 29.4215 24.9965C29.5315 24.8718 29.5865 24.7288 29.5865 24.5675C29.5865 24.3914 29.5241 24.2411 29.3995 24.1165C29.2748 23.9918 29.0988 23.8965 28.8715 23.8305C28.6515 23.7645 28.3911 23.7315 28.0905 23.7315C27.7971 23.7388 27.4965 23.7791 27.1885 23.8524C26.8878 23.9258 26.5798 24.0395 26.2645 24.1935L25.9785 23.3684C26.3305 23.1998 26.6751 23.0714 27.0125 22.9835C27.3571 22.8881 27.6981 22.8368 28.0355 22.8295C28.5415 22.8148 28.9925 22.8734 29.3885 23.0054C29.7845 23.1301 30.0961 23.3135 30.3235 23.5555C30.5581 23.7974 30.6755 24.0834 30.6755 24.4135C30.6755 24.6921 30.5875 24.9414 30.4115 25.1614C30.2355 25.3741 30.0008 25.5428 29.7075 25.6675C29.4141 25.7921 29.0768 25.8544 28.6955 25.8544L28.7395 25.6014C29.3921 25.6014 29.9055 25.7298 30.2795 25.9865C30.6535 26.2431 30.8405 26.5915 30.8405 27.0315C30.8405 27.3835 30.7231 27.6951 30.4885 27.9665C30.2538 28.2305 29.9348 28.4395 29.5315 28.5935C29.1355 28.7401 28.6808 28.8135 28.1675 28.8135ZM35.5369 28.8025C35.0529 28.8025 34.6092 28.6925 34.2059 28.4725C33.8099 28.2451 33.4909 27.9115 33.2489 27.4715C33.0142 27.0315 32.8969 26.4815 32.8969 25.8215C32.8969 25.1614 33.0105 24.6114 33.2379 24.1714C33.4725 23.7314 33.7879 23.4015 34.1839 23.1815C34.5872 22.9615 35.0382 22.8514 35.5369 22.8514C36.1089 22.8514 36.6149 22.9761 37.0549 23.2254C37.4949 23.4748 37.8432 23.8231 38.0999 24.2704C38.3565 24.7105 38.4849 25.2275 38.4849 25.8215C38.4849 26.4155 38.3565 26.9361 38.0999 27.3835C37.8432 27.8308 37.4949 28.1791 37.0549 28.4285C36.6149 28.6778 36.1089 28.8025 35.5369 28.8025ZM32.4459 30.8705V22.9064H33.4579V24.4794L33.3919 25.8325L33.5019 27.1855V30.8705H32.4459ZM35.4489 27.8785C35.8229 27.8785 36.1565 27.7941 36.4499 27.6255C36.7505 27.4568 36.9852 27.2185 37.1539 26.9105C37.3299 26.5951 37.4179 26.2321 37.4179 25.8215C37.4179 25.4034 37.3299 25.0441 37.1539 24.7435C36.9852 24.4354 36.7505 24.1971 36.4499 24.0284C36.1565 23.8598 35.8229 23.7754 35.4489 23.7754C35.0822 23.7754 34.7485 23.8598 34.4479 24.0284C34.1545 24.1971 33.9199 24.4354 33.7439 24.7435C33.5752 25.0441 33.4909 25.4034 33.4909 25.8215C33.4909 26.2321 33.5752 26.5951 33.7439 26.9105C33.9199 27.2185 34.1545 27.4568 34.4479 27.6255C34.7485 27.7941 35.0822 27.8785 35.4489 27.8785ZM43.5404 28.7365V27.5045L43.4854 27.2735V25.1725C43.4854 24.7251 43.3534 24.3805 43.0894 24.1385C42.8327 23.8891 42.444 23.7644 41.9234 23.7644C41.5787 23.7644 41.2414 23.8231 40.9114 23.9404C40.5814 24.0504 40.3027 24.2008 40.0754 24.3915L39.6354 23.5995C39.936 23.3575 40.2954 23.1741 40.7134 23.0494C41.1387 22.9174 41.5824 22.8514 42.0444 22.8514C42.8437 22.8514 43.4597 23.0458 43.8924 23.4344C44.325 23.8231 44.5414 24.4171 44.5414 25.2164V28.7365H43.5404ZM41.6264 28.8025C41.1937 28.8025 40.8124 28.7291 40.4824 28.5825C40.1597 28.4358 39.9104 28.2341 39.7344 27.9775C39.5584 27.7135 39.4704 27.4165 39.4704 27.0865C39.4704 26.7711 39.5437 26.4851 39.6904 26.2285C39.8444 25.9718 40.09 25.7665 40.4274 25.6125C40.772 25.4585 41.234 25.3815 41.8134 25.3815H43.6614V26.1405H41.8574C41.3294 26.1405 40.9737 26.2285 40.7904 26.4045C40.607 26.5805 40.5154 26.7931 40.5154 27.0425C40.5154 27.3285 40.629 27.5595 40.8564 27.7355C41.0837 27.9041 41.399 27.9885 41.8024 27.9885C42.1984 27.9885 42.543 27.9005 42.8364 27.7245C43.137 27.5485 43.3534 27.2918 43.4854 26.9545L43.6944 27.6805C43.555 28.0251 43.3094 28.3001 42.9574 28.5055C42.6054 28.7035 42.1617 28.8025 41.6264 28.8025ZM49.1379 28.8245C48.6539 28.8245 48.2249 28.7475 47.8509 28.5935C47.4843 28.4395 47.1689 28.2121 46.9049 27.9115C46.6409 27.6035 46.4393 27.2185 46.2999 26.7565C46.1679 26.2871 46.1019 25.7371 46.1019 25.1065C46.1019 24.6078 46.1459 24.1604 46.2339 23.7644C46.3219 23.3684 46.4466 23.0164 46.6079 22.7084C46.7766 22.4004 46.9819 22.1328 47.2239 21.9054C47.4733 21.6781 47.7519 21.4911 48.0599 21.3444C48.3753 21.1904 48.7199 21.0731 49.0939 20.9924L51.7559 20.3985L51.9099 21.3774L49.4569 21.9054C49.3103 21.9348 49.1343 21.9788 48.9289 22.0374C48.7236 22.0961 48.5146 22.1878 48.3019 22.3124C48.0893 22.4298 47.8913 22.5948 47.7079 22.8074C47.5246 23.0201 47.3779 23.2988 47.2679 23.6434C47.1579 23.9808 47.1029 24.3988 47.1029 24.8975C47.1029 25.0368 47.1066 25.1431 47.1139 25.2164C47.1213 25.2898 47.1286 25.3631 47.1359 25.4365C47.1506 25.5098 47.1616 25.6198 47.1689 25.7665L46.7289 25.3154C46.8463 24.9121 47.0333 24.5601 47.2899 24.2595C47.5466 23.9588 47.8546 23.7278 48.2139 23.5664C48.5806 23.3978 48.9803 23.3134 49.4129 23.3134C49.9556 23.3134 50.4359 23.4308 50.8539 23.6654C51.2793 23.9001 51.6129 24.2228 51.8549 24.6334C52.0969 25.0441 52.2179 25.5135 52.2179 26.0415C52.2179 26.5768 52.0896 27.0571 51.8329 27.4825C51.5836 27.9005 51.2279 28.2305 50.7659 28.4725C50.3039 28.7071 49.7613 28.8245 49.1379 28.8245ZM49.2369 27.9445C49.6109 27.9445 49.9409 27.8638 50.2269 27.7025C50.5129 27.5338 50.7366 27.3101 50.8979 27.0315C51.0593 26.7455 51.1399 26.4265 51.1399 26.0745C51.1399 25.7224 51.0593 25.4108 50.8979 25.1394C50.7366 24.8681 50.5129 24.6554 50.2269 24.5014C49.9409 24.3401 49.6036 24.2595 49.2149 24.2595C48.8483 24.2595 48.5183 24.3365 48.2249 24.4905C47.9316 24.6371 47.7043 24.8461 47.5429 25.1174C47.3816 25.3815 47.3009 25.6895 47.3009 26.0415C47.3009 26.3935 47.3816 26.7161 47.5429 27.0095C47.7116 27.2955 47.9389 27.5228 48.2249 27.6915C48.5183 27.8601 48.8556 27.9445 49.2369 27.9445ZM56.2231 28.8025C55.6365 28.8025 55.1158 28.6741 54.6611 28.4175C54.2065 28.1608 53.8471 27.8088 53.5831 27.3615C53.3191 26.9068 53.1871 26.3935 53.1871 25.8215C53.1871 25.2421 53.3191 24.7288 53.5831 24.2814C53.8471 23.8341 54.2065 23.4858 54.6611 23.2365C55.1158 22.9798 55.6365 22.8514 56.2231 22.8514C56.8025 22.8514 57.3195 22.9798 57.7741 23.2365C58.2361 23.4858 58.5955 23.8341 58.8521 24.2814C59.1161 24.7214 59.2481 25.2348 59.2481 25.8215C59.2481 26.4008 59.1161 26.9141 58.8521 27.3615C58.5955 27.8088 58.2361 28.1608 57.7741 28.4175C57.3195 28.6741 56.8025 28.8025 56.2231 28.8025ZM56.2231 27.8785C56.5971 27.8785 56.9308 27.7941 57.2241 27.6255C57.5248 27.4568 57.7595 27.2185 57.9281 26.9105C58.0968 26.5951 58.1811 26.2321 58.1811 25.8215C58.1811 25.4034 58.0968 25.0441 57.9281 24.7435C57.7595 24.4354 57.5248 24.1971 57.2241 24.0284C56.9308 23.8598 56.5971 23.7754 56.2231 23.7754C55.8491 23.7754 55.5155 23.8598 55.2221 24.0284C54.9288 24.1971 54.6941 24.4354 54.5181 24.7435C54.3421 25.0441 54.2541 25.4034 54.2541 25.8215C54.2541 26.2321 54.3421 26.5951 54.5181 26.9105C54.6941 27.2185 54.9288 27.4568 55.2221 27.6255C55.5155 27.7941 55.8491 27.8785 56.2231 27.8785ZM61.7132 28.7365V23.5555L61.9772 23.8305H59.5792V22.9064H64.9032V23.8305H62.5162L62.7692 23.5555V28.7365H61.7132ZM70.207 28.7365L67.952 25.8985L68.821 25.3704L71.45 28.7365H70.207ZM65.983 28.7365V22.9064H67.039V28.7365H65.983ZM66.72 26.2725V25.3704H68.645V26.2725H66.72ZM68.909 25.9425L67.93 25.8105L70.163 22.9064H71.296L68.909 25.9425ZM74.9598 28.8025C74.3365 28.8025 73.7865 28.6741 73.3098 28.4175C72.8405 28.1608 72.4738 27.8088 72.2098 27.3615C71.9532 26.9141 71.8248 26.4008 71.8248 25.8215C71.8248 25.2421 71.9495 24.7288 72.1988 24.2814C72.4555 23.8341 72.8038 23.4858 73.2438 23.2365C73.6912 22.9798 74.1935 22.8514 74.7508 22.8514C75.3155 22.8514 75.8142 22.9761 76.2468 23.2254C76.6795 23.4748 77.0168 23.8268 77.2588 24.2814C77.5082 24.7288 77.6328 25.2531 77.6328 25.8544C77.6328 25.8985 77.6292 25.9498 77.6218 26.0085C77.6218 26.0671 77.6182 26.1221 77.6108 26.1735H72.6498V25.4145H77.0608L76.6318 25.6784C76.6392 25.3044 76.5622 24.9708 76.4008 24.6775C76.2395 24.3841 76.0158 24.1568 75.7298 23.9954C75.4512 23.8268 75.1248 23.7424 74.7508 23.7424C74.3842 23.7424 74.0578 23.8268 73.7718 23.9954C73.4858 24.1568 73.2622 24.3878 73.1008 24.6884C72.9395 24.9818 72.8588 25.3191 72.8588 25.7004V25.8764C72.8588 26.2651 72.9468 26.6135 73.1228 26.9215C73.3062 27.2221 73.5592 27.4568 73.8818 27.6255C74.2045 27.7941 74.5748 27.8785 74.9928 27.8785C75.3375 27.8785 75.6492 27.8198 75.9278 27.7025C76.2138 27.5851 76.4632 27.4091 76.6758 27.1745L77.2588 27.8565C76.9948 28.1645 76.6648 28.3991 76.2688 28.5605C75.8802 28.7218 75.4438 28.8025 74.9598 28.8025Z" fill="#B1ACCE"/>
</svg>
