<svg width="23" height="23" viewBox="0 0 23 23" fill="none" xmlns="http://www.w3.org/2000/svg">
<g clip-path="url(#clip0_4761_7684)">
<path d="M11.5 23C17.8513 23 23 17.8513 23 11.5C23 5.14873 17.8513 0 11.5 0C5.14873 0 0 5.14873 0 11.5C0 17.8513 5.14873 23 11.5 23Z" fill="#5865F2"/>
<path d="M15.4852 7.83887C14.7395 7.49666 13.9527 7.25264 13.1443 7.11293C13.1369 7.11153 13.1293 7.11249 13.1225 7.11568C13.1158 7.11887 13.1102 7.12412 13.1065 7.13068C12.9992 7.32524 12.9017 7.5251 12.8146 7.72949C11.9432 7.59715 11.0569 7.59715 10.1855 7.72949C10.0979 7.52459 9.99908 7.32468 9.88946 7.13068C9.8857 7.12425 9.88008 7.11912 9.87335 7.11595C9.86661 7.11278 9.85907 7.11173 9.85173 7.11293C9.04355 7.25241 8.25696 7.49644 7.51175 7.83887C7.50533 7.84157 7.49991 7.8462 7.49625 7.85212C6.00552 10.0796 5.59718 12.2522 5.79753 14.3975C5.7981 14.4027 5.79973 14.4078 5.80231 14.4125C5.8049 14.4171 5.80839 14.4212 5.81258 14.4244C6.68066 15.0675 7.65168 15.5583 8.68421 15.8761C8.69149 15.8782 8.69927 15.8781 8.7065 15.8758C8.71373 15.8734 8.72005 15.8689 8.72464 15.8628C8.94634 15.561 9.14279 15.2414 9.31199 14.9073C9.3143 14.9027 9.31561 14.8977 9.31584 14.8926C9.31607 14.8875 9.31522 14.8823 9.31333 14.8776C9.31144 14.8728 9.30857 14.8685 9.30489 14.8649C9.30121 14.8613 9.29682 14.8586 9.292 14.8568C8.98217 14.7384 8.6822 14.5958 8.39491 14.43C8.3897 14.427 8.38532 14.4227 8.38216 14.4175C8.37901 14.4123 8.37717 14.4065 8.37681 14.4004C8.37646 14.3944 8.3776 14.3884 8.38013 14.3829C8.38266 14.3774 8.3865 14.3726 8.39132 14.3689C8.45151 14.324 8.51193 14.2768 8.56943 14.2292C8.57454 14.225 8.58071 14.2224 8.58726 14.2215C8.59381 14.2206 8.60047 14.2216 8.60649 14.2243C10.4885 15.0836 12.5262 15.0836 14.3859 14.2243C14.392 14.2214 14.3988 14.2203 14.4054 14.2211C14.4121 14.2219 14.4184 14.2245 14.4237 14.2288C14.4812 14.2762 14.5416 14.3238 14.6033 14.3689C14.6082 14.3726 14.6121 14.3773 14.6146 14.3828C14.6172 14.3883 14.6184 14.3943 14.6181 14.4003C14.6177 14.4064 14.616 14.4122 14.6128 14.4174C14.6097 14.4226 14.6054 14.4269 14.6002 14.43C14.3133 14.5973 14.0127 14.7401 13.7018 14.8568C13.6969 14.8586 13.6925 14.8615 13.6888 14.8651C13.6852 14.8688 13.6823 14.8732 13.6805 14.878C13.6786 14.8828 13.6778 14.888 13.6781 14.8932C13.6784 14.8984 13.6798 14.9034 13.6822 14.908C13.8542 15.2403 14.0504 15.5595 14.2691 15.863C14.2736 15.8693 14.2799 15.874 14.2871 15.8764C14.2944 15.8789 14.3022 15.879 14.3096 15.8767C15.3435 15.5599 16.3158 15.069 17.1846 14.4251C17.1888 14.422 17.1923 14.418 17.1949 14.4135C17.1975 14.4089 17.1991 14.4038 17.1996 14.3986C17.4395 11.918 16.798 9.7631 15.4993 7.85302C15.4964 7.84678 15.4914 7.84177 15.4852 7.83887ZM9.59275 13.0914C9.02606 13.0914 8.55955 12.5712 8.55955 11.9324C8.55955 11.2936 9.0173 10.7734 9.59275 10.7734C10.1729 10.7734 10.6354 11.2981 10.626 11.9324C10.6264 12.5712 10.1684 13.0914 9.59275 13.0914ZM13.414 13.0914C12.8473 13.0914 12.3808 12.5712 12.3808 11.9324C12.3808 11.2936 12.8386 10.7734 13.414 10.7734C13.9942 10.7734 14.4567 11.2981 14.4472 11.9324C14.4475 12.5712 13.9942 13.0914 13.414 13.0914Z" fill="white"/>
</g>
<defs>
<clipPath id="clip0_4761_7684">
<rect width="23" height="23" fill="white"/>
</clipPath>
</defs>
</svg>
