<svg width="112" height="36" viewBox="0 0 112 36" fill="none" xmlns="http://www.w3.org/2000/svg">
<path d="M32 4H28.4699L27 4.72346L25.5301 4H18.6111L17.7778 4.41016L15 9.97434L17.7778 14.5123L27 21.3359L26.1667 27.0781H22.8333L20.6731 24.5792L20.2276 22.7982L18.5128 22.0803L17.7778 21.2302L16.1111 25.9822L17.7778 32L19.2477 31.2765L20.7177 32H32V20.894L31.2651 19.447L32 18V4ZM27 16.3047L19.5 8.92188H24.5L27 11.3828V16.3047Z" fill="#D5011D"/>
<path d="M8.92188 10.5625L10.5625 8.92188L18 14.5123V4.41016L17.1797 4.82031H12.6451L11.0045 4H4V17.1797L4.82031 18.8203V23.3549L4 24.9955V32H18V21.2302L8.92188 10.5625ZM11.3828 27.0781L8.92188 24.6172V19.6953L16.3047 27.0781H11.3828Z" fill="#FF4B37"/>
<path d="M57.4835 24.5V11.9884H63.1674C64.5258 11.9884 65.7233 12.2505 66.76 12.7748C67.7967 13.2872 68.6069 14.0081 69.1908 14.9376C69.7747 15.867 70.0666 16.9692 70.0666 18.2442C70.0666 19.5073 69.7747 20.6095 69.1908 21.5508C68.6069 22.4803 67.7967 23.2071 66.76 23.7314C65.7233 24.2438 64.5258 24.5 63.1674 24.5H57.4835ZM60.3791 22.1228H63.0244C63.8585 22.1228 64.5794 21.9679 65.1871 21.6581C65.8067 21.3363 66.2834 20.8835 66.617 20.2997C66.9626 19.7158 67.1353 19.0306 67.1353 18.2442C67.1353 17.4458 66.9626 16.7607 66.617 16.1887C66.2834 15.6048 65.8067 15.158 65.1871 14.8482C64.5794 14.5265 63.8585 14.3656 63.0244 14.3656H60.3791V22.1228ZM76.6294 24.643C75.6046 24.643 74.693 24.4285 73.8947 23.9995C73.1082 23.5706 72.4827 22.9867 72.0179 22.2479C71.5651 21.4972 71.3387 20.6452 71.3387 19.692C71.3387 18.7268 71.5651 17.8748 72.0179 17.136C72.4827 16.3853 73.1082 15.8014 73.8947 15.3844C74.693 14.9554 75.6046 14.7409 76.6294 14.7409C77.6422 14.7409 78.5478 14.9554 79.3462 15.3844C80.1445 15.8014 80.7701 16.3794 81.2229 17.1181C81.6757 17.8569 81.9021 18.7149 81.9021 19.692C81.9021 20.6452 81.6757 21.4972 81.2229 22.2479C80.7701 22.9867 80.1445 23.5706 79.3462 23.9995C78.5478 24.4285 77.6422 24.643 76.6294 24.643ZM76.6294 22.3552C77.0941 22.3552 77.5111 22.2479 77.8805 22.0334C78.2499 21.8189 78.5419 21.5151 78.7563 21.1219C78.9708 20.7167 79.0781 20.2401 79.0781 19.692C79.0781 19.1319 78.9708 18.6553 78.7563 18.2621C78.5419 17.8688 78.2499 17.565 77.8805 17.3505C77.5111 17.136 77.0941 17.0288 76.6294 17.0288C76.1646 17.0288 75.7476 17.136 75.3782 17.3505C75.0088 17.565 74.7109 17.8688 74.4845 18.2621C74.27 18.6553 74.1628 19.1319 74.1628 19.692C74.1628 20.2401 74.27 20.7167 74.4845 21.1219C74.7109 21.5151 75.0088 21.8189 75.3782 22.0334C75.7476 22.2479 76.1646 22.3552 76.6294 22.3552ZM87.6981 24.643C86.5661 24.643 85.6843 24.357 85.0528 23.7851C84.4212 23.2012 84.1055 22.3373 84.1055 21.1934V12.757H86.8938V21.1576C86.8938 21.5627 87.001 21.8785 87.2155 22.1049C87.43 22.3194 87.7219 22.4266 88.0913 22.4266C88.5322 22.4266 88.9075 22.3075 89.2174 22.0692L89.9681 24.0353C89.6821 24.2379 89.3365 24.3928 88.9314 24.5C88.5382 24.5953 88.1271 24.643 87.6981 24.643ZM82.622 17.2433V15.0984H89.2889V17.2433H82.622ZM97.4316 24.5V22.6233L97.2529 22.2122V18.8519C97.2529 18.2561 97.0682 17.7914 96.6988 17.4577C96.3413 17.1241 95.7872 16.9573 95.0365 16.9573C94.5241 16.9573 94.0177 17.0407 93.5173 17.2075C93.0287 17.3624 92.6116 17.5769 92.2661 17.851L91.2652 15.9027C91.7895 15.5333 92.421 15.2474 93.1598 15.0448C93.8986 14.8422 94.6493 14.7409 95.4119 14.7409C96.8775 14.7409 98.0155 15.0865 98.8258 15.7776C99.636 16.4687 100.041 17.5471 100.041 19.0128V24.5H97.4316ZM94.5003 24.643C93.7496 24.643 93.1062 24.5179 92.5699 24.2676C92.0337 24.0055 91.6226 23.654 91.3367 23.2131C91.0507 22.7722 90.9077 22.2777 90.9077 21.7296C90.9077 21.1576 91.0447 20.6571 91.3188 20.2282C91.6048 19.7992 92.0516 19.4656 92.6593 19.2272C93.267 18.977 94.0594 18.8519 95.0365 18.8519H97.5925V20.4784H95.3404C94.685 20.4784 94.2322 20.5857 93.982 20.8001C93.7437 21.0146 93.6245 21.2827 93.6245 21.6045C93.6245 21.9619 93.7615 22.2479 94.0356 22.4624C94.3216 22.665 94.7088 22.7662 95.1974 22.7662C95.6621 22.7662 96.0792 22.659 96.4485 22.4445C96.8179 22.2181 97.086 21.8904 97.2529 21.4615L97.6818 22.7484C97.4793 23.368 97.1099 23.8387 96.5737 24.1604C96.0374 24.4821 95.3463 24.643 94.5003 24.643ZM101.78 24.5V22.6233L106.606 18.0655C106.988 17.7199 107.268 17.4101 107.446 17.136C107.625 16.862 107.744 16.6117 107.804 16.3853C107.875 16.1589 107.911 15.9504 107.911 15.7597C107.911 15.2593 107.738 14.878 107.393 14.6158C107.059 14.3418 106.565 14.2047 105.909 14.2047C105.385 14.2047 104.896 14.306 104.444 14.5086C104.003 14.7112 103.627 15.0269 103.318 15.4559L101.208 14.0975C101.685 13.3825 102.352 12.8165 103.21 12.3995C104.068 11.9824 105.057 11.7739 106.177 11.7739C107.107 11.7739 107.917 11.9288 108.608 12.2386C109.311 12.5365 109.853 12.9595 110.235 13.5077C110.628 14.0558 110.824 14.7112 110.824 15.4738C110.824 15.8789 110.771 16.284 110.664 16.6892C110.568 17.0824 110.366 17.4995 110.056 17.9403C109.758 18.3812 109.317 18.8757 108.733 19.4239L104.73 23.1952L104.175 22.1407H111.236V24.5H101.78Z" fill="#26292D"/>
</svg>
