<svg width="34" height="41" viewBox="0 0 34 41" fill="none" xmlns="http://www.w3.org/2000/svg">
<path d="M16.8388 8.22805L11.9272 11.0099C10.819 11.6376 10.2649 11.9514 10.1204 12.4894C9.97602 13.0274 10.2987 13.5757 10.944 14.6722L11.7383 16.0218C12.3663 17.089 12.6804 17.6226 13.2082 17.7637C13.7361 17.9049 14.2754 17.5994 15.3539 16.9886L20.3344 14.1677M9.92342 12.9372L5.07977 15.6806C3.93811 16.3273 3.36728 16.6506 3.21738 17.1994C3.06748 17.7482 3.39705 18.3082 4.05619 19.4282C4.71533 20.5482 5.0449 21.1082 5.60433 21.2552C6.16377 21.4023 6.7346 21.079 7.87626 20.4323L12.7199 17.6889M28.9738 6.8992L27.5755 4.52335C26.9164 3.40337 26.5868 2.84337 26.0274 2.69632C25.4679 2.54926 24.8971 2.87258 23.7554 3.5192L18.8439 6.30107C17.7357 6.92875 17.1815 7.24259 17.0371 7.78059C16.8927 8.31858 17.2154 8.86685 17.8607 9.96339L19.3541 12.5009C19.9821 13.5681 20.2962 14.1017 20.824 14.2428C21.3519 14.3839 21.8912 14.0785 22.9697 13.4676L27.9502 10.6467C29.0918 10.0001 29.6627 9.67681 29.8126 9.128C29.9625 8.57918 29.6329 8.01919 28.9738 6.8992Z" stroke="#8E8BFF" stroke-width="2" stroke-linecap="round" stroke-linejoin="round"/>
<path opacity="0.5" d="M21.8483 27.6775L16.515 19.1614L11.1816 27.6775" stroke="#8E8BFF" stroke-width="1.83158" stroke-linecap="round" stroke-linejoin="round"/>
<path d="M7.12 33V40H6.14V33.87H2.08V40H1.09V33H7.12ZM11.4129 40.06C10.8862 40.06 10.4129 39.9433 9.99289 39.71C9.57289 39.4767 9.24289 39.1567 9.00289 38.75C8.76956 38.3367 8.65289 37.87 8.65289 37.35C8.65289 36.83 8.76956 36.3667 9.00289 35.96C9.24289 35.5467 9.57289 35.2267 9.99289 35C10.4129 34.7667 10.8862 34.65 11.4129 34.65C11.9396 34.65 12.4096 34.7667 12.8229 35C13.2429 35.2267 13.5696 35.5467 13.8029 35.96C14.0429 36.3667 14.1629 36.83 14.1629 37.35C14.1629 37.87 14.0429 38.3367 13.8029 38.75C13.5696 39.1567 13.2429 39.4767 12.8229 39.71C12.4096 39.9433 11.9396 40.06 11.4129 40.06ZM11.4129 39.22C11.7529 39.22 12.0562 39.1433 12.3229 38.99C12.5962 38.83 12.8096 38.61 12.9629 38.33C13.1162 38.0433 13.1929 37.7167 13.1929 37.35C13.1929 36.9833 13.1162 36.66 12.9629 36.38C12.8096 36.0933 12.5962 35.8733 12.3229 35.72C12.0562 35.5667 11.7529 35.49 11.4129 35.49C11.0729 35.49 10.7662 35.5667 10.4929 35.72C10.2262 35.8733 10.0129 36.0933 9.85289 36.38C9.69956 36.66 9.62289 36.9833 9.62289 37.35C9.62289 37.7167 9.69956 38.0433 9.85289 38.33C10.0129 38.61 10.2262 38.83 10.4929 38.99C10.7662 39.1433 11.0729 39.22 11.4129 39.22ZM15.5491 34.7H16.5091V38.56L19.7591 34.7H20.6291V40H19.6691V36.14L16.4291 40H15.5491V34.7ZM24.8025 40.06C24.2625 40.06 23.7792 39.9433 23.3525 39.71C22.9325 39.4767 22.6025 39.1567 22.3625 38.75C22.1225 38.3367 22.0025 37.87 22.0025 37.35C22.0025 36.83 22.1225 36.3667 22.3625 35.96C22.6025 35.5467 22.9325 35.2267 23.3525 35C23.7792 34.7667 24.2625 34.65 24.8025 34.65C25.2825 34.65 25.7092 34.7467 26.0825 34.94C26.4625 35.1333 26.7558 35.4133 26.9625 35.78L26.2325 36.25C26.0658 35.9967 25.8592 35.8067 25.6125 35.68C25.3658 35.5533 25.0925 35.49 24.7925 35.49C24.4458 35.49 24.1325 35.5667 23.8525 35.72C23.5792 35.8733 23.3625 36.0933 23.2025 36.38C23.0492 36.66 22.9725 36.9833 22.9725 37.35C22.9725 37.7233 23.0492 38.0533 23.2025 38.34C23.3625 38.62 23.5792 38.8367 23.8525 38.99C24.1325 39.1433 24.4458 39.22 24.7925 39.22C25.0925 39.22 25.3658 39.1567 25.6125 39.03C25.8592 38.9033 26.0658 38.7133 26.2325 38.46L26.9625 38.92C26.7558 39.2867 26.4625 39.57 26.0825 39.77C25.7092 39.9633 25.2825 40.06 24.8025 40.06ZM30.2654 37.76H29.1654V40H28.2054V34.7H29.1654V36.94H30.2854L32.0054 34.7H33.0354L31.0254 37.25L33.1754 40H32.0454L30.2654 37.76Z" fill="#8E8BFF"/>
</svg>
