<svg width="34" height="41" viewBox="0 0 34 41" fill="none" xmlns="http://www.w3.org/2000/svg">
<path d="M16.8339 8.50236L11.7689 11.377C10.626 12.0256 10.0546 12.3499 9.90565 12.9058C9.75671 13.4617 10.0895 14.0283 10.755 15.1613L11.5741 16.5559C12.2217 17.6587 12.5456 18.21 13.0899 18.3559C13.6343 18.5017 14.1904 18.1861 15.3027 17.5549L20.4388 14.64M9.70246 13.3685L4.70745 16.2034C3.53011 16.8715 2.94144 17.2056 2.78686 17.7727C2.63228 18.3399 2.97214 18.9185 3.65188 20.0758C4.33161 21.2332 4.67148 21.8118 5.2484 21.9638C5.82532 22.1157 6.41399 21.7816 7.59132 21.1135L12.5863 18.2786M29.3481 7.12921L27.9062 4.67417C27.2265 3.51685 26.8866 2.93819 26.3097 2.78623C25.7327 2.63428 25.1441 2.96837 23.9667 3.63654L18.9017 6.51114C17.7588 7.15975 17.1874 7.48405 17.0385 8.03998C16.8895 8.5959 17.2223 9.16245 17.8878 10.2955L19.4278 12.9176C20.0755 14.0204 20.3994 14.5717 20.9437 14.7176C21.4881 14.8634 22.0442 14.5478 23.1564 13.9166L28.2926 11.0017C29.4699 10.3335 30.0586 9.99941 30.2131 9.4323C30.3677 8.86519 30.0279 8.28653 29.3481 7.12921Z" stroke="#B1ACCE" stroke-width="2" stroke-linecap="round" stroke-linejoin="round"/>
<path opacity="0.8" d="M22 28.6L16.5 19.8L11 28.6" stroke="white" stroke-width="1.83158" stroke-linecap="round" stroke-linejoin="round"/>
<path d="M7.12 33V40H6.14V33.87H2.08V40H1.09V33H7.12ZM11.4129 40.06C10.8862 40.06 10.4129 39.9433 9.99289 39.71C9.57289 39.4767 9.24289 39.1567 9.00289 38.75C8.76956 38.3367 8.65289 37.87 8.65289 37.35C8.65289 36.83 8.76956 36.3667 9.00289 35.96C9.24289 35.5467 9.57289 35.2267 9.99289 35C10.4129 34.7667 10.8862 34.65 11.4129 34.65C11.9396 34.65 12.4096 34.7667 12.8229 35C13.2429 35.2267 13.5696 35.5467 13.8029 35.96C14.0429 36.3667 14.1629 36.83 14.1629 37.35C14.1629 37.87 14.0429 38.3367 13.8029 38.75C13.5696 39.1567 13.2429 39.4767 12.8229 39.71C12.4096 39.9433 11.9396 40.06 11.4129 40.06ZM11.4129 39.22C11.7529 39.22 12.0562 39.1433 12.3229 38.99C12.5962 38.83 12.8096 38.61 12.9629 38.33C13.1162 38.0433 13.1929 37.7167 13.1929 37.35C13.1929 36.9833 13.1162 36.66 12.9629 36.38C12.8096 36.0933 12.5962 35.8733 12.3229 35.72C12.0562 35.5667 11.7529 35.49 11.4129 35.49C11.0729 35.49 10.7662 35.5667 10.4929 35.72C10.2262 35.8733 10.0129 36.0933 9.85289 36.38C9.69956 36.66 9.62289 36.9833 9.62289 37.35C9.62289 37.7167 9.69956 38.0433 9.85289 38.33C10.0129 38.61 10.2262 38.83 10.4929 38.99C10.7662 39.1433 11.0729 39.22 11.4129 39.22ZM15.5491 34.7H16.5091V38.56L19.7591 34.7H20.6291V40H19.6691V36.14L16.4291 40H15.5491V34.7ZM24.8025 40.06C24.2625 40.06 23.7792 39.9433 23.3525 39.71C22.9325 39.4767 22.6025 39.1567 22.3625 38.75C22.1225 38.3367 22.0025 37.87 22.0025 37.35C22.0025 36.83 22.1225 36.3667 22.3625 35.96C22.6025 35.5467 22.9325 35.2267 23.3525 35C23.7792 34.7667 24.2625 34.65 24.8025 34.65C25.2825 34.65 25.7092 34.7467 26.0825 34.94C26.4625 35.1333 26.7558 35.4133 26.9625 35.78L26.2325 36.25C26.0658 35.9967 25.8592 35.8067 25.6125 35.68C25.3658 35.5533 25.0925 35.49 24.7925 35.49C24.4458 35.49 24.1325 35.5667 23.8525 35.72C23.5792 35.8733 23.3625 36.0933 23.2025 36.38C23.0492 36.66 22.9725 36.9833 22.9725 37.35C22.9725 37.7233 23.0492 38.0533 23.2025 38.34C23.3625 38.62 23.5792 38.8367 23.8525 38.99C24.1325 39.1433 24.4458 39.22 24.7925 39.22C25.0925 39.22 25.3658 39.1567 25.6125 39.03C25.8592 38.9033 26.0658 38.7133 26.2325 38.46L26.9625 38.92C26.7558 39.2867 26.4625 39.57 26.0825 39.77C25.7092 39.9633 25.2825 40.06 24.8025 40.06ZM30.2654 37.76H29.1654V40H28.2054V34.7H29.1654V36.94H30.2854L32.0054 34.7H33.0354L31.0254 37.25L33.1754 40H32.0454L30.2654 37.76Z" fill="#B1ACCE"/>
</svg>
