<svg width="153" height="30" viewBox="0 0 153 30" fill="none" xmlns="http://www.w3.org/2000/svg">
<rect x="0.804688" width="152" height="30" rx="15" fill="#00D689"/>
<path d="M23.0647 10.2H24.8847V20H23.0647V10.2ZM17.9967 20H16.1767V10.2H17.9967V20ZM23.2047 15.8H17.8427V14.246H23.2047V15.8ZM31.9737 20V18.488L31.8757 18.166V15.52C31.8757 15.0067 31.7217 14.61 31.4137 14.33C31.1057 14.0407 30.6391 13.896 30.0137 13.896C29.5937 13.896 29.1784 13.9613 28.7677 14.092C28.3664 14.2227 28.0257 14.4047 27.7457 14.638L27.0597 13.364C27.4611 13.056 27.9371 12.8273 28.4877 12.678C29.0477 12.5193 29.6264 12.44 30.2237 12.44C31.3064 12.44 32.1417 12.7013 32.7297 13.224C33.3271 13.7373 33.6257 14.5353 33.6257 15.618V20H31.9737ZM29.6217 20.098C29.0617 20.098 28.5717 20.0047 28.1517 19.818C27.7317 19.622 27.4051 19.356 27.1717 19.02C26.9477 18.6747 26.8357 18.2873 26.8357 17.858C26.8357 17.438 26.9337 17.06 27.1297 16.724C27.3351 16.388 27.6664 16.122 28.1237 15.926C28.5811 15.73 29.1877 15.632 29.9437 15.632H32.1137V16.794H30.0697C29.4724 16.794 29.0711 16.892 28.8657 17.088C28.6604 17.2747 28.5577 17.508 28.5577 17.788C28.5577 18.1053 28.6837 18.3573 28.9357 18.544C29.1877 18.7307 29.5377 18.824 29.9857 18.824C30.4151 18.824 30.7977 18.726 31.1337 18.53C31.4791 18.334 31.7264 18.0447 31.8757 17.662L32.1697 18.712C32.0017 19.1507 31.6984 19.4913 31.2597 19.734C30.8304 19.9767 30.2844 20.098 29.6217 20.098ZM40.5092 17.046C40.1546 17.214 39.7766 17.354 39.3752 17.466C38.9832 17.5687 38.5679 17.62 38.1292 17.62C37.1866 17.62 36.4539 17.4007 35.9312 16.962C35.4086 16.5233 35.1472 15.842 35.1472 14.918V12.524H36.8972V14.806C36.8972 15.3007 37.0372 15.66 37.3172 15.884C37.6066 16.108 38.0032 16.22 38.5072 16.22C38.8432 16.22 39.1792 16.178 39.5152 16.094C39.8512 16.01 40.1826 15.8933 40.5092 15.744V17.046ZM40.3832 20V12.524H42.1332V20H40.3832ZM49.0225 20V18.488L48.9245 18.166V15.52C48.9245 15.0067 48.7705 14.61 48.4625 14.33C48.1545 14.0407 47.6879 13.896 47.0625 13.896C46.6425 13.896 46.2272 13.9613 45.8165 14.092C45.4152 14.2227 45.0745 14.4047 44.7945 14.638L44.1085 13.364C44.5099 13.056 44.9859 12.8273 45.5365 12.678C46.0965 12.5193 46.6752 12.44 47.2725 12.44C48.3552 12.44 49.1905 12.7013 49.7785 13.224C50.3759 13.7373 50.6745 14.5353 50.6745 15.618V20H49.0225ZM46.6705 20.098C46.1105 20.098 45.6205 20.0047 45.2005 19.818C44.7805 19.622 44.4539 19.356 44.2205 19.02C43.9965 18.6747 43.8845 18.2873 43.8845 17.858C43.8845 17.438 43.9825 17.06 44.1785 16.724C44.3839 16.388 44.7152 16.122 45.1725 15.926C45.6299 15.73 46.2365 15.632 46.9925 15.632H49.1625V16.794H47.1185C46.5212 16.794 46.1199 16.892 45.9145 17.088C45.7092 17.2747 45.6065 17.508 45.6065 17.788C45.6065 18.1053 45.7325 18.3573 45.9845 18.544C46.2365 18.7307 46.5865 18.824 47.0345 18.824C47.4639 18.824 47.8465 18.726 48.1825 18.53C48.5279 18.334 48.7752 18.0447 48.9245 17.662L49.2185 18.712C49.0505 19.1507 48.7472 19.4913 48.3085 19.734C47.8792 19.9767 47.3332 20.098 46.6705 20.098ZM54.3941 20V13.588L54.8001 14.008H51.7621V12.524H58.7621V14.008H55.7381L56.1441 13.588V20H54.3941ZM63.7835 14.988C64.7448 14.988 65.4775 15.2027 65.9815 15.632C66.4855 16.0613 66.7375 16.668 66.7375 17.452C66.7375 18.264 66.4575 18.8987 65.8975 19.356C65.3375 19.804 64.5488 20.0233 63.5315 20.014L60.0315 20V12.524H61.7815V14.974L63.7835 14.988ZM63.3775 18.726C63.8908 18.7353 64.2828 18.628 64.5535 18.404C64.8241 18.18 64.9595 17.8533 64.9595 17.424C64.9595 16.9947 64.8241 16.6867 64.5535 16.5C64.2921 16.304 63.9001 16.2013 63.3775 16.192L61.7815 16.178V18.712L63.3775 18.726ZM72.1448 20V12.524H79.3128V20H77.5768V13.602L77.9828 14.008H73.4888L73.8948 13.602V20H72.1448ZM85.006 20.098C84.2407 20.098 83.5594 19.9347 82.962 19.608C82.3647 19.272 81.8934 18.8147 81.548 18.236C81.2027 17.6573 81.03 16.9993 81.03 16.262C81.03 15.5153 81.2027 14.8573 81.548 14.288C81.8934 13.7093 82.3647 13.2567 82.962 12.93C83.5594 12.6033 84.2407 12.44 85.006 12.44C85.7807 12.44 86.4667 12.6033 87.064 12.93C87.6707 13.2567 88.142 13.7047 88.478 14.274C88.8234 14.8433 88.996 15.506 88.996 16.262C88.996 16.9993 88.8234 17.6573 88.478 18.236C88.142 18.8147 87.6707 19.272 87.064 19.608C86.4667 19.9347 85.7807 20.098 85.006 20.098ZM85.006 18.6C85.4354 18.6 85.818 18.5067 86.154 18.32C86.49 18.1333 86.7514 17.8627 86.938 17.508C87.134 17.1533 87.232 16.738 87.232 16.262C87.232 15.7767 87.134 15.3613 86.938 15.016C86.7514 14.6613 86.49 14.3907 86.154 14.204C85.818 14.0173 85.44 13.924 85.02 13.924C84.5907 13.924 84.208 14.0173 83.872 14.204C83.5454 14.3907 83.284 14.6613 83.088 15.016C82.892 15.3613 82.794 15.7767 82.794 16.262C82.794 16.738 82.892 17.1533 83.088 17.508C83.284 17.8627 83.5454 18.1333 83.872 18.32C84.208 18.5067 84.586 18.6 85.006 18.6ZM90.7248 20V12.524H92.4748V17.452L96.6048 12.524H98.2008V20H96.4508V15.072L92.3348 20H90.7248ZM103.957 20.098C103.173 20.098 102.473 19.9347 101.857 19.608C101.25 19.272 100.774 18.8147 100.429 18.236C100.084 17.6573 99.9109 16.9993 99.9109 16.262C99.9109 15.5153 100.084 14.8573 100.429 14.288C100.774 13.7093 101.25 13.2567 101.857 12.93C102.473 12.6033 103.173 12.44 103.957 12.44C104.685 12.44 105.324 12.5893 105.875 12.888C106.435 13.1773 106.86 13.6067 107.149 14.176L105.805 14.96C105.581 14.6053 105.306 14.344 104.979 14.176C104.662 14.008 104.316 13.924 103.943 13.924C103.514 13.924 103.126 14.0173 102.781 14.204C102.436 14.3907 102.165 14.6613 101.969 15.016C101.773 15.3613 101.675 15.7767 101.675 16.262C101.675 16.7473 101.773 17.1673 101.969 17.522C102.165 17.8673 102.436 18.1333 102.781 18.32C103.126 18.5067 103.514 18.6 103.943 18.6C104.316 18.6 104.662 18.516 104.979 18.348C105.306 18.18 105.581 17.9187 105.805 17.564L107.149 18.348C106.86 18.908 106.435 19.342 105.875 19.65C105.324 19.9487 104.685 20.098 103.957 20.098ZM114.052 20L111.35 16.416L112.778 15.534L116.11 20H114.052ZM108.69 20V12.524H110.44V20H108.69ZM109.922 17.004V15.548H112.456V17.004H109.922ZM112.946 16.472L111.308 16.276L114.052 12.524H115.928L112.946 16.472Z" fill="white"/>
<path d="M134.604 16.7432H134.048L133.851 16.5532C134.695 15.5677 135.132 14.2233 134.892 12.7944C134.562 10.8376 132.928 9.27496 130.958 9.03563C127.98 8.66961 125.474 11.1755 125.84 14.1529C126.08 16.1238 127.642 17.7568 129.599 18.0877C131.028 18.327 132.372 17.8906 133.358 17.0459L133.548 17.243V17.7991L136.539 20.7906C136.828 21.0792 137.3 21.0792 137.588 20.7906C137.877 20.502 137.877 20.0304 137.588 19.7418L134.604 16.7432ZM130.38 16.7432C128.628 16.7432 127.213 15.3284 127.213 13.5757C127.213 11.823 128.628 10.4082 130.38 10.4082C132.133 10.4082 133.548 11.823 133.548 13.5757C133.548 15.3284 132.133 16.7432 130.38 16.7432Z" fill="white"/>
</svg>
