<svg width="34" height="33" viewBox="0 0 34 33" fill="none" xmlns="http://www.w3.org/2000/svg">
<g clip-path="url(#clip0_2452_3523)">
<path d="M17.3346 32.8889C26.4155 32.8889 33.7766 25.5278 33.7766 16.4469C33.7766 7.36598 26.4155 0.00488281 17.3346 0.00488281C8.25367 0.00488281 0.892578 7.36598 0.892578 16.4469C0.902991 25.5229 8.25861 32.8785 17.3346 32.8889ZM17.3346 1.10102C25.8099 1.10102 32.6805 7.97159 32.6805 16.4469C32.6805 24.9222 25.8099 31.7928 17.3346 31.7928C8.85929 31.7928 1.98871 24.9222 1.98871 16.4469C1.99858 7.97543 8.86312 1.11088 17.3346 1.10102Z" fill="#2F80ED"/>
<path d="M9.86298 25.8988C11.9875 27.588 14.6217 28.5076 17.3359 28.5076C20.0501 28.5076 22.6842 27.588 24.8088 25.8988C32.2006 19.6919 30.1015 9.17835 22.5069 5.55727C20.8903 4.79104 19.1237 4.39355 17.3348 4.39355C15.5458 4.39355 13.7792 4.79104 12.1627 5.55727C4.49082 9.21617 2.53367 19.7445 9.86298 25.8988ZM12.4033 12.0623C12.5486 12.0623 12.688 12.0045 12.7908 11.9018C12.8936 11.799 12.9513 11.6596 12.9513 11.5142V6.40732C13.4835 6.17713 14.0332 5.98914 14.5955 5.8461V13.0296C14.0826 13.4393 13.6685 13.9592 13.384 14.5508C13.0994 15.1423 12.9516 15.7904 12.9516 16.4468C12.9516 17.1033 13.0994 17.7513 13.384 18.3429C13.6685 18.9344 14.0826 19.4543 14.5955 19.864V27.0475C14.2243 26.9517 13.8584 26.8362 13.4994 26.7017V24.6678C13.4994 24.5225 13.4417 24.3831 13.3389 24.2803C13.2361 24.1775 13.0967 24.1198 12.9513 24.1198C12.806 24.1198 12.6666 24.1775 12.5638 24.2803C12.461 24.3831 12.4033 24.5225 12.4033 24.6678V26.2222C11.826 25.9289 11.2758 25.5852 10.7591 25.1951V7.69857C11.1098 7.4333 11.4754 7.18996 11.8552 6.96854V11.5142C11.8552 11.6596 11.9129 11.799 12.0157 11.9018C12.1185 12.0045 12.2579 12.0623 12.4033 12.0623ZM22.2685 9.87001C22.4138 9.87001 22.5532 9.81227 22.656 9.70949C22.7588 9.6067 22.8166 9.4673 22.8166 9.32194V6.96854C23.1964 7.18996 23.5619 7.4333 23.9127 7.69857V25.1951C23.396 25.5852 22.8457 25.9289 22.2685 26.2222V21.9275C22.2685 21.7821 22.2107 21.6427 22.108 21.54C22.0052 21.4372 21.8658 21.3794 21.7204 21.3794C21.5751 21.3794 21.4357 21.4372 21.3329 21.54C21.2301 21.6427 21.1724 21.7821 21.1724 21.9275V26.7017C20.8134 26.836 20.4473 26.9516 20.0762 27.0475V19.864C20.5891 19.4543 21.0032 18.9344 21.2878 18.3429C21.5724 17.7513 21.7202 17.1033 21.7202 16.4468C21.7202 15.7904 21.5724 15.1423 21.2878 14.5508C21.0032 13.9592 20.5891 13.4393 20.0762 13.0296V5.8461C20.6385 5.98914 21.1882 6.17658 21.7204 6.40732V9.32194C21.7204 9.4673 21.7782 9.6067 21.8809 9.70949C21.9837 9.81227 22.1231 9.87001 22.2685 9.87001ZM17.3359 24.1198C17.1905 24.1198 17.0511 24.1775 16.9483 24.2803C16.8456 24.3831 16.7878 24.5225 16.7878 24.6678V27.3802C16.4206 27.3621 16.055 27.3254 15.6917 27.2706V20.5086C16.7455 20.9391 17.9262 20.9391 18.9801 20.5086V27.2712C18.6167 27.326 18.2512 27.3627 17.8839 27.3808V24.6678C17.8839 24.5225 17.8262 24.3831 17.7234 24.2803C17.6206 24.1775 17.4812 24.1198 17.3359 24.1198ZM20.6243 16.4468C20.6243 17.319 20.2778 18.1554 19.6611 18.7721C19.0444 19.3888 18.208 19.7352 17.3359 19.7352C16.4637 19.7352 15.6273 19.3888 15.0106 18.7721C14.3939 18.1554 14.0475 17.319 14.0475 16.4468C14.0475 15.5747 14.3939 14.7383 15.0106 14.1216C15.6273 13.5049 16.4637 13.1584 17.3359 13.1584C18.208 13.1584 19.0444 13.5049 19.6611 14.1216C20.2778 14.7383 20.6243 15.5747 20.6243 16.4468ZM27.2011 21.1931V18.091C27.2011 17.9457 27.1434 17.8063 27.0406 17.7035C26.9378 17.6007 26.7984 17.543 26.653 17.543C26.5077 17.543 26.3683 17.6007 26.2655 17.7035C26.1627 17.8063 26.105 17.9457 26.105 18.091V22.9957C25.7719 23.4447 25.4055 23.8679 25.0088 24.2617V8.63193C26.6473 10.23 27.741 12.3036 28.1345 14.5583C28.528 16.813 28.2014 19.1344 27.2011 21.1931ZM18.9801 5.62249V12.3851C17.9262 11.9546 16.7455 11.9546 15.6917 12.3851V5.62249C16.7802 5.43998 17.8915 5.43998 18.9801 5.62249ZM9.66294 8.63193V24.2617C9.26623 23.8679 8.89981 23.4447 8.5668 22.9957V19.1872C8.5668 19.0418 8.50906 18.9024 8.40628 18.7996C8.30349 18.6968 8.16409 18.6391 8.01873 18.6391C7.87338 18.6391 7.73397 18.6968 7.63119 18.7996C7.52841 18.9024 7.47067 19.0418 7.47067 19.1872V21.1931C6.47052 19.1344 6.14404 16.813 6.53755 14.5583C6.93105 12.3037 8.02456 10.2301 9.66294 8.63193Z" fill="#2F80ED"/>
<path d="M17.3332 3.29316C17.6359 3.29316 17.8813 3.04778 17.8813 2.74509C17.8813 2.4424 17.6359 2.19702 17.3332 2.19702C17.0305 2.19702 16.7852 2.4424 16.7852 2.74509C16.7852 3.04778 17.0305 3.29316 17.3332 3.29316Z" fill="#2F80ED"/>
<path d="M11.0151 4.72278C11.0935 4.43042 10.9201 4.12986 10.6277 4.05147C10.3353 3.97308 10.0348 4.14653 9.9564 4.43889C9.878 4.73126 10.0515 5.03181 10.3438 5.1102C10.6362 5.1886 10.9367 5.01514 11.0151 4.72278Z" fill="#2F80ED"/>
<path d="M5.6116 10.1255C5.904 10.0472 6.07762 9.74677 5.99938 9.45436C5.92114 9.16196 5.62067 8.98835 5.32827 9.06659C5.03587 9.14483 4.86225 9.44529 4.94049 9.73769C5.01873 10.0301 5.3192 10.2037 5.6116 10.1255Z" fill="#2F80ED"/>
<path d="M3.63205 16.9948C3.93474 16.9948 4.18012 16.7494 4.18012 16.4467C4.18012 16.1441 3.93474 15.8987 3.63205 15.8987C3.32936 15.8987 3.08398 16.1441 3.08398 16.4467C3.08398 16.7494 3.32936 16.9948 3.63205 16.9948Z" fill="#2F80ED"/>
<path d="M6.00146 23.4435C6.07985 23.1511 5.9064 22.8506 5.61403 22.7722C5.32167 22.6938 5.02112 22.8672 4.94272 23.1596C4.86433 23.452 5.03779 23.7525 5.33015 23.8309C5.62251 23.9093 5.92307 23.7358 6.00146 23.4435Z" fill="#2F80ED"/>
<path d="M10.6311 28.8428C10.9235 28.7645 11.0971 28.4641 11.0189 28.1716C10.9407 27.8792 10.6402 27.7056 10.3478 27.7839C10.0554 27.8621 9.88179 28.1626 9.96002 28.455C10.0383 28.7474 10.3387 28.921 10.6311 28.8428Z" fill="#2F80ED"/>
<path d="M17.3332 30.6967C17.6359 30.6967 17.8813 30.4513 17.8813 30.1487C17.8813 29.846 17.6359 29.6006 17.3332 29.6006C17.0305 29.6006 16.7852 29.846 16.7852 30.1487C16.7852 30.4513 17.0305 30.6967 17.3332 30.6967Z" fill="#2F80ED"/>
<path d="M24.7202 28.4581C24.7986 28.1658 24.6251 27.8652 24.3328 27.7868C24.0404 27.7084 23.7399 27.8819 23.6615 28.1742C23.5831 28.4666 23.7565 28.7672 24.0489 28.8456C24.3413 28.9239 24.6418 28.7505 24.7202 28.4581Z" fill="#2F80ED"/>
<path d="M29.3499 23.8237C29.6423 23.7455 29.8159 23.445 29.7377 23.1526C29.6594 22.8602 29.359 22.6866 29.0666 22.7648C28.7741 22.8431 28.6005 23.1435 28.6788 23.4359C28.757 23.7283 29.0575 23.902 29.3499 23.8237Z" fill="#2F80ED"/>
<path d="M31.0383 16.9951C31.341 16.9951 31.5864 16.7497 31.5864 16.447C31.5864 16.1443 31.341 15.8989 31.0383 15.8989C30.7356 15.8989 30.4902 16.1443 30.4902 16.447C30.4902 16.7497 30.7356 16.9951 31.0383 16.9951Z" fill="#2F80ED"/>
<path d="M29.7378 9.73718C29.8162 9.44482 29.6427 9.14427 29.3504 9.06587C29.058 8.98748 28.7574 9.16094 28.6791 9.4533C28.6007 9.74566 28.7741 10.0462 29.0665 10.1246C29.3588 10.203 29.6594 10.0295 29.7378 9.73718Z" fill="#2F80ED"/>
<path d="M24.3304 5.10594C24.6228 5.0277 24.7964 4.72723 24.7181 4.43483C24.6399 4.14243 24.3394 3.96882 24.047 4.04706C23.7546 4.12529 23.581 4.42576 23.6592 4.71816C23.7375 5.01057 24.0379 5.18418 24.3304 5.10594Z" fill="#2F80ED"/>
<path d="M15.1437 16.4468C15.1437 16.5921 15.2014 16.7315 15.3042 16.8343C15.407 16.9371 15.5464 16.9949 15.6917 16.9949C15.8371 16.9949 15.9765 16.9371 16.0793 16.8343C16.182 16.7315 16.2398 16.5921 16.2398 16.4468C16.2398 16.1561 16.3553 15.8773 16.5608 15.6717C16.7664 15.4661 17.0452 15.3507 17.3359 15.3507C17.4813 15.3507 17.6207 15.2929 17.7235 15.1901C17.8262 15.0873 17.884 14.9479 17.884 14.8026C17.884 13.656 15.1437 14.3565 15.1437 16.4468ZM12.9514 22.4755C13.0967 22.4755 13.2361 22.4178 13.3389 22.315C13.4417 22.2122 13.4994 22.0728 13.4994 21.9275V21.3794C13.4994 21.234 13.4417 21.0946 13.3389 20.9919C13.2361 20.8891 13.0967 20.8313 12.9514 20.8313C12.806 20.8313 12.6666 20.8891 12.5638 20.9919C12.4611 21.0946 12.4033 21.234 12.4033 21.3794V21.9275C12.4033 22.0728 12.4611 22.2122 12.5638 22.315C12.6666 22.4178 12.806 22.4755 12.9514 22.4755ZM8.01877 16.9949C8.16413 16.9949 8.30353 16.9371 8.40631 16.8343C8.5091 16.7315 8.56684 16.5921 8.56684 16.4468V15.8987C8.56684 15.7534 8.5091 15.614 8.40631 15.5112C8.30353 15.4084 8.16413 15.3507 8.01877 15.3507C7.87341 15.3507 7.73401 15.4084 7.63123 15.5112C7.52845 15.614 7.4707 15.7534 7.4707 15.8987V16.4468C7.4707 16.5921 7.52845 16.7315 7.63123 16.8343C7.73401 16.9371 7.87341 16.9949 8.01877 16.9949ZM17.3359 8.77384C17.4813 8.77384 17.6207 8.7161 17.7235 8.61332C17.8262 8.51053 17.884 8.37113 17.884 8.22577V7.67771C17.884 7.53235 17.8262 7.39295 17.7235 7.29016C17.6207 7.18738 17.4813 7.12964 17.3359 7.12964C17.1906 7.12964 17.0512 7.18738 16.9484 7.29016C16.8456 7.39295 16.7879 7.53235 16.7879 7.67771V8.22577C16.7879 8.37113 16.8456 8.51053 16.9484 8.61332C17.0512 8.7161 17.1906 8.77384 17.3359 8.77384ZM21.7205 12.0622C21.7205 12.2076 21.7782 12.347 21.881 12.4498C21.9838 12.5526 22.1232 12.6103 22.2685 12.6103C22.4139 12.6103 22.5533 12.5526 22.6561 12.4498C22.7589 12.347 22.8166 12.2076 22.8166 12.0622V11.5142C22.8166 11.3688 22.7589 11.2294 22.6561 11.1266C22.5533 11.0239 22.4139 10.9661 22.2685 10.9661C22.1232 10.9661 21.9838 11.0239 21.881 11.1266C21.7782 11.2294 21.7205 11.3688 21.7205 11.5142V12.0622ZM26.6531 15.8987C26.7984 15.8987 26.9378 15.841 27.0406 15.7382C27.1434 15.6354 27.2011 15.496 27.2011 15.3507V14.8026C27.2011 14.6572 27.1434 14.5178 27.0406 14.415C26.9378 14.3123 26.7984 14.2545 26.6531 14.2545C26.5077 14.2545 26.3683 14.3123 26.2655 14.415C26.1627 14.5178 26.105 14.6572 26.105 14.8026V15.3507C26.105 15.496 26.1627 15.6354 26.2655 15.7382C26.3683 15.841 26.5077 15.8987 26.6531 15.8987Z" fill="#2F80ED"/>
</g>
<defs>
<clipPath id="clip0_2452_3523">
<rect width="32.8841" height="32.8841" fill="white" transform="translate(0.892578 0.00488281)"/>
</clipPath>
</defs>
</svg>
