<svg width="37" height="37" viewBox="0 0 37 37" fill="none" xmlns="http://www.w3.org/2000/svg">
<path d="M32.8458 29.293C32.8368 29.284 32.8278 29.2749 32.8187 29.266L31.6678 28.1406L29.5687 26.0273L28.0124 24.4701L29.3921 23.0896C29.5139 22.967 29.5823 22.8012 29.5823 22.6284C29.5823 22.4555 29.5139 22.2897 29.3921 22.1671L27.9012 20.6754C27.7787 20.5535 27.6129 20.4851 27.4402 20.4851C27.2674 20.4851 27.1017 20.5535 26.9792 20.6754L26.4429 21.2119L24.2392 18.7453L32.9757 10.9202C33.0402 10.862 33.0926 10.7915 33.1296 10.7129C33.1667 10.6343 33.1877 10.549 33.1915 10.4622L33.5053 4.18771C33.5103 4.09616 33.496 4.00458 33.4633 3.91892C33.4307 3.83326 33.3804 3.75542 33.3157 3.69046C33.2508 3.62576 33.173 3.57543 33.0874 3.54275C33.0017 3.51006 32.9102 3.49574 32.8187 3.50072L26.5476 3.80823C26.4608 3.81199 26.3756 3.83303 26.297 3.8701C26.2184 3.90717 26.148 3.95953 26.0898 4.02414L18.5893 12.4381L11.0757 4.04369C11.0175 3.97908 10.9471 3.92671 10.8685 3.88964C10.7899 3.85257 10.7047 3.83154 10.6179 3.82778L4.34676 3.52027C4.25526 3.51529 4.16373 3.52961 4.07811 3.56229C3.9925 3.59498 3.9147 3.64531 3.84977 3.71001C3.78511 3.77497 3.73481 3.8528 3.70214 3.93847C3.66947 4.02413 3.65516 4.1157 3.66013 4.20725L3.97402 10.4817C3.97778 10.5686 3.9988 10.6538 4.03585 10.7324C4.07291 10.8111 4.12525 10.8815 4.18982 10.9397L12.9394 18.791L10.7422 21.2183L10.2059 20.6818C10.0834 20.56 9.91768 20.4916 9.74492 20.4916C9.57216 20.4916 9.40642 20.56 9.2839 20.6818L7.79295 22.1736C7.67116 22.2962 7.60279 22.462 7.60279 22.6348C7.60279 22.8077 7.67116 22.9735 7.79295 23.0961L9.17273 24.4766L7.60985 26.0272L4.34022 29.2986C3.40486 30.2381 3.4078 31.7585 4.34684 32.6943C4.79503 33.141 5.40132 33.3925 6.03389 33.3943C6.34842 33.3954 6.66005 33.3341 6.95075 33.2139C7.24146 33.0937 7.50548 32.9171 7.72756 32.6943L12.5274 27.8919L13.9072 29.2724C14.0297 29.3943 14.1954 29.4627 14.3682 29.4627C14.5409 29.4627 14.7067 29.3943 14.8292 29.2724L16.3202 27.7807C16.4419 27.6581 16.5103 27.4923 16.5103 27.3194C16.5103 27.1466 16.4419 26.9807 16.3202 26.8582L15.8101 26.2889L18.5893 23.8092L21.3685 26.2889L20.8322 26.8254C20.7104 26.948 20.6421 27.1139 20.6421 27.2867C20.6421 27.4596 20.7104 27.6254 20.8322 27.748L22.3232 29.2397C22.4457 29.3616 22.6115 29.43 22.7842 29.43C22.957 29.43 23.1227 29.3616 23.2452 29.2397L24.625 27.8592L26.1814 29.4164L28.287 31.5231L29.4248 32.6616C30.3546 33.6067 31.874 33.6188 32.8187 32.6886C33.7634 31.7585 33.7755 30.2381 32.8458 29.293ZM25.5013 22.1409L24.3504 23.2924L21.8916 20.8323L23.2452 19.6219L25.5013 22.1409ZM5.22956 10.1219L4.96799 4.8419L10.2452 5.10361L17.6738 13.4129L16.1567 15.1074L13.4102 12.3595C13.2851 12.2523 13.1242 12.1963 12.9596 12.2026C12.795 12.209 12.6389 12.2773 12.5224 12.3938C12.406 12.5103 12.3377 12.6665 12.3314 12.8312C12.325 12.9958 12.381 13.1568 12.4881 13.282L15.3196 16.0888L13.8156 17.7834L5.22956 10.1219ZM6.79244 31.7129C6.69137 31.8146 6.57113 31.8954 6.43869 31.9504C6.30625 32.0054 6.16422 32.0337 6.02081 32.0335C5.41936 31.9888 4.96791 31.4647 5.01262 30.863C5.03047 30.6223 5.12744 30.3943 5.28841 30.2146L5.94234 29.5603L7.47253 31.0717L6.79244 31.7129ZM8.38802 30.1164L6.88399 28.6051L8.0676 27.4208L9.61087 28.9649L8.38802 30.1164ZM10.5002 28.0031L8.95694 26.4591L10.0882 25.3991L11.6315 26.9432L10.5002 28.0031ZM14.3584 27.8265L12.9851 26.4525L10.5198 23.9859L9.17273 22.6316L9.73511 22.0689L14.9665 27.3031L14.3584 27.8265ZM14.8488 25.3337L13.6979 24.1822L24.6185 13.2558C24.6869 13.1972 24.7425 13.125 24.7818 13.0438C24.821 12.9627 24.8431 12.8742 24.8466 12.7841C24.85 12.694 24.8349 12.6042 24.802 12.5202C24.7691 12.4363 24.7193 12.36 24.6555 12.2963C24.5918 12.2325 24.5156 12.1826 24.4317 12.1497C24.3477 12.1168 24.2579 12.1016 24.1679 12.1051C24.0778 12.1086 23.9895 12.1307 23.9083 12.1699C23.8272 12.2092 23.7551 12.2648 23.6964 12.3333L12.7759 23.2597L11.625 22.1081L14.3061 19.1116L26.9007 5.11015L32.1779 4.84844L31.9163 10.1284L22.879 18.2087L14.8488 25.3337ZM19.5309 22.8933L20.9369 21.709L23.4414 24.2149L22.2905 25.3664L19.5309 22.8933ZM24.1084 26.446L22.7809 27.8592L22.2186 27.2965L27.45 22.0623L28.0124 22.625L26.6326 24.0055L24.1084 26.446ZM25.4947 26.9105L27.0903 25.3991L28.1824 26.4918L26.6391 28.0358L25.4947 26.9105ZM28.699 30.1164L27.5154 28.9322L29.0586 27.3881L30.2422 28.5723L28.699 30.1164ZM31.8901 31.7456L31.8378 31.7129C31.4058 32.125 30.7266 32.125 30.2946 31.7129L29.6406 31.0586L31.2166 29.5603L31.8705 30.2146C32.2931 30.6342 32.3018 31.3152 31.8901 31.7456Z" fill="#FF1A35"/>
</svg>
