<svg width="113" height="63" viewBox="0 0 113 63" fill="none" xmlns="http://www.w3.org/2000/svg">
<path d="M71.8115 8.87469C71.8069 7.84468 71.6262 6.8215 71.3036 5.84378C70.2926 2.79922 67.5064 0.734646 64.0226 0.595947H49.09C48.0538 0.600495 47.0244 0.780124 46.0408 1.103C42.9779 2.108 40.9008 4.87744 40.7613 8.34037C40.7087 9.62277 40.7544 20.796 40.7613 23.1834C40.7659 24.2135 40.9466 25.2366 41.2691 26.2144C42.2802 29.2589 45.0663 31.3235 48.5502 31.4622C49.8403 31.5145 61.0809 31.469 63.4828 31.4622C64.519 31.4576 65.5484 31.278 66.532 30.9574C69.5949 29.9524 71.6719 27.183 71.8115 23.7201C71.8641 22.4377 71.8183 11.2644 71.8115 8.87697V8.87469ZM49.5063 16.0575L57.103 4.7501V13.1516C57.103 14.7569 55.7946 16.0575 54.1796 16.0575H49.504H49.5063ZM56.291 16.0234V16.0348H56.2795V16.0234H56.291ZM55.3005 27.3649V18.6996C55.3005 17.2398 56.49 16.0575 57.9585 16.0575H62.8995L55.3028 27.3649H55.3005Z" fill="#8E8BFF"/>
<path d="M8.87237 61.885V53.4948L0.525391 40.2934H4.90133L10.7961 49.6704L16.2884 40.2934H20.3852L12.6581 53.4948V61.885H8.87237Z" fill="#26292D"/>
<path d="M27.4289 62.2239C26.3332 62.2239 25.297 62.0533 24.3271 61.7145C23.3549 61.3757 22.5017 60.8619 21.7674 60.1729C21.0331 59.484 20.4475 58.6154 20.0152 57.5672C19.5806 56.519 19.3633 55.2843 19.3633 53.8655V53.2493C19.3633 51.9124 19.5806 50.7414 20.0152 49.7341C20.4498 48.7268 21.0331 47.8878 21.7674 47.2193C22.5017 46.5508 23.3549 46.0484 24.3271 45.7073C25.2993 45.3685 26.3332 45.198 27.4289 45.198C28.5246 45.198 29.5585 45.3685 30.5307 45.7073C31.5029 46.0461 32.3561 46.5554 33.0904 47.233C33.8247 47.9106 34.4103 48.7496 34.8426 49.7477C35.2772 50.7459 35.4945 51.9124 35.4945 53.2493V53.8655C35.4945 55.2639 35.2772 56.4872 34.8426 57.5354C34.408 58.5836 33.8224 59.459 33.0904 60.157C32.3561 60.8573 31.5029 61.3757 30.5307 61.7145C29.5585 62.0533 28.5246 62.2239 27.4289 62.2239ZM27.4289 59.2634C28.0282 59.2634 28.607 59.1566 29.1674 58.9405C29.7255 58.7245 30.2128 58.4017 30.6268 57.9697C31.0408 57.5376 31.3725 56.9828 31.6196 56.303C31.8666 55.6254 31.9924 54.8114 31.9924 53.8655V53.2493C31.9924 52.3853 31.8689 51.635 31.6196 50.9983C31.3702 50.3617 31.0408 49.8319 30.6268 49.409C30.2128 48.9883 29.7278 48.6745 29.1674 48.4676C28.6092 48.263 28.0305 48.1584 27.4289 48.1584C26.8273 48.1584 26.2509 48.2607 25.6904 48.4676C25.1323 48.6745 24.6451 48.9883 24.231 49.409C23.817 49.8296 23.4853 50.3594 23.2383 50.9983C22.9912 51.635 22.8654 52.3853 22.8654 53.2493V53.8655C22.8654 54.8114 22.9889 55.6231 23.2383 56.303C23.4876 56.9806 23.817 57.5422 24.231 57.9833C24.6451 58.4267 25.13 58.7496 25.6904 58.9542C26.2486 59.1588 26.8273 59.2634 27.4289 59.2634Z" fill="#26292D"/>
<path d="M44.6507 62.2237C42.6857 62.2237 41.2103 61.6689 40.229 60.5571C39.2454 59.4475 38.7559 57.7399 38.7559 55.4366V45.5366H42.1688V55.0978C42.1688 56.4757 42.4524 57.5148 43.022 58.2128C43.5916 58.9131 44.5157 59.261 45.799 59.261C46.5012 59.261 47.1074 59.1428 47.6152 58.9063C48.1208 58.6698 48.5348 58.3606 48.8573 57.9809C49.1776 57.6012 49.4201 57.1578 49.587 56.6553C49.7517 56.1528 49.8341 55.6321 49.8341 55.0978V45.5366H53.247V61.8849H50.0811V59.0791C49.6877 59.9431 49.0358 60.6821 48.1253 61.3006C47.2149 61.9168 46.0575 62.226 44.6507 62.226V62.2237Z" fill="#26292D"/>
<path d="M57.5879 61.8849V45.5366H60.7538V48.3424C61.1472 47.4988 61.8037 46.7644 62.7233 46.1369C63.6428 45.5093 64.8392 45.1955 66.3077 45.1955C68.355 45.1955 69.8808 45.7344 70.885 46.8144C71.8869 47.8945 72.3901 49.4725 72.3901 51.5484V61.8804H68.9772V52.3192C68.9772 50.9413 68.6821 49.9045 68.092 49.2042C67.5018 48.5061 66.5342 48.156 65.1914 48.156C64.448 48.156 63.8098 48.2742 63.2837 48.5107C62.7553 48.7471 62.3207 49.0564 61.9798 49.4361C61.639 49.8158 61.3897 50.2592 61.2341 50.7617C61.0786 51.2665 61.0008 51.7849 61.0008 52.3192V61.8804H57.5879V61.8849Z" fill="#26292D"/>
<path d="M78.5969 43.5926C77.9358 43.5926 77.4074 43.3971 77.014 43.006C76.6205 42.6149 76.4238 42.1215 76.4238 41.5258C76.4238 40.93 76.6205 40.4366 77.014 40.0456C77.4074 39.6545 77.9336 39.4589 78.5969 39.4589C79.2603 39.4589 79.7864 39.6545 80.1799 40.0456C80.5733 40.4366 80.77 40.93 80.77 41.5258C80.77 42.1215 80.5733 42.6149 80.1799 43.006C79.7864 43.3971 79.258 43.5926 78.5969 43.5926ZM76.8905 61.8827V45.5344H80.3034V61.8827H76.8905Z" fill="#26292D"/>
<path d="M91.3184 62.0372C90.408 62.0372 89.6165 61.9395 88.944 61.7439C88.2715 61.5484 87.7179 61.246 87.2833 60.8344C86.8487 60.4229 86.533 59.8931 86.3363 59.2451C86.1396 58.597 86.0412 57.8308 86.0412 56.9463V48.4334H83.7148V45.5343H86.0412V41.8326H89.4541V45.5343H93.6425V48.4334H89.4541V56.4825C89.4541 56.9349 89.4953 57.3306 89.5776 57.6694C89.66 58.0081 89.8041 58.281 90.0122 58.4856C90.2181 58.6903 90.488 58.8403 90.8197 58.9336C91.1514 59.0268 91.5746 59.0723 92.0916 59.0723C92.4027 59.0723 92.7115 59.0677 93.0226 59.0564C93.3337 59.0473 93.6425 59.02 93.9536 58.979V61.8781C93.5601 61.919 93.1621 61.9554 92.7595 61.9849C92.3569 62.0168 91.8743 62.0304 91.3161 62.0304L91.3184 62.0372Z" fill="#26292D"/>
<path d="M104.569 62.2239C103.453 62.2239 102.403 62.0601 101.419 61.7304C100.436 61.4007 99.5779 60.8869 98.8436 60.1888C98.1093 59.4908 97.526 58.6154 97.0914 57.5672C96.6568 56.519 96.4395 55.2843 96.4395 53.8655V53.2493C96.4395 51.8919 96.6453 50.7164 97.0593 49.7182C97.4734 48.72 98.0361 47.8833 98.7498 47.2034C99.4635 46.5236 100.292 46.0211 101.232 45.6914C102.172 45.3617 103.181 45.198 104.258 45.198C106.781 45.198 108.712 45.8619 110.045 47.1875C111.379 48.5131 112.047 50.4322 112.047 52.9401V54.6682H99.8844C99.905 55.5117 100.049 56.2257 100.319 56.8123C100.587 57.3989 100.943 57.8764 101.39 58.2471C101.833 58.6177 102.33 58.8905 102.879 59.0633C103.428 59.2384 103.99 59.3248 104.569 59.3248C105.706 59.3248 106.587 59.1406 107.207 58.77C107.826 58.3994 108.261 57.8969 108.51 57.258H111.738C111.573 58.0811 111.283 58.7996 110.869 59.418C110.455 60.0342 109.938 60.5549 109.318 60.9756C108.698 61.3962 107.984 61.71 107.177 61.9169C106.369 62.1215 105.5 62.2261 104.571 62.2261L104.569 62.2239ZM99.9141 52.1375H108.79C108.769 51.378 108.645 50.7391 108.417 50.2252C108.188 49.7114 107.879 49.2998 107.486 48.9906C107.092 48.6814 106.628 48.4563 106.09 48.313C105.553 48.1698 104.995 48.097 104.414 48.097C103.833 48.097 103.277 48.1743 102.737 48.3289C102.199 48.4835 101.724 48.7246 101.309 49.0543C100.895 49.384 100.559 49.8 100.301 50.3025C100.042 50.8073 99.9118 51.419 99.9118 52.1375H99.9141Z" fill="#26292D"/>
</svg>
