<svg width="16" height="16" viewBox="0 0 16 16" fill="none" xmlns="http://www.w3.org/2000/svg">
<g clip-path="url(#clip0_4966_1332)">
<path d="M10.0105 10.4819C9.87689 10.3239 9.81006 10.1446 9.81006 9.94381C9.81006 9.74353 9.87689 9.57655 10.0105 9.44287L11.3592 8.09391H6.12852C5.92196 8.09391 5.74894 8.02391 5.60946 7.88391C5.46949 7.7444 5.3995 7.57134 5.3995 7.36475C5.3995 7.15815 5.46949 6.98485 5.60946 6.84485C5.74894 6.70534 5.92196 6.63558 6.12852 6.63558H11.3592L10.0105 5.28662C9.86474 5.14079 9.79184 4.96773 9.79184 4.76745C9.79184 4.56669 9.86474 4.39339 10.0105 4.24756C10.1442 4.10173 10.3114 4.02881 10.5121 4.02881C10.7123 4.02881 10.8793 4.09565 11.0129 4.22933L13.6374 6.85433C13.7103 6.92725 13.7621 7.00624 13.7927 7.09131C13.8228 7.17638 13.8379 7.26752 13.8379 7.36475C13.8379 7.46197 13.8228 7.55311 13.7927 7.63818C13.7621 7.72325 13.7103 7.80225 13.6374 7.87516L11.0129 10.5002C10.855 10.6581 10.682 10.7279 10.4939 10.7094C10.3053 10.6914 10.1442 10.6156 10.0105 10.4819ZM2.48343 13.9272C2.08247 13.9272 1.7391 13.7846 1.45332 13.4992C1.16804 13.2134 1.02539 12.87 1.02539 12.4689V2.26058C1.02539 1.85954 1.16804 1.5161 1.45332 1.23027C1.7391 0.94492 2.08247 0.802246 2.48343 0.802246H6.85754C7.06409 0.802246 7.23736 0.872003 7.37733 1.01152C7.51681 1.15152 7.58656 1.32482 7.58656 1.53141C7.58656 1.73801 7.51681 1.91107 7.37733 2.05058C7.23736 2.19058 7.06409 2.26058 6.85754 2.26058H2.48343V12.4689H6.85754C7.06409 12.4689 7.23736 12.5389 7.37733 12.6789C7.51681 12.8184 7.58656 12.9915 7.58656 13.1981C7.58656 13.4047 7.51681 13.5777 7.37733 13.7172C7.23736 13.8572 7.06409 13.9272 6.85754 13.9272H2.48343Z" fill="#8E8BFF"/>
</g>
<defs>
<clipPath id="clip0_4966_1332">
<rect width="15" height="15" fill="white" transform="translate(0.556641 0.333496)"/>
</clipPath>
</defs>
</svg>
