<svg width="37" height="37" viewBox="0 0 37 37" fill="none" xmlns="http://www.w3.org/2000/svg">
<path d="M8.2259 20.3177L7.76138 25.231M7.76138 25.231L3.89453 29.0979L7.76138 29.5275M7.76138 25.231L11.6282 25.6607M9.413 7.7626L8.74049 14.8751M29.5263 27.8759L12.0578 29.5275M12.0578 29.5275L11.6282 25.6607M12.0578 29.5275L8.19103 33.3944L7.76138 29.5275M29.5358 7.75306L8.40582 28.8831M29.5358 7.75306L26.433 6.55941L32.8777 4.41119L30.7295 10.8559L29.5358 7.75306ZM7.76138 29.5275L11.6282 25.6607M25.9143 11.3746C24.1261 9.58636 21.8499 8.38912 19.3094 7.84737L18.558 11.4125C20.4106 11.8086 22.0513 12.6673 23.3364 13.9524C24.6216 15.2376 25.4803 16.8783 25.8764 18.7309L29.4415 17.9796C28.8998 15.4389 27.7026 13.1628 25.9143 11.3746ZM33.4332 25.7677C32.9586 25.2931 32.1891 25.2931 31.7146 25.7677L31.285 26.1974L28.9433 23.8557C29.2732 21.85 29.2346 19.9062 28.8512 18.1039L26.4705 18.6057C26.8293 20.2861 26.8279 22.1274 26.4395 24.0342C26.359 24.4293 26.4886 24.8382 26.7737 25.1233L30.4257 28.7753C30.9002 29.2498 31.6697 29.2498 32.1442 28.7753L33.4332 27.4863C33.9078 27.0117 33.9078 26.2423 33.4332 25.7677ZM19.185 8.43766C17.3827 8.05426 15.4389 8.01568 13.4331 8.34561L11.0915 6.00393L11.5211 5.57428C11.9957 5.09974 11.9957 4.33026 11.5211 3.85571C11.0466 3.3811 10.2771 3.3811 9.80254 3.85571L8.51361 5.14464C8.039 5.61925 8.039 6.38867 8.51361 6.86322L12.1656 10.5152C12.4507 10.8003 12.8596 10.9299 13.2546 10.8494C15.1615 10.461 17.0028 10.4595 18.6832 10.8184L19.185 8.43766Z" stroke="#00D689" stroke-width="1.49473" stroke-miterlimit="10" stroke-linecap="round" stroke-linejoin="round"/>
</svg>
