<svg width="150" height="32" viewBox="0 0 150 32" fill="none" xmlns="http://www.w3.org/2000/svg">
<path d="M2.35071 14.2095V1.69786H4.74579L10.0722 10.5275H8.80313L14.0401 1.69786H16.4173L16.4531 14.2095H13.7363L13.7184 5.86244H14.2189L10.0364 12.8868H8.73163L4.45981 5.86244H5.06752V14.2095H2.35071ZM23.8006 14.3525C22.7758 14.3525 21.8643 14.138 21.0659 13.709C20.2795 13.28 19.6539 12.6962 19.1892 11.9574C18.7364 11.2067 18.51 10.3547 18.51 9.40144C18.51 8.43626 18.7364 7.58427 19.1892 6.84549C19.6539 6.0948 20.2795 5.51092 21.0659 5.09387C21.8643 4.6649 22.7758 4.45041 23.8006 4.45041C24.8134 4.45041 25.719 4.6649 26.5174 5.09387C27.3158 5.51092 27.9413 6.08884 28.3941 6.82762C28.8469 7.5664 29.0733 8.42434 29.0733 9.40144C29.0733 10.3547 28.8469 11.2067 28.3941 11.9574C27.9413 12.6962 27.3158 13.28 26.5174 13.709C25.719 14.138 24.8134 14.3525 23.8006 14.3525ZM23.8006 12.0646C24.2653 12.0646 24.6824 11.9574 25.0517 11.7429C25.4211 11.5284 25.7131 11.2246 25.9276 10.8313C26.142 10.4262 26.2493 9.94957 26.2493 9.40144C26.2493 8.84139 26.142 8.36476 25.9276 7.97154C25.7131 7.57832 25.4211 7.27446 25.0517 7.05998C24.6824 6.84549 24.2653 6.73825 23.8006 6.73825C23.3359 6.73825 22.9188 6.84549 22.5494 7.05998C22.18 7.27446 21.8821 7.57832 21.6557 7.97154C21.4413 8.36476 21.334 8.84139 21.334 9.40144C21.334 9.94957 21.4413 10.4262 21.6557 10.8313C21.8821 11.2246 22.18 11.5284 22.5494 11.7429C22.9188 11.9574 23.3359 12.0646 23.8006 12.0646ZM36.6209 14.3525C35.7749 14.3525 35.0481 14.1737 34.4403 13.8163C33.8326 13.4588 33.3679 12.9166 33.0462 12.1897C32.7245 11.451 32.5636 10.5215 32.5636 9.40144C32.5636 8.26943 32.7304 7.34 33.0641 6.61313C33.4096 5.88627 33.8863 5.3441 34.494 4.98662C35.1017 4.62915 35.8107 4.45041 36.6209 4.45041C37.5265 4.45041 38.3368 4.65298 39.0518 5.05812C39.7786 5.46326 40.3506 6.03522 40.7676 6.774C41.1966 7.51278 41.4111 8.38859 41.4111 9.40144C41.4111 10.4024 41.1966 11.2722 40.7676 12.011C40.3506 12.7498 39.7786 13.3277 39.0518 13.7448C38.3368 14.1499 37.5265 14.3525 36.6209 14.3525ZM30.9371 14.2095V0.94716H33.7254V6.54164L33.5467 9.38356L33.6003 12.2434V14.2095H30.9371ZM36.1384 12.0646C36.6031 12.0646 37.0142 11.9574 37.3716 11.7429C37.741 11.5284 38.033 11.2246 38.2475 10.8313C38.4739 10.4262 38.5871 9.94957 38.5871 9.40144C38.5871 8.84139 38.4739 8.36476 38.2475 7.97154C38.033 7.57832 37.741 7.27446 37.3716 7.05998C37.0142 6.84549 36.6031 6.73825 36.1384 6.73825C35.6736 6.73825 35.2566 6.84549 34.8872 7.05998C34.5178 7.27446 34.2259 7.57832 34.0114 7.97154C33.7969 8.36476 33.6896 8.84139 33.6896 9.40144C33.6896 9.94957 33.7969 10.4262 34.0114 10.8313C34.2259 11.2246 34.5178 11.5284 34.8872 11.7429C35.2566 11.9574 35.6736 12.0646 36.1384 12.0646ZM43.2777 14.2095V4.5934H46.066V14.2095H43.2777ZM44.6718 3.25287C44.1594 3.25287 43.7424 3.10392 43.4206 2.80603C43.0989 2.50813 42.938 2.13874 42.938 1.69786C42.938 1.25697 43.0989 0.887581 43.4206 0.589686C43.7424 0.29179 44.1594 0.142842 44.6718 0.142842C45.1842 0.142842 45.6012 0.285832 45.923 0.571812C46.2447 0.845876 46.4056 1.20335 46.4056 1.64424C46.4056 2.10895 46.2447 2.49622 45.923 2.80603C45.6132 3.10392 45.1961 3.25287 44.6718 3.25287ZM48.6537 14.2095V0.94716H51.442V14.2095H48.6537ZM58.8021 14.3525C57.7059 14.3525 56.7407 14.138 55.9066 13.709C55.0844 13.28 54.4469 12.6962 53.9941 11.9574C53.5413 11.2067 53.3149 10.3547 53.3149 9.40144C53.3149 8.43626 53.5353 7.58427 53.9762 6.84549C54.429 6.0948 55.0427 5.51092 55.8172 5.09387C56.5917 4.6649 57.4675 4.45041 58.4446 4.45041C59.386 4.45041 60.232 4.65298 60.9827 5.05812C61.7453 5.45134 62.3471 6.0233 62.788 6.774C63.2288 7.51278 63.4493 8.40051 63.4493 9.43718C63.4493 9.54443 63.4433 9.66954 63.4314 9.81253C63.4195 9.94361 63.4076 10.0687 63.3957 10.1879H55.5848V8.56137H61.93L60.8576 9.04396C60.8576 8.5435 60.7563 8.10857 60.5537 7.73918C60.3512 7.36979 60.0711 7.08381 59.7137 6.88124C59.3562 6.66676 58.9391 6.55951 58.4625 6.55951C57.9859 6.55951 57.5629 6.66676 57.1935 6.88124C56.836 7.08381 56.556 7.37575 56.3534 7.75705C56.1508 8.12644 56.0496 8.56733 56.0496 9.07971V9.50868C56.0496 10.033 56.1628 10.4977 56.3892 10.9028C56.6275 11.2961 56.9552 11.5999 57.3722 11.8144C57.8012 12.017 58.3016 12.1182 58.8736 12.1182C59.386 12.1182 59.8328 12.0408 60.2141 11.8859C60.6074 11.731 60.9648 11.4986 61.2866 11.1888L62.7701 12.7974C62.3292 13.2979 61.7751 13.6852 61.1078 13.9592C60.4405 14.2214 59.672 14.3525 58.8021 14.3525ZM70.5641 14.2095V1.69786H73.4597V11.8501H79.7334V14.2095H70.5641ZM85.8745 14.3525C84.7783 14.3525 83.8131 14.138 82.979 13.709C82.1568 13.28 81.5193 12.6962 81.0665 11.9574C80.6137 11.2067 80.3873 10.3547 80.3873 9.40144C80.3873 8.43626 80.6077 7.58427 81.0486 6.84549C81.5014 6.0948 82.1151 5.51092 82.8896 5.09387C83.6641 4.6649 84.54 4.45041 85.5171 4.45041C86.4584 4.45041 87.3044 4.65298 88.0551 5.05812C88.8177 5.45134 89.4195 6.0233 89.8604 6.774C90.3013 7.51278 90.5217 8.40051 90.5217 9.43718C90.5217 9.54443 90.5157 9.66954 90.5038 9.81253C90.4919 9.94361 90.48 10.0687 90.4681 10.1879H82.6573V8.56137H89.0024L87.93 9.04396C87.93 8.5435 87.8287 8.10857 87.6262 7.73918C87.4236 7.36979 87.1436 7.08381 86.7861 6.88124C86.4286 6.66676 86.0116 6.55951 85.5349 6.55951C85.0583 6.55951 84.6353 6.66676 84.2659 6.88124C83.9084 7.08381 83.6284 7.37575 83.4258 7.75705C83.2233 8.12644 83.122 8.56733 83.122 9.07971V9.50868C83.122 10.033 83.2352 10.4977 83.4616 10.9028C83.6999 11.2961 84.0276 11.5999 84.4446 11.8144C84.8736 12.017 85.3741 12.1182 85.946 12.1182C86.4584 12.1182 86.9053 12.0408 87.2866 11.8859C87.6798 11.731 88.0373 11.4986 88.359 11.1888L89.8425 12.7974C89.4016 13.2979 88.8475 13.6852 88.1802 13.9592C87.513 14.2214 86.7444 14.3525 85.8745 14.3525ZM96.9001 17.82C95.9945 17.82 95.1187 17.7068 94.2727 17.4804C93.4386 17.2659 92.7415 16.9382 92.1814 16.4973L93.2896 14.4955C93.6948 14.8291 94.2071 15.0912 94.8268 15.2819C95.4583 15.4845 96.0779 15.5858 96.6856 15.5858C97.6746 15.5858 98.3896 15.3653 98.8305 14.9244C99.2833 14.4835 99.5097 13.8282 99.5097 12.9583V11.5105L99.6884 9.09758L99.6527 6.66676V4.5934H102.298V12.6008C102.298 14.3882 101.833 15.7049 100.904 16.5509C99.9744 17.397 98.6398 17.82 96.9001 17.82ZM96.4711 13.7448C95.5775 13.7448 94.7672 13.5541 94.0403 13.1728C93.3254 12.7796 92.7474 12.2374 92.3066 11.5463C91.8776 10.8433 91.6631 10.027 91.6631 9.09758C91.6631 8.15623 91.8776 7.34 92.3066 6.64888C92.7474 5.94585 93.3254 5.40368 94.0403 5.02237C94.7672 4.64107 95.5775 4.45041 96.4711 4.45041C97.2814 4.45041 97.9964 4.61723 98.616 4.95088C99.2356 5.2726 99.7182 5.77903 100.064 6.47014C100.409 7.14935 100.582 8.02516 100.582 9.09758C100.582 10.1581 100.409 11.0339 100.064 11.725C99.7182 12.4042 99.2356 12.9106 98.616 13.2443C97.9964 13.5779 97.2814 13.7448 96.4711 13.7448ZM97.0252 11.4569C97.5138 11.4569 97.9487 11.3616 98.33 11.1709C98.7113 10.9684 99.0092 10.6883 99.2237 10.3309C99.4382 9.9734 99.5454 9.5623 99.5454 9.09758C99.5454 8.62095 99.4382 8.20986 99.2237 7.8643C99.0092 7.50682 98.7113 7.23276 98.33 7.0421C97.9487 6.83954 97.5138 6.73825 97.0252 6.73825C96.5367 6.73825 96.1018 6.83954 95.7204 7.0421C95.3391 7.23276 95.0353 7.50682 94.8089 7.8643C94.5944 8.20986 94.4872 8.62095 94.4872 9.09758C94.4872 9.5623 94.5944 9.9734 94.8089 10.3309C95.0353 10.6883 95.3391 10.9684 95.7204 11.1709C96.1018 11.3616 96.5367 11.4569 97.0252 11.4569ZM109.665 14.3525C108.569 14.3525 107.604 14.138 106.77 13.709C105.948 13.28 105.31 12.6962 104.857 11.9574C104.405 11.2067 104.178 10.3547 104.178 9.40144C104.178 8.43626 104.399 7.58427 104.84 6.84549C105.292 6.0948 105.906 5.51092 106.681 5.09387C107.455 4.6649 108.331 4.45041 109.308 4.45041C110.249 4.45041 111.095 4.65298 111.846 5.05812C112.609 5.45134 113.21 6.0233 113.651 6.774C114.092 7.51278 114.313 8.40051 114.313 9.43718C114.313 9.54443 114.307 9.66954 114.295 9.81253C114.283 9.94361 114.271 10.0687 114.259 10.1879H106.448V8.56137H112.793L111.721 9.04396C111.721 8.5435 111.62 8.10857 111.417 7.73918C111.215 7.36979 110.934 7.08381 110.577 6.88124C110.22 6.66676 109.802 6.55951 109.326 6.55951C108.849 6.55951 108.426 6.66676 108.057 6.88124C107.699 7.08381 107.419 7.37575 107.217 7.75705C107.014 8.12644 106.913 8.56733 106.913 9.07971V9.50868C106.913 10.033 107.026 10.4977 107.252 10.9028C107.491 11.2961 107.818 11.5999 108.236 11.8144C108.665 12.017 109.165 12.1182 109.737 12.1182C110.249 12.1182 110.696 12.0408 111.077 11.8859C111.471 11.731 111.828 11.4986 112.15 11.1888L113.633 12.7974C113.193 13.2979 112.638 13.6852 111.971 13.9592C111.304 14.2214 110.535 14.3525 109.665 14.3525ZM122.014 4.45041C122.776 4.45041 123.456 4.60532 124.051 4.91513C124.659 5.21303 125.136 5.67774 125.481 6.30928C125.827 6.9289 126 7.72726 126 8.70436V14.2095H123.211V9.13333C123.211 8.3588 123.038 7.78684 122.693 7.41745C122.359 7.04806 121.883 6.86337 121.263 6.86337C120.822 6.86337 120.423 6.95869 120.065 7.14935C119.72 7.32808 119.446 7.60811 119.243 7.98941C119.053 8.37072 118.957 8.85927 118.957 9.45506V14.2095H116.169V4.5934H118.832V7.25659L118.332 6.45227C118.677 5.80882 119.172 5.31431 119.815 4.96875C120.459 4.62319 121.192 4.45041 122.014 4.45041ZM132.726 14.3525C131.82 14.3525 131.004 14.1499 130.277 13.7448C129.55 13.3277 128.972 12.7498 128.543 12.011C128.126 11.2722 127.918 10.4024 127.918 9.40144C127.918 8.38859 128.126 7.51278 128.543 6.774C128.972 6.03522 129.55 5.46326 130.277 5.05812C131.004 4.65298 131.82 4.45041 132.726 4.45041C133.536 4.45041 134.245 4.62915 134.853 4.98662C135.46 5.3441 135.931 5.88627 136.265 6.61313C136.598 7.34 136.765 8.26943 136.765 9.40144C136.765 10.5215 136.604 11.451 136.283 12.1897C135.961 12.9166 135.496 13.4588 134.888 13.8163C134.293 14.1737 133.572 14.3525 132.726 14.3525ZM133.208 12.0646C133.661 12.0646 134.072 11.9574 134.442 11.7429C134.811 11.5284 135.103 11.2246 135.317 10.8313C135.544 10.4262 135.657 9.94957 135.657 9.40144C135.657 8.84139 135.544 8.36476 135.317 7.97154C135.103 7.57832 134.811 7.27446 134.442 7.05998C134.072 6.84549 133.661 6.73825 133.208 6.73825C132.744 6.73825 132.326 6.84549 131.957 7.05998C131.588 7.27446 131.29 7.57832 131.063 7.97154C130.849 8.36476 130.742 8.84139 130.742 9.40144C130.742 9.94957 130.849 10.4262 131.063 10.8313C131.29 11.2246 131.588 11.5284 131.957 11.7429C132.326 11.9574 132.744 12.0646 133.208 12.0646ZM135.728 14.2095V12.2434L135.782 9.38356L135.603 6.54164V0.94716H138.392V14.2095H135.728ZM144.207 14.3525C143.385 14.3525 142.593 14.2571 141.83 14.0665C141.08 13.8639 140.484 13.6137 140.043 13.3158L140.972 11.3139C141.413 11.588 141.931 11.8144 142.527 11.9931C143.135 12.16 143.731 12.2434 144.315 12.2434C144.958 12.2434 145.411 12.1659 145.673 12.011C145.947 11.8561 146.084 11.6416 146.084 11.3675C146.084 11.1411 145.977 10.9743 145.762 10.8671C145.56 10.7479 145.286 10.6586 144.94 10.599C144.595 10.5394 144.213 10.4798 143.796 10.4202C143.391 10.3607 142.98 10.2832 142.563 10.1879C142.146 10.0806 141.765 9.92573 141.419 9.72316C141.074 9.5206 140.794 9.24653 140.579 8.90097C140.376 8.55541 140.275 8.10857 140.275 7.56044C140.275 6.95274 140.448 6.41652 140.794 5.95181C141.151 5.48709 141.663 5.12366 142.331 4.86151C142.998 4.58745 143.796 4.45041 144.726 4.45041C145.381 4.45041 146.048 4.52191 146.728 4.6649C147.407 4.80789 147.973 5.01641 148.426 5.29048L147.496 7.27446C147.031 7.0004 146.561 6.8157 146.084 6.72038C145.619 6.61313 145.167 6.55951 144.726 6.55951C144.106 6.55951 143.653 6.64292 143.367 6.80975C143.081 6.97657 142.938 7.19105 142.938 7.4532C142.938 7.69152 143.04 7.87025 143.242 7.98941C143.457 8.10857 143.737 8.2039 144.082 8.27539C144.428 8.34689 144.803 8.41242 145.208 8.472C145.625 8.51967 146.042 8.59712 146.46 8.70436C146.877 8.8116 147.252 8.96651 147.586 9.16908C147.931 9.35973 148.211 9.62784 148.426 9.9734C148.64 10.307 148.747 10.7479 148.747 11.2961C148.747 11.8918 148.569 12.4221 148.211 12.8868C147.854 13.3396 147.335 13.6971 146.656 13.9592C145.989 14.2214 145.173 14.3525 144.207 14.3525Z" fill="#615C7E"/>
<path d="M37.5662 29.2095V21.5095H40.8772C41.7132 21.5095 42.3695 21.6781 42.8462 22.0155C43.3229 22.3528 43.5612 22.8441 43.5612 23.4895C43.5612 24.1201 43.3339 24.6041 42.8792 24.9415C42.4245 25.2715 41.8269 25.4365 41.0862 25.4365L41.2842 25.1065C42.1422 25.1065 42.7985 25.2788 43.2532 25.6235C43.7152 25.9608 43.9462 26.4558 43.9462 27.1085C43.9462 27.7685 43.7042 28.2855 43.2202 28.6595C42.7435 29.0261 42.0322 29.2095 41.0862 29.2095H37.5662ZM38.6552 28.3405H41.0642C41.6509 28.3405 42.0909 28.2341 42.3842 28.0215C42.6849 27.8015 42.8352 27.4678 42.8352 27.0205C42.8352 26.5731 42.6849 26.2468 42.3842 26.0415C42.0909 25.8361 41.6509 25.7335 41.0642 25.7335H38.6552V28.3405ZM38.6552 24.8975H40.8002C41.3355 24.8975 41.7425 24.7911 42.0212 24.5785C42.3072 24.3658 42.4502 24.0541 42.4502 23.6435C42.4502 23.2255 42.3072 22.9101 42.0212 22.6975C41.7425 22.4848 41.3355 22.3785 40.8002 22.3785H38.6552V24.8975ZM51.6531 29.2755C51.1691 29.2755 50.7254 29.1655 50.3221 28.9455C49.9261 28.7181 49.6071 28.3845 49.3651 27.9445C49.1304 27.5045 49.0131 26.9545 49.0131 26.2945C49.0131 25.6345 49.1267 25.0845 49.3541 24.6445C49.5887 24.2045 49.9041 23.8745 50.3001 23.6545C50.7034 23.4345 51.1544 23.3245 51.6531 23.3245C52.2251 23.3245 52.7311 23.4491 53.1711 23.6985C53.6111 23.9478 53.9594 24.2961 54.2161 24.7435C54.4727 25.1835 54.6011 25.7005 54.6011 26.2945C54.6011 26.8885 54.4727 27.4091 54.2161 27.8565C53.9594 28.3038 53.6111 28.6521 53.1711 28.9015C52.7311 29.1508 52.2251 29.2755 51.6531 29.2755ZM48.5621 31.3435V23.3795H49.5741V24.9525L49.5081 26.3055L49.6181 27.6585V31.3435H48.5621ZM51.5651 28.3515C51.9391 28.3515 52.2727 28.2671 52.5661 28.0985C52.8667 27.9298 53.1014 27.6915 53.2701 27.3835C53.4461 27.0681 53.5341 26.7051 53.5341 26.2945C53.5341 25.8765 53.4461 25.5171 53.2701 25.2165C53.1014 24.9085 52.8667 24.6701 52.5661 24.5015C52.2727 24.3328 51.9391 24.2485 51.5651 24.2485C51.1984 24.2485 50.8647 24.3328 50.5641 24.5015C50.2707 24.6701 50.0361 24.9085 49.8601 25.2165C49.6914 25.5171 49.6071 25.8765 49.6071 26.2945C49.6071 26.7051 49.6914 27.0681 49.8601 27.3835C50.0361 27.6915 50.2707 27.9298 50.5641 28.0985C50.8647 28.2671 51.1984 28.3515 51.5651 28.3515ZM59.6566 29.2095V27.9775L59.6016 27.7465V25.6455C59.6016 25.1981 59.4696 24.8535 59.2056 24.6115C58.9489 24.3621 58.5603 24.2375 58.0396 24.2375C57.6949 24.2375 57.3576 24.2961 57.0276 24.4135C56.6976 24.5235 56.4189 24.6738 56.1916 24.8645L55.7516 24.0725C56.0523 23.8305 56.4116 23.6471 56.8296 23.5225C57.2549 23.3905 57.6986 23.3245 58.1606 23.3245C58.9599 23.3245 59.5759 23.5188 60.0086 23.9075C60.4413 24.2961 60.6576 24.8901 60.6576 25.6895V29.2095H59.6566ZM57.7426 29.2755C57.3099 29.2755 56.9286 29.2021 56.5986 29.0555C56.2759 28.9088 56.0266 28.7071 55.8506 28.4505C55.6746 28.1865 55.5866 27.8895 55.5866 27.5595C55.5866 27.2441 55.6599 26.9581 55.8066 26.7015C55.9606 26.4448 56.2063 26.2395 56.5436 26.0855C56.8883 25.9315 57.3503 25.8545 57.9296 25.8545H59.7776V26.6135H57.9736C57.4456 26.6135 57.0899 26.7015 56.9066 26.8775C56.7233 27.0535 56.6316 27.2661 56.6316 27.5155C56.6316 27.8015 56.7453 28.0325 56.9726 28.2085C57.1999 28.3771 57.5153 28.4615 57.9186 28.4615C58.3146 28.4615 58.6593 28.3735 58.9526 28.1975C59.2533 28.0215 59.4696 27.7648 59.6016 27.4275L59.8106 28.1535C59.6713 28.4981 59.4256 28.7731 59.0736 28.9785C58.7216 29.1765 58.2779 29.2755 57.7426 29.2755ZM64.1675 29.2865C63.7275 29.2865 63.2948 29.2315 62.8695 29.1215C62.4515 29.0041 62.0775 28.8391 61.7475 28.6265L62.0665 27.8235C62.3451 27.9995 62.6641 28.1388 63.0235 28.2415C63.3828 28.3368 63.7458 28.3845 64.1125 28.3845C64.4498 28.3845 64.7395 28.3441 64.9815 28.2635C65.2308 28.1828 65.4215 28.0728 65.5535 27.9335C65.6855 27.7868 65.7515 27.6181 65.7515 27.4275C65.7515 27.1561 65.6305 26.9471 65.3885 26.8005C65.1465 26.6538 64.8091 26.5805 64.3765 26.5805H63.3205V25.8215H64.3105C64.5671 25.8215 64.7908 25.7921 64.9815 25.7335C65.1721 25.6748 65.3188 25.5868 65.4215 25.4695C65.5315 25.3448 65.5865 25.2018 65.5865 25.0405C65.5865 24.8645 65.5241 24.7141 65.3995 24.5895C65.2748 24.4648 65.0988 24.3695 64.8715 24.3035C64.6515 24.2375 64.3911 24.2045 64.0905 24.2045C63.7971 24.2118 63.4965 24.2521 63.1885 24.3255C62.8878 24.3988 62.5798 24.5125 62.2645 24.6665L61.9785 23.8415C62.3305 23.6728 62.6751 23.5445 63.0125 23.4565C63.3571 23.3611 63.6981 23.3098 64.0355 23.3025C64.5415 23.2878 64.9925 23.3465 65.3885 23.4785C65.7845 23.6031 66.0961 23.7865 66.3235 24.0285C66.5581 24.2705 66.6755 24.5565 66.6755 24.8865C66.6755 25.1651 66.5875 25.4145 66.4115 25.6345C66.2355 25.8471 66.0008 26.0158 65.7075 26.1405C65.4141 26.2651 65.0768 26.3275 64.6955 26.3275L64.7395 26.0745C65.3921 26.0745 65.9055 26.2028 66.2795 26.4595C66.6535 26.7161 66.8405 27.0645 66.8405 27.5045C66.8405 27.8565 66.7231 28.1681 66.4885 28.4395C66.2538 28.7035 65.9348 28.9125 65.5315 29.0665C65.1355 29.2131 64.6808 29.2865 64.1675 29.2865ZM71.5369 29.2755C71.0529 29.2755 70.6092 29.1655 70.2059 28.9455C69.8099 28.7181 69.4909 28.3845 69.2489 27.9445C69.0142 27.5045 68.8969 26.9545 68.8969 26.2945C68.8969 25.6345 69.0105 25.0845 69.2379 24.6445C69.4725 24.2045 69.7879 23.8745 70.1839 23.6545C70.5872 23.4345 71.0382 23.3245 71.5369 23.3245C72.1089 23.3245 72.6149 23.4491 73.0549 23.6985C73.4949 23.9478 73.8432 24.2961 74.0999 24.7435C74.3565 25.1835 74.4849 25.7005 74.4849 26.2945C74.4849 26.8885 74.3565 27.4091 74.0999 27.8565C73.8432 28.3038 73.4949 28.6521 73.0549 28.9015C72.6149 29.1508 72.1089 29.2755 71.5369 29.2755ZM68.4459 31.3435V23.3795H69.4579V24.9525L69.3919 26.3055L69.5019 27.6585V31.3435H68.4459ZM71.4489 28.3515C71.8229 28.3515 72.1565 28.2671 72.4499 28.0985C72.7505 27.9298 72.9852 27.6915 73.1539 27.3835C73.3299 27.0681 73.4179 26.7051 73.4179 26.2945C73.4179 25.8765 73.3299 25.5171 73.1539 25.2165C72.9852 24.9085 72.7505 24.6701 72.4499 24.5015C72.1565 24.3328 71.8229 24.2485 71.4489 24.2485C71.0822 24.2485 70.7485 24.3328 70.4479 24.5015C70.1545 24.6701 69.9199 24.9085 69.7439 25.2165C69.5752 25.5171 69.4909 25.8765 69.4909 26.2945C69.4909 26.7051 69.5752 27.0681 69.7439 27.3835C69.9199 27.6915 70.1545 27.9298 70.4479 28.0985C70.7485 28.2671 71.0822 28.3515 71.4489 28.3515ZM79.5404 29.2095V27.9775L79.4854 27.7465V25.6455C79.4854 25.1981 79.3534 24.8535 79.0894 24.6115C78.8327 24.3621 78.444 24.2375 77.9234 24.2375C77.5787 24.2375 77.2414 24.2961 76.9114 24.4135C76.5814 24.5235 76.3027 24.6738 76.0754 24.8645L75.6354 24.0725C75.936 23.8305 76.2954 23.6471 76.7134 23.5225C77.1387 23.3905 77.5824 23.3245 78.0444 23.3245C78.8437 23.3245 79.4597 23.5188 79.8924 23.9075C80.325 24.2961 80.5414 24.8901 80.5414 25.6895V29.2095H79.5404ZM77.6264 29.2755C77.1937 29.2755 76.8124 29.2021 76.4824 29.0555C76.1597 28.9088 75.9104 28.7071 75.7344 28.4505C75.5584 28.1865 75.4704 27.8895 75.4704 27.5595C75.4704 27.2441 75.5437 26.9581 75.6904 26.7015C75.8444 26.4448 76.09 26.2395 76.4274 26.0855C76.772 25.9315 77.234 25.8545 77.8134 25.8545H79.6614V26.6135H77.8574C77.3294 26.6135 76.9737 26.7015 76.7904 26.8775C76.607 27.0535 76.5154 27.2661 76.5154 27.5155C76.5154 27.8015 76.629 28.0325 76.8564 28.2085C77.0837 28.3771 77.399 28.4615 77.8024 28.4615C78.1984 28.4615 78.543 28.3735 78.8364 28.1975C79.137 28.0215 79.3534 27.7648 79.4854 27.4275L79.6944 28.1535C79.555 28.4981 79.3094 28.7731 78.9574 28.9785C78.6054 29.1765 78.1617 29.2755 77.6264 29.2755ZM85.1379 29.2975C84.6539 29.2975 84.2249 29.2205 83.8509 29.0665C83.4843 28.9125 83.1689 28.6851 82.9049 28.3845C82.6409 28.0765 82.4393 27.6915 82.2999 27.2295C82.1679 26.7601 82.1019 26.2101 82.1019 25.5795C82.1019 25.0808 82.1459 24.6335 82.2339 24.2375C82.3219 23.8415 82.4466 23.4895 82.6079 23.1815C82.7766 22.8735 82.9819 22.6058 83.2239 22.3785C83.4733 22.1511 83.7519 21.9641 84.0599 21.8175C84.3753 21.6635 84.7199 21.5461 85.0939 21.4655L87.7559 20.8715L87.9099 21.8505L85.4569 22.3785C85.3103 22.4078 85.1343 22.4518 84.9289 22.5105C84.7236 22.5691 84.5146 22.6608 84.3019 22.7855C84.0893 22.9028 83.8913 23.0678 83.7079 23.2805C83.5246 23.4931 83.3779 23.7718 83.2679 24.1165C83.1579 24.4538 83.1029 24.8718 83.1029 25.3705C83.1029 25.5098 83.1066 25.6161 83.1139 25.6895C83.1213 25.7628 83.1286 25.8361 83.1359 25.9095C83.1506 25.9828 83.1616 26.0928 83.1689 26.2395L82.7289 25.7885C82.8463 25.3851 83.0333 25.0331 83.2899 24.7325C83.5466 24.4318 83.8546 24.2008 84.2139 24.0395C84.5806 23.8708 84.9803 23.7865 85.4129 23.7865C85.9556 23.7865 86.4359 23.9038 86.8539 24.1385C87.2793 24.3731 87.6129 24.6958 87.8549 25.1065C88.0969 25.5171 88.2179 25.9865 88.2179 26.5145C88.2179 27.0498 88.0896 27.5301 87.8329 27.9555C87.5836 28.3735 87.2279 28.7035 86.7659 28.9455C86.3039 29.1801 85.7613 29.2975 85.1379 29.2975ZM85.2369 28.4175C85.6109 28.4175 85.9409 28.3368 86.2269 28.1755C86.5129 28.0068 86.7366 27.7831 86.8979 27.5045C87.0593 27.2185 87.1399 26.8995 87.1399 26.5475C87.1399 26.1955 87.0593 25.8838 86.8979 25.6125C86.7366 25.3411 86.5129 25.1285 86.2269 24.9745C85.9409 24.8131 85.6036 24.7325 85.2149 24.7325C84.8483 24.7325 84.5183 24.8095 84.2249 24.9635C83.9316 25.1101 83.7043 25.3191 83.5429 25.5905C83.3816 25.8545 83.3009 26.1625 83.3009 26.5145C83.3009 26.8665 83.3816 27.1891 83.5429 27.4825C83.7116 27.7685 83.9389 27.9958 84.2249 28.1645C84.5183 28.3331 84.8556 28.4175 85.2369 28.4175ZM92.2231 29.2755C91.6365 29.2755 91.1158 29.1471 90.6611 28.8905C90.2065 28.6338 89.8471 28.2818 89.5831 27.8345C89.3191 27.3798 89.1871 26.8665 89.1871 26.2945C89.1871 25.7151 89.3191 25.2018 89.5831 24.7545C89.8471 24.3071 90.2065 23.9588 90.6611 23.7095C91.1158 23.4528 91.6365 23.3245 92.2231 23.3245C92.8025 23.3245 93.3195 23.4528 93.7741 23.7095C94.2361 23.9588 94.5955 24.3071 94.8521 24.7545C95.1161 25.1945 95.2481 25.7078 95.2481 26.2945C95.2481 26.8738 95.1161 27.3871 94.8521 27.8345C94.5955 28.2818 94.2361 28.6338 93.7741 28.8905C93.3195 29.1471 92.8025 29.2755 92.2231 29.2755ZM92.2231 28.3515C92.5971 28.3515 92.9308 28.2671 93.2241 28.0985C93.5248 27.9298 93.7595 27.6915 93.9281 27.3835C94.0968 27.0681 94.1811 26.7051 94.1811 26.2945C94.1811 25.8765 94.0968 25.5171 93.9281 25.2165C93.7595 24.9085 93.5248 24.6701 93.2241 24.5015C92.9308 24.3328 92.5971 24.2485 92.2231 24.2485C91.8491 24.2485 91.5155 24.3328 91.2221 24.5015C90.9288 24.6701 90.6941 24.9085 90.5181 25.2165C90.3421 25.5171 90.2541 25.8765 90.2541 26.2945C90.2541 26.7051 90.3421 27.0681 90.5181 27.3835C90.6941 27.6915 90.9288 27.9298 91.2221 28.0985C91.5155 28.2671 91.8491 28.3515 92.2231 28.3515ZM97.7132 29.2095V24.0285L97.9772 24.3035H95.5792V23.3795H100.903V24.3035H98.5162L98.7692 24.0285V29.2095H97.7132ZM106.207 29.2095L103.952 26.3715L104.821 25.8435L107.45 29.2095H106.207ZM101.983 29.2095V23.3795H103.039V29.2095H101.983ZM102.72 26.7455V25.8435H104.645V26.7455H102.72ZM104.909 26.4155L103.93 26.2835L106.163 23.3795H107.296L104.909 26.4155ZM110.96 29.2755C110.336 29.2755 109.786 29.1471 109.31 28.8905C108.84 28.6338 108.474 28.2818 108.21 27.8345C107.953 27.3871 107.825 26.8738 107.825 26.2945C107.825 25.7151 107.949 25.2018 108.199 24.7545C108.455 24.3071 108.804 23.9588 109.244 23.7095C109.691 23.4528 110.193 23.3245 110.751 23.3245C111.315 23.3245 111.814 23.4491 112.247 23.6985C112.679 23.9478 113.017 24.2998 113.259 24.7545C113.508 25.2018 113.633 25.7261 113.633 26.3275C113.633 26.3715 113.629 26.4228 113.622 26.4815C113.622 26.5401 113.618 26.5951 113.611 26.6465H108.65V25.8875H113.061L112.632 26.1515C112.639 25.7775 112.562 25.4438 112.401 25.1505C112.239 24.8571 112.016 24.6298 111.73 24.4685C111.451 24.2998 111.125 24.2155 110.751 24.2155C110.384 24.2155 110.058 24.2998 109.772 24.4685C109.486 24.6298 109.262 24.8608 109.101 25.1615C108.939 25.4548 108.859 25.7921 108.859 26.1735V26.3495C108.859 26.7381 108.947 27.0865 109.123 27.3945C109.306 27.6951 109.559 27.9298 109.882 28.0985C110.204 28.2671 110.575 28.3515 110.993 28.3515C111.337 28.3515 111.649 28.2928 111.928 28.1755C112.214 28.0581 112.463 27.8821 112.676 27.6475L113.259 28.3295C112.995 28.6375 112.665 28.8721 112.269 29.0335C111.88 29.1948 111.444 29.2755 110.96 29.2755Z" fill="#B1ACCE"/>
</svg>
