<svg width="61" height="61" viewBox="0 0 61 61" fill="none" xmlns="http://www.w3.org/2000/svg">
<path d="M0 30C0 13.4315 13.4315 0 30 0H60.4239V36.5922C60.4239 49.754 49.7541 60.4239 36.5922 60.4239H0V30Z" fill="#26292D"/>
<g clip-path="url(#clip0_4877_6399)">
<path d="M28.75 23.75H31.25V26.25H28.75V23.75ZM30 36.25C30.6875 36.25 31.25 35.6875 31.25 35V30C31.25 29.3125 30.6875 28.75 30 28.75C29.3125 28.75 28.75 29.3125 28.75 30V35C28.75 35.6875 29.3125 36.25 30 36.25ZM30 17.5C23.1 17.5 17.5 23.1 17.5 30C17.5 36.9 23.1 42.5 30 42.5C36.9 42.5 42.5 36.9 42.5 30C42.5 23.1 36.9 17.5 30 17.5ZM30 40C24.4875 40 20 35.5125 20 30C20 24.4875 24.4875 20 30 20C35.5125 20 40 24.4875 40 30C40 35.5125 35.5125 40 30 40Z" fill="white"/>
</g>
<defs>
<clipPath id="clip0_4877_6399">
<rect width="30" height="30" fill="white" transform="translate(15 15)"/>
</clipPath>
</defs>
</svg>
