<svg width="61" height="61" viewBox="0 0 61 61" fill="none" xmlns="http://www.w3.org/2000/svg">
<path d="M0 29.7896C0 13.3373 13.3372 0 29.7896 0H60.4239V36.5922C60.4239 49.754 49.7541 60.4239 36.5922 60.4239H0V29.7896Z" fill="#26292D"/>
<g clip-path="url(#clip0_4440_2870)">
<path d="M39.1132 36.6125L37.5007 35V28.75C37.5007 24.9125 35.4507 21.7 31.8757 20.85V20C31.8757 18.9625 31.0382 18.125 30.0007 18.125C28.9632 18.125 28.1257 18.9625 28.1257 20V20.85C24.5382 21.7 22.5007 24.9 22.5007 28.75V35L20.8882 36.6125C20.1007 37.4 20.6507 38.75 21.7632 38.75H38.2257C39.3507 38.75 39.9007 37.4 39.1132 36.6125ZM35.0007 36.25H25.0007V28.75C25.0007 25.65 26.8882 23.125 30.0007 23.125C33.1132 23.125 35.0007 25.65 35.0007 28.75V36.25ZM30.0007 42.5C31.3757 42.5 32.5007 41.375 32.5007 40H27.5007C27.5007 41.375 28.6132 42.5 30.0007 42.5Z" fill="white"/>
</g>
<defs>
<clipPath id="clip0_4440_2870">
<rect width="30" height="30" fill="white" transform="translate(15 15)"/>
</clipPath>
</defs>
</svg>
