<svg width="15" height="13" viewBox="0 0 15 13" fill="none" xmlns="http://www.w3.org/2000/svg">
<path d="M13.6086 9.14895V10.6569C13.6089 10.8642 13.568 11.0696 13.4882 11.2613C13.4084 11.453 13.2912 11.6271 13.1435 11.7739C12.9957 11.9206 12.8202 12.037 12.627 12.1163C12.4339 12.1957 12.2268 12.2365 12.0177 12.2365H3.73612C3.52705 12.2365 3.32002 12.1956 3.12689 12.1162C2.93375 12.0368 2.75829 11.9204 2.61055 11.7737C2.4628 11.627 2.34565 11.4528 2.26582 11.2612C2.18598 11.0696 2.14502 10.8642 2.14527 10.6569V9.14895L0.908511 3.70784C0.693574 2.59499 1.61478 2.03003 2.51146 2.69415L4.86239 4.43669C4.97766 4.52195 5.06968 4.50048 5.13305 4.37574L6.87038 0.942128C7.34674 0.00075052 8.40741 0.00169789 8.88314 0.942128L10.6208 4.37574C10.6845 4.5008 10.7759 4.52195 10.8914 4.43669L13.2424 2.69415C14.1391 2.02972 15.0606 2.59372 14.8453 3.70784L13.6086 9.14895ZM3.2916 8.44694H7.87692H12.4622L13.4462 4.11995L11.6534 5.44849C10.9042 6.00397 9.9021 5.77154 9.48241 4.94227L7.87692 1.76951L6.2711 4.94227C5.85205 5.7706 4.84965 6.00397 4.10008 5.44849L2.30799 4.12027L3.2916 8.44694ZM3.41897 10.6569C3.41872 10.6983 3.42674 10.7394 3.44256 10.7778C3.45839 10.8162 3.48171 10.8511 3.51118 10.8805C3.54066 10.9099 3.57571 10.9332 3.61431 10.9492C3.65291 10.9651 3.69431 10.9733 3.73612 10.9733H12.0177C12.0595 10.9734 12.101 10.9652 12.1396 10.9493C12.1783 10.9334 12.2133 10.9101 12.2428 10.8807C12.2723 10.8513 12.2956 10.8163 12.3114 10.7779C12.3272 10.7395 12.3352 10.6983 12.3349 10.6569V9.71011C12.3349 9.71011 9.61785 9.71011 7.87692 9.71011C6.13598 9.71011 3.41897 9.71011 3.41897 9.71011V10.6569Z" fill="#FFC700"/>
</svg>
