<svg width="25" height="24" viewBox="0 0 25 24" fill="none" xmlns="http://www.w3.org/2000/svg">
<path d="M5.2272 12.4194L4.99645 13.1302L4.99645 13.1302L5.2272 12.4194ZM8.01418 13.324L8.24492 12.6132L8.24492 12.6132L8.01418 13.324ZM9.0311 15.4225L8.33599 15.1479L8.33599 15.1479L9.0311 15.4225ZM7.43372 19.467L8.12883 19.7415L8.12883 19.7415L7.43372 19.467ZM20.4791 12.4194L20.7098 13.1302L20.7098 13.1302L20.4791 12.4194ZM17.6921 13.324L17.4614 12.6132L17.4614 12.6132L17.6921 13.324ZM16.6752 15.4225L17.3703 15.1479L17.3703 15.1479L16.6752 15.4225ZM18.2726 19.467L17.5775 19.7415L17.5775 19.7415L18.2726 19.467ZM10.8342 21.0387L11.4788 21.417L11.4788 21.417L10.8342 21.0387ZM12.8531 17.5981L13.4977 17.2198C13.3636 16.9912 13.1183 16.8507 12.8531 16.8507C12.588 16.8507 12.3427 16.9912 12.2086 17.2198L12.8531 17.5981ZM19.4469 8.73615L19.5996 9.46776L19.5996 9.46776L19.4469 8.73615ZM17.0157 9.24348L16.8631 8.51187L16.8631 8.51187L17.0157 9.24348ZM8.69056 9.24348L8.84323 8.51187L8.84323 8.51187L8.69056 9.24348ZM6.2594 8.73615L6.10673 9.46776L6.10673 9.46776L6.2594 8.73615ZM14.8721 21.0387L14.2275 21.417L14.2275 21.417L14.8721 21.0387ZM16.7459 9.2993L16.5983 8.56665L16.5983 8.56665L16.7459 9.2993ZM8.96036 9.2993L8.81278 10.0319L8.81278 10.0319L8.96036 9.2993ZM17.0603 13.5642L17.4453 14.2047L17.4453 14.2047L17.0603 13.5642ZM16.4639 14.7949L17.204 14.6909L17.204 14.6909L16.4639 14.7949ZM8.64602 13.5642L8.26097 14.2047L8.26097 14.2047L8.64602 13.5642ZM9.24243 14.7949L9.98254 14.8988L9.98254 14.8988L9.24243 14.7949ZM14.4659 4.40514C14.4659 5.30423 13.7409 6.02776 12.8531 6.02776V7.52249C14.5723 7.52249 15.9606 6.12386 15.9606 4.40514H14.4659ZM12.8531 6.02776C11.9654 6.02776 11.2404 5.30423 11.2404 4.40514H9.74568C9.74568 6.12386 11.134 7.52249 12.8531 7.52249V6.02776ZM11.2404 4.40514C11.2404 3.50604 11.9654 2.78252 12.8531 2.78252V1.28779C11.134 1.28779 9.74568 2.68642 9.74568 4.40514H11.2404ZM12.8531 2.78252C13.7409 2.78252 14.4659 3.50604 14.4659 4.40514H15.9606C15.9606 2.68642 14.5723 1.28779 12.8531 1.28779V2.78252ZM4.99645 13.1302L7.78343 14.0349L8.24492 12.6132L5.45794 11.7085L4.99645 13.1302ZM8.33599 15.1479L6.73861 19.1924L8.12883 19.7415L9.72622 15.697L8.33599 15.1479ZM20.2483 11.7085L17.4614 12.6132L17.9229 14.0349L20.7098 13.1302L20.2483 11.7085ZM15.9801 15.697L17.5775 19.7415L18.9677 19.1924L17.3703 15.1479L15.9801 15.697ZM11.4788 21.417L13.4977 17.9763L12.2086 17.2198L10.1896 20.6605L11.4788 21.417ZM19.2942 8.00455L16.8631 8.51187L17.1684 9.97508L19.5996 9.46776L19.2942 8.00455ZM8.84323 8.51187L6.41207 8.00455L6.10673 9.46776L8.53789 9.97508L8.84323 8.51187ZM12.2086 17.9763L14.2275 21.417L15.5167 20.6605L13.4977 17.2198L12.2086 17.9763ZM16.8631 8.51187C16.7269 8.54029 16.6622 8.55378 16.5983 8.56665L16.8935 10.0319C16.9637 10.0178 17.0342 10.0031 17.1684 9.97508L16.8631 8.51187ZM8.53789 9.97508C8.67207 10.0031 8.74262 10.0178 8.81278 10.0319L9.10794 8.56665C9.04406 8.55378 8.97943 8.5403 8.84323 8.51187L8.53789 9.97508ZM16.5983 8.56665C14.1277 9.06431 11.5785 9.06431 9.10794 8.56665L8.81278 10.0319C11.4782 10.5689 14.2281 10.5689 16.8935 10.0319L16.5983 8.56665ZM9.1954 22.7123C10.1313 22.7123 11.0053 22.2239 11.4788 21.417L10.1896 20.6605C9.99102 20.9989 9.61417 21.2175 9.1954 21.2175V22.7123ZM17.5775 19.7415C17.8483 20.4273 17.3383 21.2175 16.5109 21.2175V22.7123C18.3327 22.7123 19.6478 20.9146 18.9677 19.1924L17.5775 19.7415ZM17.4614 12.6132C17.165 12.7094 16.8936 12.7924 16.6752 12.9236L17.4453 14.2047C17.4802 14.1837 17.5456 14.1573 17.9229 14.0349L17.4614 12.6132ZM17.3703 15.1479C17.2266 14.7841 17.2086 14.7242 17.204 14.6909L15.7237 14.8988C15.7594 15.1527 15.8689 15.4155 15.9801 15.697L17.3703 15.1479ZM16.6752 12.9236C15.9934 13.3335 15.6124 14.1055 15.7237 14.8988L17.204 14.6909C17.178 14.5062 17.2646 14.3133 17.4453 14.2047L16.6752 12.9236ZM21.0742 10.6056C21.0742 11.094 20.7522 11.5449 20.2483 11.7085L20.7098 13.1302C21.8093 12.7733 22.5689 11.763 22.5689 10.6056H21.0742ZM6.73861 19.1924C6.05844 20.9146 7.37361 22.7123 9.1954 22.7123V21.2175C8.36799 21.2175 7.85799 20.4273 8.12883 19.7415L6.73861 19.1924ZM7.78343 14.0349C8.16064 14.1573 8.22606 14.1837 8.26097 14.2047L9.03106 12.9236C8.8127 12.7924 8.54131 12.7094 8.24492 12.6132L7.78343 14.0349ZM9.72622 15.697C9.83742 15.4155 9.94688 15.1527 9.98254 14.8988L8.50233 14.6909C8.49766 14.7242 8.47968 14.7841 8.33599 15.1479L9.72622 15.697ZM8.26097 14.2047C8.4417 14.3133 8.52827 14.5062 8.50233 14.6909L9.98254 14.8988C10.0939 14.1055 9.71289 13.3335 9.03106 12.9236L8.26097 14.2047ZM3.1374 10.6056C3.1374 11.763 3.89698 12.7733 4.99645 13.1302L5.45794 11.7085C4.95404 11.5449 4.63213 11.094 4.63213 10.6056H3.1374ZM4.63213 10.6056C4.63213 9.88708 5.32444 9.30451 6.10673 9.46776L6.41207 8.00455C4.75005 7.65772 3.1374 8.88973 3.1374 10.6056H4.63213ZM14.2275 21.417C14.701 22.224 15.575 22.7123 16.5109 22.7123V21.2175C16.0921 21.2175 15.7153 20.9989 15.5167 20.6605L14.2275 21.417ZM22.5689 10.6056C22.5689 8.88973 20.9562 7.65772 19.2942 8.00455L19.5996 9.46776C20.3819 9.30451 21.0742 9.88708 21.0742 10.6056H22.5689Z" fill="#26292D"/>
</svg>
