<svg width="49" height="42" viewBox="0 0 49 42" fill="none" xmlns="http://www.w3.org/2000/svg">
<path d="M27 4.5C27 5.88071 25.8807 7 24.5 7C23.1193 7 22 5.88071 22 4.5C22 3.11929 23.1193 2 24.5 2C25.8807 2 27 3.11929 27 4.5Z" stroke="#B1ACCE" stroke-width="2"/>
<path d="M16.422 12.9308L16.7296 11.9793H16.7296L16.422 12.9308ZM19.3742 13.8851L19.0666 14.8366L19.0666 14.8366L19.3742 13.8851ZM20.4514 16.0987L19.5218 15.73L20.4514 16.0987ZM18.7593 20.365L19.6889 20.7337V20.7337L18.7593 20.365ZM32.578 12.9308L32.2704 11.9793L32.578 12.9308ZM29.6258 13.8851L29.9334 14.8366L29.6258 13.8851ZM28.5486 16.0987L29.4782 15.73L28.5486 16.0987ZM30.2407 20.365L29.3111 20.7337V20.7337L30.2407 20.365ZM22.3614 22.0231L23.2229 22.5307V22.5307L22.3614 22.0231ZM24.5 18.3936L25.3616 17.886C25.1818 17.5809 24.8541 17.3936 24.5 17.3936C24.1459 17.3936 23.8182 17.5809 23.6384 17.886L24.5 18.3936ZM31.4846 9.04554L31.2811 8.06645L31.4846 9.04554ZM28.9093 9.58069L29.1128 10.5598V10.5598L28.9093 9.58069ZM20.0907 9.5807L20.2941 8.60161L20.2941 8.60161L20.0907 9.5807ZM17.5154 9.04554L17.3119 10.0246L17.5154 9.04554ZM26.6386 22.0231L25.7771 22.5307L25.7771 22.5307L26.6386 22.0231ZM28.6235 9.63957L28.4269 8.6591L28.4269 8.65911L28.6235 9.63957ZM20.3765 9.63957L20.1798 10.62L20.1798 10.62L20.3765 9.63957ZM28.9565 14.1384L29.4701 14.9964L28.9565 14.1384ZM28.3247 15.4366L29.3149 15.297L29.3149 15.297L28.3247 15.4366ZM20.0435 14.1384L19.5299 14.9964H19.5299L20.0435 14.1384ZM20.6753 15.4366L21.6655 15.5763V15.5763L20.6753 15.4366ZM16.1144 13.8823L19.0666 14.8366L19.6818 12.9336L16.7296 11.9793L16.1144 13.8823ZM19.5218 15.73L17.8298 19.9964L19.6889 20.7337L21.381 16.4674L19.5218 15.73ZM32.2704 11.9793L29.3182 12.9336L29.9334 14.8366L32.8856 13.8823L32.2704 11.9793ZM27.619 16.4674L29.3111 20.7337L31.1702 19.9964L29.4782 15.73L27.619 16.4674ZM23.2229 22.5307L25.3616 18.9013L23.6384 17.886L21.4998 21.5154L23.2229 22.5307ZM31.2811 8.06645L28.7059 8.60161L29.1128 10.5598L31.6881 10.0246L31.2811 8.06645ZM20.2941 8.60161L17.7189 8.06645L17.3119 10.0246L19.8872 10.5598L20.2941 8.60161ZM23.6384 18.9013L25.7771 22.5307L27.5002 21.5154L25.3616 17.886L23.6384 18.9013ZM28.7059 8.60161C28.5614 8.63164 28.4937 8.6457 28.4269 8.6591L28.8202 10.62C28.8954 10.605 28.9709 10.5893 29.1128 10.5598L28.7059 8.60161ZM19.8872 10.5598C20.0291 10.5893 20.1046 10.605 20.1798 10.62L20.5731 8.65911C20.5063 8.6457 20.4386 8.63164 20.2941 8.60161L19.8872 10.5598ZM28.4269 8.65911C25.8365 9.17872 23.1635 9.17872 20.5731 8.65911L20.1798 10.62C23.0298 11.1917 25.9702 11.1917 28.8202 10.62L28.4269 8.65911ZM20.6254 24C21.6869 24 22.6821 23.4485 23.2229 22.5307L21.4998 21.5154C21.3287 21.8058 20.999 22 20.6254 22V24ZM29.3111 20.7337C29.5374 21.3043 29.1183 22 28.3746 22V24C30.4371 24 31.9513 21.9658 31.1702 19.9964L29.3111 20.7337ZM29.3182 12.9336C29.0155 13.0315 28.6996 13.1267 28.4429 13.2804L29.4701 14.9964C29.4602 15.0024 29.4723 14.993 29.5521 14.9637C29.6355 14.9331 29.7476 14.8967 29.9334 14.8366L29.3182 12.9336ZM29.4782 15.73C29.4077 15.5523 29.366 15.4467 29.3379 15.3664C29.3112 15.2901 29.3125 15.2797 29.3149 15.297L27.3345 15.5763C27.3768 15.8759 27.5059 16.1822 27.619 16.4674L29.4782 15.73ZM28.4429 13.2804C27.6511 13.7544 27.2041 14.6509 27.3345 15.5763L29.3149 15.297C29.3 15.1907 29.3483 15.0694 29.4701 14.9964L28.4429 13.2804ZM33 11.0175C33 11.4353 32.7228 11.8331 32.2704 11.9793L32.8856 13.8823C34.1316 13.4795 35 12.3359 35 11.0175H33ZM17.8298 19.9964C17.0487 21.9658 18.5629 24 20.6254 24V22C19.8817 22 19.4626 21.3043 19.6889 20.7337L17.8298 19.9964ZM19.0666 14.8366C19.2524 14.8967 19.3645 14.9331 19.4479 14.9637C19.5277 14.993 19.5398 15.0024 19.5299 14.9964L20.5571 13.2804C20.3004 13.1267 19.9845 13.0315 19.6818 12.9336L19.0666 14.8366ZM21.381 16.4674C21.4941 16.1822 21.6232 15.8759 21.6655 15.5763L19.6851 15.297C19.6875 15.2797 19.6888 15.2901 19.6621 15.3664C19.634 15.4467 19.5923 15.5523 19.5218 15.73L21.381 16.4674ZM19.5299 14.9964C19.6517 15.0694 19.7 15.1907 19.6851 15.297L21.6655 15.5763C21.7959 14.6509 21.3489 13.7544 20.5571 13.2804L19.5299 14.9964ZM14 11.0175C14 12.3359 14.8684 13.4795 16.1144 13.8823L16.7296 11.9793C16.2772 11.8331 16 11.4353 16 11.0175H14ZM16 11.0175C16 10.4056 16.6005 9.87679 17.3119 10.0246L17.7189 8.06645C15.841 7.67623 14 9.06159 14 11.0175H16ZM25.7771 22.5307C26.3179 23.4485 27.3131 24 28.3746 24V22C28.001 22 27.6713 21.8058 27.5002 21.5154L25.7771 22.5307ZM35 11.0175C35 9.06159 33.159 7.67623 31.2811 8.06645L31.6881 10.0246C32.3995 9.87679 33 10.4056 33 11.0175H35Z" fill="#B1ACCE"/>
<path opacity="0.8" d="M34.5625 19C36.7002 20.0615 38 21.4633 38 23C38 26.3137 31.9558 29 24.5 29C17.0442 29 11 26.3137 11 23C11 21.4633 12.2998 20.0615 14.4375 19" stroke="white" stroke-width="2" stroke-linecap="round"/>
<path d="M7.12 33V40H6.14V33.87H2.08V40H1.09V33H7.12ZM11.9529 34.65C12.4662 34.65 12.9262 34.7633 13.3329 34.99C13.7396 35.2167 14.0562 35.5333 14.2829 35.94C14.5162 36.3467 14.6329 36.8167 14.6329 37.35C14.6329 37.8833 14.5162 38.3567 14.2829 38.77C14.0562 39.1767 13.7396 39.4933 13.3329 39.72C12.9262 39.9467 12.4662 40.06 11.9529 40.06C11.5729 40.06 11.2229 39.9867 10.9029 39.84C10.5896 39.6933 10.3229 39.48 10.1029 39.2V41.94H9.14289V34.7H10.0629V35.54C10.2762 35.2467 10.5462 35.0267 10.8729 34.88C11.1996 34.7267 11.5596 34.65 11.9529 34.65ZM11.8729 39.22C12.2129 39.22 12.5162 39.1433 12.7829 38.99C13.0562 38.83 13.2696 38.61 13.4229 38.33C13.5829 38.0433 13.6629 37.7167 13.6629 37.35C13.6629 36.9833 13.5829 36.66 13.4229 36.38C13.2696 36.0933 13.0562 35.8733 12.7829 35.72C12.5162 35.5667 12.2129 35.49 11.8729 35.49C11.5396 35.49 11.2362 35.57 10.9629 35.73C10.6962 35.8833 10.4829 36.1 10.3229 36.38C10.1696 36.66 10.0929 36.9833 10.0929 37.35C10.0929 37.7167 10.1696 38.0433 10.3229 38.33C10.4762 38.61 10.6896 38.83 10.9629 38.99C11.2362 39.1433 11.5396 39.22 11.8729 39.22ZM18.2977 40.06C17.771 40.06 17.2977 39.9433 16.8777 39.71C16.4577 39.4767 16.1277 39.1567 15.8877 38.75C15.6543 38.3367 15.5377 37.87 15.5377 37.35C15.5377 36.83 15.6543 36.3667 15.8877 35.96C16.1277 35.5467 16.4577 35.2267 16.8777 35C17.2977 34.7667 17.771 34.65 18.2977 34.65C18.8243 34.65 19.2943 34.7667 19.7077 35C20.1277 35.2267 20.4543 35.5467 20.6877 35.96C20.9277 36.3667 21.0477 36.83 21.0477 37.35C21.0477 37.87 20.9277 38.3367 20.6877 38.75C20.4543 39.1567 20.1277 39.4767 19.7077 39.71C19.2943 39.9433 18.8243 40.06 18.2977 40.06ZM18.2977 39.22C18.6377 39.22 18.941 39.1433 19.2077 38.99C19.481 38.83 19.6943 38.61 19.8477 38.33C20.001 38.0433 20.0777 37.7167 20.0777 37.35C20.0777 36.9833 20.001 36.66 19.8477 36.38C19.6943 36.0933 19.481 35.8733 19.2077 35.72C18.941 35.5667 18.6377 35.49 18.2977 35.49C17.9577 35.49 17.651 35.5667 17.3777 35.72C17.111 35.8733 16.8977 36.0933 16.7377 36.38C16.5843 36.66 16.5077 36.9833 16.5077 37.35C16.5077 37.7167 16.5843 38.0433 16.7377 38.33C16.8977 38.61 17.111 38.83 17.3777 38.99C17.651 39.1433 17.9577 39.22 18.2977 39.22ZM29.1239 37.34C29.1239 38.16 28.8506 38.8067 28.3039 39.28C27.7572 39.7533 26.9872 40.0167 25.9939 40.07V41.94H25.0539V40.07C24.0606 40.0167 23.2906 39.7567 22.7439 39.29C22.2039 38.8167 21.9339 38.1667 21.9339 37.34C21.9339 36.52 22.2039 35.88 22.7439 35.42C23.2839 34.96 24.0539 34.7033 25.0539 34.65V32.58H25.9939V34.65C26.9872 34.7033 27.7572 34.9633 28.3039 35.43C28.8506 35.89 29.1239 36.5267 29.1239 37.34ZM22.8839 37.34C22.8839 37.9067 23.0639 38.35 23.4239 38.67C23.7906 38.99 24.3339 39.1733 25.0539 39.22V35.5C24.3272 35.5467 23.7839 35.7267 23.4239 36.04C23.0639 36.3533 22.8839 36.7867 22.8839 37.34ZM25.9939 39.23C27.4472 39.1167 28.1739 38.4867 28.1739 37.34C28.1739 36.78 27.9906 36.3467 27.6239 36.04C27.2572 35.7267 26.7139 35.5467 25.9939 35.5V39.23ZM30.4808 34.7H31.4408V38.56L34.6908 34.7H35.5608V40H34.6008V36.14L31.3608 40H30.4808V34.7ZM41.9741 34.7V40H41.0141V35.54H38.7341L38.6741 36.72C38.6408 37.4333 38.5775 38.03 38.4841 38.51C38.3908 38.9833 38.2375 39.3633 38.0241 39.65C37.8108 39.9367 37.5141 40.08 37.1341 40.08C36.9608 40.08 36.7641 40.05 36.5441 39.99L36.6041 39.18C36.6908 39.2 36.7708 39.21 36.8441 39.21C37.1108 39.21 37.3108 39.0933 37.4441 38.86C37.5775 38.6267 37.6641 38.35 37.7041 38.03C37.7441 37.71 37.7808 37.2533 37.8141 36.66L37.9041 34.7H41.9741ZM46.2804 36.5C46.9537 36.5067 47.4671 36.66 47.8204 36.96C48.1737 37.26 48.3504 37.6833 48.3504 38.23C48.3504 38.8033 48.1571 39.2467 47.7704 39.56C47.3904 39.8667 46.8437 40.0167 46.1304 40.01L43.8304 40V34.7H44.7904V36.49L46.2804 36.5ZM46.0504 39.28C46.4837 39.2867 46.8104 39.2 47.0304 39.02C47.2571 38.84 47.3704 38.5733 47.3704 38.22C47.3704 37.8733 47.2604 37.62 47.0404 37.46C46.8271 37.3 46.4971 37.2167 46.0504 37.21L44.7904 37.19V39.27L46.0504 39.28Z" fill="#B1ACCE"/>
</svg>
