<svg width="79" height="31" viewBox="0 0 79 31" fill="none" xmlns="http://www.w3.org/2000/svg">
<path d="M13.3507 13.3851V0.873516H18.7664C19.8865 0.873516 20.8517 1.05821 21.662 1.4276C22.4723 1.78508 23.0979 2.30342 23.5387 2.98262C23.9796 3.66182 24.2001 4.4721 24.2001 5.41345C24.2001 6.34288 23.9796 7.1472 23.5387 7.8264C23.0979 8.5056 22.4723 9.0299 21.662 9.39929C20.8517 9.75676 19.8865 9.9355 18.7664 9.9355H14.9593L16.2463 8.63072V13.3851H13.3507ZM16.2463 8.95245L14.9593 7.57617H18.6056C19.4993 7.57617 20.1666 7.38551 20.6074 7.00421C21.0483 6.6229 21.2688 6.09265 21.2688 5.41345C21.2688 4.72233 21.0483 4.18612 20.6074 3.80481C20.1666 3.4235 19.4993 3.23285 18.6056 3.23285H14.9593L16.2463 1.85657V8.95245ZM31.7562 13.5996C29.9807 13.5996 28.5925 13.1051 27.5916 12.1161C26.5907 11.1271 26.0902 9.71506 26.0902 7.88002V0.873516H28.9858V7.77278C28.9858 8.96436 29.23 9.8223 29.7186 10.3466C30.2071 10.8709 30.8923 11.133 31.7741 11.133C32.6558 11.133 33.341 10.8709 33.8295 10.3466C34.3181 9.8223 34.5624 8.96436 34.5624 7.77278V0.873516H37.4222V7.88002C37.4222 9.71506 36.9217 11.1271 35.9208 12.1161C34.9198 13.1051 33.5316 13.5996 31.7562 13.5996ZM40.2835 13.3851V0.873516H46.3963C47.9692 0.873516 49.1489 1.17141 49.9353 1.7672C50.7337 2.36299 51.1329 3.14944 51.1329 4.12654C51.1329 4.78191 50.972 5.35387 50.6503 5.84242C50.3285 6.31905 49.8876 6.68844 49.3276 6.95059C48.7676 7.21273 48.1241 7.34381 47.3972 7.34381L47.7368 6.61099C48.5233 6.61099 49.2204 6.74206 49.8281 7.00421C50.4358 7.25444 50.9065 7.62979 51.2401 8.13025C51.5857 8.63072 51.7584 9.24438 51.7584 9.97125C51.7584 11.0437 51.3354 11.8837 50.4894 12.4914C49.6434 13.0872 48.3982 13.3851 46.7538 13.3851H40.2835ZM43.1612 11.2045H46.5393C47.29 11.2045 47.856 11.0854 48.2373 10.8471C48.6305 10.5968 48.8271 10.2036 48.8271 9.66739C48.8271 9.1431 48.6305 8.75583 48.2373 8.5056C47.856 8.24345 47.29 8.11238 46.5393 8.11238H42.9467V6.00328H46.0388C46.7419 6.00328 47.2781 5.88412 47.6475 5.6458C48.0288 5.39557 48.2194 5.02022 48.2194 4.51976C48.2194 4.03121 48.0288 3.66778 47.6475 3.42946C47.2781 3.17923 46.7419 3.05411 46.0388 3.05411H43.1612V11.2045ZM59.9919 13.5996C59.0029 13.5996 58.0914 13.4447 57.2573 13.1349C56.4351 12.8132 55.7142 12.3604 55.0945 11.7765C54.4868 11.1926 54.0102 10.5075 53.6646 9.72102C53.331 8.93457 53.1642 8.07067 53.1642 7.12932C53.1642 6.18797 53.331 5.32408 53.6646 4.53763C54.0102 3.75119 54.4928 3.06603 55.1124 2.48215C55.732 1.89828 56.4589 1.45143 57.293 1.14162C58.1271 0.819895 59.0446 0.659032 60.0456 0.659032C61.1537 0.659032 62.1487 0.843727 63.0305 1.21312C63.9242 1.58251 64.6749 2.11872 65.2826 2.82175L63.4237 4.53763C62.9709 4.061 62.4764 3.70948 61.9402 3.48308C61.404 3.24477 60.8201 3.12561 60.1886 3.12561C59.5808 3.12561 59.0268 3.22093 58.5263 3.41159C58.0258 3.60224 57.5909 3.8763 57.2215 4.23378C56.864 4.59125 56.584 5.01427 56.3814 5.50281C56.1908 5.99136 56.0955 6.53353 56.0955 7.12932C56.0955 7.7132 56.1908 8.24941 56.3814 8.73796C56.584 9.22651 56.864 9.65548 57.2215 10.0249C57.5909 10.3823 58.0199 10.6564 58.5084 10.8471C59.0089 11.0377 59.557 11.133 60.1528 11.133C60.7248 11.133 61.2788 11.0437 61.8151 10.8649C62.3632 10.6743 62.8934 10.3585 63.4058 9.91763L65.0502 12.0089C64.371 12.5212 63.5786 12.9145 62.673 13.1885C61.7793 13.4626 60.8856 13.5996 59.9919 13.5996ZM62.4049 11.6335V6.93271H65.0502V12.0089L62.4049 11.6335Z" fill="#615C7E"/>
<path d="M1.56619 28.3851V20.6851H4.87719C5.71319 20.6851 6.36952 20.8538 6.84619 21.1911C7.32285 21.5285 7.56119 22.0198 7.56119 22.6651C7.56119 23.2958 7.33385 23.7798 6.87919 24.1171C6.42452 24.4471 5.82685 24.6121 5.08619 24.6121L5.28419 24.2821C6.14219 24.2821 6.79852 24.4545 7.25319 24.7991C7.71519 25.1365 7.94619 25.6315 7.94619 26.2841C7.94619 26.9441 7.70419 27.4611 7.22019 27.8351C6.74352 28.2018 6.03219 28.3851 5.08619 28.3851H1.56619ZM2.65519 27.5161H5.06419C5.65085 27.5161 6.09085 27.4098 6.38419 27.1971C6.68485 26.9771 6.83519 26.6435 6.83519 26.1961C6.83519 25.7488 6.68485 25.4225 6.38419 25.2171C6.09085 25.0118 5.65085 24.9091 5.06419 24.9091H2.65519V27.5161ZM2.65519 24.0731H4.80019C5.33552 24.0731 5.74252 23.9668 6.02119 23.7541C6.30719 23.5415 6.45019 23.2298 6.45019 22.8191C6.45019 22.4011 6.30719 22.0858 6.02119 21.8731C5.74252 21.6605 5.33552 21.5541 4.80019 21.5541H2.65519V24.0731ZM15.6531 28.4511C15.1691 28.4511 14.7254 28.3411 14.3221 28.1211C13.9261 27.8938 13.6071 27.5601 13.3651 27.1201C13.1304 26.6801 13.0131 26.1301 13.0131 25.4701C13.0131 24.8101 13.1267 24.2601 13.3541 23.8201C13.5887 23.3801 13.9041 23.0501 14.3001 22.8301C14.7034 22.6101 15.1544 22.5001 15.6531 22.5001C16.2251 22.5001 16.7311 22.6248 17.1711 22.8741C17.6111 23.1235 17.9594 23.4718 18.2161 23.9191C18.4727 24.3591 18.6011 24.8761 18.6011 25.4701C18.6011 26.0641 18.4727 26.5848 18.2161 27.0321C17.9594 27.4795 17.6111 27.8278 17.1711 28.0771C16.7311 28.3265 16.2251 28.4511 15.6531 28.4511ZM12.5621 30.5191V22.5551H13.5741V24.1281L13.5081 25.4811L13.6181 26.8341V30.5191H12.5621ZM15.5651 27.5271C15.9391 27.5271 16.2727 27.4428 16.5661 27.2741C16.8667 27.1055 17.1014 26.8671 17.2701 26.5591C17.4461 26.2438 17.5341 25.8808 17.5341 25.4701C17.5341 25.0521 17.4461 24.6928 17.2701 24.3921C17.1014 24.0841 16.8667 23.8458 16.5661 23.6771C16.2727 23.5085 15.9391 23.4241 15.5651 23.4241C15.1984 23.4241 14.8647 23.5085 14.5641 23.6771C14.2707 23.8458 14.0361 24.0841 13.8601 24.3921C13.6914 24.6928 13.6071 25.0521 13.6071 25.4701C13.6071 25.8808 13.6914 26.2438 13.8601 26.5591C14.0361 26.8671 14.2707 27.1055 14.5641 27.2741C14.8647 27.4428 15.1984 27.5271 15.5651 27.5271ZM23.6566 28.3851V27.1531L23.6016 26.9221V24.8211C23.6016 24.3738 23.4696 24.0291 23.2056 23.7871C22.9489 23.5378 22.5603 23.4131 22.0396 23.4131C21.6949 23.4131 21.3576 23.4718 21.0276 23.5891C20.6976 23.6991 20.4189 23.8495 20.1916 24.0401L19.7516 23.2481C20.0523 23.0061 20.4116 22.8228 20.8296 22.6981C21.2549 22.5661 21.6986 22.5001 22.1606 22.5001C22.9599 22.5001 23.5759 22.6945 24.0086 23.0831C24.4413 23.4718 24.6576 24.0658 24.6576 24.8651V28.3851H23.6566ZM21.7426 28.4511C21.3099 28.4511 20.9286 28.3778 20.5986 28.2311C20.2759 28.0845 20.0266 27.8828 19.8506 27.6261C19.6746 27.3621 19.5866 27.0651 19.5866 26.7351C19.5866 26.4198 19.6599 26.1338 19.8066 25.8771C19.9606 25.6205 20.2063 25.4151 20.5436 25.2611C20.8883 25.1071 21.3503 25.0301 21.9296 25.0301H23.7776V25.7891H21.9736C21.4456 25.7891 21.0899 25.8771 20.9066 26.0531C20.7233 26.2291 20.6316 26.4418 20.6316 26.6911C20.6316 26.9771 20.7453 27.2081 20.9726 27.3841C21.1999 27.5528 21.5153 27.6371 21.9186 27.6371C22.3146 27.6371 22.6593 27.5491 22.9526 27.3731C23.2533 27.1971 23.4696 26.9405 23.6016 26.6031L23.8106 27.3291C23.6713 27.6738 23.4256 27.9488 23.0736 28.1541C22.7216 28.3521 22.2779 28.4511 21.7426 28.4511ZM28.1675 28.4621C27.7275 28.4621 27.2948 28.4071 26.8695 28.2971C26.4515 28.1798 26.0775 28.0148 25.7475 27.8021L26.0665 26.9991C26.3451 27.1751 26.6641 27.3145 27.0235 27.4171C27.3828 27.5125 27.7458 27.5601 28.1125 27.5601C28.4498 27.5601 28.7395 27.5198 28.9815 27.4391C29.2308 27.3585 29.4215 27.2485 29.5535 27.1091C29.6855 26.9625 29.7515 26.7938 29.7515 26.6031C29.7515 26.3318 29.6305 26.1228 29.3885 25.9761C29.1465 25.8295 28.8091 25.7561 28.3765 25.7561H27.3205V24.9971H28.3105C28.5671 24.9971 28.7908 24.9678 28.9815 24.9091C29.1721 24.8505 29.3188 24.7625 29.4215 24.6451C29.5315 24.5205 29.5865 24.3775 29.5865 24.2161C29.5865 24.0401 29.5241 23.8898 29.3995 23.7651C29.2748 23.6405 29.0988 23.5451 28.8715 23.4791C28.6515 23.4131 28.3911 23.3801 28.0905 23.3801C27.7971 23.3875 27.4965 23.4278 27.1885 23.5011C26.8878 23.5745 26.5798 23.6881 26.2645 23.8421L25.9785 23.0171C26.3305 22.8485 26.6751 22.7201 27.0125 22.6321C27.3571 22.5368 27.6981 22.4855 28.0355 22.4781C28.5415 22.4635 28.9925 22.5221 29.3885 22.6541C29.7845 22.7788 30.0961 22.9621 30.3235 23.2041C30.5581 23.4461 30.6755 23.7321 30.6755 24.0621C30.6755 24.3408 30.5875 24.5901 30.4115 24.8101C30.2355 25.0228 30.0008 25.1915 29.7075 25.3161C29.4141 25.4408 29.0768 25.5031 28.6955 25.5031L28.7395 25.2501C29.3921 25.2501 29.9055 25.3785 30.2795 25.6351C30.6535 25.8918 30.8405 26.2401 30.8405 26.6801C30.8405 27.0321 30.7231 27.3438 30.4885 27.6151C30.2538 27.8791 29.9348 28.0881 29.5315 28.2421C29.1355 28.3888 28.6808 28.4621 28.1675 28.4621ZM35.5369 28.4511C35.0529 28.4511 34.6092 28.3411 34.2059 28.1211C33.8099 27.8938 33.4909 27.5601 33.2489 27.1201C33.0142 26.6801 32.8969 26.1301 32.8969 25.4701C32.8969 24.8101 33.0105 24.2601 33.2379 23.8201C33.4725 23.3801 33.7879 23.0501 34.1839 22.8301C34.5872 22.6101 35.0382 22.5001 35.5369 22.5001C36.1089 22.5001 36.6149 22.6248 37.0549 22.8741C37.4949 23.1235 37.8432 23.4718 38.0999 23.9191C38.3565 24.3591 38.4849 24.8761 38.4849 25.4701C38.4849 26.0641 38.3565 26.5848 38.0999 27.0321C37.8432 27.4795 37.4949 27.8278 37.0549 28.0771C36.6149 28.3265 36.1089 28.4511 35.5369 28.4511ZM32.4459 30.5191V22.5551H33.4579V24.1281L33.3919 25.4811L33.5019 26.8341V30.5191H32.4459ZM35.4489 27.5271C35.8229 27.5271 36.1565 27.4428 36.4499 27.2741C36.7505 27.1055 36.9852 26.8671 37.1539 26.5591C37.3299 26.2438 37.4179 25.8808 37.4179 25.4701C37.4179 25.0521 37.3299 24.6928 37.1539 24.3921C36.9852 24.0841 36.7505 23.8458 36.4499 23.6771C36.1565 23.5085 35.8229 23.4241 35.4489 23.4241C35.0822 23.4241 34.7485 23.5085 34.4479 23.6771C34.1545 23.8458 33.9199 24.0841 33.7439 24.3921C33.5752 24.6928 33.4909 25.0521 33.4909 25.4701C33.4909 25.8808 33.5752 26.2438 33.7439 26.5591C33.9199 26.8671 34.1545 27.1055 34.4479 27.2741C34.7485 27.4428 35.0822 27.5271 35.4489 27.5271ZM43.5404 28.3851V27.1531L43.4854 26.9221V24.8211C43.4854 24.3738 43.3534 24.0291 43.0894 23.7871C42.8327 23.5378 42.444 23.4131 41.9234 23.4131C41.5787 23.4131 41.2414 23.4718 40.9114 23.5891C40.5814 23.6991 40.3027 23.8495 40.0754 24.0401L39.6354 23.2481C39.936 23.0061 40.2954 22.8228 40.7134 22.6981C41.1387 22.5661 41.5824 22.5001 42.0444 22.5001C42.8437 22.5001 43.4597 22.6945 43.8924 23.0831C44.325 23.4718 44.5414 24.0658 44.5414 24.8651V28.3851H43.5404ZM41.6264 28.4511C41.1937 28.4511 40.8124 28.3778 40.4824 28.2311C40.1597 28.0845 39.9104 27.8828 39.7344 27.6261C39.5584 27.3621 39.4704 27.0651 39.4704 26.7351C39.4704 26.4198 39.5437 26.1338 39.6904 25.8771C39.8444 25.6205 40.09 25.4151 40.4274 25.2611C40.772 25.1071 41.234 25.0301 41.8134 25.0301H43.6614V25.7891H41.8574C41.3294 25.7891 40.9737 25.8771 40.7904 26.0531C40.607 26.2291 40.5154 26.4418 40.5154 26.6911C40.5154 26.9771 40.629 27.2081 40.8564 27.3841C41.0837 27.5528 41.399 27.6371 41.8024 27.6371C42.1984 27.6371 42.543 27.5491 42.8364 27.3731C43.137 27.1971 43.3534 26.9405 43.4854 26.6031L43.6944 27.3291C43.555 27.6738 43.3094 27.9488 42.9574 28.1541C42.6054 28.3521 42.1617 28.4511 41.6264 28.4511ZM49.1379 28.4731C48.6539 28.4731 48.2249 28.3961 47.8509 28.2421C47.4843 28.0881 47.1689 27.8608 46.9049 27.5601C46.6409 27.2521 46.4393 26.8671 46.2999 26.4051C46.1679 25.9358 46.1019 25.3858 46.1019 24.7551C46.1019 24.2565 46.1459 23.8091 46.2339 23.4131C46.3219 23.0171 46.4466 22.6651 46.6079 22.3571C46.7766 22.0491 46.9819 21.7815 47.2239 21.5541C47.4733 21.3268 47.7519 21.1398 48.0599 20.9931C48.3753 20.8391 48.7199 20.7218 49.0939 20.6411L51.7559 20.0471L51.9099 21.0261L49.4569 21.5541C49.3103 21.5835 49.1343 21.6275 48.9289 21.6861C48.7236 21.7448 48.5146 21.8365 48.3019 21.9611C48.0893 22.0785 47.8913 22.2435 47.7079 22.4561C47.5246 22.6688 47.3779 22.9475 47.2679 23.2921C47.1579 23.6295 47.1029 24.0475 47.1029 24.5461C47.1029 24.6855 47.1066 24.7918 47.1139 24.8651C47.1213 24.9385 47.1286 25.0118 47.1359 25.0851C47.1506 25.1585 47.1616 25.2685 47.1689 25.4151L46.7289 24.9641C46.8463 24.5608 47.0333 24.2088 47.2899 23.9081C47.5466 23.6075 47.8546 23.3765 48.2139 23.2151C48.5806 23.0465 48.9803 22.9621 49.4129 22.9621C49.9556 22.9621 50.4359 23.0795 50.8539 23.3141C51.2793 23.5488 51.6129 23.8715 51.8549 24.2821C52.0969 24.6928 52.2179 25.1621 52.2179 25.6901C52.2179 26.2255 52.0896 26.7058 51.8329 27.1311C51.5836 27.5491 51.2279 27.8791 50.7659 28.1211C50.3039 28.3558 49.7613 28.4731 49.1379 28.4731ZM49.2369 27.5931C49.6109 27.5931 49.9409 27.5125 50.2269 27.3511C50.5129 27.1825 50.7366 26.9588 50.8979 26.6801C51.0593 26.3941 51.1399 26.0751 51.1399 25.7231C51.1399 25.3711 51.0593 25.0595 50.8979 24.7881C50.7366 24.5168 50.5129 24.3041 50.2269 24.1501C49.9409 23.9888 49.6036 23.9081 49.2149 23.9081C48.8483 23.9081 48.5183 23.9851 48.2249 24.1391C47.9316 24.2858 47.7043 24.4948 47.5429 24.7661C47.3816 25.0301 47.3009 25.3381 47.3009 25.6901C47.3009 26.0421 47.3816 26.3648 47.5429 26.6581C47.7116 26.9441 47.9389 27.1715 48.2249 27.3401C48.5183 27.5088 48.8556 27.5931 49.2369 27.5931ZM56.2231 28.4511C55.6365 28.4511 55.1158 28.3228 54.6611 28.0661C54.2065 27.8095 53.8471 27.4575 53.5831 27.0101C53.3191 26.5555 53.1871 26.0421 53.1871 25.4701C53.1871 24.8908 53.3191 24.3775 53.5831 23.9301C53.8471 23.4828 54.2065 23.1345 54.6611 22.8851C55.1158 22.6285 55.6365 22.5001 56.2231 22.5001C56.8025 22.5001 57.3195 22.6285 57.7741 22.8851C58.2361 23.1345 58.5955 23.4828 58.8521 23.9301C59.1161 24.3701 59.2481 24.8835 59.2481 25.4701C59.2481 26.0495 59.1161 26.5628 58.8521 27.0101C58.5955 27.4575 58.2361 27.8095 57.7741 28.0661C57.3195 28.3228 56.8025 28.4511 56.2231 28.4511ZM56.2231 27.5271C56.5971 27.5271 56.9308 27.4428 57.2241 27.2741C57.5248 27.1055 57.7595 26.8671 57.9281 26.5591C58.0968 26.2438 58.1811 25.8808 58.1811 25.4701C58.1811 25.0521 58.0968 24.6928 57.9281 24.3921C57.7595 24.0841 57.5248 23.8458 57.2241 23.6771C56.9308 23.5085 56.5971 23.4241 56.2231 23.4241C55.8491 23.4241 55.5155 23.5085 55.2221 23.6771C54.9288 23.8458 54.6941 24.0841 54.5181 24.3921C54.3421 24.6928 54.2541 25.0521 54.2541 25.4701C54.2541 25.8808 54.3421 26.2438 54.5181 26.5591C54.6941 26.8671 54.9288 27.1055 55.2221 27.2741C55.5155 27.4428 55.8491 27.5271 56.2231 27.5271ZM61.7132 28.3851V23.2041L61.9772 23.4791H59.5792V22.5551H64.9032V23.4791H62.5162L62.7692 23.2041V28.3851H61.7132ZM70.207 28.3851L67.952 25.5471L68.821 25.0191L71.45 28.3851H70.207ZM65.983 28.3851V22.5551H67.039V28.3851H65.983ZM66.72 25.9211V25.0191H68.645V25.9211H66.72ZM68.909 25.5911L67.93 25.4591L70.163 22.5551H71.296L68.909 25.5911ZM74.9598 28.4511C74.3365 28.4511 73.7865 28.3228 73.3098 28.0661C72.8405 27.8095 72.4738 27.4575 72.2098 27.0101C71.9532 26.5628 71.8248 26.0495 71.8248 25.4701C71.8248 24.8908 71.9495 24.3775 72.1988 23.9301C72.4555 23.4828 72.8038 23.1345 73.2438 22.8851C73.6912 22.6285 74.1935 22.5001 74.7508 22.5001C75.3155 22.5001 75.8142 22.6248 76.2468 22.8741C76.6795 23.1235 77.0168 23.4755 77.2588 23.9301C77.5082 24.3775 77.6328 24.9018 77.6328 25.5031C77.6328 25.5471 77.6292 25.5985 77.6218 25.6571C77.6218 25.7158 77.6182 25.7708 77.6108 25.8221H72.6498V25.0631H77.0608L76.6318 25.3271C76.6392 24.9531 76.5622 24.6195 76.4008 24.3261C76.2395 24.0328 76.0158 23.8055 75.7298 23.6441C75.4512 23.4755 75.1248 23.3911 74.7508 23.3911C74.3842 23.3911 74.0578 23.4755 73.7718 23.6441C73.4858 23.8055 73.2622 24.0365 73.1008 24.3371C72.9395 24.6305 72.8588 24.9678 72.8588 25.3491V25.5251C72.8588 25.9138 72.9468 26.2621 73.1228 26.5701C73.3062 26.8708 73.5592 27.1055 73.8818 27.2741C74.2045 27.4428 74.5748 27.5271 74.9928 27.5271C75.3375 27.5271 75.6492 27.4685 75.9278 27.3511C76.2138 27.2338 76.4632 27.0578 76.6758 26.8231L77.2588 27.5051C76.9948 27.8131 76.6648 28.0478 76.2688 28.2091C75.8802 28.3705 75.4438 28.4511 74.9598 28.4511Z" fill="#B1ACCE"/>
</svg>
