<svg width="33" height="33" viewBox="0 0 33 33" fill="none" xmlns="http://www.w3.org/2000/svg">
<circle cx="16.8696" cy="16.9271" r="15.9438" fill="#FF1A35"/>
<circle cx="16.8696" cy="16.9271" r="15.354" stroke="#D4D3FF" stroke-opacity="0.1" stroke-width="1.17951"/>
<path d="M9.96144 16.3366H8.71583H9.96144ZM9.96144 17.8129L9.00308 18.6085C9.22844 18.88 9.55833 19.0431 9.91084 19.0574C10.2633 19.0718 10.6054 18.9359 10.852 18.6837L9.96144 17.8129ZM13.2772 16.2036C13.7581 15.7117 13.7493 14.9231 13.2574 14.4421C12.7655 13.9612 11.9769 13.97 11.4959 14.4619L13.2772 16.2036ZM8.86071 14.537C8.42127 14.0078 7.63597 13.9349 7.10668 14.3744C6.57739 14.8138 6.50455 15.5991 6.94398 16.1284L8.86071 14.537ZM21.1348 12.1629C21.5855 12.6826 22.3722 12.7385 22.8919 12.2878C23.4116 11.8371 23.4675 11.0504 23.0168 10.5307L21.1348 12.1629ZM23.7745 16.0413L24.7316 15.2442C24.506 14.9732 24.176 14.8106 23.8236 14.7967C23.4713 14.7828 23.1295 14.9189 22.8832 15.1712L23.7745 16.0413ZM20.4635 17.65C19.983 18.1423 19.9925 18.9309 20.4848 19.4114C20.9771 19.892 21.7657 19.8824 22.2462 19.3902L20.4635 17.65ZM24.882 19.3173C25.3223 19.8459 26.1077 19.9175 26.6363 19.4772C27.1649 19.0369 27.2365 18.2515 26.7962 17.7229L24.882 19.3173ZM12.5743 21.7134C12.1198 21.197 11.3328 21.1466 10.8163 21.6011C10.2998 22.0555 10.2495 22.8426 10.7039 23.359L12.5743 21.7134ZM16.9361 7.70959C12.3306 7.70959 8.71583 11.6395 8.71583 16.3366H11.207C11.207 12.8804 13.8376 10.2008 16.9361 10.2008V7.70959ZM8.71583 16.3366L8.71583 17.8129L11.207 17.8129L11.207 16.3366L8.71583 16.3366ZM10.852 18.6837L13.2772 16.2036L11.4959 14.4619L9.07084 16.942L10.852 18.6837ZM10.9198 17.0172L8.86071 14.537L6.94398 16.1284L9.00308 18.6085L10.9198 17.0172ZM23.0168 10.5307C21.5242 8.80956 19.3591 7.70959 16.9361 7.70959V10.2008C18.5812 10.2008 20.0776 10.9438 21.1348 12.1629L23.0168 10.5307ZM16.7732 26.1446C21.3891 26.1446 25.0201 22.2193 25.0201 17.5176H22.5289C22.5289 20.9692 19.8908 23.6534 16.7732 23.6534V26.1446ZM25.0201 17.5176V16.0413H22.5289V17.5176H25.0201ZM22.8832 15.1712L20.4635 17.65L22.2462 19.3902L24.6659 16.9114L22.8832 15.1712ZM22.8174 16.8385L24.882 19.3173L26.7962 17.7229L24.7316 15.2442L22.8174 16.8385ZM10.7039 23.359C12.201 25.0605 14.3602 26.1446 16.7732 26.1446V23.6534C15.1293 23.6534 13.6346 22.9185 12.5743 21.7134L10.7039 23.359Z" fill="white"/>
</svg>
