<svg width="19" height="18" viewBox="0 0 19 18" fill="none" xmlns="http://www.w3.org/2000/svg">
<path d="M5.58981 14.3241L5.14618 14.4617C4.93542 14.5272 4.69963 14.4658 4.53712 14.3033C4.37461 14.1408 4.31327 13.905 4.37868 13.6942L4.51636 13.2506M5.58981 14.3241L4.51636 13.2506M5.58981 14.3241L7.40466 13.7608C7.83294 13.6279 8.04709 13.5615 8.24782 13.4698C8.48462 13.3617 8.70759 13.2275 8.91279 13.0696C9.08675 12.9357 9.24361 12.7788 9.55733 12.4651L14.7195 7.30295L15.2233 6.79913C16.058 5.96439 16.0224 4.57538 15.1437 3.6967C14.265 2.81802 12.876 2.78241 12.0413 3.61715L11.5375 4.12097L6.37535 9.28309C6.06163 9.59682 5.90477 9.75368 5.77087 9.92763C5.61292 10.1328 5.4787 10.3558 5.3706 10.5926C5.27896 10.7933 5.21251 11.0075 5.07959 11.4358L4.51636 13.2506" stroke="#8E8BFF" stroke-width="1.48948"/>
<path opacity="0.5" d="M11.5391 4.12085C11.5391 4.12085 11.6319 5.22128 12.6262 6.21565C13.6206 7.21002 14.721 7.30283 14.721 7.30283" stroke="#8E8BFF" stroke-width="1.48948"/>
</svg>
