<svg width="31" height="31" viewBox="0 0 31 31" fill="none" xmlns="http://www.w3.org/2000/svg">
<g clip-path="url(#clip0_2452_3561)">
<path d="M15.3869 11.8128L15.1068 9.65117C15.0909 9.52854 15.1198 9.40428 15.1883 9.3013L15.1883 9.30129L18.9039 3.71486C18.9699 3.6156 19.0684 3.54244 19.1825 3.50796C19.2966 3.47347 19.4192 3.4798 19.5291 3.52587L20.698 4.01561L25.6341 0.52146C25.6342 0.521372 25.6344 0.521284 25.6345 0.521195C25.8383 0.373721 26.123 0.399641 26.297 0.572865C26.2971 0.573008 26.2973 0.573151 26.2974 0.573295L29.8657 4.02718C29.9303 4.08966 29.9773 4.16803 30.002 4.25442C30.0268 4.3408 30.0284 4.43218 30.0067 4.51939L29.9348 4.50152L30.0067 4.51941L29.7499 5.55196C29.7102 5.71128 29.6178 5.81944 29.5006 5.87766C29.3854 5.93492 29.2521 5.94116 29.1314 5.90951C29.0108 5.87785 28.8975 5.8069 28.8234 5.7024C28.7481 5.59626 28.7161 5.45907 28.7546 5.30431L28.9401 4.55858L26.2246 1.93012L24.8779 7.54987L28.0757 8.03229L28.2489 7.33641C28.2881 7.17853 28.3807 7.07058 28.4975 7.01162C28.6124 6.95358 28.746 6.94534 28.8671 6.97548C28.9882 7.00563 29.1023 7.07548 29.1767 7.18063C29.2523 7.28744 29.2834 7.42617 29.2442 7.58405L28.9587 8.73133L15.3869 11.8128ZM15.3869 11.8128C14.8451 11.6954 14.2554 11.8484 13.8397 12.2702L13.8397 12.2703C13.6823 12.4302 13.5592 12.6206 13.4777 12.8296C13.4054 13.0149 13.3673 13.2115 13.3648 13.4099C12.951 13.4232 12.5413 13.5884 12.2295 13.9047L12.2295 13.9047C11.6503 14.4926 11.6055 15.4583 12.1198 16.0977L4.1008 24.2375C3.98671 24.3533 3.94297 24.4886 3.95357 24.619C3.96401 24.7474 4.02656 24.8656 4.11541 24.9533C4.20427 25.041 4.32335 25.102 4.45189 25.1105C4.58246 25.1192 4.71711 25.0733 4.83143 24.9573L12.848 16.82L13.6396 17.5862L2.1124 29.2872C1.89904 29.5038 1.54714 29.5085 1.32705 29.298C1.21261 29.1639 1.16023 29.036 1.15863 28.9134C1.15703 28.7908 1.20604 28.6617 1.31691 28.5249L3.19921 26.6144C3.31339 26.4985 3.35719 26.3632 3.34655 26.2328C3.33608 26.1044 3.27344 25.9862 3.18451 25.8986C3.09558 25.811 2.97645 25.7501 2.84794 25.7416C2.7174 25.7329 2.58278 25.7787 2.46858 25.8946L2.52181 25.947L2.46857 25.8946L0.583785 27.8076L0.637023 27.8601L0.583781 27.8076C-0.0156299 28.4161 -0.00356972 29.4374 0.611265 30.0324C1.22155 30.6233 2.24482 30.6142 2.84298 30.007L14.3799 18.2961C15.0308 18.8351 16.035 18.7888 16.6381 18.1856C16.9708 17.853 17.0971 17.5492 17.1378 17.3235C17.158 17.2112 17.1568 17.1195 17.1502 17.0548C17.1499 17.0518 17.1496 17.0488 17.1492 17.0459C17.9595 17.015 18.6846 16.321 18.7224 15.4942L19.798 15.6825L19.7982 15.6825C19.8787 15.6965 19.9589 15.6913 20.0379 15.6673L20.0383 15.6672L27.001 13.5099C27.1297 13.47 27.2375 13.3812 27.3012 13.2625C27.3648 13.1438 27.3792 13.0048 27.3413 12.8755L27.2696 12.8966L27.3413 12.8755L26.9721 11.6192L28.8752 8.91095C28.8754 8.91077 28.8755 8.91059 28.8756 8.91041C28.9147 8.8568 28.9428 8.79608 28.9586 8.73167L15.3869 11.8128ZM16.088 17.0203L16.088 17.0204C16.0891 17.1028 16.0738 17.1846 16.0429 17.2609C16.012 17.3373 15.9662 17.4068 15.9081 17.4652L15.9079 17.4655C15.6482 17.7291 15.2805 17.6974 14.9969 17.4727L12.9718 15.5124L12.9198 15.5661L12.9718 15.5124C12.7246 15.2732 12.7188 14.8695 12.9601 14.6244C13.2071 14.3738 13.6148 14.3692 13.8686 14.6147L15.8292 16.5125L15.8291 16.5125L15.8318 16.5149C15.98 16.6451 16.0858 16.831 16.088 17.0203ZM16.1627 17.0194C16.164 17.1117 16.1468 17.2034 16.1122 17.289C16.0776 17.3746 16.0262 17.4524 15.9612 17.5179L16.1627 17.0194ZM16.6104 15.8414L16.61 15.841C16.1561 15.4087 15.707 14.9717 15.2576 14.5343C15.0327 14.3154 14.8077 14.0965 14.582 13.878C14.3348 13.6388 14.329 13.235 14.5703 12.99C14.8173 12.7394 15.2251 12.7347 15.4788 12.9803L15.5308 12.9266L15.4788 12.9803L17.5064 14.9429L17.5584 14.8892L17.5064 14.9429C17.7446 15.1734 17.7517 15.5939 17.5181 15.8309C17.2714 16.0814 16.8641 16.0862 16.6104 15.8414ZM16.5197 12.5606L16.5176 12.5586L16.1485 9.70961L19.5234 4.63555L20.069 4.86412L17.3996 10.5002L17.3996 10.5003C17.288 10.7361 17.3744 11.0255 17.6001 11.16C17.6003 11.1601 17.6005 11.1602 17.6007 11.1604L20.5319 12.9617L20.5319 12.9618C20.639 13.0275 20.7664 13.0517 20.8901 13.0298L20.8902 13.0298L26.048 12.112L26.2149 12.68L19.853 14.6509L18.3838 14.3937C18.3791 14.3887 18.3741 14.3834 18.3691 14.3782C18.3523 14.3607 18.3294 14.3374 18.3015 14.3093C18.2458 14.253 18.1692 14.1767 18.0789 14.0874C17.8983 13.9087 17.6625 13.6772 17.4285 13.448C17.1945 13.2189 16.9621 12.992 16.7882 12.8224L16.5784 12.6178L16.5197 12.5606ZM24.3172 8.50245L27.5645 8.99238L26.1124 11.0588L20.9026 11.9857L18.9736 10.8003L24.3172 8.50245ZM21.1681 4.93941L25.119 2.14268L23.8103 7.60409L18.9076 9.71232L21.1681 4.93941Z" fill="#8E72FF" stroke="#8E72FF" stroke-width="0.149473"/>
<circle cx="6.11387" cy="12.4576" r="1.49473" fill="#8E72FF"/>
<circle cx="9.85088" cy="7.22612" r="0.747365" fill="#8E72FF"/>
<circle cx="0.882131" cy="7.22612" r="0.747365" fill="#8E72FF"/>
<circle cx="5.36651" cy="4.23662" r="0.747365" fill="#8E72FF"/>
<circle cx="3.87236" cy="17.6893" r="0.747365" fill="#8E72FF"/>
<circle cx="21.8079" cy="19.1839" r="0.747365" fill="#8E72FF"/>
<circle cx="20.3138" cy="22.1734" r="0.747365" fill="#8E72FF"/>
<circle cx="14.3353" cy="23.668" r="0.747365" fill="#8E72FF"/>
</g>
<defs>
<clipPath id="clip0_2452_3561">
<rect width="29.8946" height="29.8946" fill="white" transform="translate(0.134766 0.499756)"/>
</clipPath>
</defs>
</svg>
