<svg width="31" height="30" viewBox="0 0 31 30" fill="none" xmlns="http://www.w3.org/2000/svg">
<rect x="0.804688" width="30" height="30" rx="15" fill="#8E8BFF"/>
<g clip-path="url(#clip0_4478_6723)">
<path d="M19.8047 18.4C19.1714 18.4 18.6047 18.65 18.1714 19.0417L12.2297 15.5834C12.2714 15.3917 12.3047 15.2 12.3047 15C12.3047 14.8 12.2714 14.6084 12.2297 14.4167L18.1047 10.9917C18.5547 11.4084 19.1464 11.6667 19.8047 11.6667C21.188 11.6667 22.3047 10.55 22.3047 9.16669C22.3047 7.78335 21.188 6.66669 19.8047 6.66669C18.4214 6.66669 17.3047 7.78335 17.3047 9.16669C17.3047 9.36669 17.338 9.55835 17.3797 9.75002L11.5047 13.175C11.0547 12.7584 10.463 12.5 9.80469 12.5C8.42135 12.5 7.30469 13.6167 7.30469 15C7.30469 16.3834 8.42135 17.5 9.80469 17.5C10.463 17.5 11.0547 17.2417 11.5047 16.825L17.438 20.2917C17.3964 20.4667 17.3714 20.65 17.3714 20.8334C17.3714 22.175 18.463 23.2667 19.8047 23.2667C21.1464 23.2667 22.238 22.175 22.238 20.8334C22.238 19.4917 21.1464 18.4 19.8047 18.4Z" fill="white"/>
</g>
<defs>
<clipPath id="clip0_4478_6723">
<rect width="20" height="20" fill="white" transform="translate(4.80469 5)"/>
</clipPath>
</defs>
</svg>
