<svg width="23" height="23" viewBox="0 0 23 23" fill="none" xmlns="http://www.w3.org/2000/svg">
<g clip-path="url(#clip0_4761_2163)">
<path d="M15.4852 7.83887C14.7395 7.49666 13.9527 7.25264 13.1443 7.11293C13.1369 7.11153 13.1293 7.11249 13.1225 7.11568C13.1158 7.11887 13.1102 7.12412 13.1065 7.13068C12.9992 7.32524 12.9017 7.5251 12.8146 7.72949C11.9432 7.59715 11.0569 7.59715 10.1855 7.72949C10.0979 7.52459 9.99908 7.32468 9.88946 7.13068C9.8857 7.12425 9.88008 7.11912 9.87335 7.11595C9.86661 7.11278 9.85907 7.11173 9.85173 7.11293C9.04355 7.25241 8.25696 7.49644 7.51175 7.83887C7.50533 7.84157 7.49991 7.8462 7.49625 7.85212C6.00552 10.0796 5.59718 12.2522 5.79753 14.3975C5.7981 14.4027 5.79973 14.4078 5.80231 14.4125C5.8049 14.4171 5.80839 14.4212 5.81258 14.4244C6.68066 15.0675 7.65168 15.5583 8.68421 15.8761C8.69149 15.8782 8.69927 15.8781 8.7065 15.8758C8.71373 15.8734 8.72005 15.8689 8.72464 15.8628C8.94634 15.561 9.14279 15.2414 9.31199 14.9073C9.3143 14.9027 9.31561 14.8977 9.31584 14.8926C9.31607 14.8875 9.31522 14.8823 9.31333 14.8776C9.31144 14.8728 9.30857 14.8685 9.30489 14.8649C9.30121 14.8613 9.29682 14.8586 9.292 14.8568C8.98217 14.7384 8.6822 14.5958 8.39491 14.43C8.3897 14.427 8.38532 14.4227 8.38216 14.4175C8.37901 14.4123 8.37717 14.4065 8.37681 14.4004C8.37646 14.3944 8.3776 14.3884 8.38013 14.3829C8.38266 14.3774 8.3865 14.3726 8.39132 14.3689C8.45151 14.324 8.51193 14.2768 8.56943 14.2292C8.57454 14.225 8.58071 14.2224 8.58726 14.2215C8.59381 14.2206 8.60047 14.2216 8.60649 14.2243C10.4885 15.0836 12.5262 15.0836 14.3859 14.2243C14.392 14.2214 14.3988 14.2203 14.4054 14.2211C14.4121 14.2219 14.4184 14.2245 14.4237 14.2288C14.4812 14.2762 14.5416 14.3238 14.6033 14.3689C14.6082 14.3726 14.6121 14.3773 14.6146 14.3828C14.6172 14.3883 14.6184 14.3943 14.6181 14.4003C14.6177 14.4064 14.616 14.4122 14.6128 14.4174C14.6097 14.4226 14.6054 14.4269 14.6002 14.43C14.3133 14.5973 14.0127 14.7401 13.7018 14.8568C13.6969 14.8586 13.6925 14.8615 13.6888 14.8651C13.6852 14.8688 13.6823 14.8732 13.6805 14.878C13.6786 14.8828 13.6778 14.888 13.6781 14.8932C13.6784 14.8984 13.6798 14.9034 13.6822 14.908C13.8542 15.2403 14.0504 15.5595 14.2691 15.863C14.2736 15.8693 14.2799 15.874 14.2871 15.8764C14.2944 15.8789 14.3022 15.879 14.3096 15.8767C15.3435 15.5599 16.3158 15.069 17.1846 14.4251C17.1888 14.422 17.1923 14.418 17.1949 14.4135C17.1975 14.4089 17.1991 14.4038 17.1996 14.3986C17.4395 11.918 16.798 9.7631 15.4993 7.85302C15.4964 7.84678 15.4914 7.84177 15.4852 7.83887ZM9.59275 13.0914C9.02606 13.0914 8.55955 12.5712 8.55955 11.9324C8.55955 11.2936 9.0173 10.7734 9.59275 10.7734C10.1729 10.7734 10.6354 11.2981 10.626 11.9324C10.6264 12.5712 10.1684 13.0914 9.59275 13.0914ZM13.414 13.0914C12.8473 13.0914 12.3808 12.5712 12.3808 11.9324C12.3808 11.2936 12.8386 10.7734 13.414 10.7734C13.9942 10.7734 14.4567 11.2981 14.4472 11.9324C14.4475 12.5712 13.9942 13.0914 13.414 13.0914Z" fill="white"/>
<path d="M1.84634 14.3943C3.09031 18.5412 6.93837 21.5625 11.4926 21.5625C17.0535 21.5625 21.5615 17.0572 21.5615 11.5C21.5615 5.94265 17.0535 1.4375 11.4926 1.4375C6.15645 1.4375 1.79016 5.58592 1.44531 10.8315C1.44531 12.3386 1.44531 12.9675 1.84634 14.3943Z" fill="url(#paint0_linear_4761_2163)"/>
<path d="M10.9758 9.02957L8.51189 12.6065C7.93107 12.5801 7.34636 12.7444 6.861 13.0634L1.45067 10.8376C1.45067 10.8376 1.32547 12.8959 1.8472 14.4298L5.67201 16.0071C5.86406 16.8647 6.45281 17.6171 7.32142 17.9789C8.74253 18.5723 10.3811 17.896 10.9723 16.4752C11.1262 16.1037 11.1979 15.7142 11.1875 15.3255L14.7994 12.8095C16.9091 12.8095 18.6238 11.0907 18.6238 8.97983C18.6238 6.86888 16.9091 5.15161 14.7994 5.15161C12.7616 5.15161 10.8616 6.92964 10.9758 9.02957ZM10.3837 16.2281C9.92617 17.326 8.66383 17.8468 7.56652 17.3899C7.06031 17.1791 6.67813 16.793 6.45764 16.3326L7.70265 16.8483C8.51189 17.1852 9.4403 16.8016 9.77667 15.9932C10.1141 15.1839 9.73132 14.2545 8.92251 13.9176L7.63552 13.3847C8.1321 13.1965 8.69668 13.1896 9.22417 13.4089C9.7559 13.63 10.1685 14.0464 10.3872 14.5784C10.6059 15.1105 10.605 15.6978 10.3837 16.2281ZM14.7994 11.5312C13.3949 11.5312 12.2515 10.3867 12.2515 8.97983C12.2515 7.5741 13.3949 6.42933 14.7994 6.42933C16.2047 6.42933 17.3481 7.5741 17.3481 8.97983C17.3481 10.3867 16.2047 11.5312 14.7994 11.5312ZM12.8902 8.97595C12.8902 7.91766 13.7475 7.05925 14.8037 7.05925C15.8607 7.05925 16.7181 7.91766 16.7181 8.97595C16.7181 10.0344 15.8607 10.892 14.8037 10.892C13.7475 10.892 12.8902 10.0344 12.8902 8.97595Z" fill="white"/>
</g>
<defs>
<linearGradient id="paint0_linear_4761_2163" x1="11.5034" y1="1.4375" x2="11.5034" y2="21.5625" gradientUnits="userSpaceOnUse">
<stop stop-color="#111D2E"/>
<stop offset="0.21248" stop-color="#051839"/>
<stop offset="0.40695" stop-color="#0A1B48"/>
<stop offset="0.5811" stop-color="#132E62"/>
<stop offset="0.7376" stop-color="#144B7E"/>
<stop offset="0.87279" stop-color="#136497"/>
<stop offset="1" stop-color="#1387B8"/>
</linearGradient>
<clipPath id="clip0_4761_2163">
<rect width="23" height="23" fill="white"/>
</clipPath>
</defs>
</svg>
