<svg width="32" height="33" viewBox="0 0 32 33" fill="none" xmlns="http://www.w3.org/2000/svg">
<g clip-path="url(#clip0_2452_3586)">
<path d="M25.9503 18.8016L28.0665 12.8563C28.6052 11.5428 29.6944 11.787 29.6944 11.787C30.5375 11.9486 30.9911 12.6723 30.895 13.483L28.9538 21.6582C28.4524 23.7586 27.0547 25.8067 25.4275 27.1303L22.0734 29.6444V31.1268C22.0734 31.4816 21.799 31.7691 21.4604 31.7691H15.8356V28.0425C15.8356 28.0425 15.469 23.7984 19.3183 21.3474L23.92 18.2531C24.1463 18.1002 24.41 18.019 24.6793 18.0191C25.043 18.0191 25.4034 18.1669 25.6752 18.4516C26.2139 19.0167 26.225 19.9296 25.6994 20.5084L22.6005 23.0688" stroke="#E546FF" stroke-width="1.19578" stroke-miterlimit="10" stroke-linecap="round" stroke-linejoin="round"/>
<path d="M9.05148 23.0686L5.95259 20.5082C5.427 19.9294 5.43803 19.0165 5.9768 18.4514C6.1075 18.3142 6.26273 18.2054 6.43362 18.1312C6.60451 18.057 6.78769 18.0188 6.97268 18.0189C7.23477 18.0189 7.49894 18.0957 7.73203 18.2529L12.3337 21.3472C16.1829 23.7982 15.8164 28.0423 15.8164 28.0423V31.7689H10.1916C9.85302 31.7689 9.57854 31.4814 9.57854 31.1266V29.6442L6.22448 27.1301C4.5972 25.8065 3.19958 23.7584 2.69821 21.658L0.756856 13.4828C0.660726 12.6721 1.1144 11.9483 1.95744 11.7868C1.95744 11.7868 3.04662 11.5426 3.58539 12.8561L5.70159 18.8014M13.0376 17.7491H12.2615C11.9229 17.7491 11.6485 17.4616 11.6485 17.1069V13.6633C11.6485 12.2698 12.7268 11.1401 14.0569 11.1401H17.5946C18.9248 11.1401 20.003 12.2698 20.003 13.6633V17.1069C20.003 17.4616 19.7286 17.7491 19.39 17.7491H18.6239" stroke="#E546FF" stroke-width="1.19578" stroke-miterlimit="10" stroke-linecap="round" stroke-linejoin="round"/>
<path d="M15.8252 11.1401C17.3952 11.1401 18.6679 9.80674 18.6679 8.16196C18.6679 6.51719 17.3952 5.18384 15.8252 5.18384C14.2552 5.18384 12.9824 6.51719 12.9824 8.16196C12.9824 9.80674 14.2552 11.1401 15.8252 11.1401Z" stroke="#E546FF" stroke-width="1.19578" stroke-miterlimit="10" stroke-linecap="round" stroke-linejoin="round"/>
<path d="M18.75 7.08154H22.4263C23.7565 7.08154 24.8347 8.21123 24.8347 9.60469V13.0058C24.8347 13.3838 24.5422 13.6903 24.1814 13.6903H19.9972" stroke="#E546FF" stroke-width="1.19578" stroke-miterlimit="10" stroke-linecap="round" stroke-linejoin="round"/>
<path d="M20.6592 7.0815C22.2292 7.0815 23.5019 5.74814 23.5019 4.10337C23.5019 2.4586 22.2292 1.12524 20.6592 1.12524C19.0892 1.12524 17.8164 2.4586 17.8164 4.10337C17.8164 5.74814 19.0892 7.0815 20.6592 7.0815Z" stroke="#E546FF" stroke-width="1.19578" stroke-miterlimit="10" stroke-linecap="round" stroke-linejoin="round"/>
<path d="M11.652 13.6903H7.4678C7.10695 13.6903 6.81445 13.3838 6.81445 13.0058V9.60469C6.81445 8.21116 7.89279 7.08154 9.22291 7.08154H12.9831" stroke="#E546FF" stroke-width="1.19578" stroke-miterlimit="10" stroke-linecap="round" stroke-linejoin="round"/>
<path d="M10.9912 7.0815C12.5612 7.0815 13.834 5.74814 13.834 4.10337C13.834 2.4586 12.5612 1.12524 10.9912 1.12524C9.42118 1.12524 8.14844 2.4586 8.14844 4.10337C8.14844 5.74814 9.42118 7.0815 10.9912 7.0815Z" stroke="#E546FF" stroke-width="1.19578" stroke-miterlimit="10" stroke-linecap="round" stroke-linejoin="round"/>
</g>
<defs>
<clipPath id="clip0_2452_3586">
<rect width="31.3893" height="32.8841" fill="white" transform="translate(0.132812 0.00488281)"/>
</clipPath>
</defs>
</svg>
