<svg width="19" height="19" viewBox="0 0 19 19" fill="none" xmlns="http://www.w3.org/2000/svg">
<path d="M15.879 5.33337H3.12891" stroke="#FF1A35" stroke-width="1.48948" stroke-linecap="round"/>
<path d="M14.6289 7.20837L14.284 12.3827C14.1512 14.3739 14.0848 15.3695 13.4361 15.9764C12.7873 16.5834 11.7895 16.5834 9.79392 16.5834H9.2139C7.21829 16.5834 6.22049 16.5834 5.57174 15.9764C4.92298 15.3695 4.85661 14.3739 4.72386 12.3827L4.37891 7.20837" stroke="#FF1A35" stroke-width="1.48948" stroke-linecap="round"/>
<path opacity="0.5" d="M7.63086 9.08331L8.00586 12.8333" stroke="#FF1A35" stroke-width="1.48948" stroke-linecap="round"/>
<path opacity="0.5" d="M11.3789 9.08331L11.0039 12.8333" stroke="#FF1A35" stroke-width="1.48948" stroke-linecap="round"/>
<path opacity="0.5" d="M5.38086 5.33337C5.42277 5.33337 5.44372 5.33337 5.46272 5.33289C6.0803 5.31724 6.62513 4.92456 6.83527 4.34361C6.84174 4.32574 6.84836 4.30586 6.86162 4.26611L6.93443 4.04766C6.99659 3.86118 7.02767 3.76794 7.0689 3.68877C7.23337 3.37293 7.53767 3.1536 7.88932 3.09745C7.97746 3.08337 8.07574 3.08337 8.27231 3.08337H10.7394C10.936 3.08337 11.0343 3.08337 11.1224 3.09745C11.4741 3.1536 11.7784 3.37293 11.9428 3.68877C11.984 3.76794 12.0151 3.86118 12.0773 4.04766L12.1501 4.26611C12.1633 4.30581 12.17 4.32576 12.1764 4.34361C12.3866 4.92456 12.9314 5.31724 13.549 5.33289C13.568 5.33337 13.5889 5.33337 13.6309 5.33337" stroke="#FF1A35" stroke-width="1.48948"/>
</svg>
