<svg width="19" height="19" viewBox="0 0 19 19" fill="none" xmlns="http://www.w3.org/2000/svg">
<path d="M15.6055 5.46484H2.85547" stroke="#8E8BFF" stroke-width="1.48948" stroke-linecap="round"/>
<path d="M14.3555 7.33984L14.0105 12.5142C13.8778 14.5054 13.8114 15.501 13.1626 16.1079C12.5139 16.7148 11.5161 16.7148 9.52048 16.7148H8.94046C6.94486 16.7148 5.94706 16.7148 5.2983 16.1079C4.64954 15.501 4.58317 14.5054 4.45042 12.5142L4.10547 7.33984" stroke="#8E8BFF" stroke-width="1.48948" stroke-linecap="round"/>
<path opacity="0.5" d="M7.35742 9.21484L7.73242 12.9648" stroke="#8E8BFF" stroke-width="1.48948" stroke-linecap="round"/>
<path opacity="0.5" d="M11.1055 9.21484L10.7305 12.9648" stroke="#8E8BFF" stroke-width="1.48948" stroke-linecap="round"/>
<path opacity="0.5" d="M5.10742 5.4649C5.14933 5.4649 5.17029 5.4649 5.18928 5.46442C5.80687 5.44877 6.35169 5.05609 6.56183 4.47514C6.5683 4.45727 6.57493 4.4374 6.58818 4.39764L6.66099 4.17919C6.72315 3.99271 6.75423 3.89947 6.79546 3.8203C6.95993 3.50446 7.26423 3.28513 7.61588 3.22898C7.70402 3.2149 7.8023 3.2149 7.99887 3.2149H10.466C10.6625 3.2149 10.7608 3.2149 10.849 3.22898C11.2006 3.28513 11.5049 3.50446 11.6694 3.8203C11.7106 3.89947 11.7417 3.99271 11.8039 4.17919L11.8767 4.39764C11.8899 4.43734 11.8965 4.45729 11.903 4.47514C12.1132 5.05609 12.658 5.44877 13.2756 5.46442C13.2946 5.4649 13.3155 5.4649 13.3574 5.4649" stroke="#8E8BFF" stroke-width="1.48948"/>
</svg>
