<svg width="50" height="42" viewBox="0 0 50 42" fill="none" xmlns="http://www.w3.org/2000/svg">
<path d="M27.8422 2.75691L28.2887 1.84258V1.84258L27.8422 2.75691ZM36.9203 7.19027L37.3669 6.27593V6.27593L36.9203 7.19027ZM36.9203 12.4571L37.3668 13.3715L36.9203 12.4571ZM27.8423 16.8904L27.3958 15.9761L27.8423 16.8904ZM12.3012 6.27587C11.7963 6.52247 11.5868 7.13175 11.8334 7.63672C12.08 8.14169 12.6893 8.35114 13.1943 8.10454L12.3012 6.27587ZM21.8258 2.75691L21.3793 1.84258L21.8258 2.75691ZM21.8259 16.8904L22.2724 15.9761L21.8259 16.8904ZM15.7835 12.8072C15.2785 12.5606 14.6692 12.77 14.4226 13.275C14.176 13.78 14.3854 14.3892 14.8904 14.6358L15.7835 12.8072ZM10.9278 19.0098C10.9278 19.5718 11.3833 20.0274 11.9453 20.0274C12.5073 20.0274 12.9629 19.5718 12.9629 19.0098H10.9278ZM15.2345 9.7686L15.6493 10.6978H15.6493L15.2345 9.7686ZM17.1087 10.0462C17.6218 9.81715 17.8521 9.21544 17.623 8.70228C17.3939 8.18912 16.7922 7.95884 16.2791 8.18793L17.1087 10.0462ZM27.3957 3.67125L36.4738 8.1046L37.3669 6.27593L28.2887 1.84258L27.3957 3.67125ZM36.4738 11.5428L27.3958 15.9761L28.2888 17.8048L37.3668 13.3715L36.4738 11.5428ZM13.1943 8.10454L22.2723 3.67125L21.3793 1.84258L12.3012 6.27587L13.1943 8.10454ZM27.3958 15.9761C25.7496 16.78 23.9186 16.78 22.2724 15.9761L21.3794 17.8048C23.5891 18.8839 26.0791 18.8839 28.2888 17.8048L27.3958 15.9761ZM36.4738 8.1046C37.0181 8.3704 37.3838 9.02048 37.3838 9.8237C37.3838 10.6269 37.0181 11.277 36.4738 11.5428L37.3668 13.3715C38.7973 12.6729 39.4189 11.1717 39.4189 9.8237C39.4189 8.47565 38.7973 6.97448 37.3669 6.27593L36.4738 8.1046ZM28.2887 1.84258C26.079 0.763464 23.589 0.763463 21.3793 1.84258L22.2723 3.67125C23.9185 2.86735 25.7495 2.86735 27.3957 3.67125L28.2887 1.84258ZM22.2724 15.9761L15.7835 12.8072L14.8904 14.6358L21.3794 17.8048L22.2724 15.9761ZM10.9278 14.9645V19.0098H12.9629V14.9645H10.9278ZM15.6493 10.6978L17.1087 10.0462L16.2791 8.18793L14.8197 8.83944L15.6493 10.6978ZM12.9629 14.9645C12.9629 14.0395 12.9641 13.423 13.0134 12.9471C13.0605 12.4936 13.1438 12.2619 13.2532 12.089L11.5337 11.0005C11.195 11.5357 11.0542 12.1099 10.9892 12.7373C10.9265 13.3423 10.9278 14.0817 10.9278 14.9645H12.9629ZM14.8197 8.83944C14.0425 9.1864 13.3839 9.47885 12.8693 9.78036C12.3317 10.0954 11.8742 10.4626 11.5337 11.0005L13.2532 12.089C13.3608 11.919 13.5263 11.7541 13.8983 11.5362C14.2934 11.3046 14.8312 11.0629 15.6493 10.6978L14.8197 8.83944Z" fill="#B1ACCE"/>
<path opacity="0.8" d="M17.4189 25.7046L16.9527 26.6091H16.9527L17.4189 25.7046ZM32.926 25.7046L33.3922 26.6091V26.6091L32.926 25.7046ZM35.8567 16.998C35.8567 16.4361 35.4011 15.9805 34.8391 15.9805C34.2771 15.9805 33.8216 16.4361 33.8216 16.998H35.8567ZM16.5234 16.998C16.5234 16.4361 16.0678 15.9805 15.5059 15.9805C14.9439 15.9805 14.4883 16.4361 14.4883 16.998H16.5234ZM16.9527 26.6091C17.99 27.1437 19.3518 27.7867 20.7839 28.298C22.2007 28.804 23.7607 29.2085 25.1725 29.2085V27.1734C24.1041 27.1734 22.8011 26.8574 21.4682 26.3815C20.1504 25.9109 18.8756 25.3107 17.8851 24.8002L16.9527 26.6091ZM25.1725 29.2085C26.5843 29.2085 28.1442 28.804 29.5611 28.298C30.9931 27.7867 32.355 27.1437 33.3922 26.6091L32.4598 24.8002C31.4694 25.3107 30.1945 25.9109 28.8768 26.3815C27.5438 26.8574 26.2409 27.1734 25.1725 27.1734V29.2085ZM35.8567 22.5683V16.998H33.8216V22.5683H35.8567ZM15.5059 22.5683C16.5234 22.5683 16.5234 22.5683 16.5234 22.5682C16.5234 22.5682 16.5234 22.5682 16.5234 22.5681C16.5234 22.5681 16.5234 22.568 16.5234 22.568C16.5234 22.5679 16.5234 22.5678 16.5234 22.5677C16.5234 22.5676 16.5234 22.5675 16.5234 22.5674C16.5234 22.5673 16.5234 22.5672 16.5234 22.5671C16.5234 22.5669 16.5234 22.5668 16.5234 22.5666C16.5234 22.5665 16.5234 22.5663 16.5234 22.5661C16.5234 22.5659 16.5234 22.5657 16.5234 22.5655C16.5234 22.5653 16.5234 22.5651 16.5234 22.5649C16.5234 22.5647 16.5234 22.5644 16.5234 22.5642C16.5234 22.5639 16.5234 22.5637 16.5234 22.5634C16.5234 22.5631 16.5234 22.5628 16.5234 22.5625C16.5234 22.5622 16.5234 22.5619 16.5234 22.5616C16.5234 22.5613 16.5234 22.561 16.5234 22.5606C16.5234 22.5603 16.5234 22.56 16.5234 22.5596C16.5234 22.5592 16.5234 22.5589 16.5234 22.5585C16.5234 22.5581 16.5234 22.5577 16.5234 22.5573C16.5234 22.5569 16.5234 22.5565 16.5234 22.5561C16.5234 22.5556 16.5234 22.5552 16.5234 22.5548C16.5234 22.5543 16.5234 22.5539 16.5234 22.5534C16.5234 22.5529 16.5234 22.5524 16.5234 22.552C16.5234 22.5515 16.5234 22.551 16.5234 22.5504C16.5234 22.5499 16.5234 22.5494 16.5234 22.5489C16.5234 22.5483 16.5234 22.5478 16.5234 22.5472C16.5234 22.5467 16.5234 22.5461 16.5234 22.5455C16.5234 22.545 16.5234 22.5444 16.5234 22.5438C16.5234 22.5432 16.5234 22.5426 16.5234 22.5419C16.5234 22.5413 16.5234 22.5407 16.5234 22.5401C16.5234 22.5394 16.5234 22.5388 16.5234 22.5381C16.5234 22.5374 16.5234 22.5368 16.5234 22.5361C16.5234 22.5354 16.5234 22.5347 16.5234 22.534C16.5234 22.5333 16.5234 22.5326 16.5234 22.5318C16.5234 22.5311 16.5234 22.5304 16.5234 22.5296C16.5234 22.5289 16.5234 22.5281 16.5234 22.5274C16.5234 22.5266 16.5234 22.5258 16.5234 22.525C16.5234 22.5242 16.5234 22.5234 16.5234 22.5226C16.5234 22.5218 16.5234 22.521 16.5234 22.5201C16.5234 22.5193 16.5234 22.5185 16.5234 22.5176C16.5234 22.5168 16.5234 22.5159 16.5234 22.515C16.5234 22.5142 16.5234 22.5133 16.5234 22.5124C16.5234 22.5115 16.5234 22.5106 16.5234 22.5097C16.5234 22.5087 16.5234 22.5078 16.5234 22.5069C16.5234 22.5059 16.5234 22.505 16.5234 22.504C16.5234 22.5031 16.5234 22.5021 16.5234 22.5011C16.5234 22.5002 16.5234 22.4992 16.5234 22.4982C16.5234 22.4972 16.5234 22.4962 16.5234 22.4952C16.5234 22.4941 16.5234 22.4931 16.5234 22.4921C16.5234 22.491 16.5234 22.49 16.5234 22.4889C16.5234 22.4879 16.5234 22.4868 16.5234 22.4857C16.5234 22.4846 16.5234 22.4835 16.5234 22.4824C16.5234 22.4813 16.5234 22.4802 16.5234 22.4791C16.5234 22.478 16.5234 22.4769 16.5234 22.4757C16.5234 22.4746 16.5234 22.4734 16.5234 22.4723C16.5234 22.4711 16.5234 22.4699 16.5234 22.4688C16.5234 22.4676 16.5234 22.4664 16.5234 22.4652C16.5234 22.464 16.5234 22.4628 16.5234 22.4616C16.5234 22.4603 16.5234 22.4591 16.5234 22.4579C16.5234 22.4566 16.5234 22.4554 16.5234 22.4541C16.5234 22.4528 16.5234 22.4516 16.5234 22.4503C16.5234 22.449 16.5234 22.4477 16.5234 22.4464C16.5234 22.4451 16.5234 22.4438 16.5234 22.4425C16.5234 22.4412 16.5234 22.4398 16.5234 22.4385C16.5234 22.4372 16.5234 22.4358 16.5234 22.4345C16.5234 22.4331 16.5234 22.4317 16.5234 22.4303C16.5234 22.429 16.5234 22.4276 16.5234 22.4262C16.5234 22.4248 16.5234 22.4234 16.5234 22.422C16.5234 22.4205 16.5234 22.4191 16.5234 22.4177C16.5234 22.4162 16.5234 22.4148 16.5234 22.4133C16.5234 22.4119 16.5234 22.4104 16.5234 22.4089C16.5234 22.4075 16.5234 22.406 16.5234 22.4045C16.5234 22.403 16.5234 22.4015 16.5234 22.4C16.5234 22.3985 16.5234 22.3969 16.5234 22.3954C16.5234 22.3939 16.5234 22.3923 16.5234 22.3908C16.5234 22.3892 16.5234 22.3877 16.5234 22.3861C16.5234 22.3845 16.5234 22.3829 16.5234 22.3813C16.5234 22.3797 16.5234 22.3781 16.5234 22.3765C16.5234 22.3749 16.5234 22.3733 16.5234 22.3717C16.5234 22.37 16.5234 22.3684 16.5234 22.3668C16.5234 22.3651 16.5234 22.3635 16.5234 22.3618C16.5234 22.3601 16.5234 22.3584 16.5234 22.3568C16.5234 22.3551 16.5234 22.3534 16.5234 22.3517C16.5234 22.35 16.5234 22.3483 16.5234 22.3465C16.5234 22.3448 16.5234 22.3431 16.5234 22.3413C16.5234 22.3396 16.5234 22.3379 16.5234 22.3361C16.5234 22.3343 16.5234 22.3326 16.5234 22.3308C16.5234 22.329 16.5234 22.3272 16.5234 22.3254C16.5234 22.3236 16.5234 22.3218 16.5234 22.32C16.5234 22.3182 16.5234 22.3164 16.5234 22.3145C16.5234 22.3127 16.5234 22.3109 16.5234 22.309C16.5234 22.3072 16.5234 22.3053 16.5234 22.3034C16.5234 22.3016 16.5234 22.2997 16.5234 22.2978C16.5234 22.2959 16.5234 22.294 16.5234 22.2921C16.5234 22.2902 16.5234 22.2883 16.5234 22.2863C16.5234 22.2844 16.5234 22.2825 16.5234 22.2805C16.5234 22.2786 16.5234 22.2767 16.5234 22.2747C16.5234 22.2727 16.5234 22.2708 16.5234 22.2688C16.5234 22.2668 16.5234 22.2648 16.5234 22.2628C16.5234 22.2608 16.5234 22.2588 16.5234 22.2568C16.5234 22.2548 16.5234 22.2528 16.5234 22.2507C16.5234 22.2487 16.5234 22.2467 16.5234 22.2446C16.5234 22.2426 16.5234 22.2405 16.5234 22.2384C16.5234 22.2364 16.5234 22.2343 16.5234 22.2322C16.5234 22.2301 16.5234 22.228 16.5234 22.2259C16.5234 22.2238 16.5234 22.2217 16.5234 22.2196C16.5234 22.2175 16.5234 22.2153 16.5234 22.2132C16.5234 22.2111 16.5234 22.2089 16.5234 22.2068C16.5234 22.2046 16.5234 22.2025 16.5234 22.2003C16.5234 22.1981 16.5234 22.1959 16.5234 22.1937C16.5234 22.1915 16.5234 22.1893 16.5234 22.1871C16.5234 22.1849 16.5234 22.1827 16.5234 22.1805C16.5234 22.1783 16.5234 22.176 16.5234 22.1738C16.5234 22.1716 16.5234 22.1693 16.5234 22.167C16.5234 22.1648 16.5234 22.1625 16.5234 22.1602C16.5234 22.158 16.5234 22.1557 16.5234 22.1534C16.5234 22.1511 16.5234 22.1488 16.5234 22.1465C16.5234 22.1442 16.5234 22.1419 16.5234 22.1395C16.5234 22.1372 16.5234 22.1349 16.5234 22.1325C16.5234 22.1302 16.5234 22.1278 16.5234 22.1255C16.5234 22.1231 16.5234 22.1207 16.5234 22.1184C16.5234 22.116 16.5234 22.1136 16.5234 22.1112C16.5234 22.1088 16.5234 22.1064 16.5234 22.104C16.5234 22.1016 16.5234 22.0992 16.5234 22.0967C16.5234 22.0943 16.5234 22.0919 16.5234 22.0894C16.5234 22.087 16.5234 22.0845 16.5234 22.0821C16.5234 22.0796 16.5234 22.0772 16.5234 22.0747C16.5234 22.0722 16.5234 22.0697 16.5234 22.0672C16.5234 22.0647 16.5234 22.0622 16.5234 22.0597C16.5234 22.0572 16.5234 22.0547 16.5234 22.0522C16.5234 22.0496 16.5234 22.0471 16.5234 22.0446C16.5234 22.042 16.5234 22.0395 16.5234 22.0369C16.5234 22.0344 16.5234 22.0318 16.5234 22.0292C16.5234 22.0266 16.5234 22.0241 16.5234 22.0215C16.5234 22.0189 16.5234 22.0163 16.5234 22.0137C16.5234 22.0111 16.5234 22.0084 16.5234 22.0058C16.5234 22.0032 16.5234 22.0006 16.5234 21.9979C16.5234 21.9953 16.5234 21.9926 16.5234 21.99C16.5234 21.9873 16.5234 21.9847 16.5234 21.982C16.5234 21.9793 16.5234 21.9767 16.5234 21.974C16.5234 21.9713 16.5234 21.9686 16.5234 21.9659C16.5234 21.9632 16.5234 21.9605 16.5234 21.9578C16.5234 21.955 16.5234 21.9523 16.5234 21.9496C16.5234 21.9468 16.5234 21.9441 16.5234 21.9414C16.5234 21.9386 16.5234 21.9359 16.5234 21.9331C16.5234 21.9303 16.5234 21.9276 16.5234 21.9248C16.5234 21.922 16.5234 21.9192 16.5234 21.9164C16.5234 21.9136 16.5234 21.9108 16.5234 21.908C16.5234 21.9052 16.5234 21.9024 16.5234 21.8995C16.5234 21.8967 16.5234 21.8939 16.5234 21.891C16.5234 21.8882 16.5234 21.8854 16.5234 21.8825C16.5234 21.8796 16.5234 21.8768 16.5234 21.8739C16.5234 21.871 16.5234 21.8682 16.5234 21.8653C16.5234 21.8624 16.5234 21.8595 16.5234 21.8566C16.5234 21.8537 16.5234 21.8508 16.5234 21.8479C16.5234 21.8449 16.5234 21.842 16.5234 21.8391C16.5234 21.8361 16.5234 21.8332 16.5234 21.8303C16.5234 21.8273 16.5234 21.8244 16.5234 21.8214C16.5234 21.8184 16.5234 21.8155 16.5234 21.8125C16.5234 21.8095 16.5234 21.8065 16.5234 21.8035C16.5234 21.8005 16.5234 21.7975 16.5234 21.7945C16.5234 21.7915 16.5234 21.7885 16.5234 21.7855C16.5234 21.7825 16.5234 21.7794 16.5234 21.7764C16.5234 21.7734 16.5234 21.7703 16.5234 21.7673C16.5234 21.7642 16.5234 21.7612 16.5234 21.7581C16.5234 21.755 16.5234 21.752 16.5234 21.7489C16.5234 21.7458 16.5234 21.7427 16.5234 21.7396C16.5234 21.7365 16.5234 21.7334 16.5234 21.7303C16.5234 21.7272 16.5234 21.7241 16.5234 21.721C16.5234 21.7179 16.5234 21.7147 16.5234 21.7116C16.5234 21.7085 16.5234 21.7053 16.5234 21.7022C16.5234 21.699 16.5234 21.6959 16.5234 21.6927C16.5234 21.6895 16.5234 21.6864 16.5234 21.6832C16.5234 21.68 16.5234 21.6768 16.5234 21.6736C16.5234 21.6704 16.5234 21.6672 16.5234 21.664C16.5234 21.6608 16.5234 21.6576 16.5234 21.6544C16.5234 21.6512 16.5234 21.6479 16.5234 21.6447C16.5234 21.6415 16.5234 21.6382 16.5234 21.635C16.5234 21.6317 16.5234 21.6285 16.5234 21.6252C16.5234 21.6219 16.5234 21.6187 16.5234 21.6154C16.5234 21.6121 16.5234 21.6088 16.5234 21.6055C16.5234 21.6022 16.5234 21.5989 16.5234 21.5956C16.5234 21.5923 16.5234 21.589 16.5234 21.5857C16.5234 21.5824 16.5234 21.5791 16.5234 21.5757C16.5234 21.5724 16.5234 21.5691 16.5234 21.5657C16.5234 21.5624 16.5234 21.559 16.5234 21.5557C16.5234 21.5523 16.5234 21.5489 16.5234 21.5456C16.5234 21.5422 16.5234 21.5388 16.5234 21.5354C16.5234 21.5321 16.5234 21.5287 16.5234 21.5253C16.5234 21.5219 16.5234 21.5185 16.5234 21.5151C16.5234 21.5116 16.5234 21.5082 16.5234 21.5048C16.5234 21.5014 16.5234 21.4979 16.5234 21.4945C16.5234 21.4911 16.5234 21.4876 16.5234 21.4842C16.5234 21.4807 16.5234 21.4773 16.5234 21.4738C16.5234 21.4703 16.5234 21.4669 16.5234 21.4634C16.5234 21.4599 16.5234 21.4564 16.5234 21.4529C16.5234 21.4494 16.5234 21.4459 16.5234 21.4424C16.5234 21.4389 16.5234 21.4354 16.5234 21.4319C16.5234 21.4284 16.5234 21.4249 16.5234 21.4214C16.5234 21.4178 16.5234 21.4143 16.5234 21.4107C16.5234 21.4072 16.5234 21.4037 16.5234 21.4001C16.5234 21.3966 16.5234 21.393 16.5234 21.3894C16.5234 21.3859 16.5234 21.3823 16.5234 21.3787C16.5234 21.3751 16.5234 21.3715 16.5234 21.3679C16.5234 21.3644 16.5234 21.3608 16.5234 21.3572C16.5234 21.3536 16.5234 21.3499 16.5234 21.3463C16.5234 21.3427 16.5234 21.3391 16.5234 21.3355C16.5234 21.3318 16.5234 21.3282 16.5234 21.3245C16.5234 21.3209 16.5234 21.3173 16.5234 21.3136C16.5234 21.31 16.5234 21.3063 16.5234 21.3026C16.5234 21.299 16.5234 21.2953 16.5234 21.2916C16.5234 21.2879 16.5234 21.2842 16.5234 21.2806C16.5234 21.2769 16.5234 21.2732 16.5234 21.2695C16.5234 21.2658 16.5234 21.2621 16.5234 21.2583C16.5234 21.2546 16.5234 21.2509 16.5234 21.2472C16.5234 21.2435 16.5234 21.2397 16.5234 21.236C16.5234 21.2322 16.5234 21.2285 16.5234 21.2248C16.5234 21.221 16.5234 21.2172 16.5234 21.2135C16.5234 21.2097 16.5234 21.206 16.5234 21.2022C16.5234 21.1984 16.5234 21.1946 16.5234 21.1908C16.5234 21.1871 16.5234 21.1833 16.5234 21.1795C16.5234 21.1757 16.5234 21.1719 16.5234 21.1681C16.5234 21.1643 16.5234 21.1604 16.5234 21.1566C16.5234 21.1528 16.5234 21.149 16.5234 21.1451C16.5234 21.1413 16.5234 21.1375 16.5234 21.1336C16.5234 21.1298 16.5234 21.1259 16.5234 21.1221C16.5234 21.1182 16.5234 21.1144 16.5234 21.1105C16.5234 21.1066 16.5234 21.1028 16.5234 21.0989C16.5234 21.095 16.5234 21.0911 16.5234 21.0872C16.5234 21.0833 16.5234 21.0795 16.5234 21.0756C16.5234 21.0717 16.5234 21.0677 16.5234 21.0638C16.5234 21.0599 16.5234 21.056 16.5234 21.0521C16.5234 21.0482 16.5234 21.0442 16.5234 21.0403C16.5234 21.0364 16.5234 21.0324 16.5234 21.0285C16.5234 21.0245 16.5234 21.0206 16.5234 21.0166C16.5234 21.0127 16.5234 21.0087 16.5234 21.0048C16.5234 21.0008 16.5234 20.9968 16.5234 20.9928C16.5234 20.9889 16.5234 20.9849 16.5234 20.9809C16.5234 20.9769 16.5234 20.9729 16.5234 20.9689C16.5234 20.9649 16.5234 20.9609 16.5234 20.9569C16.5234 20.9529 16.5234 20.9489 16.5234 20.9449C16.5234 20.9408 16.5234 20.9368 16.5234 20.9328C16.5234 20.9288 16.5234 20.9247 16.5234 20.9207C16.5234 20.9166 16.5234 20.9126 16.5234 20.9085C16.5234 20.9045 16.5234 20.9004 16.5234 20.8964C16.5234 20.8923 16.5234 20.8882 16.5234 20.8842C16.5234 20.8801 16.5234 20.876 16.5234 20.8719C16.5234 20.8678 16.5234 20.8638 16.5234 20.8597C16.5234 20.8556 16.5234 20.8515 16.5234 20.8474C16.5234 20.8433 16.5234 20.8392 16.5234 20.835C16.5234 20.8309 16.5234 20.8268 16.5234 20.8227C16.5234 20.8186 16.5234 20.8144 16.5234 20.8103C16.5234 20.8062 16.5234 20.802 16.5234 20.7979C16.5234 20.7937 16.5234 20.7896 16.5234 20.7854C16.5234 20.7813 16.5234 20.7771 16.5234 20.773C16.5234 20.7688 16.5234 20.7646 16.5234 20.7605C16.5234 20.7563 16.5234 20.7521 16.5234 20.7479C16.5234 20.7437 16.5234 20.7396 16.5234 20.7354C16.5234 20.7312 16.5234 20.727 16.5234 20.7228C16.5234 20.7186 16.5234 20.7144 16.5234 20.7101C16.5234 20.7059 16.5234 20.7017 16.5234 20.6975C16.5234 20.6933 16.5234 20.689 16.5234 20.6848C16.5234 20.6806 16.5234 20.6763 16.5234 20.6721C16.5234 20.6679 16.5234 20.6636 16.5234 20.6594C16.5234 20.6551 16.5234 20.6508 16.5234 20.6466C16.5234 20.6423 16.5234 20.6381 16.5234 20.6338C16.5234 20.6295 16.5234 20.6252 16.5234 20.621C16.5234 20.6167 16.5234 20.6124 16.5234 20.6081C16.5234 20.6038 16.5234 20.5995 16.5234 20.5952C16.5234 20.5909 16.5234 20.5866 16.5234 20.5823C16.5234 20.578 16.5234 20.5737 16.5234 20.5694C16.5234 20.5651 16.5234 20.5608 16.5234 20.5564C16.5234 20.5521 16.5234 20.5478 16.5234 20.5435C16.5234 20.5391 16.5234 20.5348 16.5234 20.5304C16.5234 20.5261 16.5234 20.5217 16.5234 20.5174C16.5234 20.513 16.5234 20.5087 16.5234 20.5043C16.5234 20.5 16.5234 20.4956 16.5234 20.4912C16.5234 20.4869 16.5234 20.4825 16.5234 20.4781C16.5234 20.4737 16.5234 20.4693 16.5234 20.465C16.5234 20.4606 16.5234 20.4562 16.5234 20.4518C16.5234 20.4474 16.5234 20.443 16.5234 20.4386C16.5234 20.4342 16.5234 20.4298 16.5234 20.4254C16.5234 20.4209 16.5234 20.4165 16.5234 20.4121C16.5234 20.4077 16.5234 20.4033 16.5234 20.3988C16.5234 20.3944 16.5234 20.39 16.5234 20.3855C16.5234 20.3811 16.5234 20.3766 16.5234 20.3722C16.5234 20.3678 16.5234 20.3633 16.5234 20.3588C16.5234 20.3544 16.5234 20.3499 16.5234 20.3455C16.5234 20.341 16.5234 20.3365 16.5234 20.3321C16.5234 20.3276 16.5234 20.3231 16.5234 20.3186C16.5234 20.3142 16.5234 20.3097 16.5234 20.3052C16.5234 20.3007 16.5234 20.2962 16.5234 20.2917C16.5234 20.2872 16.5234 20.2827 16.5234 20.2782C16.5234 20.2737 16.5234 20.2692 16.5234 20.2647C16.5234 20.2602 16.5234 20.2557 16.5234 20.2511C16.5234 20.2466 16.5234 20.2421 16.5234 20.2376C16.5234 20.233 16.5234 20.2285 16.5234 20.224C16.5234 20.2194 16.5234 20.2149 16.5234 20.2104C16.5234 20.2058 16.5234 20.2013 16.5234 20.1967C16.5234 20.1922 16.5234 20.1876 16.5234 20.1831C16.5234 20.1785 16.5234 20.1739 16.5234 20.1694C16.5234 20.1648 16.5234 20.1602 16.5234 20.1557C16.5234 20.1511 16.5234 20.1465 16.5234 20.1419C16.5234 20.1374 16.5234 20.1328 16.5234 20.1282C16.5234 20.1236 16.5234 20.119 16.5234 20.1144C16.5234 20.1098 16.5234 20.1052 16.5234 20.1006C16.5234 20.096 16.5234 20.0914 16.5234 20.0868C16.5234 20.0822 16.5234 20.0776 16.5234 20.0729C16.5234 20.0683 16.5234 20.0637 16.5234 20.0591C16.5234 20.0545 16.5234 20.0498 16.5234 20.0452C16.5234 20.0406 16.5234 20.0359 16.5234 20.0313C16.5234 20.0266 16.5234 20.022 16.5234 20.0174C16.5234 20.0127 16.5234 20.0081 16.5234 20.0034C16.5234 19.9988 16.5234 19.9941 16.5234 19.9894C16.5234 19.9848 16.5234 19.9801 16.5234 19.9754C16.5234 19.9708 16.5234 19.9661 16.5234 19.9614C16.5234 19.9568 16.5234 19.9521 16.5234 19.9474C16.5234 19.9427 16.5234 19.938 16.5234 19.9334C16.5234 19.9287 16.5234 19.924 16.5234 19.9193C16.5234 19.9146 16.5234 19.9099 16.5234 19.9052C16.5234 19.9005 16.5234 19.8958 16.5234 19.8911C16.5234 19.8864 16.5234 19.8817 16.5234 19.8769C16.5234 19.8722 16.5234 19.8675 16.5234 19.8628C16.5234 19.8581 16.5234 19.8534 16.5234 19.8486C16.5234 19.8439 16.5234 19.8392 16.5234 19.8344C16.5234 19.8297 16.5234 19.825 16.5234 19.8202C16.5234 19.8155 16.5234 19.8107 16.5234 19.806C16.5234 19.8013 16.5234 19.7965 16.5234 19.7918C16.5234 19.787 16.5234 19.7822 16.5234 19.7775C16.5234 19.7727 16.5234 19.768 16.5234 19.7632C16.5234 19.7584 16.5234 19.7537 16.5234 19.7489C16.5234 19.7441 16.5234 19.7394 16.5234 19.7346C16.5234 19.7298 16.5234 19.725 16.5234 19.7203C16.5234 19.7155 16.5234 19.7107 16.5234 19.7059C16.5234 19.7011 16.5234 19.6963 16.5234 19.6915C16.5234 19.6867 16.5234 19.6819 16.5234 19.6771C16.5234 19.6723 16.5234 19.6675 16.5234 19.6627C16.5234 19.6579 16.5234 19.6531 16.5234 19.6483C16.5234 19.6435 16.5234 19.6387 16.5234 19.6339C16.5234 19.629 16.5234 19.6242 16.5234 19.6194C16.5234 19.6146 16.5234 19.6098 16.5234 19.6049C16.5234 19.6001 16.5234 19.5953 16.5234 19.5904C16.5234 19.5856 16.5234 19.5808 16.5234 19.5759C16.5234 19.5711 16.5234 19.5662 16.5234 19.5614C16.5234 19.5566 16.5234 19.5517 16.5234 19.5469C16.5234 19.542 16.5234 19.5372 16.5234 19.5323C16.5234 19.5274 16.5234 19.5226 16.5234 19.5177C16.5234 19.5129 16.5234 19.508 16.5234 19.5031C16.5234 19.4983 16.5234 19.4934 16.5234 19.4885C16.5234 19.4837 16.5234 19.4788 16.5234 19.4739C16.5234 19.469 16.5234 19.4642 16.5234 19.4593C16.5234 19.4544 16.5234 19.4495 16.5234 19.4446C16.5234 19.4397 16.5234 19.4349 16.5234 19.43C16.5234 19.4251 16.5234 19.4202 16.5234 19.4153C16.5234 19.4104 16.5234 19.4055 16.5234 19.4006C16.5234 19.3957 16.5234 19.3908 16.5234 19.3859C16.5234 19.381 16.5234 19.3761 16.5234 19.3712C16.5234 19.3663 16.5234 19.3613 16.5234 19.3564C16.5234 19.3515 16.5234 19.3466 16.5234 19.3417C16.5234 19.3368 16.5234 19.3318 16.5234 19.3269C16.5234 19.322 16.5234 19.3171 16.5234 19.3121C16.5234 19.3072 16.5234 19.3023 16.5234 19.2973C16.5234 19.2924 16.5234 19.2875 16.5234 19.2825C16.5234 19.2776 16.5234 19.2727 16.5234 19.2677C16.5234 19.2628 16.5234 19.2578 16.5234 19.2529C16.5234 19.2479 16.5234 19.243 16.5234 19.238C16.5234 19.2331 16.5234 19.2281 16.5234 19.2232C16.5234 19.2182 16.5234 19.2133 16.5234 19.2083C16.5234 19.2034 16.5234 19.1984 16.5234 19.1934C16.5234 19.1885 16.5234 19.1835 16.5234 19.1785C16.5234 19.1736 16.5234 19.1686 16.5234 19.1636C16.5234 19.1587 16.5234 19.1537 16.5234 19.1487C16.5234 19.1437 16.5234 19.1388 16.5234 19.1338C16.5234 19.1288 16.5234 19.1238 16.5234 19.1188C16.5234 19.1139 16.5234 19.1089 16.5234 19.1039C16.5234 19.0989 16.5234 19.0939 16.5234 19.0889C16.5234 19.0839 16.5234 19.0789 16.5234 19.0739C16.5234 19.069 16.5234 19.064 16.5234 19.059C16.5234 19.054 16.5234 19.049 16.5234 19.044C16.5234 19.039 16.5234 19.034 16.5234 19.029C16.5234 19.0239 16.5234 19.0189 16.5234 19.0139C16.5234 19.0089 16.5234 19.0039 16.5234 18.9989C16.5234 18.9939 16.5234 18.9889 16.5234 18.9839C16.5234 18.9788 16.5234 18.9738 16.5234 18.9688C16.5234 18.9638 16.5234 18.9588 16.5234 18.9537C16.5234 18.9487 16.5234 18.9437 16.5234 18.9387C16.5234 18.9337 16.5234 18.9286 16.5234 18.9236C16.5234 18.9186 16.5234 18.9135 16.5234 18.9085C16.5234 18.9035 16.5234 18.8984 16.5234 18.8934C16.5234 18.8884 16.5234 18.8833 16.5234 18.8783C16.5234 18.8733 16.5234 18.8682 16.5234 18.8632C16.5234 18.8581 16.5234 18.8531 16.5234 18.8481C16.5234 18.843 16.5234 18.838 16.5234 18.8329C16.5234 18.8279 16.5234 18.8228 16.5234 18.8178C16.5234 18.8127 16.5234 18.8077 16.5234 18.8026C16.5234 18.7976 16.5234 18.7925 16.5234 18.7875C16.5234 18.7824 16.5234 18.7774 16.5234 18.7723C16.5234 18.7672 16.5234 18.7622 16.5234 18.7571C16.5234 18.7521 16.5234 18.747 16.5234 18.7419C16.5234 18.7369 16.5234 18.7318 16.5234 18.7267C16.5234 18.7217 16.5234 18.7166 16.5234 18.7115C16.5234 18.7065 16.5234 18.7014 16.5234 18.6963C16.5234 18.6913 16.5234 18.6862 16.5234 18.6811C16.5234 18.676 16.5234 18.671 16.5234 18.6659C16.5234 18.6608 16.5234 18.6557 16.5234 18.6507C16.5234 18.6456 16.5234 18.6405 16.5234 18.6354C16.5234 18.6304 16.5234 18.6253 16.5234 18.6202C16.5234 18.6151 16.5234 18.61 16.5234 18.6049C16.5234 18.5999 16.5234 18.5948 16.5234 18.5897C16.5234 18.5846 16.5234 18.5795 16.5234 18.5744C16.5234 18.5693 16.5234 18.5642 16.5234 18.5592C16.5234 18.5541 16.5234 18.549 16.5234 18.5439C16.5234 18.5388 16.5234 18.5337 16.5234 18.5286C16.5234 18.5235 16.5234 18.5184 16.5234 18.5133C16.5234 18.5082 16.5234 18.5031 16.5234 18.498C16.5234 18.4929 16.5234 18.4878 16.5234 18.4827C16.5234 18.4776 16.5234 18.4725 16.5234 18.4674C16.5234 18.4623 16.5234 18.4572 16.5234 18.4521C16.5234 18.447 16.5234 18.4419 16.5234 18.4368C16.5234 18.4317 16.5234 18.4266 16.5234 18.4215C16.5234 18.4164 16.5234 18.4113 16.5234 18.4062C16.5234 18.4011 16.5234 18.396 16.5234 18.3909C16.5234 18.3858 16.5234 18.3806 16.5234 18.3755C16.5234 18.3704 16.5234 18.3653 16.5234 18.3602C16.5234 18.3551 16.5234 18.35 16.5234 18.3449C16.5234 18.3398 16.5234 18.3346 16.5234 18.3295C16.5234 18.3244 16.5234 18.3193 16.5234 18.3142C16.5234 18.3091 16.5234 18.304 16.5234 18.2988C16.5234 18.2937 16.5234 18.2886 16.5234 18.2835C16.5234 18.2784 16.5234 18.2733 16.5234 18.2681C16.5234 18.263 16.5234 18.2579 16.5234 18.2528C16.5234 18.2477 16.5234 18.2425 16.5234 18.2374C16.5234 18.2323 16.5234 18.2272 16.5234 18.2221C16.5234 18.2169 16.5234 18.2118 16.5234 18.2067C16.5234 18.2016 16.5234 18.1964 16.5234 18.1913C16.5234 18.1862 16.5234 18.1811 16.5234 18.176C16.5234 18.1708 16.5234 18.1657 16.5234 18.1606C16.5234 18.1555 16.5234 18.1503 16.5234 18.1452C16.5234 18.1401 16.5234 18.135 16.5234 18.1298C16.5234 18.1247 16.5234 18.1196 16.5234 18.1145C16.5234 18.1093 16.5234 18.1042 16.5234 18.0991C16.5234 18.094 16.5234 18.0888 16.5234 18.0837C16.5234 18.0786 16.5234 18.0735 16.5234 18.0683C16.5234 18.0632 16.5234 18.0581 16.5234 18.0529C16.5234 18.0478 16.5234 18.0427 16.5234 18.0376C16.5234 18.0324 16.5234 18.0273 16.5234 18.0222C16.5234 18.0171 16.5234 18.0119 16.5234 18.0068C16.5234 18.0017 16.5234 17.9965 16.5234 17.9914C16.5234 17.9863 16.5234 17.9812 16.5234 17.976C16.5234 17.9709 16.5234 17.9658 16.5234 17.9607C16.5234 17.9555 16.5234 17.9504 16.5234 17.9453C16.5234 17.9401 16.5234 17.935 16.5234 17.9299C16.5234 17.9248 16.5234 17.9196 16.5234 17.9145C16.5234 17.9094 16.5234 17.9042 16.5234 17.8991C16.5234 17.894 16.5234 17.8889 16.5234 17.8837C16.5234 17.8786 16.5234 17.8735 16.5234 17.8684C16.5234 17.8632 16.5234 17.8581 16.5234 17.853C16.5234 17.8479 16.5234 17.8427 16.5234 17.8376C16.5234 17.8325 16.5234 17.8273 16.5234 17.8222C16.5234 17.8171 16.5234 17.812 16.5234 17.8068C16.5234 17.8017 16.5234 17.7966 16.5234 17.7915C16.5234 17.7863 16.5234 17.7812 16.5234 17.7761C16.5234 17.771 16.5234 17.7659 16.5234 17.7607C16.5234 17.7556 16.5234 17.7505 16.5234 17.7454C16.5234 17.7402 16.5234 17.7351 16.5234 17.73C16.5234 17.7249 16.5234 17.7198 16.5234 17.7146C16.5234 17.7095 16.5234 17.7044 16.5234 17.6993C16.5234 17.6942 16.5234 17.689 16.5234 17.6839C16.5234 17.6788 16.5234 17.6737 16.5234 17.6686C16.5234 17.6634 16.5234 17.6583 16.5234 17.6532C16.5234 17.6481 16.5234 17.643 16.5234 17.6379C16.5234 17.6327 16.5234 17.6276 16.5234 17.6225C16.5234 17.6174 16.5234 17.6123 16.5234 17.6072C16.5234 17.6021 16.5234 17.5969 16.5234 17.5918C16.5234 17.5867 16.5234 17.5816 16.5234 17.5765C16.5234 17.5714 16.5234 17.5663 16.5234 17.5612C16.5234 17.5561 16.5234 17.5509 16.5234 17.5458C16.5234 17.5407 16.5234 17.5356 16.5234 17.5305C16.5234 17.5254 16.5234 17.5203 16.5234 17.5152C16.5234 17.5101 16.5234 17.505 16.5234 17.4999C16.5234 17.4948 16.5234 17.4897 16.5234 17.4846C16.5234 17.4795 16.5234 17.4744 16.5234 17.4693C16.5234 17.4642 16.5234 17.4591 16.5234 17.454C16.5234 17.4489 16.5234 17.4438 16.5234 17.4387C16.5234 17.4336 16.5234 17.4285 16.5234 17.4234C16.5234 17.4183 16.5234 17.4132 16.5234 17.4081C16.5234 17.403 16.5234 17.3979 16.5234 17.3928C16.5234 17.3877 16.5234 17.3826 16.5234 17.3775C16.5234 17.3725 16.5234 17.3674 16.5234 17.3623C16.5234 17.3572 16.5234 17.3521 16.5234 17.347C16.5234 17.3419 16.5234 17.3368 16.5234 17.3318C16.5234 17.3267 16.5234 17.3216 16.5234 17.3165C16.5234 17.3114 16.5234 17.3064 16.5234 17.3013C16.5234 17.2962 16.5234 17.2911 16.5234 17.286C16.5234 17.281 16.5234 17.2759 16.5234 17.2708C16.5234 17.2657 16.5234 17.2607 16.5234 17.2556C16.5234 17.2505 16.5234 17.2454 16.5234 17.2404C16.5234 17.2353 16.5234 17.2302 16.5234 17.2252C16.5234 17.2201 16.5234 17.215 16.5234 17.21C16.5234 17.2049 16.5234 17.1998 16.5234 17.1948C16.5234 17.1897 16.5234 17.1847 16.5234 17.1796C16.5234 17.1745 16.5234 17.1695 16.5234 17.1644C16.5234 17.1594 16.5234 17.1543 16.5234 17.1493C16.5234 17.1442 16.5234 17.1391 16.5234 17.1341C16.5234 17.129 16.5234 17.124 16.5234 17.1189C16.5234 17.1139 16.5234 17.1088 16.5234 17.1038C16.5234 17.0988 16.5234 17.0937 16.5234 17.0887C16.5234 17.0836 16.5234 17.0786 16.5234 17.0735C16.5234 17.0685 16.5234 17.0635 16.5234 17.0584C16.5234 17.0534 16.5234 17.0483 16.5234 17.0433C16.5234 17.0383 16.5234 17.0332 16.5234 17.0282C16.5234 17.0232 16.5234 17.0182 16.5234 17.0131C16.5234 17.0081 16.5234 17.0031 16.5234 16.998H14.4883C14.4883 17.0031 14.4883 17.0081 14.4883 17.0131C14.4883 17.0182 14.4883 17.0232 14.4883 17.0282C14.4883 17.0332 14.4883 17.0383 14.4883 17.0433C14.4883 17.0483 14.4883 17.0534 14.4883 17.0584C14.4883 17.0635 14.4883 17.0685 14.4883 17.0735C14.4883 17.0786 14.4883 17.0836 14.4883 17.0887C14.4883 17.0937 14.4883 17.0988 14.4883 17.1038C14.4883 17.1088 14.4883 17.1139 14.4883 17.1189C14.4883 17.124 14.4883 17.129 14.4883 17.1341C14.4883 17.1391 14.4883 17.1442 14.4883 17.1493C14.4883 17.1543 14.4883 17.1594 14.4883 17.1644C14.4883 17.1695 14.4883 17.1745 14.4883 17.1796C14.4883 17.1847 14.4883 17.1897 14.4883 17.1948C14.4883 17.1998 14.4883 17.2049 14.4883 17.21C14.4883 17.215 14.4883 17.2201 14.4883 17.2252C14.4883 17.2302 14.4883 17.2353 14.4883 17.2404C14.4883 17.2454 14.4883 17.2505 14.4883 17.2556C14.4883 17.2607 14.4883 17.2657 14.4883 17.2708C14.4883 17.2759 14.4883 17.281 14.4883 17.286C14.4883 17.2911 14.4883 17.2962 14.4883 17.3013C14.4883 17.3064 14.4883 17.3114 14.4883 17.3165C14.4883 17.3216 14.4883 17.3267 14.4883 17.3318C14.4883 17.3368 14.4883 17.3419 14.4883 17.347C14.4883 17.3521 14.4883 17.3572 14.4883 17.3623C14.4883 17.3674 14.4883 17.3725 14.4883 17.3775C14.4883 17.3826 14.4883 17.3877 14.4883 17.3928C14.4883 17.3979 14.4883 17.403 14.4883 17.4081C14.4883 17.4132 14.4883 17.4183 14.4883 17.4234C14.4883 17.4285 14.4883 17.4336 14.4883 17.4387C14.4883 17.4438 14.4883 17.4489 14.4883 17.454C14.4883 17.4591 14.4883 17.4642 14.4883 17.4693C14.4883 17.4744 14.4883 17.4795 14.4883 17.4846C14.4883 17.4897 14.4883 17.4948 14.4883 17.4999C14.4883 17.505 14.4883 17.5101 14.4883 17.5152C14.4883 17.5203 14.4883 17.5254 14.4883 17.5305C14.4883 17.5356 14.4883 17.5407 14.4883 17.5458C14.4883 17.5509 14.4883 17.5561 14.4883 17.5612C14.4883 17.5663 14.4883 17.5714 14.4883 17.5765C14.4883 17.5816 14.4883 17.5867 14.4883 17.5918C14.4883 17.5969 14.4883 17.6021 14.4883 17.6072C14.4883 17.6123 14.4883 17.6174 14.4883 17.6225C14.4883 17.6276 14.4883 17.6327 14.4883 17.6379C14.4883 17.643 14.4883 17.6481 14.4883 17.6532C14.4883 17.6583 14.4883 17.6634 14.4883 17.6686C14.4883 17.6737 14.4883 17.6788 14.4883 17.6839C14.4883 17.689 14.4883 17.6942 14.4883 17.6993C14.4883 17.7044 14.4883 17.7095 14.4883 17.7146C14.4883 17.7198 14.4883 17.7249 14.4883 17.73C14.4883 17.7351 14.4883 17.7402 14.4883 17.7454C14.4883 17.7505 14.4883 17.7556 14.4883 17.7607C14.4883 17.7659 14.4883 17.771 14.4883 17.7761C14.4883 17.7812 14.4883 17.7863 14.4883 17.7915C14.4883 17.7966 14.4883 17.8017 14.4883 17.8068C14.4883 17.812 14.4883 17.8171 14.4883 17.8222C14.4883 17.8273 14.4883 17.8325 14.4883 17.8376C14.4883 17.8427 14.4883 17.8479 14.4883 17.853C14.4883 17.8581 14.4883 17.8632 14.4883 17.8684C14.4883 17.8735 14.4883 17.8786 14.4883 17.8837C14.4883 17.8889 14.4883 17.894 14.4883 17.8991C14.4883 17.9042 14.4883 17.9094 14.4883 17.9145C14.4883 17.9196 14.4883 17.9248 14.4883 17.9299C14.4883 17.935 14.4883 17.9401 14.4883 17.9453C14.4883 17.9504 14.4883 17.9555 14.4883 17.9607C14.4883 17.9658 14.4883 17.9709 14.4883 17.976C14.4883 17.9812 14.4883 17.9863 14.4883 17.9914C14.4883 17.9965 14.4883 18.0017 14.4883 18.0068C14.4883 18.0119 14.4883 18.0171 14.4883 18.0222C14.4883 18.0273 14.4883 18.0324 14.4883 18.0376C14.4883 18.0427 14.4883 18.0478 14.4883 18.0529C14.4883 18.0581 14.4883 18.0632 14.4883 18.0683C14.4883 18.0735 14.4883 18.0786 14.4883 18.0837C14.4883 18.0888 14.4883 18.094 14.4883 18.0991C14.4883 18.1042 14.4883 18.1093 14.4883 18.1145C14.4883 18.1196 14.4883 18.1247 14.4883 18.1298C14.4883 18.135 14.4883 18.1401 14.4883 18.1452C14.4883 18.1503 14.4883 18.1555 14.4883 18.1606C14.4883 18.1657 14.4883 18.1708 14.4883 18.176C14.4883 18.1811 14.4883 18.1862 14.4883 18.1913C14.4883 18.1964 14.4883 18.2016 14.4883 18.2067C14.4883 18.2118 14.4883 18.2169 14.4883 18.2221C14.4883 18.2272 14.4883 18.2323 14.4883 18.2374C14.4883 18.2425 14.4883 18.2477 14.4883 18.2528C14.4883 18.2579 14.4883 18.263 14.4883 18.2681C14.4883 18.2733 14.4883 18.2784 14.4883 18.2835C14.4883 18.2886 14.4883 18.2937 14.4883 18.2988C14.4883 18.304 14.4883 18.3091 14.4883 18.3142C14.4883 18.3193 14.4883 18.3244 14.4883 18.3295C14.4883 18.3346 14.4883 18.3398 14.4883 18.3449C14.4883 18.35 14.4883 18.3551 14.4883 18.3602C14.4883 18.3653 14.4883 18.3704 14.4883 18.3755C14.4883 18.3806 14.4883 18.3858 14.4883 18.3909C14.4883 18.396 14.4883 18.4011 14.4883 18.4062C14.4883 18.4113 14.4883 18.4164 14.4883 18.4215C14.4883 18.4266 14.4883 18.4317 14.4883 18.4368C14.4883 18.4419 14.4883 18.447 14.4883 18.4521C14.4883 18.4572 14.4883 18.4623 14.4883 18.4674C14.4883 18.4725 14.4883 18.4776 14.4883 18.4827C14.4883 18.4878 14.4883 18.4929 14.4883 18.498C14.4883 18.5031 14.4883 18.5082 14.4883 18.5133C14.4883 18.5184 14.4883 18.5235 14.4883 18.5286C14.4883 18.5337 14.4883 18.5388 14.4883 18.5439C14.4883 18.549 14.4883 18.5541 14.4883 18.5592C14.4883 18.5642 14.4883 18.5693 14.4883 18.5744C14.4883 18.5795 14.4883 18.5846 14.4883 18.5897C14.4883 18.5948 14.4883 18.5999 14.4883 18.6049C14.4883 18.61 14.4883 18.6151 14.4883 18.6202C14.4883 18.6253 14.4883 18.6304 14.4883 18.6354C14.4883 18.6405 14.4883 18.6456 14.4883 18.6507C14.4883 18.6557 14.4883 18.6608 14.4883 18.6659C14.4883 18.671 14.4883 18.676 14.4883 18.6811C14.4883 18.6862 14.4883 18.6913 14.4883 18.6963C14.4883 18.7014 14.4883 18.7065 14.4883 18.7115C14.4883 18.7166 14.4883 18.7217 14.4883 18.7267C14.4883 18.7318 14.4883 18.7369 14.4883 18.7419C14.4883 18.747 14.4883 18.7521 14.4883 18.7571C14.4883 18.7622 14.4883 18.7672 14.4883 18.7723C14.4883 18.7774 14.4883 18.7824 14.4883 18.7875C14.4883 18.7925 14.4883 18.7976 14.4883 18.8026C14.4883 18.8077 14.4883 18.8127 14.4883 18.8178C14.4883 18.8228 14.4883 18.8279 14.4883 18.8329C14.4883 18.838 14.4883 18.843 14.4883 18.8481C14.4883 18.8531 14.4883 18.8581 14.4883 18.8632C14.4883 18.8682 14.4883 18.8733 14.4883 18.8783C14.4883 18.8833 14.4883 18.8884 14.4883 18.8934C14.4883 18.8984 14.4883 18.9035 14.4883 18.9085C14.4883 18.9135 14.4883 18.9186 14.4883 18.9236C14.4883 18.9286 14.4883 18.9337 14.4883 18.9387C14.4883 18.9437 14.4883 18.9487 14.4883 18.9537C14.4883 18.9588 14.4883 18.9638 14.4883 18.9688C14.4883 18.9738 14.4883 18.9788 14.4883 18.9839C14.4883 18.9889 14.4883 18.9939 14.4883 18.9989C14.4883 19.0039 14.4883 19.0089 14.4883 19.0139C14.4883 19.0189 14.4883 19.0239 14.4883 19.029C14.4883 19.034 14.4883 19.039 14.4883 19.044C14.4883 19.049 14.4883 19.054 14.4883 19.059C14.4883 19.064 14.4883 19.069 14.4883 19.0739C14.4883 19.0789 14.4883 19.0839 14.4883 19.0889C14.4883 19.0939 14.4883 19.0989 14.4883 19.1039C14.4883 19.1089 14.4883 19.1139 14.4883 19.1188C14.4883 19.1238 14.4883 19.1288 14.4883 19.1338C14.4883 19.1388 14.4883 19.1437 14.4883 19.1487C14.4883 19.1537 14.4883 19.1587 14.4883 19.1636C14.4883 19.1686 14.4883 19.1736 14.4883 19.1785C14.4883 19.1835 14.4883 19.1885 14.4883 19.1934C14.4883 19.1984 14.4883 19.2034 14.4883 19.2083C14.4883 19.2133 14.4883 19.2182 14.4883 19.2232C14.4883 19.2281 14.4883 19.2331 14.4883 19.238C14.4883 19.243 14.4883 19.2479 14.4883 19.2529C14.4883 19.2578 14.4883 19.2628 14.4883 19.2677C14.4883 19.2727 14.4883 19.2776 14.4883 19.2825C14.4883 19.2875 14.4883 19.2924 14.4883 19.2973C14.4883 19.3023 14.4883 19.3072 14.4883 19.3121C14.4883 19.3171 14.4883 19.322 14.4883 19.3269C14.4883 19.3318 14.4883 19.3368 14.4883 19.3417C14.4883 19.3466 14.4883 19.3515 14.4883 19.3564C14.4883 19.3613 14.4883 19.3663 14.4883 19.3712C14.4883 19.3761 14.4883 19.381 14.4883 19.3859C14.4883 19.3908 14.4883 19.3957 14.4883 19.4006C14.4883 19.4055 14.4883 19.4104 14.4883 19.4153C14.4883 19.4202 14.4883 19.4251 14.4883 19.43C14.4883 19.4349 14.4883 19.4397 14.4883 19.4446C14.4883 19.4495 14.4883 19.4544 14.4883 19.4593C14.4883 19.4642 14.4883 19.469 14.4883 19.4739C14.4883 19.4788 14.4883 19.4837 14.4883 19.4885C14.4883 19.4934 14.4883 19.4983 14.4883 19.5031C14.4883 19.508 14.4883 19.5129 14.4883 19.5177C14.4883 19.5226 14.4883 19.5274 14.4883 19.5323C14.4883 19.5372 14.4883 19.542 14.4883 19.5469C14.4883 19.5517 14.4883 19.5566 14.4883 19.5614C14.4883 19.5662 14.4883 19.5711 14.4883 19.5759C14.4883 19.5808 14.4883 19.5856 14.4883 19.5904C14.4883 19.5953 14.4883 19.6001 14.4883 19.6049C14.4883 19.6098 14.4883 19.6146 14.4883 19.6194C14.4883 19.6242 14.4883 19.629 14.4883 19.6339C14.4883 19.6387 14.4883 19.6435 14.4883 19.6483C14.4883 19.6531 14.4883 19.6579 14.4883 19.6627C14.4883 19.6675 14.4883 19.6723 14.4883 19.6771C14.4883 19.6819 14.4883 19.6867 14.4883 19.6915C14.4883 19.6963 14.4883 19.7011 14.4883 19.7059C14.4883 19.7107 14.4883 19.7155 14.4883 19.7203C14.4883 19.725 14.4883 19.7298 14.4883 19.7346C14.4883 19.7394 14.4883 19.7441 14.4883 19.7489C14.4883 19.7537 14.4883 19.7584 14.4883 19.7632C14.4883 19.768 14.4883 19.7727 14.4883 19.7775C14.4883 19.7822 14.4883 19.787 14.4883 19.7918C14.4883 19.7965 14.4883 19.8013 14.4883 19.806C14.4883 19.8107 14.4883 19.8155 14.4883 19.8202C14.4883 19.825 14.4883 19.8297 14.4883 19.8344C14.4883 19.8392 14.4883 19.8439 14.4883 19.8486C14.4883 19.8534 14.4883 19.8581 14.4883 19.8628C14.4883 19.8675 14.4883 19.8722 14.4883 19.8769C14.4883 19.8817 14.4883 19.8864 14.4883 19.8911C14.4883 19.8958 14.4883 19.9005 14.4883 19.9052C14.4883 19.9099 14.4883 19.9146 14.4883 19.9193C14.4883 19.924 14.4883 19.9287 14.4883 19.9334C14.4883 19.938 14.4883 19.9427 14.4883 19.9474C14.4883 19.9521 14.4883 19.9568 14.4883 19.9614C14.4883 19.9661 14.4883 19.9708 14.4883 19.9754C14.4883 19.9801 14.4883 19.9848 14.4883 19.9894C14.4883 19.9941 14.4883 19.9988 14.4883 20.0034C14.4883 20.0081 14.4883 20.0127 14.4883 20.0174C14.4883 20.022 14.4883 20.0266 14.4883 20.0313C14.4883 20.0359 14.4883 20.0406 14.4883 20.0452C14.4883 20.0498 14.4883 20.0545 14.4883 20.0591C14.4883 20.0637 14.4883 20.0683 14.4883 20.0729C14.4883 20.0776 14.4883 20.0822 14.4883 20.0868C14.4883 20.0914 14.4883 20.096 14.4883 20.1006C14.4883 20.1052 14.4883 20.1098 14.4883 20.1144C14.4883 20.119 14.4883 20.1236 14.4883 20.1282C14.4883 20.1328 14.4883 20.1374 14.4883 20.1419C14.4883 20.1465 14.4883 20.1511 14.4883 20.1557C14.4883 20.1602 14.4883 20.1648 14.4883 20.1694C14.4883 20.1739 14.4883 20.1785 14.4883 20.1831C14.4883 20.1876 14.4883 20.1922 14.4883 20.1967C14.4883 20.2013 14.4883 20.2058 14.4883 20.2104C14.4883 20.2149 14.4883 20.2194 14.4883 20.224C14.4883 20.2285 14.4883 20.233 14.4883 20.2376C14.4883 20.2421 14.4883 20.2466 14.4883 20.2511C14.4883 20.2557 14.4883 20.2602 14.4883 20.2647C14.4883 20.2692 14.4883 20.2737 14.4883 20.2782C14.4883 20.2827 14.4883 20.2872 14.4883 20.2917C14.4883 20.2962 14.4883 20.3007 14.4883 20.3052C14.4883 20.3097 14.4883 20.3142 14.4883 20.3186C14.4883 20.3231 14.4883 20.3276 14.4883 20.3321C14.4883 20.3365 14.4883 20.341 14.4883 20.3455C14.4883 20.3499 14.4883 20.3544 14.4883 20.3588C14.4883 20.3633 14.4883 20.3678 14.4883 20.3722C14.4883 20.3766 14.4883 20.3811 14.4883 20.3855C14.4883 20.39 14.4883 20.3944 14.4883 20.3988C14.4883 20.4033 14.4883 20.4077 14.4883 20.4121C14.4883 20.4165 14.4883 20.4209 14.4883 20.4254C14.4883 20.4298 14.4883 20.4342 14.4883 20.4386C14.4883 20.443 14.4883 20.4474 14.4883 20.4518C14.4883 20.4562 14.4883 20.4606 14.4883 20.465C14.4883 20.4693 14.4883 20.4737 14.4883 20.4781C14.4883 20.4825 14.4883 20.4869 14.4883 20.4912C14.4883 20.4956 14.4883 20.5 14.4883 20.5043C14.4883 20.5087 14.4883 20.513 14.4883 20.5174C14.4883 20.5217 14.4883 20.5261 14.4883 20.5304C14.4883 20.5348 14.4883 20.5391 14.4883 20.5435C14.4883 20.5478 14.4883 20.5521 14.4883 20.5564C14.4883 20.5608 14.4883 20.5651 14.4883 20.5694C14.4883 20.5737 14.4883 20.578 14.4883 20.5823C14.4883 20.5866 14.4883 20.5909 14.4883 20.5952C14.4883 20.5995 14.4883 20.6038 14.4883 20.6081C14.4883 20.6124 14.4883 20.6167 14.4883 20.621C14.4883 20.6252 14.4883 20.6295 14.4883 20.6338C14.4883 20.6381 14.4883 20.6423 14.4883 20.6466C14.4883 20.6508 14.4883 20.6551 14.4883 20.6594C14.4883 20.6636 14.4883 20.6679 14.4883 20.6721C14.4883 20.6763 14.4883 20.6806 14.4883 20.6848C14.4883 20.689 14.4883 20.6933 14.4883 20.6975C14.4883 20.7017 14.4883 20.7059 14.4883 20.7101C14.4883 20.7144 14.4883 20.7186 14.4883 20.7228C14.4883 20.727 14.4883 20.7312 14.4883 20.7354C14.4883 20.7396 14.4883 20.7437 14.4883 20.7479C14.4883 20.7521 14.4883 20.7563 14.4883 20.7605C14.4883 20.7646 14.4883 20.7688 14.4883 20.773C14.4883 20.7771 14.4883 20.7813 14.4883 20.7854C14.4883 20.7896 14.4883 20.7937 14.4883 20.7979C14.4883 20.802 14.4883 20.8062 14.4883 20.8103C14.4883 20.8144 14.4883 20.8186 14.4883 20.8227C14.4883 20.8268 14.4883 20.8309 14.4883 20.835C14.4883 20.8392 14.4883 20.8433 14.4883 20.8474C14.4883 20.8515 14.4883 20.8556 14.4883 20.8597C14.4883 20.8638 14.4883 20.8678 14.4883 20.8719C14.4883 20.876 14.4883 20.8801 14.4883 20.8842C14.4883 20.8882 14.4883 20.8923 14.4883 20.8964C14.4883 20.9004 14.4883 20.9045 14.4883 20.9085C14.4883 20.9126 14.4883 20.9166 14.4883 20.9207C14.4883 20.9247 14.4883 20.9288 14.4883 20.9328C14.4883 20.9368 14.4883 20.9408 14.4883 20.9449C14.4883 20.9489 14.4883 20.9529 14.4883 20.9569C14.4883 20.9609 14.4883 20.9649 14.4883 20.9689C14.4883 20.9729 14.4883 20.9769 14.4883 20.9809C14.4883 20.9849 14.4883 20.9889 14.4883 20.9928C14.4883 20.9968 14.4883 21.0008 14.4883 21.0048C14.4883 21.0087 14.4883 21.0127 14.4883 21.0166C14.4883 21.0206 14.4883 21.0245 14.4883 21.0285C14.4883 21.0324 14.4883 21.0364 14.4883 21.0403C14.4883 21.0442 14.4883 21.0482 14.4883 21.0521C14.4883 21.056 14.4883 21.0599 14.4883 21.0638C14.4883 21.0677 14.4883 21.0717 14.4883 21.0756C14.4883 21.0795 14.4883 21.0833 14.4883 21.0872C14.4883 21.0911 14.4883 21.095 14.4883 21.0989C14.4883 21.1028 14.4883 21.1066 14.4883 21.1105C14.4883 21.1144 14.4883 21.1182 14.4883 21.1221C14.4883 21.1259 14.4883 21.1298 14.4883 21.1336C14.4883 21.1375 14.4883 21.1413 14.4883 21.1451C14.4883 21.149 14.4883 21.1528 14.4883 21.1566C14.4883 21.1604 14.4883 21.1643 14.4883 21.1681C14.4883 21.1719 14.4883 21.1757 14.4883 21.1795C14.4883 21.1833 14.4883 21.1871 14.4883 21.1908C14.4883 21.1946 14.4883 21.1984 14.4883 21.2022C14.4883 21.206 14.4883 21.2097 14.4883 21.2135C14.4883 21.2172 14.4883 21.221 14.4883 21.2248C14.4883 21.2285 14.4883 21.2322 14.4883 21.236C14.4883 21.2397 14.4883 21.2435 14.4883 21.2472C14.4883 21.2509 14.4883 21.2546 14.4883 21.2583C14.4883 21.2621 14.4883 21.2658 14.4883 21.2695C14.4883 21.2732 14.4883 21.2769 14.4883 21.2806C14.4883 21.2842 14.4883 21.2879 14.4883 21.2916C14.4883 21.2953 14.4883 21.299 14.4883 21.3026C14.4883 21.3063 14.4883 21.31 14.4883 21.3136C14.4883 21.3173 14.4883 21.3209 14.4883 21.3245C14.4883 21.3282 14.4883 21.3318 14.4883 21.3355C14.4883 21.3391 14.4883 21.3427 14.4883 21.3463C14.4883 21.3499 14.4883 21.3536 14.4883 21.3572C14.4883 21.3608 14.4883 21.3644 14.4883 21.3679C14.4883 21.3715 14.4883 21.3751 14.4883 21.3787C14.4883 21.3823 14.4883 21.3859 14.4883 21.3894C14.4883 21.393 14.4883 21.3966 14.4883 21.4001C14.4883 21.4037 14.4883 21.4072 14.4883 21.4107C14.4883 21.4143 14.4883 21.4178 14.4883 21.4214C14.4883 21.4249 14.4883 21.4284 14.4883 21.4319C14.4883 21.4354 14.4883 21.4389 14.4883 21.4424C14.4883 21.4459 14.4883 21.4494 14.4883 21.4529C14.4883 21.4564 14.4883 21.4599 14.4883 21.4634C14.4883 21.4669 14.4883 21.4703 14.4883 21.4738C14.4883 21.4773 14.4883 21.4807 14.4883 21.4842C14.4883 21.4876 14.4883 21.4911 14.4883 21.4945C14.4883 21.4979 14.4883 21.5014 14.4883 21.5048C14.4883 21.5082 14.4883 21.5116 14.4883 21.5151C14.4883 21.5185 14.4883 21.5219 14.4883 21.5253C14.4883 21.5287 14.4883 21.5321 14.4883 21.5354C14.4883 21.5388 14.4883 21.5422 14.4883 21.5456C14.4883 21.5489 14.4883 21.5523 14.4883 21.5557C14.4883 21.559 14.4883 21.5624 14.4883 21.5657C14.4883 21.5691 14.4883 21.5724 14.4883 21.5757C14.4883 21.5791 14.4883 21.5824 14.4883 21.5857C14.4883 21.589 14.4883 21.5923 14.4883 21.5956C14.4883 21.5989 14.4883 21.6022 14.4883 21.6055C14.4883 21.6088 14.4883 21.6121 14.4883 21.6154C14.4883 21.6187 14.4883 21.6219 14.4883 21.6252C14.4883 21.6285 14.4883 21.6317 14.4883 21.635C14.4883 21.6382 14.4883 21.6415 14.4883 21.6447C14.4883 21.6479 14.4883 21.6512 14.4883 21.6544C14.4883 21.6576 14.4883 21.6608 14.4883 21.664C14.4883 21.6672 14.4883 21.6704 14.4883 21.6736C14.4883 21.6768 14.4883 21.68 14.4883 21.6832C14.4883 21.6864 14.4883 21.6895 14.4883 21.6927C14.4883 21.6959 14.4883 21.699 14.4883 21.7022C14.4883 21.7053 14.4883 21.7085 14.4883 21.7116C14.4883 21.7147 14.4883 21.7179 14.4883 21.721C14.4883 21.7241 14.4883 21.7272 14.4883 21.7303C14.4883 21.7334 14.4883 21.7365 14.4883 21.7396C14.4883 21.7427 14.4883 21.7458 14.4883 21.7489C14.4883 21.752 14.4883 21.755 14.4883 21.7581C14.4883 21.7612 14.4883 21.7642 14.4883 21.7673C14.4883 21.7703 14.4883 21.7734 14.4883 21.7764C14.4883 21.7794 14.4883 21.7825 14.4883 21.7855C14.4883 21.7885 14.4883 21.7915 14.4883 21.7945C14.4883 21.7975 14.4883 21.8005 14.4883 21.8035C14.4883 21.8065 14.4883 21.8095 14.4883 21.8125C14.4883 21.8155 14.4883 21.8184 14.4883 21.8214C14.4883 21.8244 14.4883 21.8273 14.4883 21.8303C14.4883 21.8332 14.4883 21.8361 14.4883 21.8391C14.4883 21.842 14.4883 21.8449 14.4883 21.8479C14.4883 21.8508 14.4883 21.8537 14.4883 21.8566C14.4883 21.8595 14.4883 21.8624 14.4883 21.8653C14.4883 21.8682 14.4883 21.871 14.4883 21.8739C14.4883 21.8768 14.4883 21.8796 14.4883 21.8825C14.4883 21.8854 14.4883 21.8882 14.4883 21.891C14.4883 21.8939 14.4883 21.8967 14.4883 21.8995C14.4883 21.9024 14.4883 21.9052 14.4883 21.908C14.4883 21.9108 14.4883 21.9136 14.4883 21.9164C14.4883 21.9192 14.4883 21.922 14.4883 21.9248C14.4883 21.9276 14.4883 21.9303 14.4883 21.9331C14.4883 21.9359 14.4883 21.9386 14.4883 21.9414C14.4883 21.9441 14.4883 21.9468 14.4883 21.9496C14.4883 21.9523 14.4883 21.955 14.4883 21.9578C14.4883 21.9605 14.4883 21.9632 14.4883 21.9659C14.4883 21.9686 14.4883 21.9713 14.4883 21.974C14.4883 21.9767 14.4883 21.9793 14.4883 21.982C14.4883 21.9847 14.4883 21.9873 14.4883 21.99C14.4883 21.9926 14.4883 21.9953 14.4883 21.9979C14.4883 22.0006 14.4883 22.0032 14.4883 22.0058C14.4883 22.0084 14.4883 22.0111 14.4883 22.0137C14.4883 22.0163 14.4883 22.0189 14.4883 22.0215C14.4883 22.0241 14.4883 22.0266 14.4883 22.0292C14.4883 22.0318 14.4883 22.0344 14.4883 22.0369C14.4883 22.0395 14.4883 22.042 14.4883 22.0446C14.4883 22.0471 14.4883 22.0496 14.4883 22.0522C14.4883 22.0547 14.4883 22.0572 14.4883 22.0597C14.4883 22.0622 14.4883 22.0647 14.4883 22.0672C14.4883 22.0697 14.4883 22.0722 14.4883 22.0747C14.4883 22.0772 14.4883 22.0796 14.4883 22.0821C14.4883 22.0845 14.4883 22.087 14.4883 22.0894C14.4883 22.0919 14.4883 22.0943 14.4883 22.0967C14.4883 22.0992 14.4883 22.1016 14.4883 22.104C14.4883 22.1064 14.4883 22.1088 14.4883 22.1112C14.4883 22.1136 14.4883 22.116 14.4883 22.1184C14.4883 22.1207 14.4883 22.1231 14.4883 22.1255C14.4883 22.1278 14.4883 22.1302 14.4883 22.1325C14.4883 22.1349 14.4883 22.1372 14.4883 22.1395C14.4883 22.1419 14.4883 22.1442 14.4883 22.1465C14.4883 22.1488 14.4883 22.1511 14.4883 22.1534C14.4883 22.1557 14.4883 22.158 14.4883 22.1602C14.4883 22.1625 14.4883 22.1648 14.4883 22.167C14.4883 22.1693 14.4883 22.1716 14.4883 22.1738C14.4883 22.176 14.4883 22.1783 14.4883 22.1805C14.4883 22.1827 14.4883 22.1849 14.4883 22.1871C14.4883 22.1893 14.4883 22.1915 14.4883 22.1937C14.4883 22.1959 14.4883 22.1981 14.4883 22.2003C14.4883 22.2025 14.4883 22.2046 14.4883 22.2068C14.4883 22.2089 14.4883 22.2111 14.4883 22.2132C14.4883 22.2153 14.4883 22.2175 14.4883 22.2196C14.4883 22.2217 14.4883 22.2238 14.4883 22.2259C14.4883 22.228 14.4883 22.2301 14.4883 22.2322C14.4883 22.2343 14.4883 22.2364 14.4883 22.2384C14.4883 22.2405 14.4883 22.2426 14.4883 22.2446C14.4883 22.2467 14.4883 22.2487 14.4883 22.2507C14.4883 22.2528 14.4883 22.2548 14.4883 22.2568C14.4883 22.2588 14.4883 22.2608 14.4883 22.2628C14.4883 22.2648 14.4883 22.2668 14.4883 22.2688C14.4883 22.2708 14.4883 22.2727 14.4883 22.2747C14.4883 22.2767 14.4883 22.2786 14.4883 22.2805C14.4883 22.2825 14.4883 22.2844 14.4883 22.2863C14.4883 22.2883 14.4883 22.2902 14.4883 22.2921C14.4883 22.294 14.4883 22.2959 14.4883 22.2978C14.4883 22.2997 14.4883 22.3016 14.4883 22.3034C14.4883 22.3053 14.4883 22.3072 14.4883 22.309C14.4883 22.3109 14.4883 22.3127 14.4883 22.3145C14.4883 22.3164 14.4883 22.3182 14.4883 22.32C14.4883 22.3218 14.4883 22.3236 14.4883 22.3254C14.4883 22.3272 14.4883 22.329 14.4883 22.3308C14.4883 22.3326 14.4883 22.3343 14.4883 22.3361C14.4883 22.3379 14.4883 22.3396 14.4883 22.3413C14.4883 22.3431 14.4883 22.3448 14.4883 22.3465C14.4883 22.3483 14.4883 22.35 14.4883 22.3517C14.4883 22.3534 14.4883 22.3551 14.4883 22.3568C14.4883 22.3584 14.4883 22.3601 14.4883 22.3618C14.4883 22.3635 14.4883 22.3651 14.4883 22.3668C14.4883 22.3684 14.4883 22.37 14.4883 22.3717C14.4883 22.3733 14.4883 22.3749 14.4883 22.3765C14.4883 22.3781 14.4883 22.3797 14.4883 22.3813C14.4883 22.3829 14.4883 22.3845 14.4883 22.3861C14.4883 22.3877 14.4883 22.3892 14.4883 22.3908C14.4883 22.3923 14.4883 22.3939 14.4883 22.3954C14.4883 22.3969 14.4883 22.3985 14.4883 22.4C14.4883 22.4015 14.4883 22.403 14.4883 22.4045C14.4883 22.406 14.4883 22.4075 14.4883 22.4089C14.4883 22.4104 14.4883 22.4119 14.4883 22.4133C14.4883 22.4148 14.4883 22.4162 14.4883 22.4177C14.4883 22.4191 14.4883 22.4205 14.4883 22.422C14.4883 22.4234 14.4883 22.4248 14.4883 22.4262C14.4883 22.4276 14.4883 22.429 14.4883 22.4303C14.4883 22.4317 14.4883 22.4331 14.4883 22.4345C14.4883 22.4358 14.4883 22.4372 14.4883 22.4385C14.4883 22.4398 14.4883 22.4412 14.4883 22.4425C14.4883 22.4438 14.4883 22.4451 14.4883 22.4464C14.4883 22.4477 14.4883 22.449 14.4883 22.4503C14.4883 22.4516 14.4883 22.4528 14.4883 22.4541C14.4883 22.4554 14.4883 22.4566 14.4883 22.4579C14.4883 22.4591 14.4883 22.4603 14.4883 22.4616C14.4883 22.4628 14.4883 22.464 14.4883 22.4652C14.4883 22.4664 14.4883 22.4676 14.4883 22.4688C14.4883 22.4699 14.4883 22.4711 14.4883 22.4723C14.4883 22.4734 14.4883 22.4746 14.4883 22.4757C14.4883 22.4769 14.4883 22.478 14.4883 22.4791C14.4883 22.4802 14.4883 22.4813 14.4883 22.4824C14.4883 22.4835 14.4883 22.4846 14.4883 22.4857C14.4883 22.4868 14.4883 22.4879 14.4883 22.4889C14.4883 22.49 14.4883 22.491 14.4883 22.4921C14.4883 22.4931 14.4883 22.4941 14.4883 22.4952C14.4883 22.4962 14.4883 22.4972 14.4883 22.4982C14.4883 22.4992 14.4883 22.5002 14.4883 22.5011C14.4883 22.5021 14.4883 22.5031 14.4883 22.504C14.4883 22.505 14.4883 22.5059 14.4883 22.5069C14.4883 22.5078 14.4883 22.5087 14.4883 22.5097C14.4883 22.5106 14.4883 22.5115 14.4883 22.5124C14.4883 22.5133 14.4883 22.5142 14.4883 22.515C14.4883 22.5159 14.4883 22.5168 14.4883 22.5176C14.4883 22.5185 14.4883 22.5193 14.4883 22.5201C14.4883 22.521 14.4883 22.5218 14.4883 22.5226C14.4883 22.5234 14.4883 22.5242 14.4883 22.525C14.4883 22.5258 14.4883 22.5266 14.4883 22.5274C14.4883 22.5281 14.4883 22.5289 14.4883 22.5296C14.4883 22.5304 14.4883 22.5311 14.4883 22.5318C14.4883 22.5326 14.4883 22.5333 14.4883 22.534C14.4883 22.5347 14.4883 22.5354 14.4883 22.5361C14.4883 22.5368 14.4883 22.5374 14.4883 22.5381C14.4883 22.5388 14.4883 22.5394 14.4883 22.5401C14.4883 22.5407 14.4883 22.5413 14.4883 22.5419C14.4883 22.5426 14.4883 22.5432 14.4883 22.5438C14.4883 22.5444 14.4883 22.545 14.4883 22.5455C14.4883 22.5461 14.4883 22.5467 14.4883 22.5472C14.4883 22.5478 14.4883 22.5483 14.4883 22.5489C14.4883 22.5494 14.4883 22.5499 14.4883 22.5504C14.4883 22.551 14.4883 22.5515 14.4883 22.552C14.4883 22.5524 14.4883 22.5529 14.4883 22.5534C14.4883 22.5539 14.4883 22.5543 14.4883 22.5548C14.4883 22.5552 14.4883 22.5556 14.4883 22.5561C14.4883 22.5565 14.4883 22.5569 14.4883 22.5573C14.4883 22.5577 14.4883 22.5581 14.4883 22.5585C14.4883 22.5589 14.4883 22.5592 14.4883 22.5596C14.4883 22.56 14.4883 22.5603 14.4883 22.5606C14.4883 22.561 14.4883 22.5613 14.4883 22.5616C14.4883 22.5619 14.4883 22.5622 14.4883 22.5625C14.4883 22.5628 14.4883 22.5631 14.4883 22.5634C14.4883 22.5637 14.4883 22.5639 14.4883 22.5642C14.4883 22.5644 14.4883 22.5647 14.4883 22.5649C14.4883 22.5651 14.4883 22.5653 14.4883 22.5655C14.4883 22.5657 14.4883 22.5659 14.4883 22.5661C14.4883 22.5663 14.4883 22.5665 14.4883 22.5666C14.4883 22.5668 14.4883 22.5669 14.4883 22.5671C14.4883 22.5672 14.4883 22.5673 14.4883 22.5674C14.4883 22.5675 14.4883 22.5676 14.4883 22.5677C14.4883 22.5678 14.4883 22.5679 14.4883 22.568C14.4883 22.568 14.4883 22.5681 14.4883 22.5681C14.4883 22.5682 14.4883 22.5682 14.4883 22.5682C14.4883 22.5683 14.4883 22.5683 15.5059 22.5683ZM33.3922 26.6091C34.9587 25.8016 35.8567 24.2333 35.8567 22.5683H33.8216C33.8216 23.4945 33.3289 24.3522 32.4598 24.8002L33.3922 26.6091ZM17.8851 24.8002C17.0161 24.3522 16.5234 23.4945 16.5234 22.5683H14.4883C14.4883 24.2333 15.3862 25.8016 16.9527 26.6091L17.8851 24.8002Z" fill="white"/>
<path d="M5.9554 39.9419L3.42433 36.504L4.23148 36.0058L7.0914 39.9419H5.9554ZM1.26195 39.9419V32.9665H2.23851V39.9419H1.26195ZM1.93956 36.8727V35.9958H4.20159V36.8727H1.93956ZM4.32117 36.5638L3.4044 36.4243L5.90558 32.9665H6.97182L4.32117 36.5638ZM10.1473 40.0017C9.6158 40.0017 9.14413 39.8854 8.73225 39.6529C8.32037 39.4204 7.99485 39.1015 7.7557 38.6963C7.51654 38.2844 7.39696 37.8194 7.39696 37.3012C7.39696 36.7764 7.51654 36.3114 7.7557 35.9061C7.99485 35.5009 8.32037 35.1853 8.73225 34.9595C9.14413 34.7269 9.6158 34.6107 10.1473 34.6107C10.6721 34.6107 11.1404 34.7269 11.5523 34.9595C11.9708 35.1853 12.2964 35.5009 12.5289 35.9061C12.768 36.3047 12.8876 36.7697 12.8876 37.3012C12.8876 37.826 12.768 38.291 12.5289 38.6963C12.2964 39.1015 11.9708 39.4204 11.5523 39.6529C11.1404 39.8854 10.6721 40.0017 10.1473 40.0017ZM10.1473 39.1646C10.4861 39.1646 10.7883 39.0882 11.0541 38.9354C11.3264 38.7826 11.539 38.5667 11.6918 38.2877C11.8446 38.0021 11.921 37.6732 11.921 37.3012C11.921 36.9225 11.8446 36.597 11.6918 36.3246C11.539 36.0456 11.3264 35.8297 11.0541 35.6769C10.7883 35.5241 10.4861 35.4477 10.1473 35.4477C9.80846 35.4477 9.50619 35.5241 9.24046 35.6769C8.97473 35.8297 8.76215 36.0456 8.60271 36.3246C8.44327 36.597 8.36355 36.9225 8.36355 37.3012C8.36355 37.6732 8.44327 38.0021 8.60271 38.2877C8.76215 38.5667 8.97473 38.7826 9.24046 38.9354C9.50619 39.0882 9.80846 39.1646 10.1473 39.1646ZM14.269 39.9419V34.6605H15.2555L17.5275 38.5667H17.1289L19.4607 34.6605H20.3575V39.9419H19.4906V35.7367L19.65 35.8264L17.5175 39.344H17.099L14.9566 35.7567L15.1459 35.7168V39.9419H14.269ZM25.458 39.9419V38.8258L25.4082 38.6166V36.7133C25.4082 36.308 25.2886 35.9958 25.0495 35.7766C24.817 35.5507 24.4649 35.4378 23.9932 35.4378C23.681 35.4378 23.3754 35.4909 23.0764 35.5972C22.7775 35.6969 22.5251 35.833 22.3191 36.0058L21.9205 35.2883C22.1929 35.0691 22.5184 34.903 22.8971 34.7901C23.2824 34.6705 23.6843 34.6107 24.1028 34.6107C24.8269 34.6107 25.385 34.7867 25.7769 35.1388C26.1689 35.4909 26.3648 36.029 26.3648 36.7531V39.9419H25.458ZM23.7242 40.0017C23.3322 40.0017 22.9868 39.9353 22.6878 39.8024C22.3955 39.6695 22.1696 39.4868 22.0102 39.2543C21.8508 39.0152 21.771 38.7461 21.771 38.4472C21.771 38.1615 21.8375 37.9024 21.9703 37.6699C22.1098 37.4374 22.3324 37.2514 22.638 37.1119C22.9502 36.9724 23.3687 36.9026 23.8936 36.9026H25.5677V37.5902H23.9334C23.4551 37.5902 23.1329 37.6699 22.9668 37.8293C22.8007 37.9888 22.7177 38.1814 22.7177 38.4073C22.7177 38.6664 22.8207 38.8757 23.0266 39.0351C23.2326 39.1879 23.5182 39.2643 23.8836 39.2643C24.2423 39.2643 24.5546 39.1846 24.8203 39.0251C25.0927 38.8657 25.2886 38.6332 25.4082 38.3276L25.5976 38.9853C25.4713 39.2975 25.2488 39.5466 24.9299 39.7326C24.611 39.912 24.2091 40.0017 23.7242 40.0017ZM28.0874 39.9419V34.6605H29.0441V36.9026H32.0535V34.6605H33.0101V39.9419H32.0535V37.7297H29.0441V39.9419H28.0874ZM38.4775 39.4935V35.4976H36.1855L36.1357 36.514C36.1224 36.8461 36.0992 37.1683 36.066 37.4806C36.0394 37.7862 35.9929 38.0685 35.9264 38.3276C35.8667 38.5867 35.777 38.7993 35.6574 38.9653C35.5378 39.1314 35.3784 39.2344 35.1791 39.2742L34.2324 39.1048C34.4384 39.1115 34.6044 39.0451 34.7307 38.9055C34.8569 38.7594 34.9532 38.5601 35.0196 38.3077C35.0927 38.0552 35.1459 37.7696 35.1791 37.4507C35.2123 37.1252 35.2389 36.7897 35.2588 36.4442L35.3385 34.6605H39.4341V39.4935H38.4775ZM34.0232 41.1676V39.1048H40.2412V41.1676H39.3444V39.9419H34.93V41.1676H34.0232ZM46.7091 39.9419V34.6605H47.6657V39.9419H46.7091ZM43.8691 36.4542C44.54 36.4608 45.0482 36.6136 45.3937 36.9126C45.7458 37.2115 45.9218 37.6334 45.9218 38.1781C45.9218 38.7494 45.7292 39.1912 45.3439 39.5034C44.9652 39.809 44.4205 39.9585 43.7096 39.9519L41.4875 39.9419V34.6605H42.4441V36.4442L43.8691 36.4542ZM43.6399 39.2244C44.065 39.2311 44.3906 39.1447 44.6164 38.9653C44.8423 38.786 44.9552 38.5202 44.9552 38.1681C44.9552 37.8227 44.8423 37.5703 44.6164 37.4108C44.3972 37.2514 44.0717 37.1683 43.6399 37.1617L42.4441 37.1418V39.2145L43.6399 39.2244Z" fill="#B1ACCE"/>
</svg>
