<svg width="50" height="43" viewBox="0 0 50 43" fill="none" xmlns="http://www.w3.org/2000/svg">
<path d="M28.3533 3.69458L28.8014 2.77702L28.3533 3.69458ZM37.4635 8.14357L37.9116 7.22601L37.4635 8.14357ZM37.4635 13.429L37.9116 14.3466L37.4635 13.429ZM28.3534 17.8779L27.9053 16.9604L28.3534 17.8779ZM12.7576 7.22595C12.2508 7.47342 12.0406 8.08484 12.2881 8.5916C12.5356 9.09835 13.147 9.30854 13.6538 9.06106L12.7576 7.22595ZM22.3157 3.69458L21.8676 2.77702V2.77702L22.3157 3.69458ZM22.3158 17.8779L22.7639 16.9604L22.3158 17.8779ZM16.2521 13.7803C15.7453 13.5328 15.1339 13.743 14.8864 14.2497C14.6389 14.7565 14.8491 15.3679 15.3559 15.6154L16.2521 13.7803ZM11.3793 20.0048C11.3793 20.5688 11.8364 21.0259 12.4004 21.0259C12.9643 21.0259 13.4215 20.5688 13.4215 20.0048H11.3793ZM15.7011 10.731L16.1174 11.6634H16.1174L15.7011 10.731ZM17.582 11.0096C18.0969 10.7797 18.328 10.1759 18.0981 9.66091C17.8682 9.14595 17.2644 8.91485 16.7494 9.14475L17.582 11.0096ZM27.9052 4.61214L37.0154 9.06113L37.9116 7.22601L28.8014 2.77702L27.9052 4.61214ZM37.0154 12.5114L27.9053 16.9604L28.8015 18.7955L37.9116 14.3466L37.0154 12.5114ZM13.6538 9.06106L22.7638 4.61214L21.8676 2.77702L12.7576 7.22595L13.6538 9.06106ZM27.9053 16.9604C26.2534 17.7671 24.4159 17.7671 22.7639 16.9604L21.8677 18.7955C24.0852 19.8784 26.584 19.8784 28.8015 18.7955L27.9053 16.9604ZM37.0154 9.06113C37.5616 9.32786 37.9286 9.98024 37.9286 10.7863C37.9286 11.5923 37.5616 12.2447 37.0154 12.5114L37.9116 14.3466C39.347 13.6456 39.9708 12.1391 39.9708 10.7863C39.9708 9.43348 39.347 7.92702 37.9116 7.22601L37.0154 9.06113ZM28.8014 2.77702C26.5839 1.69411 24.0851 1.6941 21.8676 2.77702L22.7638 4.61214C24.4157 3.80541 26.2533 3.80541 27.9052 4.61214L28.8014 2.77702ZM22.7639 16.9604L16.2521 13.7803L15.3559 15.6154L21.8677 18.7955L22.7639 16.9604ZM11.3793 15.9452V20.0048H13.4215V15.9452H11.3793ZM16.1174 11.6634L17.582 11.0096L16.7494 9.14475L15.2849 9.79856L16.1174 11.6634ZM13.4215 15.9452C13.4215 15.017 13.4228 14.3983 13.4723 13.9207C13.5195 13.4656 13.6031 13.233 13.7129 13.0596L11.9873 11.9673C11.6474 12.5043 11.5062 13.0805 11.4409 13.7101C11.378 14.3172 11.3793 15.0593 11.3793 15.9452H13.4215ZM15.2849 9.79856C14.5049 10.1467 13.844 10.4402 13.3277 10.7428C12.7881 11.059 12.3291 11.4274 11.9873 11.9673L13.7129 13.0596C13.8209 12.889 13.9869 12.7235 14.3602 12.5048C14.7568 12.2724 15.2965 12.0299 16.1174 11.6634L15.2849 9.79856Z" fill="#8E8BFF"/>
<path opacity="0.5" d="M17.8944 26.7232L17.4266 27.6309L17.4266 27.6309L17.8944 26.7232ZM33.4562 26.7232L33.9241 27.6309H33.9241L33.4562 26.7232ZM36.3972 17.986C36.3972 17.422 35.94 16.9648 35.376 16.9648C34.8121 16.9648 34.3549 17.422 34.3549 17.986H36.3972ZM16.9957 17.986C16.9957 17.422 16.5386 16.9648 15.9746 16.9648C15.4107 16.9648 14.9535 17.422 14.9535 17.986H16.9957ZM17.4266 27.6309C18.4675 28.1674 19.8342 28.8127 21.2712 29.3258C22.6931 29.8335 24.2585 30.2395 25.6753 30.2395V28.1972C24.6032 28.1972 23.2956 27.8801 21.958 27.4025C20.6356 26.9303 19.3562 26.3279 18.3623 25.8156L17.4266 27.6309ZM25.6753 30.2395C27.0921 30.2395 28.6575 29.8335 30.0794 29.3258C31.5165 28.8127 32.8831 28.1674 33.9241 27.6309L32.9884 25.8156C31.9944 26.3279 30.7151 26.9303 29.3926 27.4025C28.055 27.8801 26.7475 28.1972 25.6753 28.1972V30.2395ZM36.3972 23.5758V17.986H34.3549V23.5758H36.3972ZM15.9746 23.5758C16.9957 23.5758 16.9957 23.5758 16.9957 23.5758C16.9957 23.5758 16.9957 23.5757 16.9957 23.5757C16.9957 23.5757 16.9957 23.5756 16.9957 23.5755C16.9957 23.5755 16.9957 23.5754 16.9957 23.5753C16.9957 23.5752 16.9957 23.5751 16.9957 23.575C16.9957 23.5749 16.9957 23.5747 16.9957 23.5746C16.9957 23.5745 16.9957 23.5743 16.9957 23.5742C16.9957 23.574 16.9957 23.5738 16.9957 23.5736C16.9957 23.5735 16.9957 23.5733 16.9957 23.5731C16.9957 23.5729 16.9957 23.5726 16.9957 23.5724C16.9957 23.5722 16.9957 23.572 16.9957 23.5717C16.9957 23.5715 16.9957 23.5712 16.9957 23.5709C16.9957 23.5707 16.9957 23.5704 16.9957 23.5701C16.9957 23.5698 16.9957 23.5695 16.9957 23.5692C16.9957 23.5688 16.9957 23.5685 16.9957 23.5682C16.9957 23.5678 16.9957 23.5675 16.9957 23.5671C16.9957 23.5668 16.9957 23.5664 16.9957 23.566C16.9957 23.5656 16.9957 23.5652 16.9957 23.5648C16.9957 23.5644 16.9957 23.564 16.9957 23.5636C16.9957 23.5632 16.9957 23.5627 16.9957 23.5623C16.9957 23.5618 16.9957 23.5614 16.9957 23.5609C16.9957 23.5604 16.9957 23.5599 16.9957 23.5594C16.9957 23.559 16.9957 23.5585 16.9957 23.5579C16.9957 23.5574 16.9957 23.5569 16.9957 23.5564C16.9957 23.5558 16.9957 23.5553 16.9957 23.5547C16.9957 23.5542 16.9957 23.5536 16.9957 23.553C16.9957 23.5524 16.9957 23.5518 16.9957 23.5512C16.9957 23.5506 16.9957 23.55 16.9957 23.5494C16.9957 23.5488 16.9957 23.5482 16.9957 23.5475C16.9957 23.5469 16.9957 23.5462 16.9957 23.5455C16.9957 23.5449 16.9957 23.5442 16.9957 23.5435C16.9957 23.5428 16.9957 23.5421 16.9957 23.5414C16.9957 23.5407 16.9957 23.54 16.9957 23.5393C16.9957 23.5385 16.9957 23.5378 16.9957 23.537C16.9957 23.5363 16.9957 23.5355 16.9957 23.5348C16.9957 23.534 16.9957 23.5332 16.9957 23.5324C16.9957 23.5316 16.9957 23.5308 16.9957 23.53C16.9957 23.5292 16.9957 23.5284 16.9957 23.5275C16.9957 23.5267 16.9957 23.5259 16.9957 23.525C16.9957 23.5241 16.9957 23.5233 16.9957 23.5224C16.9957 23.5215 16.9957 23.5206 16.9957 23.5197C16.9957 23.5188 16.9957 23.5179 16.9957 23.517C16.9957 23.5161 16.9957 23.5152 16.9957 23.5142C16.9957 23.5133 16.9957 23.5123 16.9957 23.5114C16.9957 23.5104 16.9957 23.5094 16.9957 23.5085C16.9957 23.5075 16.9957 23.5065 16.9957 23.5055C16.9957 23.5045 16.9957 23.5035 16.9957 23.5024C16.9957 23.5014 16.9957 23.5004 16.9957 23.4994C16.9957 23.4983 16.9957 23.4973 16.9957 23.4962C16.9957 23.4951 16.9957 23.4941 16.9957 23.493C16.9957 23.4919 16.9957 23.4908 16.9957 23.4897C16.9957 23.4886 16.9957 23.4875 16.9957 23.4863C16.9957 23.4852 16.9957 23.4841 16.9957 23.4829C16.9957 23.4818 16.9957 23.4806 16.9957 23.4795C16.9957 23.4783 16.9957 23.4771 16.9957 23.476C16.9957 23.4748 16.9957 23.4736 16.9957 23.4724C16.9957 23.4712 16.9957 23.47 16.9957 23.4687C16.9957 23.4675 16.9957 23.4663 16.9957 23.465C16.9957 23.4638 16.9957 23.4625 16.9957 23.4613C16.9957 23.46 16.9957 23.4587 16.9957 23.4574C16.9957 23.4561 16.9957 23.4549 16.9957 23.4535C16.9957 23.4522 16.9957 23.4509 16.9957 23.4496C16.9957 23.4483 16.9957 23.4469 16.9957 23.4456C16.9957 23.4443 16.9957 23.4429 16.9957 23.4415C16.9957 23.4402 16.9957 23.4388 16.9957 23.4374C16.9957 23.436 16.9957 23.4346 16.9957 23.4332C16.9957 23.4318 16.9957 23.4304 16.9957 23.429C16.9957 23.4276 16.9957 23.4261 16.9957 23.4247C16.9957 23.4233 16.9957 23.4218 16.9957 23.4203C16.9957 23.4189 16.9957 23.4174 16.9957 23.4159C16.9957 23.4144 16.9957 23.413 16.9957 23.4115C16.9957 23.41 16.9957 23.4084 16.9957 23.4069C16.9957 23.4054 16.9957 23.4039 16.9957 23.4023C16.9957 23.4008 16.9957 23.3993 16.9957 23.3977C16.9957 23.3961 16.9957 23.3946 16.9957 23.393C16.9957 23.3914 16.9957 23.3898 16.9957 23.3882C16.9957 23.3866 16.9957 23.385 16.9957 23.3834C16.9957 23.3818 16.9957 23.3802 16.9957 23.3785C16.9957 23.3769 16.9957 23.3753 16.9957 23.3736C16.9957 23.372 16.9957 23.3703 16.9957 23.3686C16.9957 23.3669 16.9957 23.3653 16.9957 23.3636C16.9957 23.3619 16.9957 23.3602 16.9957 23.3585C16.9957 23.3568 16.9957 23.355 16.9957 23.3533C16.9957 23.3516 16.9957 23.3498 16.9957 23.3481C16.9957 23.3464 16.9957 23.3446 16.9957 23.3428C16.9957 23.3411 16.9957 23.3393 16.9957 23.3375C16.9957 23.3357 16.9957 23.3339 16.9957 23.3321C16.9957 23.3303 16.9957 23.3285 16.9957 23.3267C16.9957 23.3249 16.9957 23.323 16.9957 23.3212C16.9957 23.3194 16.9957 23.3175 16.9957 23.3156C16.9957 23.3138 16.9957 23.3119 16.9957 23.31C16.9957 23.3082 16.9957 23.3063 16.9957 23.3044C16.9957 23.3025 16.9957 23.3006 16.9957 23.2987C16.9957 23.2968 16.9957 23.2948 16.9957 23.2929C16.9957 23.291 16.9957 23.289 16.9957 23.2871C16.9957 23.2851 16.9957 23.2832 16.9957 23.2812C16.9957 23.2792 16.9957 23.2773 16.9957 23.2753C16.9957 23.2733 16.9957 23.2713 16.9957 23.2693C16.9957 23.2673 16.9957 23.2653 16.9957 23.2633C16.9957 23.2612 16.9957 23.2592 16.9957 23.2572C16.9957 23.2551 16.9957 23.2531 16.9957 23.251C16.9957 23.249 16.9957 23.2469 16.9957 23.2448C16.9957 23.2428 16.9957 23.2407 16.9957 23.2386C16.9957 23.2365 16.9957 23.2344 16.9957 23.2323C16.9957 23.2302 16.9957 23.228 16.9957 23.2259C16.9957 23.2238 16.9957 23.2217 16.9957 23.2195C16.9957 23.2174 16.9957 23.2152 16.9957 23.2131C16.9957 23.2109 16.9957 23.2087 16.9957 23.2065C16.9957 23.2044 16.9957 23.2022 16.9957 23.2C16.9957 23.1978 16.9957 23.1956 16.9957 23.1934C16.9957 23.1911 16.9957 23.1889 16.9957 23.1867C16.9957 23.1844 16.9957 23.1822 16.9957 23.18C16.9957 23.1777 16.9957 23.1755 16.9957 23.1732C16.9957 23.1709 16.9957 23.1686 16.9957 23.1664C16.9957 23.1641 16.9957 23.1618 16.9957 23.1595C16.9957 23.1572 16.9957 23.1549 16.9957 23.1526C16.9957 23.1502 16.9957 23.1479 16.9957 23.1456C16.9957 23.1432 16.9957 23.1409 16.9957 23.1385C16.9957 23.1362 16.9957 23.1338 16.9957 23.1315C16.9957 23.1291 16.9957 23.1267 16.9957 23.1243C16.9957 23.1219 16.9957 23.1196 16.9957 23.1172C16.9957 23.1147 16.9957 23.1123 16.9957 23.1099C16.9957 23.1075 16.9957 23.1051 16.9957 23.1026C16.9957 23.1002 16.9957 23.0978 16.9957 23.0953C16.9957 23.0929 16.9957 23.0904 16.9957 23.0879C16.9957 23.0855 16.9957 23.083 16.9957 23.0805C16.9957 23.078 16.9957 23.0755 16.9957 23.073C16.9957 23.0705 16.9957 23.068 16.9957 23.0655C16.9957 23.063 16.9957 23.0604 16.9957 23.0579C16.9957 23.0554 16.9957 23.0528 16.9957 23.0503C16.9957 23.0477 16.9957 23.0452 16.9957 23.0426C16.9957 23.04 16.9957 23.0375 16.9957 23.0349C16.9957 23.0323 16.9957 23.0297 16.9957 23.0271C16.9957 23.0245 16.9957 23.0219 16.9957 23.0193C16.9957 23.0167 16.9957 23.014 16.9957 23.0114C16.9957 23.0088 16.9957 23.0061 16.9957 23.0035C16.9957 23.0008 16.9957 22.9982 16.9957 22.9955C16.9957 22.9928 16.9957 22.9902 16.9957 22.9875C16.9957 22.9848 16.9957 22.9821 16.9957 22.9794C16.9957 22.9767 16.9957 22.974 16.9957 22.9713C16.9957 22.9686 16.9957 22.9659 16.9957 22.9632C16.9957 22.9604 16.9957 22.9577 16.9957 22.955C16.9957 22.9522 16.9957 22.9495 16.9957 22.9467C16.9957 22.9439 16.9957 22.9412 16.9957 22.9384C16.9957 22.9356 16.9957 22.9328 16.9957 22.9301C16.9957 22.9273 16.9957 22.9245 16.9957 22.9217C16.9957 22.9189 16.9957 22.916 16.9957 22.9132C16.9957 22.9104 16.9957 22.9076 16.9957 22.9047C16.9957 22.9019 16.9957 22.8991 16.9957 22.8962C16.9957 22.8934 16.9957 22.8905 16.9957 22.8876C16.9957 22.8848 16.9957 22.8819 16.9957 22.879C16.9957 22.8761 16.9957 22.8732 16.9957 22.8703C16.9957 22.8674 16.9957 22.8645 16.9957 22.8616C16.9957 22.8587 16.9957 22.8558 16.9957 22.8529C16.9957 22.8499 16.9957 22.847 16.9957 22.8441C16.9957 22.8411 16.9957 22.8382 16.9957 22.8352C16.9957 22.8323 16.9957 22.8293 16.9957 22.8263C16.9957 22.8233 16.9957 22.8204 16.9957 22.8174C16.9957 22.8144 16.9957 22.8114 16.9957 22.8084C16.9957 22.8054 16.9957 22.8024 16.9957 22.7994C16.9957 22.7963 16.9957 22.7933 16.9957 22.7903C16.9957 22.7873 16.9957 22.7842 16.9957 22.7812C16.9957 22.7781 16.9957 22.7751 16.9957 22.772C16.9957 22.769 16.9957 22.7659 16.9957 22.7628C16.9957 22.7597 16.9957 22.7567 16.9957 22.7536C16.9957 22.7505 16.9957 22.7474 16.9957 22.7443C16.9957 22.7412 16.9957 22.7381 16.9957 22.7349C16.9957 22.7318 16.9957 22.7287 16.9957 22.7256C16.9957 22.7224 16.9957 22.7193 16.9957 22.7161C16.9957 22.713 16.9957 22.7098 16.9957 22.7067C16.9957 22.7035 16.9957 22.7003 16.9957 22.6972C16.9957 22.694 16.9957 22.6908 16.9957 22.6876C16.9957 22.6844 16.9957 22.6812 16.9957 22.678C16.9957 22.6748 16.9957 22.6716 16.9957 22.6684C16.9957 22.6652 16.9957 22.6619 16.9957 22.6587C16.9957 22.6555 16.9957 22.6522 16.9957 22.649C16.9957 22.6457 16.9957 22.6425 16.9957 22.6392C16.9957 22.636 16.9957 22.6327 16.9957 22.6294C16.9957 22.6262 16.9957 22.6229 16.9957 22.6196C16.9957 22.6163 16.9957 22.613 16.9957 22.6097C16.9957 22.6064 16.9957 22.6031 16.9957 22.5998C16.9957 22.5965 16.9957 22.5931 16.9957 22.5898C16.9957 22.5865 16.9957 22.5831 16.9957 22.5798C16.9957 22.5765 16.9957 22.5731 16.9957 22.5697C16.9957 22.5664 16.9957 22.563 16.9957 22.5597C16.9957 22.5563 16.9957 22.5529 16.9957 22.5495C16.9957 22.5461 16.9957 22.5428 16.9957 22.5394C16.9957 22.536 16.9957 22.5326 16.9957 22.5291C16.9957 22.5257 16.9957 22.5223 16.9957 22.5189C16.9957 22.5155 16.9957 22.512 16.9957 22.5086C16.9957 22.5052 16.9957 22.5017 16.9957 22.4983C16.9957 22.4948 16.9957 22.4914 16.9957 22.4879C16.9957 22.4844 16.9957 22.481 16.9957 22.4775C16.9957 22.474 16.9957 22.4705 16.9957 22.467C16.9957 22.4636 16.9957 22.4601 16.9957 22.4566C16.9957 22.4531 16.9957 22.4495 16.9957 22.446C16.9957 22.4425 16.9957 22.439 16.9957 22.4355C16.9957 22.4319 16.9957 22.4284 16.9957 22.4249C16.9957 22.4213 16.9957 22.4178 16.9957 22.4142C16.9957 22.4107 16.9957 22.4071 16.9957 22.4035C16.9957 22.4 16.9957 22.3964 16.9957 22.3928C16.9957 22.3892 16.9957 22.3857 16.9957 22.3821C16.9957 22.3785 16.9957 22.3749 16.9957 22.3713C16.9957 22.3677 16.9957 22.3641 16.9957 22.3604C16.9957 22.3568 16.9957 22.3532 16.9957 22.3496C16.9957 22.3459 16.9957 22.3423 16.9957 22.3387C16.9957 22.335 16.9957 22.3314 16.9957 22.3277C16.9957 22.3241 16.9957 22.3204 16.9957 22.3167C16.9957 22.3131 16.9957 22.3094 16.9957 22.3057C16.9957 22.302 16.9957 22.2984 16.9957 22.2947C16.9957 22.291 16.9957 22.2873 16.9957 22.2836C16.9957 22.2799 16.9957 22.2762 16.9957 22.2724C16.9957 22.2687 16.9957 22.265 16.9957 22.2613C16.9957 22.2576 16.9957 22.2538 16.9957 22.2501C16.9957 22.2463 16.9957 22.2426 16.9957 22.2388C16.9957 22.2351 16.9957 22.2313 16.9957 22.2276C16.9957 22.2238 16.9957 22.22 16.9957 22.2163C16.9957 22.2125 16.9957 22.2087 16.9957 22.2049C16.9957 22.2011 16.9957 22.1973 16.9957 22.1935C16.9957 22.1897 16.9957 22.1859 16.9957 22.1821C16.9957 22.1783 16.9957 22.1745 16.9957 22.1707C16.9957 22.1669 16.9957 22.163 16.9957 22.1592C16.9957 22.1554 16.9957 22.1515 16.9957 22.1477C16.9957 22.1438 16.9957 22.14 16.9957 22.1361C16.9957 22.1323 16.9957 22.1284 16.9957 22.1245C16.9957 22.1207 16.9957 22.1168 16.9957 22.1129C16.9957 22.109 16.9957 22.1051 16.9957 22.1013C16.9957 22.0974 16.9957 22.0935 16.9957 22.0896C16.9957 22.0857 16.9957 22.0818 16.9957 22.0778C16.9957 22.0739 16.9957 22.07 16.9957 22.0661C16.9957 22.0622 16.9957 22.0582 16.9957 22.0543C16.9957 22.0504 16.9957 22.0464 16.9957 22.0425C16.9957 22.0385 16.9957 22.0346 16.9957 22.0306C16.9957 22.0267 16.9957 22.0227 16.9957 22.0187C16.9957 22.0148 16.9957 22.0108 16.9957 22.0068C16.9957 22.0028 16.9957 21.9988 16.9957 21.9948C16.9957 21.9908 16.9957 21.9869 16.9957 21.9828C16.9957 21.9788 16.9957 21.9748 16.9957 21.9708C16.9957 21.9668 16.9957 21.9628 16.9957 21.9588C16.9957 21.9548 16.9957 21.9507 16.9957 21.9467C16.9957 21.9427 16.9957 21.9386 16.9957 21.9346C16.9957 21.9305 16.9957 21.9265 16.9957 21.9224C16.9957 21.9184 16.9957 21.9143 16.9957 21.9102C16.9957 21.9062 16.9957 21.9021 16.9957 21.898C16.9957 21.8939 16.9957 21.8899 16.9957 21.8858C16.9957 21.8817 16.9957 21.8776 16.9957 21.8735C16.9957 21.8694 16.9957 21.8653 16.9957 21.8612C16.9957 21.8571 16.9957 21.853 16.9957 21.8489C16.9957 21.8447 16.9957 21.8406 16.9957 21.8365C16.9957 21.8324 16.9957 21.8282 16.9957 21.8241C16.9957 21.82 16.9957 21.8158 16.9957 21.8117C16.9957 21.8075 16.9957 21.8034 16.9957 21.7992C16.9957 21.795 16.9957 21.7909 16.9957 21.7867C16.9957 21.7825 16.9957 21.7784 16.9957 21.7742C16.9957 21.77 16.9957 21.7658 16.9957 21.7616C16.9957 21.7575 16.9957 21.7533 16.9957 21.7491C16.9957 21.7449 16.9957 21.7407 16.9957 21.7364C16.9957 21.7322 16.9957 21.728 16.9957 21.7238C16.9957 21.7196 16.9957 21.7154 16.9957 21.7111C16.9957 21.7069 16.9957 21.7027 16.9957 21.6984C16.9957 21.6942 16.9957 21.69 16.9957 21.6857C16.9957 21.6815 16.9957 21.6772 16.9957 21.673C16.9957 21.6687 16.9957 21.6644 16.9957 21.6602C16.9957 21.6559 16.9957 21.6516 16.9957 21.6474C16.9957 21.6431 16.9957 21.6388 16.9957 21.6345C16.9957 21.6302 16.9957 21.626 16.9957 21.6217C16.9957 21.6174 16.9957 21.6131 16.9957 21.6088C16.9957 21.6045 16.9957 21.6002 16.9957 21.5958C16.9957 21.5915 16.9957 21.5872 16.9957 21.5829C16.9957 21.5786 16.9957 21.5742 16.9957 21.5699C16.9957 21.5656 16.9957 21.5612 16.9957 21.5569C16.9957 21.5526 16.9957 21.5482 16.9957 21.5439C16.9957 21.5395 16.9957 21.5352 16.9957 21.5308C16.9957 21.5264 16.9957 21.5221 16.9957 21.5177C16.9957 21.5133 16.9957 21.509 16.9957 21.5046C16.9957 21.5002 16.9957 21.4958 16.9957 21.4915C16.9957 21.4871 16.9957 21.4827 16.9957 21.4783C16.9957 21.4739 16.9957 21.4695 16.9957 21.4651C16.9957 21.4607 16.9957 21.4563 16.9957 21.4519C16.9957 21.4475 16.9957 21.443 16.9957 21.4386C16.9957 21.4342 16.9957 21.4298 16.9957 21.4254C16.9957 21.4209 16.9957 21.4165 16.9957 21.4121C16.9957 21.4076 16.9957 21.4032 16.9957 21.3987C16.9957 21.3943 16.9957 21.3898 16.9957 21.3854C16.9957 21.3809 16.9957 21.3765 16.9957 21.372C16.9957 21.3675 16.9957 21.3631 16.9957 21.3586C16.9957 21.3541 16.9957 21.3497 16.9957 21.3452C16.9957 21.3407 16.9957 21.3362 16.9957 21.3317C16.9957 21.3273 16.9957 21.3228 16.9957 21.3183C16.9957 21.3138 16.9957 21.3093 16.9957 21.3048C16.9957 21.3003 16.9957 21.2958 16.9957 21.2912C16.9957 21.2867 16.9957 21.2822 16.9957 21.2777C16.9957 21.2732 16.9957 21.2687 16.9957 21.2641C16.9957 21.2596 16.9957 21.2551 16.9957 21.2505C16.9957 21.246 16.9957 21.2415 16.9957 21.2369C16.9957 21.2324 16.9957 21.2278 16.9957 21.2233C16.9957 21.2187 16.9957 21.2142 16.9957 21.2096C16.9957 21.205 16.9957 21.2005 16.9957 21.1959C16.9957 21.1914 16.9957 21.1868 16.9957 21.1822C16.9957 21.1776 16.9957 21.1731 16.9957 21.1685C16.9957 21.1639 16.9957 21.1593 16.9957 21.1547C16.9957 21.1501 16.9957 21.1455 16.9957 21.1409C16.9957 21.1363 16.9957 21.1317 16.9957 21.1271C16.9957 21.1225 16.9957 21.1179 16.9957 21.1133C16.9957 21.1087 16.9957 21.1041 16.9957 21.0995C16.9957 21.0948 16.9957 21.0902 16.9957 21.0856C16.9957 21.081 16.9957 21.0763 16.9957 21.0717C16.9957 21.0671 16.9957 21.0624 16.9957 21.0578C16.9957 21.0531 16.9957 21.0485 16.9957 21.0439C16.9957 21.0392 16.9957 21.0346 16.9957 21.0299C16.9957 21.0252 16.9957 21.0206 16.9957 21.0159C16.9957 21.0113 16.9957 21.0066 16.9957 21.0019C16.9957 20.9973 16.9957 20.9926 16.9957 20.9879C16.9957 20.9832 16.9957 20.9785 16.9957 20.9739C16.9957 20.9692 16.9957 20.9645 16.9957 20.9598C16.9957 20.9551 16.9957 20.9504 16.9957 20.9457C16.9957 20.941 16.9957 20.9363 16.9957 20.9316C16.9957 20.9269 16.9957 20.9222 16.9957 20.9175C16.9957 20.9128 16.9957 20.9081 16.9957 20.9034C16.9957 20.8986 16.9957 20.8939 16.9957 20.8892C16.9957 20.8845 16.9957 20.8797 16.9957 20.875C16.9957 20.8703 16.9957 20.8655 16.9957 20.8608C16.9957 20.8561 16.9957 20.8513 16.9957 20.8466C16.9957 20.8418 16.9957 20.8371 16.9957 20.8324C16.9957 20.8276 16.9957 20.8229 16.9957 20.8181C16.9957 20.8133 16.9957 20.8086 16.9957 20.8038C16.9957 20.7991 16.9957 20.7943 16.9957 20.7895C16.9957 20.7848 16.9957 20.78 16.9957 20.7752C16.9957 20.7704 16.9957 20.7657 16.9957 20.7609C16.9957 20.7561 16.9957 20.7513 16.9957 20.7465C16.9957 20.7417 16.9957 20.7369 16.9957 20.7322C16.9957 20.7274 16.9957 20.7226 16.9957 20.7178C16.9957 20.713 16.9957 20.7082 16.9957 20.7034C16.9957 20.6986 16.9957 20.6937 16.9957 20.6889C16.9957 20.6841 16.9957 20.6793 16.9957 20.6745C16.9957 20.6697 16.9957 20.6649 16.9957 20.66C16.9957 20.6552 16.9957 20.6504 16.9957 20.6456C16.9957 20.6407 16.9957 20.6359 16.9957 20.6311C16.9957 20.6262 16.9957 20.6214 16.9957 20.6166C16.9957 20.6117 16.9957 20.6069 16.9957 20.602C16.9957 20.5972 16.9957 20.5923 16.9957 20.5875C16.9957 20.5826 16.9957 20.5778 16.9957 20.5729C16.9957 20.5681 16.9957 20.5632 16.9957 20.5584C16.9957 20.5535 16.9957 20.5486 16.9957 20.5438C16.9957 20.5389 16.9957 20.534 16.9957 20.5292C16.9957 20.5243 16.9957 20.5194 16.9957 20.5145C16.9957 20.5097 16.9957 20.5048 16.9957 20.4999C16.9957 20.495 16.9957 20.4901 16.9957 20.4852C16.9957 20.4803 16.9957 20.4755 16.9957 20.4706C16.9957 20.4657 16.9957 20.4608 16.9957 20.4559C16.9957 20.451 16.9957 20.4461 16.9957 20.4412C16.9957 20.4363 16.9957 20.4314 16.9957 20.4265C16.9957 20.4215 16.9957 20.4166 16.9957 20.4117C16.9957 20.4068 16.9957 20.4019 16.9957 20.397C16.9957 20.3921 16.9957 20.3871 16.9957 20.3822C16.9957 20.3773 16.9957 20.3724 16.9957 20.3674C16.9957 20.3625 16.9957 20.3576 16.9957 20.3527C16.9957 20.3477 16.9957 20.3428 16.9957 20.3379C16.9957 20.3329 16.9957 20.328 16.9957 20.323C16.9957 20.3181 16.9957 20.3132 16.9957 20.3082C16.9957 20.3033 16.9957 20.2983 16.9957 20.2934C16.9957 20.2884 16.9957 20.2835 16.9957 20.2785C16.9957 20.2736 16.9957 20.2686 16.9957 20.2636C16.9957 20.2587 16.9957 20.2537 16.9957 20.2488C16.9957 20.2438 16.9957 20.2388 16.9957 20.2339C16.9957 20.2289 16.9957 20.2239 16.9957 20.2189C16.9957 20.214 16.9957 20.209 16.9957 20.204C16.9957 20.199 16.9957 20.1941 16.9957 20.1891C16.9957 20.1841 16.9957 20.1791 16.9957 20.1741C16.9957 20.1692 16.9957 20.1642 16.9957 20.1592C16.9957 20.1542 16.9957 20.1492 16.9957 20.1442C16.9957 20.1392 16.9957 20.1342 16.9957 20.1292C16.9957 20.1242 16.9957 20.1192 16.9957 20.1142C16.9957 20.1092 16.9957 20.1042 16.9957 20.0992C16.9957 20.0942 16.9957 20.0892 16.9957 20.0842C16.9957 20.0792 16.9957 20.0742 16.9957 20.0692C16.9957 20.0642 16.9957 20.0592 16.9957 20.0541C16.9957 20.0491 16.9957 20.0441 16.9957 20.0391C16.9957 20.0341 16.9957 20.029 16.9957 20.024C16.9957 20.019 16.9957 20.014 16.9957 20.009C16.9957 20.0039 16.9957 19.9989 16.9957 19.9939C16.9957 19.9888 16.9957 19.9838 16.9957 19.9788C16.9957 19.9737 16.9957 19.9687 16.9957 19.9637C16.9957 19.9586 16.9957 19.9536 16.9957 19.9486C16.9957 19.9435 16.9957 19.9385 16.9957 19.9334C16.9957 19.9284 16.9957 19.9233 16.9957 19.9183C16.9957 19.9133 16.9957 19.9082 16.9957 19.9032C16.9957 19.8981 16.9957 19.8931 16.9957 19.888C16.9957 19.883 16.9957 19.8779 16.9957 19.8728C16.9957 19.8678 16.9957 19.8627 16.9957 19.8577C16.9957 19.8526 16.9957 19.8476 16.9957 19.8425C16.9957 19.8374 16.9957 19.8324 16.9957 19.8273C16.9957 19.8222 16.9957 19.8172 16.9957 19.8121C16.9957 19.807 16.9957 19.802 16.9957 19.7969C16.9957 19.7918 16.9957 19.7868 16.9957 19.7817C16.9957 19.7766 16.9957 19.7715 16.9957 19.7665C16.9957 19.7614 16.9957 19.7563 16.9957 19.7512C16.9957 19.7462 16.9957 19.7411 16.9957 19.736C16.9957 19.7309 16.9957 19.7258 16.9957 19.7207C16.9957 19.7157 16.9957 19.7106 16.9957 19.7055C16.9957 19.7004 16.9957 19.6953 16.9957 19.6902C16.9957 19.6851 16.9957 19.6801 16.9957 19.675C16.9957 19.6699 16.9957 19.6648 16.9957 19.6597C16.9957 19.6546 16.9957 19.6495 16.9957 19.6444C16.9957 19.6393 16.9957 19.6342 16.9957 19.6291C16.9957 19.624 16.9957 19.6189 16.9957 19.6138C16.9957 19.6087 16.9957 19.6036 16.9957 19.5985C16.9957 19.5934 16.9957 19.5883 16.9957 19.5832C16.9957 19.5781 16.9957 19.573 16.9957 19.5679C16.9957 19.5628 16.9957 19.5577 16.9957 19.5526C16.9957 19.5475 16.9957 19.5424 16.9957 19.5372C16.9957 19.5321 16.9957 19.527 16.9957 19.5219C16.9957 19.5168 16.9957 19.5117 16.9957 19.5066C16.9957 19.5015 16.9957 19.4963 16.9957 19.4912C16.9957 19.4861 16.9957 19.481 16.9957 19.4759C16.9957 19.4708 16.9957 19.4656 16.9957 19.4605C16.9957 19.4554 16.9957 19.4503 16.9957 19.4452C16.9957 19.44 16.9957 19.4349 16.9957 19.4298C16.9957 19.4247 16.9957 19.4196 16.9957 19.4144C16.9957 19.4093 16.9957 19.4042 16.9957 19.3991C16.9957 19.3939 16.9957 19.3888 16.9957 19.3837C16.9957 19.3786 16.9957 19.3734 16.9957 19.3683C16.9957 19.3632 16.9957 19.358 16.9957 19.3529C16.9957 19.3478 16.9957 19.3427 16.9957 19.3375C16.9957 19.3324 16.9957 19.3273 16.9957 19.3221C16.9957 19.317 16.9957 19.3119 16.9957 19.3067C16.9957 19.3016 16.9957 19.2965 16.9957 19.2913C16.9957 19.2862 16.9957 19.2811 16.9957 19.2759C16.9957 19.2708 16.9957 19.2657 16.9957 19.2605C16.9957 19.2554 16.9957 19.2503 16.9957 19.2451C16.9957 19.24 16.9957 19.2348 16.9957 19.2297C16.9957 19.2246 16.9957 19.2194 16.9957 19.2143C16.9957 19.2091 16.9957 19.204 16.9957 19.1989C16.9957 19.1937 16.9957 19.1886 16.9957 19.1834C16.9957 19.1783 16.9957 19.1732 16.9957 19.168C16.9957 19.1629 16.9957 19.1577 16.9957 19.1526C16.9957 19.1475 16.9957 19.1423 16.9957 19.1372C16.9957 19.132 16.9957 19.1269 16.9957 19.1217C16.9957 19.1166 16.9957 19.1115 16.9957 19.1063C16.9957 19.1012 16.9957 19.096 16.9957 19.0909C16.9957 19.0857 16.9957 19.0806 16.9957 19.0755C16.9957 19.0703 16.9957 19.0652 16.9957 19.06C16.9957 19.0549 16.9957 19.0497 16.9957 19.0446C16.9957 19.0394 16.9957 19.0343 16.9957 19.0291C16.9957 19.024 16.9957 19.0189 16.9957 19.0137C16.9957 19.0086 16.9957 19.0034 16.9957 18.9983C16.9957 18.9931 16.9957 18.988 16.9957 18.9828C16.9957 18.9777 16.9957 18.9725 16.9957 18.9674C16.9957 18.9623 16.9957 18.9571 16.9957 18.952C16.9957 18.9468 16.9957 18.9417 16.9957 18.9365C16.9957 18.9314 16.9957 18.9262 16.9957 18.9211C16.9957 18.9159 16.9957 18.9108 16.9957 18.9056C16.9957 18.9005 16.9957 18.8954 16.9957 18.8902C16.9957 18.8851 16.9957 18.8799 16.9957 18.8748C16.9957 18.8696 16.9957 18.8645 16.9957 18.8593C16.9957 18.8542 16.9957 18.8491 16.9957 18.8439C16.9957 18.8388 16.9957 18.8336 16.9957 18.8285C16.9957 18.8233 16.9957 18.8182 16.9957 18.813C16.9957 18.8079 16.9957 18.8028 16.9957 18.7976C16.9957 18.7925 16.9957 18.7873 16.9957 18.7822C16.9957 18.777 16.9957 18.7719 16.9957 18.7668C16.9957 18.7616 16.9957 18.7565 16.9957 18.7513C16.9957 18.7462 16.9957 18.7411 16.9957 18.7359C16.9957 18.7308 16.9957 18.7256 16.9957 18.7205C16.9957 18.7154 16.9957 18.7102 16.9957 18.7051C16.9957 18.6999 16.9957 18.6948 16.9957 18.6897C16.9957 18.6845 16.9957 18.6794 16.9957 18.6742C16.9957 18.6691 16.9957 18.664 16.9957 18.6588C16.9957 18.6537 16.9957 18.6486 16.9957 18.6434C16.9957 18.6383 16.9957 18.6332 16.9957 18.628C16.9957 18.6229 16.9957 18.6178 16.9957 18.6126C16.9957 18.6075 16.9957 18.6024 16.9957 18.5972C16.9957 18.5921 16.9957 18.587 16.9957 18.5818C16.9957 18.5767 16.9957 18.5716 16.9957 18.5664C16.9957 18.5613 16.9957 18.5562 16.9957 18.5511C16.9957 18.5459 16.9957 18.5408 16.9957 18.5357C16.9957 18.5306 16.9957 18.5254 16.9957 18.5203C16.9957 18.5152 16.9957 18.5101 16.9957 18.5049C16.9957 18.4998 16.9957 18.4947 16.9957 18.4896C16.9957 18.4844 16.9957 18.4793 16.9957 18.4742C16.9957 18.4691 16.9957 18.464 16.9957 18.4588C16.9957 18.4537 16.9957 18.4486 16.9957 18.4435C16.9957 18.4384 16.9957 18.4333 16.9957 18.4281C16.9957 18.423 16.9957 18.4179 16.9957 18.4128C16.9957 18.4077 16.9957 18.4026 16.9957 18.3975C16.9957 18.3923 16.9957 18.3872 16.9957 18.3821C16.9957 18.377 16.9957 18.3719 16.9957 18.3668C16.9957 18.3617 16.9957 18.3566 16.9957 18.3515C16.9957 18.3464 16.9957 18.3413 16.9957 18.3362C16.9957 18.3311 16.9957 18.326 16.9957 18.3209C16.9957 18.3158 16.9957 18.3107 16.9957 18.3056C16.9957 18.3005 16.9957 18.2954 16.9957 18.2903C16.9957 18.2852 16.9957 18.2801 16.9957 18.275C16.9957 18.2699 16.9957 18.2648 16.9957 18.2597C16.9957 18.2546 16.9957 18.2495 16.9957 18.2444C16.9957 18.2393 16.9957 18.2342 16.9957 18.2291C16.9957 18.2241 16.9957 18.219 16.9957 18.2139C16.9957 18.2088 16.9957 18.2037 16.9957 18.1986C16.9957 18.1935 16.9957 18.1885 16.9957 18.1834C16.9957 18.1783 16.9957 18.1732 16.9957 18.1682C16.9957 18.1631 16.9957 18.158 16.9957 18.1529C16.9957 18.1478 16.9957 18.1428 16.9957 18.1377C16.9957 18.1326 16.9957 18.1276 16.9957 18.1225C16.9957 18.1174 16.9957 18.1123 16.9957 18.1073C16.9957 18.1022 16.9957 18.0971 16.9957 18.0921C16.9957 18.087 16.9957 18.082 16.9957 18.0769C16.9957 18.0718 16.9957 18.0668 16.9957 18.0617C16.9957 18.0567 16.9957 18.0516 16.9957 18.0465C16.9957 18.0415 16.9957 18.0364 16.9957 18.0314C16.9957 18.0263 16.9957 18.0213 16.9957 18.0162C16.9957 18.0112 16.9957 18.0061 16.9957 18.0011C16.9957 17.996 16.9957 17.991 16.9957 17.986H14.9535C14.9535 17.991 14.9535 17.996 14.9535 18.0011C14.9535 18.0061 14.9535 18.0112 14.9535 18.0162C14.9535 18.0213 14.9535 18.0263 14.9535 18.0314C14.9535 18.0364 14.9535 18.0415 14.9535 18.0465C14.9535 18.0516 14.9535 18.0567 14.9535 18.0617C14.9535 18.0668 14.9535 18.0718 14.9535 18.0769C14.9535 18.082 14.9535 18.087 14.9535 18.0921C14.9535 18.0971 14.9535 18.1022 14.9535 18.1073C14.9535 18.1123 14.9535 18.1174 14.9535 18.1225C14.9535 18.1276 14.9535 18.1326 14.9535 18.1377C14.9535 18.1428 14.9535 18.1478 14.9535 18.1529C14.9535 18.158 14.9535 18.1631 14.9535 18.1682C14.9535 18.1732 14.9535 18.1783 14.9535 18.1834C14.9535 18.1885 14.9535 18.1935 14.9535 18.1986C14.9535 18.2037 14.9535 18.2088 14.9535 18.2139C14.9535 18.219 14.9535 18.2241 14.9535 18.2291C14.9535 18.2342 14.9535 18.2393 14.9535 18.2444C14.9535 18.2495 14.9535 18.2546 14.9535 18.2597C14.9535 18.2648 14.9535 18.2699 14.9535 18.275C14.9535 18.2801 14.9535 18.2852 14.9535 18.2903C14.9535 18.2954 14.9535 18.3005 14.9535 18.3056C14.9535 18.3107 14.9535 18.3158 14.9535 18.3209C14.9535 18.326 14.9535 18.3311 14.9535 18.3362C14.9535 18.3413 14.9535 18.3464 14.9535 18.3515C14.9535 18.3566 14.9535 18.3617 14.9535 18.3668C14.9535 18.3719 14.9535 18.377 14.9535 18.3821C14.9535 18.3872 14.9535 18.3923 14.9535 18.3975C14.9535 18.4026 14.9535 18.4077 14.9535 18.4128C14.9535 18.4179 14.9535 18.423 14.9535 18.4281C14.9535 18.4333 14.9535 18.4384 14.9535 18.4435C14.9535 18.4486 14.9535 18.4537 14.9535 18.4588C14.9535 18.464 14.9535 18.4691 14.9535 18.4742C14.9535 18.4793 14.9535 18.4844 14.9535 18.4896C14.9535 18.4947 14.9535 18.4998 14.9535 18.5049C14.9535 18.5101 14.9535 18.5152 14.9535 18.5203C14.9535 18.5254 14.9535 18.5306 14.9535 18.5357C14.9535 18.5408 14.9535 18.5459 14.9535 18.5511C14.9535 18.5562 14.9535 18.5613 14.9535 18.5664C14.9535 18.5716 14.9535 18.5767 14.9535 18.5818C14.9535 18.587 14.9535 18.5921 14.9535 18.5972C14.9535 18.6024 14.9535 18.6075 14.9535 18.6126C14.9535 18.6178 14.9535 18.6229 14.9535 18.628C14.9535 18.6332 14.9535 18.6383 14.9535 18.6434C14.9535 18.6486 14.9535 18.6537 14.9535 18.6588C14.9535 18.664 14.9535 18.6691 14.9535 18.6742C14.9535 18.6794 14.9535 18.6845 14.9535 18.6897C14.9535 18.6948 14.9535 18.6999 14.9535 18.7051C14.9535 18.7102 14.9535 18.7154 14.9535 18.7205C14.9535 18.7256 14.9535 18.7308 14.9535 18.7359C14.9535 18.7411 14.9535 18.7462 14.9535 18.7513C14.9535 18.7565 14.9535 18.7616 14.9535 18.7668C14.9535 18.7719 14.9535 18.777 14.9535 18.7822C14.9535 18.7873 14.9535 18.7925 14.9535 18.7976C14.9535 18.8028 14.9535 18.8079 14.9535 18.813C14.9535 18.8182 14.9535 18.8233 14.9535 18.8285C14.9535 18.8336 14.9535 18.8388 14.9535 18.8439C14.9535 18.8491 14.9535 18.8542 14.9535 18.8593C14.9535 18.8645 14.9535 18.8696 14.9535 18.8748C14.9535 18.8799 14.9535 18.8851 14.9535 18.8902C14.9535 18.8954 14.9535 18.9005 14.9535 18.9056C14.9535 18.9108 14.9535 18.9159 14.9535 18.9211C14.9535 18.9262 14.9535 18.9314 14.9535 18.9365C14.9535 18.9417 14.9535 18.9468 14.9535 18.952C14.9535 18.9571 14.9535 18.9623 14.9535 18.9674C14.9535 18.9725 14.9535 18.9777 14.9535 18.9828C14.9535 18.988 14.9535 18.9931 14.9535 18.9983C14.9535 19.0034 14.9535 19.0086 14.9535 19.0137C14.9535 19.0189 14.9535 19.024 14.9535 19.0291C14.9535 19.0343 14.9535 19.0394 14.9535 19.0446C14.9535 19.0497 14.9535 19.0549 14.9535 19.06C14.9535 19.0652 14.9535 19.0703 14.9535 19.0755C14.9535 19.0806 14.9535 19.0857 14.9535 19.0909C14.9535 19.096 14.9535 19.1012 14.9535 19.1063C14.9535 19.1115 14.9535 19.1166 14.9535 19.1217C14.9535 19.1269 14.9535 19.132 14.9535 19.1372C14.9535 19.1423 14.9535 19.1475 14.9535 19.1526C14.9535 19.1577 14.9535 19.1629 14.9535 19.168C14.9535 19.1732 14.9535 19.1783 14.9535 19.1834C14.9535 19.1886 14.9535 19.1937 14.9535 19.1989C14.9535 19.204 14.9535 19.2091 14.9535 19.2143C14.9535 19.2194 14.9535 19.2246 14.9535 19.2297C14.9535 19.2348 14.9535 19.24 14.9535 19.2451C14.9535 19.2503 14.9535 19.2554 14.9535 19.2605C14.9535 19.2657 14.9535 19.2708 14.9535 19.2759C14.9535 19.2811 14.9535 19.2862 14.9535 19.2913C14.9535 19.2965 14.9535 19.3016 14.9535 19.3067C14.9535 19.3119 14.9535 19.317 14.9535 19.3221C14.9535 19.3273 14.9535 19.3324 14.9535 19.3375C14.9535 19.3427 14.9535 19.3478 14.9535 19.3529C14.9535 19.358 14.9535 19.3632 14.9535 19.3683C14.9535 19.3734 14.9535 19.3786 14.9535 19.3837C14.9535 19.3888 14.9535 19.3939 14.9535 19.3991C14.9535 19.4042 14.9535 19.4093 14.9535 19.4144C14.9535 19.4196 14.9535 19.4247 14.9535 19.4298C14.9535 19.4349 14.9535 19.44 14.9535 19.4452C14.9535 19.4503 14.9535 19.4554 14.9535 19.4605C14.9535 19.4656 14.9535 19.4708 14.9535 19.4759C14.9535 19.481 14.9535 19.4861 14.9535 19.4912C14.9535 19.4963 14.9535 19.5015 14.9535 19.5066C14.9535 19.5117 14.9535 19.5168 14.9535 19.5219C14.9535 19.527 14.9535 19.5321 14.9535 19.5372C14.9535 19.5424 14.9535 19.5475 14.9535 19.5526C14.9535 19.5577 14.9535 19.5628 14.9535 19.5679C14.9535 19.573 14.9535 19.5781 14.9535 19.5832C14.9535 19.5883 14.9535 19.5934 14.9535 19.5985C14.9535 19.6036 14.9535 19.6087 14.9535 19.6138C14.9535 19.6189 14.9535 19.624 14.9535 19.6291C14.9535 19.6342 14.9535 19.6393 14.9535 19.6444C14.9535 19.6495 14.9535 19.6546 14.9535 19.6597C14.9535 19.6648 14.9535 19.6699 14.9535 19.675C14.9535 19.6801 14.9535 19.6851 14.9535 19.6902C14.9535 19.6953 14.9535 19.7004 14.9535 19.7055C14.9535 19.7106 14.9535 19.7157 14.9535 19.7207C14.9535 19.7258 14.9535 19.7309 14.9535 19.736C14.9535 19.7411 14.9535 19.7462 14.9535 19.7512C14.9535 19.7563 14.9535 19.7614 14.9535 19.7665C14.9535 19.7715 14.9535 19.7766 14.9535 19.7817C14.9535 19.7868 14.9535 19.7918 14.9535 19.7969C14.9535 19.802 14.9535 19.807 14.9535 19.8121C14.9535 19.8172 14.9535 19.8222 14.9535 19.8273C14.9535 19.8324 14.9535 19.8374 14.9535 19.8425C14.9535 19.8476 14.9535 19.8526 14.9535 19.8577C14.9535 19.8627 14.9535 19.8678 14.9535 19.8728C14.9535 19.8779 14.9535 19.883 14.9535 19.888C14.9535 19.8931 14.9535 19.8981 14.9535 19.9032C14.9535 19.9082 14.9535 19.9133 14.9535 19.9183C14.9535 19.9233 14.9535 19.9284 14.9535 19.9334C14.9535 19.9385 14.9535 19.9435 14.9535 19.9486C14.9535 19.9536 14.9535 19.9586 14.9535 19.9637C14.9535 19.9687 14.9535 19.9737 14.9535 19.9788C14.9535 19.9838 14.9535 19.9888 14.9535 19.9939C14.9535 19.9989 14.9535 20.0039 14.9535 20.009C14.9535 20.014 14.9535 20.019 14.9535 20.024C14.9535 20.029 14.9535 20.0341 14.9535 20.0391C14.9535 20.0441 14.9535 20.0491 14.9535 20.0541C14.9535 20.0592 14.9535 20.0642 14.9535 20.0692C14.9535 20.0742 14.9535 20.0792 14.9535 20.0842C14.9535 20.0892 14.9535 20.0942 14.9535 20.0992C14.9535 20.1042 14.9535 20.1092 14.9535 20.1142C14.9535 20.1192 14.9535 20.1242 14.9535 20.1292C14.9535 20.1342 14.9535 20.1392 14.9535 20.1442C14.9535 20.1492 14.9535 20.1542 14.9535 20.1592C14.9535 20.1642 14.9535 20.1692 14.9535 20.1741C14.9535 20.1791 14.9535 20.1841 14.9535 20.1891C14.9535 20.1941 14.9535 20.199 14.9535 20.204C14.9535 20.209 14.9535 20.214 14.9535 20.2189C14.9535 20.2239 14.9535 20.2289 14.9535 20.2339C14.9535 20.2388 14.9535 20.2438 14.9535 20.2488C14.9535 20.2537 14.9535 20.2587 14.9535 20.2636C14.9535 20.2686 14.9535 20.2736 14.9535 20.2785C14.9535 20.2835 14.9535 20.2884 14.9535 20.2934C14.9535 20.2983 14.9535 20.3033 14.9535 20.3082C14.9535 20.3132 14.9535 20.3181 14.9535 20.323C14.9535 20.328 14.9535 20.3329 14.9535 20.3379C14.9535 20.3428 14.9535 20.3477 14.9535 20.3527C14.9535 20.3576 14.9535 20.3625 14.9535 20.3674C14.9535 20.3724 14.9535 20.3773 14.9535 20.3822C14.9535 20.3871 14.9535 20.3921 14.9535 20.397C14.9535 20.4019 14.9535 20.4068 14.9535 20.4117C14.9535 20.4166 14.9535 20.4215 14.9535 20.4265C14.9535 20.4314 14.9535 20.4363 14.9535 20.4412C14.9535 20.4461 14.9535 20.451 14.9535 20.4559C14.9535 20.4608 14.9535 20.4657 14.9535 20.4706C14.9535 20.4755 14.9535 20.4803 14.9535 20.4852C14.9535 20.4901 14.9535 20.495 14.9535 20.4999C14.9535 20.5048 14.9535 20.5097 14.9535 20.5145C14.9535 20.5194 14.9535 20.5243 14.9535 20.5292C14.9535 20.534 14.9535 20.5389 14.9535 20.5438C14.9535 20.5486 14.9535 20.5535 14.9535 20.5584C14.9535 20.5632 14.9535 20.5681 14.9535 20.5729C14.9535 20.5778 14.9535 20.5826 14.9535 20.5875C14.9535 20.5923 14.9535 20.5972 14.9535 20.602C14.9535 20.6069 14.9535 20.6117 14.9535 20.6166C14.9535 20.6214 14.9535 20.6262 14.9535 20.6311C14.9535 20.6359 14.9535 20.6407 14.9535 20.6456C14.9535 20.6504 14.9535 20.6552 14.9535 20.66C14.9535 20.6649 14.9535 20.6697 14.9535 20.6745C14.9535 20.6793 14.9535 20.6841 14.9535 20.6889C14.9535 20.6937 14.9535 20.6986 14.9535 20.7034C14.9535 20.7082 14.9535 20.713 14.9535 20.7178C14.9535 20.7226 14.9535 20.7274 14.9535 20.7322C14.9535 20.7369 14.9535 20.7417 14.9535 20.7465C14.9535 20.7513 14.9535 20.7561 14.9535 20.7609C14.9535 20.7657 14.9535 20.7704 14.9535 20.7752C14.9535 20.78 14.9535 20.7848 14.9535 20.7895C14.9535 20.7943 14.9535 20.7991 14.9535 20.8038C14.9535 20.8086 14.9535 20.8133 14.9535 20.8181C14.9535 20.8229 14.9535 20.8276 14.9535 20.8324C14.9535 20.8371 14.9535 20.8418 14.9535 20.8466C14.9535 20.8513 14.9535 20.8561 14.9535 20.8608C14.9535 20.8655 14.9535 20.8703 14.9535 20.875C14.9535 20.8797 14.9535 20.8845 14.9535 20.8892C14.9535 20.8939 14.9535 20.8986 14.9535 20.9034C14.9535 20.9081 14.9535 20.9128 14.9535 20.9175C14.9535 20.9222 14.9535 20.9269 14.9535 20.9316C14.9535 20.9363 14.9535 20.941 14.9535 20.9457C14.9535 20.9504 14.9535 20.9551 14.9535 20.9598C14.9535 20.9645 14.9535 20.9692 14.9535 20.9739C14.9535 20.9785 14.9535 20.9832 14.9535 20.9879C14.9535 20.9926 14.9535 20.9973 14.9535 21.0019C14.9535 21.0066 14.9535 21.0113 14.9535 21.0159C14.9535 21.0206 14.9535 21.0252 14.9535 21.0299C14.9535 21.0346 14.9535 21.0392 14.9535 21.0439C14.9535 21.0485 14.9535 21.0531 14.9535 21.0578C14.9535 21.0624 14.9535 21.0671 14.9535 21.0717C14.9535 21.0763 14.9535 21.081 14.9535 21.0856C14.9535 21.0902 14.9535 21.0948 14.9535 21.0995C14.9535 21.1041 14.9535 21.1087 14.9535 21.1133C14.9535 21.1179 14.9535 21.1225 14.9535 21.1271C14.9535 21.1317 14.9535 21.1363 14.9535 21.1409C14.9535 21.1455 14.9535 21.1501 14.9535 21.1547C14.9535 21.1593 14.9535 21.1639 14.9535 21.1685C14.9535 21.1731 14.9535 21.1776 14.9535 21.1822C14.9535 21.1868 14.9535 21.1914 14.9535 21.1959C14.9535 21.2005 14.9535 21.205 14.9535 21.2096C14.9535 21.2142 14.9535 21.2187 14.9535 21.2233C14.9535 21.2278 14.9535 21.2324 14.9535 21.2369C14.9535 21.2415 14.9535 21.246 14.9535 21.2505C14.9535 21.2551 14.9535 21.2596 14.9535 21.2641C14.9535 21.2687 14.9535 21.2732 14.9535 21.2777C14.9535 21.2822 14.9535 21.2867 14.9535 21.2912C14.9535 21.2958 14.9535 21.3003 14.9535 21.3048C14.9535 21.3093 14.9535 21.3138 14.9535 21.3183C14.9535 21.3228 14.9535 21.3273 14.9535 21.3317C14.9535 21.3362 14.9535 21.3407 14.9535 21.3452C14.9535 21.3497 14.9535 21.3541 14.9535 21.3586C14.9535 21.3631 14.9535 21.3675 14.9535 21.372C14.9535 21.3765 14.9535 21.3809 14.9535 21.3854C14.9535 21.3898 14.9535 21.3943 14.9535 21.3987C14.9535 21.4032 14.9535 21.4076 14.9535 21.4121C14.9535 21.4165 14.9535 21.4209 14.9535 21.4254C14.9535 21.4298 14.9535 21.4342 14.9535 21.4386C14.9535 21.443 14.9535 21.4475 14.9535 21.4519C14.9535 21.4563 14.9535 21.4607 14.9535 21.4651C14.9535 21.4695 14.9535 21.4739 14.9535 21.4783C14.9535 21.4827 14.9535 21.4871 14.9535 21.4915C14.9535 21.4958 14.9535 21.5002 14.9535 21.5046C14.9535 21.509 14.9535 21.5133 14.9535 21.5177C14.9535 21.5221 14.9535 21.5264 14.9535 21.5308C14.9535 21.5352 14.9535 21.5395 14.9535 21.5439C14.9535 21.5482 14.9535 21.5526 14.9535 21.5569C14.9535 21.5612 14.9535 21.5656 14.9535 21.5699C14.9535 21.5742 14.9535 21.5786 14.9535 21.5829C14.9535 21.5872 14.9535 21.5915 14.9535 21.5958C14.9535 21.6002 14.9535 21.6045 14.9535 21.6088C14.9535 21.6131 14.9535 21.6174 14.9535 21.6217C14.9535 21.626 14.9535 21.6302 14.9535 21.6345C14.9535 21.6388 14.9535 21.6431 14.9535 21.6474C14.9535 21.6516 14.9535 21.6559 14.9535 21.6602C14.9535 21.6644 14.9535 21.6687 14.9535 21.673C14.9535 21.6772 14.9535 21.6815 14.9535 21.6857C14.9535 21.69 14.9535 21.6942 14.9535 21.6984C14.9535 21.7027 14.9535 21.7069 14.9535 21.7111C14.9535 21.7154 14.9535 21.7196 14.9535 21.7238C14.9535 21.728 14.9535 21.7322 14.9535 21.7364C14.9535 21.7407 14.9535 21.7449 14.9535 21.7491C14.9535 21.7533 14.9535 21.7575 14.9535 21.7616C14.9535 21.7658 14.9535 21.77 14.9535 21.7742C14.9535 21.7784 14.9535 21.7825 14.9535 21.7867C14.9535 21.7909 14.9535 21.795 14.9535 21.7992C14.9535 21.8034 14.9535 21.8075 14.9535 21.8117C14.9535 21.8158 14.9535 21.82 14.9535 21.8241C14.9535 21.8282 14.9535 21.8324 14.9535 21.8365C14.9535 21.8406 14.9535 21.8447 14.9535 21.8489C14.9535 21.853 14.9535 21.8571 14.9535 21.8612C14.9535 21.8653 14.9535 21.8694 14.9535 21.8735C14.9535 21.8776 14.9535 21.8817 14.9535 21.8858C14.9535 21.8899 14.9535 21.8939 14.9535 21.898C14.9535 21.9021 14.9535 21.9062 14.9535 21.9102C14.9535 21.9143 14.9535 21.9184 14.9535 21.9224C14.9535 21.9265 14.9535 21.9305 14.9535 21.9346C14.9535 21.9386 14.9535 21.9427 14.9535 21.9467C14.9535 21.9507 14.9535 21.9548 14.9535 21.9588C14.9535 21.9628 14.9535 21.9668 14.9535 21.9708C14.9535 21.9748 14.9535 21.9788 14.9535 21.9828C14.9535 21.9869 14.9535 21.9908 14.9535 21.9948C14.9535 21.9988 14.9535 22.0028 14.9535 22.0068C14.9535 22.0108 14.9535 22.0148 14.9535 22.0187C14.9535 22.0227 14.9535 22.0267 14.9535 22.0306C14.9535 22.0346 14.9535 22.0385 14.9535 22.0425C14.9535 22.0464 14.9535 22.0504 14.9535 22.0543C14.9535 22.0582 14.9535 22.0622 14.9535 22.0661C14.9535 22.07 14.9535 22.0739 14.9535 22.0778C14.9535 22.0818 14.9535 22.0857 14.9535 22.0896C14.9535 22.0935 14.9535 22.0974 14.9535 22.1013C14.9535 22.1051 14.9535 22.109 14.9535 22.1129C14.9535 22.1168 14.9535 22.1207 14.9535 22.1245C14.9535 22.1284 14.9535 22.1323 14.9535 22.1361C14.9535 22.14 14.9535 22.1438 14.9535 22.1477C14.9535 22.1515 14.9535 22.1554 14.9535 22.1592C14.9535 22.163 14.9535 22.1669 14.9535 22.1707C14.9535 22.1745 14.9535 22.1783 14.9535 22.1821C14.9535 22.1859 14.9535 22.1897 14.9535 22.1935C14.9535 22.1973 14.9535 22.2011 14.9535 22.2049C14.9535 22.2087 14.9535 22.2125 14.9535 22.2163C14.9535 22.22 14.9535 22.2238 14.9535 22.2276C14.9535 22.2313 14.9535 22.2351 14.9535 22.2388C14.9535 22.2426 14.9535 22.2463 14.9535 22.2501C14.9535 22.2538 14.9535 22.2576 14.9535 22.2613C14.9535 22.265 14.9535 22.2687 14.9535 22.2724C14.9535 22.2762 14.9535 22.2799 14.9535 22.2836C14.9535 22.2873 14.9535 22.291 14.9535 22.2947C14.9535 22.2984 14.9535 22.302 14.9535 22.3057C14.9535 22.3094 14.9535 22.3131 14.9535 22.3167C14.9535 22.3204 14.9535 22.3241 14.9535 22.3277C14.9535 22.3314 14.9535 22.335 14.9535 22.3387C14.9535 22.3423 14.9535 22.3459 14.9535 22.3496C14.9535 22.3532 14.9535 22.3568 14.9535 22.3604C14.9535 22.3641 14.9535 22.3677 14.9535 22.3713C14.9535 22.3749 14.9535 22.3785 14.9535 22.3821C14.9535 22.3857 14.9535 22.3892 14.9535 22.3928C14.9535 22.3964 14.9535 22.4 14.9535 22.4035C14.9535 22.4071 14.9535 22.4107 14.9535 22.4142C14.9535 22.4178 14.9535 22.4213 14.9535 22.4249C14.9535 22.4284 14.9535 22.4319 14.9535 22.4355C14.9535 22.439 14.9535 22.4425 14.9535 22.446C14.9535 22.4495 14.9535 22.4531 14.9535 22.4566C14.9535 22.4601 14.9535 22.4636 14.9535 22.467C14.9535 22.4705 14.9535 22.474 14.9535 22.4775C14.9535 22.481 14.9535 22.4844 14.9535 22.4879C14.9535 22.4914 14.9535 22.4948 14.9535 22.4983C14.9535 22.5017 14.9535 22.5052 14.9535 22.5086C14.9535 22.512 14.9535 22.5155 14.9535 22.5189C14.9535 22.5223 14.9535 22.5257 14.9535 22.5291C14.9535 22.5326 14.9535 22.536 14.9535 22.5394C14.9535 22.5428 14.9535 22.5461 14.9535 22.5495C14.9535 22.5529 14.9535 22.5563 14.9535 22.5597C14.9535 22.563 14.9535 22.5664 14.9535 22.5697C14.9535 22.5731 14.9535 22.5765 14.9535 22.5798C14.9535 22.5831 14.9535 22.5865 14.9535 22.5898C14.9535 22.5931 14.9535 22.5965 14.9535 22.5998C14.9535 22.6031 14.9535 22.6064 14.9535 22.6097C14.9535 22.613 14.9535 22.6163 14.9535 22.6196C14.9535 22.6229 14.9535 22.6262 14.9535 22.6294C14.9535 22.6327 14.9535 22.636 14.9535 22.6392C14.9535 22.6425 14.9535 22.6457 14.9535 22.649C14.9535 22.6522 14.9535 22.6555 14.9535 22.6587C14.9535 22.6619 14.9535 22.6652 14.9535 22.6684C14.9535 22.6716 14.9535 22.6748 14.9535 22.678C14.9535 22.6812 14.9535 22.6844 14.9535 22.6876C14.9535 22.6908 14.9535 22.694 14.9535 22.6972C14.9535 22.7003 14.9535 22.7035 14.9535 22.7067C14.9535 22.7098 14.9535 22.713 14.9535 22.7161C14.9535 22.7193 14.9535 22.7224 14.9535 22.7256C14.9535 22.7287 14.9535 22.7318 14.9535 22.7349C14.9535 22.7381 14.9535 22.7412 14.9535 22.7443C14.9535 22.7474 14.9535 22.7505 14.9535 22.7536C14.9535 22.7567 14.9535 22.7597 14.9535 22.7628C14.9535 22.7659 14.9535 22.769 14.9535 22.772C14.9535 22.7751 14.9535 22.7781 14.9535 22.7812C14.9535 22.7842 14.9535 22.7873 14.9535 22.7903C14.9535 22.7933 14.9535 22.7963 14.9535 22.7994C14.9535 22.8024 14.9535 22.8054 14.9535 22.8084C14.9535 22.8114 14.9535 22.8144 14.9535 22.8174C14.9535 22.8204 14.9535 22.8233 14.9535 22.8263C14.9535 22.8293 14.9535 22.8323 14.9535 22.8352C14.9535 22.8382 14.9535 22.8411 14.9535 22.8441C14.9535 22.847 14.9535 22.8499 14.9535 22.8529C14.9535 22.8558 14.9535 22.8587 14.9535 22.8616C14.9535 22.8645 14.9535 22.8674 14.9535 22.8703C14.9535 22.8732 14.9535 22.8761 14.9535 22.879C14.9535 22.8819 14.9535 22.8848 14.9535 22.8876C14.9535 22.8905 14.9535 22.8934 14.9535 22.8962C14.9535 22.8991 14.9535 22.9019 14.9535 22.9047C14.9535 22.9076 14.9535 22.9104 14.9535 22.9132C14.9535 22.916 14.9535 22.9189 14.9535 22.9217C14.9535 22.9245 14.9535 22.9273 14.9535 22.9301C14.9535 22.9328 14.9535 22.9356 14.9535 22.9384C14.9535 22.9412 14.9535 22.9439 14.9535 22.9467C14.9535 22.9495 14.9535 22.9522 14.9535 22.955C14.9535 22.9577 14.9535 22.9604 14.9535 22.9632C14.9535 22.9659 14.9535 22.9686 14.9535 22.9713C14.9535 22.974 14.9535 22.9767 14.9535 22.9794C14.9535 22.9821 14.9535 22.9848 14.9535 22.9875C14.9535 22.9902 14.9535 22.9928 14.9535 22.9955C14.9535 22.9982 14.9535 23.0008 14.9535 23.0035C14.9535 23.0061 14.9535 23.0088 14.9535 23.0114C14.9535 23.014 14.9535 23.0167 14.9535 23.0193C14.9535 23.0219 14.9535 23.0245 14.9535 23.0271C14.9535 23.0297 14.9535 23.0323 14.9535 23.0349C14.9535 23.0375 14.9535 23.04 14.9535 23.0426C14.9535 23.0452 14.9535 23.0477 14.9535 23.0503C14.9535 23.0528 14.9535 23.0554 14.9535 23.0579C14.9535 23.0604 14.9535 23.063 14.9535 23.0655C14.9535 23.068 14.9535 23.0705 14.9535 23.073C14.9535 23.0755 14.9535 23.078 14.9535 23.0805C14.9535 23.083 14.9535 23.0855 14.9535 23.0879C14.9535 23.0904 14.9535 23.0929 14.9535 23.0953C14.9535 23.0978 14.9535 23.1002 14.9535 23.1026C14.9535 23.1051 14.9535 23.1075 14.9535 23.1099C14.9535 23.1123 14.9535 23.1147 14.9535 23.1172C14.9535 23.1196 14.9535 23.1219 14.9535 23.1243C14.9535 23.1267 14.9535 23.1291 14.9535 23.1315C14.9535 23.1338 14.9535 23.1362 14.9535 23.1385C14.9535 23.1409 14.9535 23.1432 14.9535 23.1456C14.9535 23.1479 14.9535 23.1502 14.9535 23.1526C14.9535 23.1549 14.9535 23.1572 14.9535 23.1595C14.9535 23.1618 14.9535 23.1641 14.9535 23.1664C14.9535 23.1686 14.9535 23.1709 14.9535 23.1732C14.9535 23.1755 14.9535 23.1777 14.9535 23.18C14.9535 23.1822 14.9535 23.1844 14.9535 23.1867C14.9535 23.1889 14.9535 23.1911 14.9535 23.1934C14.9535 23.1956 14.9535 23.1978 14.9535 23.2C14.9535 23.2022 14.9535 23.2044 14.9535 23.2065C14.9535 23.2087 14.9535 23.2109 14.9535 23.2131C14.9535 23.2152 14.9535 23.2174 14.9535 23.2195C14.9535 23.2217 14.9535 23.2238 14.9535 23.2259C14.9535 23.228 14.9535 23.2302 14.9535 23.2323C14.9535 23.2344 14.9535 23.2365 14.9535 23.2386C14.9535 23.2407 14.9535 23.2428 14.9535 23.2448C14.9535 23.2469 14.9535 23.249 14.9535 23.251C14.9535 23.2531 14.9535 23.2551 14.9535 23.2572C14.9535 23.2592 14.9535 23.2612 14.9535 23.2633C14.9535 23.2653 14.9535 23.2673 14.9535 23.2693C14.9535 23.2713 14.9535 23.2733 14.9535 23.2753C14.9535 23.2773 14.9535 23.2792 14.9535 23.2812C14.9535 23.2832 14.9535 23.2851 14.9535 23.2871C14.9535 23.289 14.9535 23.291 14.9535 23.2929C14.9535 23.2948 14.9535 23.2968 14.9535 23.2987C14.9535 23.3006 14.9535 23.3025 14.9535 23.3044C14.9535 23.3063 14.9535 23.3082 14.9535 23.31C14.9535 23.3119 14.9535 23.3138 14.9535 23.3156C14.9535 23.3175 14.9535 23.3194 14.9535 23.3212C14.9535 23.323 14.9535 23.3249 14.9535 23.3267C14.9535 23.3285 14.9535 23.3303 14.9535 23.3321C14.9535 23.3339 14.9535 23.3357 14.9535 23.3375C14.9535 23.3393 14.9535 23.3411 14.9535 23.3428C14.9535 23.3446 14.9535 23.3464 14.9535 23.3481C14.9535 23.3498 14.9535 23.3516 14.9535 23.3533C14.9535 23.355 14.9535 23.3568 14.9535 23.3585C14.9535 23.3602 14.9535 23.3619 14.9535 23.3636C14.9535 23.3653 14.9535 23.3669 14.9535 23.3686C14.9535 23.3703 14.9535 23.372 14.9535 23.3736C14.9535 23.3753 14.9535 23.3769 14.9535 23.3785C14.9535 23.3802 14.9535 23.3818 14.9535 23.3834C14.9535 23.385 14.9535 23.3866 14.9535 23.3882C14.9535 23.3898 14.9535 23.3914 14.9535 23.393C14.9535 23.3946 14.9535 23.3961 14.9535 23.3977C14.9535 23.3993 14.9535 23.4008 14.9535 23.4023C14.9535 23.4039 14.9535 23.4054 14.9535 23.4069C14.9535 23.4084 14.9535 23.41 14.9535 23.4115C14.9535 23.413 14.9535 23.4144 14.9535 23.4159C14.9535 23.4174 14.9535 23.4189 14.9535 23.4203C14.9535 23.4218 14.9535 23.4233 14.9535 23.4247C14.9535 23.4261 14.9535 23.4276 14.9535 23.429C14.9535 23.4304 14.9535 23.4318 14.9535 23.4332C14.9535 23.4346 14.9535 23.436 14.9535 23.4374C14.9535 23.4388 14.9535 23.4402 14.9535 23.4415C14.9535 23.4429 14.9535 23.4443 14.9535 23.4456C14.9535 23.4469 14.9535 23.4483 14.9535 23.4496C14.9535 23.4509 14.9535 23.4522 14.9535 23.4535C14.9535 23.4549 14.9535 23.4561 14.9535 23.4574C14.9535 23.4587 14.9535 23.46 14.9535 23.4613C14.9535 23.4625 14.9535 23.4638 14.9535 23.465C14.9535 23.4663 14.9535 23.4675 14.9535 23.4687C14.9535 23.47 14.9535 23.4712 14.9535 23.4724C14.9535 23.4736 14.9535 23.4748 14.9535 23.476C14.9535 23.4771 14.9535 23.4783 14.9535 23.4795C14.9535 23.4806 14.9535 23.4818 14.9535 23.4829C14.9535 23.4841 14.9535 23.4852 14.9535 23.4863C14.9535 23.4875 14.9535 23.4886 14.9535 23.4897C14.9535 23.4908 14.9535 23.4919 14.9535 23.493C14.9535 23.4941 14.9535 23.4951 14.9535 23.4962C14.9535 23.4973 14.9535 23.4983 14.9535 23.4994C14.9535 23.5004 14.9535 23.5014 14.9535 23.5024C14.9535 23.5035 14.9535 23.5045 14.9535 23.5055C14.9535 23.5065 14.9535 23.5075 14.9535 23.5085C14.9535 23.5094 14.9535 23.5104 14.9535 23.5114C14.9535 23.5123 14.9535 23.5133 14.9535 23.5142C14.9535 23.5152 14.9535 23.5161 14.9535 23.517C14.9535 23.5179 14.9535 23.5188 14.9535 23.5197C14.9535 23.5206 14.9535 23.5215 14.9535 23.5224C14.9535 23.5233 14.9535 23.5241 14.9535 23.525C14.9535 23.5259 14.9535 23.5267 14.9535 23.5275C14.9535 23.5284 14.9535 23.5292 14.9535 23.53C14.9535 23.5308 14.9535 23.5316 14.9535 23.5324C14.9535 23.5332 14.9535 23.534 14.9535 23.5348C14.9535 23.5355 14.9535 23.5363 14.9535 23.537C14.9535 23.5378 14.9535 23.5385 14.9535 23.5393C14.9535 23.54 14.9535 23.5407 14.9535 23.5414C14.9535 23.5421 14.9535 23.5428 14.9535 23.5435C14.9535 23.5442 14.9535 23.5449 14.9535 23.5455C14.9535 23.5462 14.9535 23.5469 14.9535 23.5475C14.9535 23.5482 14.9535 23.5488 14.9535 23.5494C14.9535 23.55 14.9535 23.5506 14.9535 23.5512C14.9535 23.5518 14.9535 23.5524 14.9535 23.553C14.9535 23.5536 14.9535 23.5542 14.9535 23.5547C14.9535 23.5553 14.9535 23.5558 14.9535 23.5564C14.9535 23.5569 14.9535 23.5574 14.9535 23.5579C14.9535 23.5585 14.9535 23.559 14.9535 23.5594C14.9535 23.5599 14.9535 23.5604 14.9535 23.5609C14.9535 23.5614 14.9535 23.5618 14.9535 23.5623C14.9535 23.5627 14.9535 23.5632 14.9535 23.5636C14.9535 23.564 14.9535 23.5644 14.9535 23.5648C14.9535 23.5652 14.9535 23.5656 14.9535 23.566C14.9535 23.5664 14.9535 23.5668 14.9535 23.5671C14.9535 23.5675 14.9535 23.5678 14.9535 23.5682C14.9535 23.5685 14.9535 23.5688 14.9535 23.5692C14.9535 23.5695 14.9535 23.5698 14.9535 23.5701C14.9535 23.5704 14.9535 23.5707 14.9535 23.5709C14.9535 23.5712 14.9535 23.5715 14.9535 23.5717C14.9535 23.572 14.9535 23.5722 14.9535 23.5724C14.9535 23.5726 14.9535 23.5729 14.9535 23.5731C14.9535 23.5733 14.9535 23.5735 14.9535 23.5736C14.9535 23.5738 14.9535 23.574 14.9535 23.5742C14.9535 23.5743 14.9535 23.5745 14.9535 23.5746C14.9535 23.5747 14.9535 23.5749 14.9535 23.575C14.9535 23.5751 14.9535 23.5752 14.9535 23.5753C14.9535 23.5754 14.9535 23.5755 14.9535 23.5755C14.9535 23.5756 14.9535 23.5757 14.9535 23.5757C14.9535 23.5757 14.9535 23.5758 14.9535 23.5758C14.9535 23.5758 14.9535 23.5758 15.9746 23.5758ZM33.9241 27.6309C35.4961 26.8206 36.3972 25.2467 36.3972 23.5758H34.3549C34.3549 24.5054 33.8605 25.3661 32.9884 25.8156L33.9241 27.6309ZM18.3623 25.8156C17.4902 25.3661 16.9957 24.5054 16.9957 23.5758H14.9535C14.9535 25.2467 15.8546 26.8206 17.4266 27.6309L18.3623 25.8156Z" fill="#8E8BFF"/>
<path d="M6.47578 40.986L3.93578 37.536L4.74578 37.036L7.61578 40.986H6.47578ZM1.76578 40.986V33.986H2.74578V40.986H1.76578ZM2.44578 37.906V37.026H4.71578V37.906H2.44578ZM4.83578 37.596L3.91578 37.456L6.42578 33.986H7.49578L4.83578 37.596ZM10.6824 41.046C10.1491 41.046 9.67576 40.9293 9.26242 40.696C8.84909 40.4626 8.52242 40.1426 8.28242 39.736C8.04242 39.3226 7.92242 38.856 7.92242 38.336C7.92242 37.8093 8.04242 37.3426 8.28242 36.936C8.52242 36.5293 8.84909 36.2126 9.26242 35.986C9.67576 35.7526 10.1491 35.636 10.6824 35.636C11.2091 35.636 11.6791 35.7526 12.0924 35.986C12.5124 36.2126 12.8391 36.5293 13.0724 36.936C13.3124 37.336 13.4324 37.8026 13.4324 38.336C13.4324 38.8626 13.3124 39.3293 13.0724 39.736C12.8391 40.1426 12.5124 40.4626 12.0924 40.696C11.6791 40.9293 11.2091 41.046 10.6824 41.046ZM10.6824 40.206C11.0224 40.206 11.3258 40.1293 11.5924 39.976C11.8658 39.8226 12.0791 39.606 12.2324 39.326C12.3858 39.0393 12.4624 38.7093 12.4624 38.336C12.4624 37.956 12.3858 37.6293 12.2324 37.356C12.0791 37.076 11.8658 36.8593 11.5924 36.706C11.3258 36.5526 11.0224 36.476 10.6824 36.476C10.3424 36.476 10.0391 36.5526 9.77242 36.706C9.50576 36.8593 9.29242 37.076 9.13242 37.356C8.97242 37.6293 8.89242 37.956 8.89242 38.336C8.89242 38.7093 8.97242 39.0393 9.13242 39.326C9.29242 39.606 9.50576 39.8226 9.77242 39.976C10.0391 40.1293 10.3424 40.206 10.6824 40.206ZM14.8187 40.986V35.686H15.8087L18.0887 39.606H17.6887L20.0287 35.686H20.9287V40.986H20.0587V36.766L20.2187 36.856L18.0787 40.386H17.6587L15.5087 36.786L15.6987 36.746V40.986H14.8187ZM26.0472 40.986V39.866L25.9972 39.656V37.746C25.9972 37.3393 25.8772 37.026 25.6372 36.806C25.4039 36.5793 25.0505 36.466 24.5772 36.466C24.2639 36.466 23.9572 36.5193 23.6572 36.626C23.3572 36.726 23.1039 36.8626 22.8972 37.036L22.4972 36.316C22.7705 36.096 23.0972 35.9293 23.4772 35.816C23.8639 35.696 24.2672 35.636 24.6872 35.636C25.4139 35.636 25.9739 35.8126 26.3672 36.166C26.7605 36.5193 26.9572 37.0593 26.9572 37.786V40.986H26.0472ZM24.3072 41.046C23.9139 41.046 23.5672 40.9793 23.2672 40.846C22.9739 40.7126 22.7472 40.5293 22.5872 40.296C22.4272 40.056 22.3472 39.786 22.3472 39.486C22.3472 39.1993 22.4139 38.9393 22.5472 38.706C22.6872 38.4726 22.9105 38.286 23.2172 38.146C23.5305 38.006 23.9505 37.936 24.4772 37.936H26.1572V38.626H24.5172C24.0372 38.626 23.7139 38.706 23.5472 38.866C23.3805 39.026 23.2972 39.2193 23.2972 39.446C23.2972 39.706 23.4005 39.916 23.6072 40.076C23.8139 40.2293 24.1005 40.306 24.4672 40.306C24.8272 40.306 25.1405 40.226 25.4072 40.066C25.6805 39.906 25.8772 39.6726 25.9972 39.366L26.1872 40.026C26.0605 40.3393 25.8372 40.5893 25.5172 40.776C25.1972 40.956 24.7939 41.046 24.3072 41.046ZM28.6859 40.986V35.686H29.6459V37.936H32.6659V35.686H33.6259V40.986H32.6659V38.766H29.6459V40.986H28.6859ZM39.1125 40.536V36.526H36.8125L36.7625 37.546C36.7492 37.8793 36.7258 38.2026 36.6925 38.516C36.6658 38.8226 36.6192 39.106 36.5525 39.366C36.4925 39.626 36.4025 39.8393 36.2825 40.006C36.1625 40.1726 36.0025 40.276 35.8025 40.316L34.8525 40.146C35.0592 40.1526 35.2258 40.086 35.3525 39.946C35.4792 39.7993 35.5758 39.5993 35.6425 39.346C35.7158 39.0926 35.7692 38.806 35.8025 38.486C35.8358 38.1593 35.8625 37.8226 35.8825 37.476L35.9625 35.686H40.0725V40.536H39.1125ZM34.6425 42.216V40.146H40.8825V42.216H39.9825V40.986H35.5525V42.216H34.6425ZM47.3731 40.986V35.686H48.3331V40.986H47.3731ZM44.5231 37.486C45.1965 37.4926 45.7065 37.646 46.0531 37.946C46.4065 38.246 46.5831 38.6693 46.5831 39.216C46.5831 39.7893 46.3898 40.2326 46.0031 40.546C45.6231 40.8526 45.0765 41.0026 44.3631 40.996L42.1331 40.986V35.686H43.0931V37.476L44.5231 37.486ZM44.2931 40.266C44.7198 40.2726 45.0465 40.186 45.2731 40.006C45.4998 39.826 45.6131 39.5593 45.6131 39.206C45.6131 38.8593 45.4998 38.606 45.2731 38.446C45.0531 38.286 44.7265 38.2026 44.2931 38.196L43.0931 38.176V40.256L44.2931 40.266Z" fill="#8E8BFF"/>
</svg>
