<svg width="80" height="31" viewBox="0 0 80 31" fill="none" xmlns="http://www.w3.org/2000/svg">
<path d="M6.10419 13.5608L0.706324 1.04918H3.83423L8.55289 12.1309H6.7119L11.5021 1.04918H14.3797L8.96399 13.5608H6.10419ZM20.4104 13.5608V11.684L20.2317 11.273V7.91269C20.2317 7.3169 20.047 6.85218 19.6776 6.51854C19.3201 6.1849 18.7661 6.01807 18.0154 6.01807C17.503 6.01807 16.9966 6.10149 16.4961 6.26831C16.0075 6.42321 15.5905 6.6377 15.2449 6.91176L14.244 4.96352C14.7683 4.59413 15.3998 4.30815 16.1386 4.10558C16.8774 3.90302 17.6281 3.80173 18.3907 3.80173C19.8564 3.80173 20.9943 4.14729 21.8046 4.83841C22.6149 5.52953 23.02 6.60791 23.02 8.07355V13.5608H20.4104ZM17.4791 13.7038C16.7285 13.7038 16.085 13.5787 15.5488 13.3284C15.0126 13.0663 14.6015 12.7148 14.3155 12.2739C14.0295 11.833 13.8865 11.3385 13.8865 10.7904C13.8865 10.2184 14.0236 9.71794 14.2976 9.28897C14.5836 8.86 15.0304 8.52636 15.6382 8.28804C16.2459 8.03781 17.0383 7.91269 18.0154 7.91269H20.5713V9.5392H18.3192C17.6638 9.5392 17.211 9.64644 16.9608 9.86093C16.7225 10.0754 16.6033 10.3435 16.6033 10.6652C16.6033 11.0227 16.7404 11.3087 17.0144 11.5232C17.3004 11.7258 17.6877 11.827 18.1762 11.827C18.6409 11.827 19.058 11.7198 19.4274 11.5053C19.7968 11.2789 20.0649 10.9512 20.2317 10.5223L20.6607 11.8092C20.4581 12.4288 20.0887 12.8995 19.5525 13.2212C19.0163 13.5429 18.3252 13.7038 17.4791 13.7038ZM25.5436 13.5608V0.298479H28.3319V13.5608H25.5436ZM35.4953 13.7038C34.4706 13.7038 33.559 13.4893 32.7606 13.0603C31.9742 12.6314 31.3486 12.0475 30.8839 11.3087C30.4311 10.558 30.2047 9.70602 30.2047 8.75276C30.2047 7.78757 30.4311 6.93559 30.8839 6.19681C31.3486 5.44611 31.9742 4.86224 32.7606 4.44519C33.559 4.01622 34.4706 3.80173 35.4953 3.80173C36.5082 3.80173 37.4138 4.01622 38.2121 4.44519C39.0105 4.86224 39.6361 5.44016 40.0889 6.17894C40.5417 6.91772 40.7681 7.77566 40.7681 8.75276C40.7681 9.70602 40.5417 10.558 40.0889 11.3087C39.6361 12.0475 39.0105 12.6314 38.2121 13.0603C37.4138 13.4893 36.5082 13.7038 35.4953 13.7038ZM35.4953 11.4159C35.96 11.4159 36.3771 11.3087 36.7465 11.0942C37.1159 10.8797 37.4078 10.5759 37.6223 10.1827C37.8368 9.77752 37.944 9.30088 37.944 8.75276C37.944 8.19271 37.8368 7.71608 37.6223 7.32286C37.4078 6.92963 37.1159 6.62578 36.7465 6.4113C36.3771 6.19681 35.96 6.08957 35.4953 6.08957C35.0306 6.08957 34.6135 6.19681 34.2442 6.4113C33.8748 6.62578 33.5769 6.92963 33.3505 7.32286C33.136 7.71608 33.0287 8.19271 33.0287 8.75276C33.0287 9.30088 33.136 9.77752 33.3505 10.1827C33.5769 10.5759 33.8748 10.8797 34.2442 11.0942C34.6135 11.3087 35.0306 11.4159 35.4953 11.4159ZM42.6318 13.5608V3.94472H45.295V6.66153L44.9197 5.87508C45.2056 5.19588 45.6644 4.6835 46.2959 4.33794C46.9275 3.98047 47.696 3.80173 48.6017 3.80173V6.37555C48.4825 6.36363 48.3752 6.35768 48.2799 6.35768C48.1846 6.34576 48.0833 6.3398 47.9761 6.3398C47.2135 6.3398 46.5938 6.56024 46.1172 7.00113C45.6525 7.4301 45.4201 8.10334 45.4201 9.02086V13.5608H42.6318ZM55.5295 13.5608V11.684L55.3508 11.273V7.91269C55.3508 7.3169 55.1661 6.85218 54.7967 6.51854C54.4392 6.1849 53.8852 6.01807 53.1345 6.01807C52.6221 6.01807 52.1157 6.10149 51.6152 6.26831C51.1266 6.42321 50.7096 6.6377 50.364 6.91176L49.3631 4.96352C49.8874 4.59413 50.5189 4.30815 51.2577 4.10558C51.9965 3.90302 52.7472 3.80173 53.5098 3.80173C54.9755 3.80173 56.1134 4.14729 56.9237 4.83841C57.734 5.52953 58.1391 6.60791 58.1391 8.07355V13.5608H55.5295ZM52.5982 13.7038C51.8475 13.7038 51.2041 13.5787 50.6679 13.3284C50.1317 13.0663 49.7206 12.7148 49.4346 12.2739C49.1486 11.833 49.0056 11.3385 49.0056 10.7904C49.0056 10.2184 49.1427 9.71794 49.4167 9.28897C49.7027 8.86 50.1495 8.52636 50.7572 8.28804C51.365 8.03781 52.1574 7.91269 53.1345 7.91269H55.6904V9.5392H53.4383C52.7829 9.5392 52.3301 9.64644 52.0799 9.86093C51.8416 10.0754 51.7224 10.3435 51.7224 10.6652C51.7224 11.0227 51.8595 11.3087 52.1335 11.5232C52.4195 11.7258 52.8068 11.827 53.2953 11.827C53.76 11.827 54.1771 11.7198 54.5465 11.5053C54.9159 11.2789 55.184 10.9512 55.3508 10.5223L55.7798 11.8092C55.5772 12.4288 55.2078 12.8995 54.6716 13.2212C54.1354 13.5429 53.4443 13.7038 52.5982 13.7038ZM66.5074 3.80173C67.27 3.80173 67.9492 3.95664 68.545 4.26645C69.1527 4.56434 69.6293 5.02906 69.9749 5.6606C70.3204 6.28022 70.4932 7.07858 70.4932 8.05568V13.5608H67.7049V8.48465C67.7049 7.71012 67.5321 7.13816 67.1866 6.76877C66.8529 6.39938 66.3763 6.21469 65.7567 6.21469C65.3158 6.21469 64.9166 6.31001 64.5591 6.50067C64.2136 6.6794 63.9395 6.95942 63.7369 7.34073C63.5463 7.72204 63.451 8.21059 63.451 8.80638V13.5608H60.6627V3.94472H63.3258V6.60791L62.8254 5.80359C63.1709 5.16013 63.6654 4.66563 64.3089 4.32007C64.9523 3.97451 65.6852 3.80173 66.5074 3.80173ZM76.9529 13.7038C75.8209 13.7038 74.9391 13.4178 74.3076 12.8458C73.676 12.262 73.3603 11.3981 73.3603 10.2541V1.81775H76.1486V10.2184C76.1486 10.6235 76.2558 10.9393 76.4703 11.1657C76.6848 11.3802 76.9767 11.4874 77.3461 11.4874C77.787 11.4874 78.1623 11.3683 78.4722 11.13L79.2229 13.0961C78.9369 13.2986 78.5913 13.4535 78.1862 13.5608C77.793 13.6561 77.3819 13.7038 76.9529 13.7038ZM71.8767 6.30405V4.15921H78.5437V6.30405H71.8767Z" fill="#615C7E"/>
<path d="M2.56619 28.5608V20.8608H5.87719C6.71319 20.8608 7.36952 21.0295 7.84619 21.3668C8.32285 21.7041 8.56119 22.1955 8.56119 22.8408C8.56119 23.4715 8.33385 23.9555 7.87919 24.2928C7.42452 24.6228 6.82685 24.7878 6.08619 24.7878L6.28419 24.4578C7.14219 24.4578 7.79852 24.6301 8.25319 24.9748C8.71519 25.3121 8.94619 25.8071 8.94619 26.4598C8.94619 27.1198 8.70419 27.6368 8.22019 28.0108C7.74352 28.3775 7.03219 28.5608 6.08619 28.5608H2.56619ZM3.65519 27.6918H6.06419C6.65085 27.6918 7.09085 27.5855 7.38419 27.3728C7.68485 27.1528 7.83519 26.8191 7.83519 26.3718C7.83519 25.9245 7.68485 25.5981 7.38419 25.3928C7.09085 25.1875 6.65085 25.0848 6.06419 25.0848H3.65519V27.6918ZM3.65519 24.2488H5.80019C6.33552 24.2488 6.74252 24.1425 7.02119 23.9298C7.30719 23.7171 7.45019 23.4055 7.45019 22.9948C7.45019 22.5768 7.30719 22.2615 7.02119 22.0488C6.74252 21.8361 6.33552 21.7298 5.80019 21.7298H3.65519V24.2488ZM16.6531 28.6268C16.1691 28.6268 15.7254 28.5168 15.3221 28.2968C14.9261 28.0695 14.6071 27.7358 14.3651 27.2958C14.1304 26.8558 14.0131 26.3058 14.0131 25.6458C14.0131 24.9858 14.1267 24.4358 14.3541 23.9958C14.5887 23.5558 14.9041 23.2258 15.3001 23.0058C15.7034 22.7858 16.1544 22.6758 16.6531 22.6758C17.2251 22.6758 17.7311 22.8005 18.1711 23.0498C18.6111 23.2991 18.9594 23.6475 19.2161 24.0948C19.4727 24.5348 19.6011 25.0518 19.6011 25.6458C19.6011 26.2398 19.4727 26.7605 19.2161 27.2078C18.9594 27.6551 18.6111 28.0035 18.1711 28.2528C17.7311 28.5021 17.2251 28.6268 16.6531 28.6268ZM13.5621 30.6948V22.7308H14.5741V24.3038L14.5081 25.6568L14.6181 27.0098V30.6948H13.5621ZM16.5651 27.7028C16.9391 27.7028 17.2727 27.6185 17.5661 27.4498C17.8667 27.2811 18.1014 27.0428 18.2701 26.7348C18.4461 26.4195 18.5341 26.0565 18.5341 25.6458C18.5341 25.2278 18.4461 24.8685 18.2701 24.5678C18.1014 24.2598 17.8667 24.0215 17.5661 23.8528C17.2727 23.6841 16.9391 23.5998 16.5651 23.5998C16.1984 23.5998 15.8647 23.6841 15.5641 23.8528C15.2707 24.0215 15.0361 24.2598 14.8601 24.5678C14.6914 24.8685 14.6071 25.2278 14.6071 25.6458C14.6071 26.0565 14.6914 26.4195 14.8601 26.7348C15.0361 27.0428 15.2707 27.2811 15.5641 27.4498C15.8647 27.6185 16.1984 27.7028 16.5651 27.7028ZM24.6566 28.5608V27.3288L24.6016 27.0978V24.9968C24.6016 24.5495 24.4696 24.2048 24.2056 23.9628C23.9489 23.7135 23.5603 23.5888 23.0396 23.5888C22.6949 23.5888 22.3576 23.6475 22.0276 23.7648C21.6976 23.8748 21.4189 24.0251 21.1916 24.2158L20.7516 23.4238C21.0523 23.1818 21.4116 22.9985 21.8296 22.8738C22.2549 22.7418 22.6986 22.6758 23.1606 22.6758C23.9599 22.6758 24.5759 22.8701 25.0086 23.2588C25.4413 23.6475 25.6576 24.2415 25.6576 25.0408V28.5608H24.6566ZM22.7426 28.6268C22.3099 28.6268 21.9286 28.5535 21.5986 28.4068C21.2759 28.2601 21.0266 28.0585 20.8506 27.8018C20.6746 27.5378 20.5866 27.2408 20.5866 26.9108C20.5866 26.5955 20.6599 26.3095 20.8066 26.0528C20.9606 25.7961 21.2063 25.5908 21.5436 25.4368C21.8883 25.2828 22.3503 25.2058 22.9296 25.2058H24.7776V25.9648H22.9736C22.4456 25.9648 22.0899 26.0528 21.9066 26.2288C21.7233 26.4048 21.6316 26.6175 21.6316 26.8668C21.6316 27.1528 21.7453 27.3838 21.9726 27.5598C22.1999 27.7285 22.5153 27.8128 22.9186 27.8128C23.3146 27.8128 23.6593 27.7248 23.9526 27.5488C24.2533 27.3728 24.4696 27.1161 24.6016 26.7788L24.8106 27.5048C24.6713 27.8495 24.4256 28.1245 24.0736 28.3298C23.7216 28.5278 23.2779 28.6268 22.7426 28.6268ZM29.1675 28.6378C28.7275 28.6378 28.2948 28.5828 27.8695 28.4728C27.4515 28.3555 27.0775 28.1905 26.7475 27.9778L27.0665 27.1748C27.3451 27.3508 27.6641 27.4901 28.0235 27.5928C28.3828 27.6881 28.7458 27.7358 29.1125 27.7358C29.4498 27.7358 29.7395 27.6955 29.9815 27.6148C30.2308 27.5341 30.4215 27.4241 30.5535 27.2848C30.6855 27.1381 30.7515 26.9695 30.7515 26.7788C30.7515 26.5075 30.6305 26.2985 30.3885 26.1518C30.1465 26.0051 29.8091 25.9318 29.3765 25.9318H28.3205V25.1728H29.3105C29.5671 25.1728 29.7908 25.1435 29.9815 25.0848C30.1721 25.0261 30.3188 24.9381 30.4215 24.8208C30.5315 24.6961 30.5865 24.5531 30.5865 24.3918C30.5865 24.2158 30.5241 24.0655 30.3995 23.9408C30.2748 23.8161 30.0988 23.7208 29.8715 23.6548C29.6515 23.5888 29.3911 23.5558 29.0905 23.5558C28.7971 23.5631 28.4965 23.6035 28.1885 23.6768C27.8878 23.7501 27.5798 23.8638 27.2645 24.0178L26.9785 23.1928C27.3305 23.0241 27.6751 22.8958 28.0125 22.8078C28.3571 22.7125 28.6981 22.6611 29.0355 22.6538C29.5415 22.6391 29.9925 22.6978 30.3885 22.8298C30.7845 22.9545 31.0961 23.1378 31.3235 23.3798C31.5581 23.6218 31.6755 23.9078 31.6755 24.2378C31.6755 24.5165 31.5875 24.7658 31.4115 24.9858C31.2355 25.1985 31.0008 25.3671 30.7075 25.4918C30.4141 25.6165 30.0768 25.6788 29.6955 25.6788L29.7395 25.4258C30.3921 25.4258 30.9055 25.5541 31.2795 25.8108C31.6535 26.0675 31.8405 26.4158 31.8405 26.8558C31.8405 27.2078 31.7231 27.5195 31.4885 27.7908C31.2538 28.0548 30.9348 28.2638 30.5315 28.4178C30.1355 28.5645 29.6808 28.6378 29.1675 28.6378ZM36.5369 28.6268C36.0529 28.6268 35.6092 28.5168 35.2059 28.2968C34.8099 28.0695 34.4909 27.7358 34.2489 27.2958C34.0142 26.8558 33.8969 26.3058 33.8969 25.6458C33.8969 24.9858 34.0105 24.4358 34.2379 23.9958C34.4725 23.5558 34.7879 23.2258 35.1839 23.0058C35.5872 22.7858 36.0382 22.6758 36.5369 22.6758C37.1089 22.6758 37.6149 22.8005 38.0549 23.0498C38.4949 23.2991 38.8432 23.6475 39.0999 24.0948C39.3565 24.5348 39.4849 25.0518 39.4849 25.6458C39.4849 26.2398 39.3565 26.7605 39.0999 27.2078C38.8432 27.6551 38.4949 28.0035 38.0549 28.2528C37.6149 28.5021 37.1089 28.6268 36.5369 28.6268ZM33.4459 30.6948V22.7308H34.4579V24.3038L34.3919 25.6568L34.5019 27.0098V30.6948H33.4459ZM36.4489 27.7028C36.8229 27.7028 37.1565 27.6185 37.4499 27.4498C37.7505 27.2811 37.9852 27.0428 38.1539 26.7348C38.3299 26.4195 38.4179 26.0565 38.4179 25.6458C38.4179 25.2278 38.3299 24.8685 38.1539 24.5678C37.9852 24.2598 37.7505 24.0215 37.4499 23.8528C37.1565 23.6841 36.8229 23.5998 36.4489 23.5998C36.0822 23.5998 35.7485 23.6841 35.4479 23.8528C35.1545 24.0215 34.9199 24.2598 34.7439 24.5678C34.5752 24.8685 34.4909 25.2278 34.4909 25.6458C34.4909 26.0565 34.5752 26.4195 34.7439 26.7348C34.9199 27.0428 35.1545 27.2811 35.4479 27.4498C35.7485 27.6185 36.0822 27.7028 36.4489 27.7028ZM44.5404 28.5608V27.3288L44.4854 27.0978V24.9968C44.4854 24.5495 44.3534 24.2048 44.0894 23.9628C43.8327 23.7135 43.444 23.5888 42.9234 23.5888C42.5787 23.5888 42.2414 23.6475 41.9114 23.7648C41.5814 23.8748 41.3027 24.0251 41.0754 24.2158L40.6354 23.4238C40.936 23.1818 41.2954 22.9985 41.7134 22.8738C42.1387 22.7418 42.5824 22.6758 43.0444 22.6758C43.8437 22.6758 44.4597 22.8701 44.8924 23.2588C45.325 23.6475 45.5414 24.2415 45.5414 25.0408V28.5608H44.5404ZM42.6264 28.6268C42.1937 28.6268 41.8124 28.5535 41.4824 28.4068C41.1597 28.2601 40.9104 28.0585 40.7344 27.8018C40.5584 27.5378 40.4704 27.2408 40.4704 26.9108C40.4704 26.5955 40.5437 26.3095 40.6904 26.0528C40.8444 25.7961 41.09 25.5908 41.4274 25.4368C41.772 25.2828 42.234 25.2058 42.8134 25.2058H44.6614V25.9648H42.8574C42.3294 25.9648 41.9737 26.0528 41.7904 26.2288C41.607 26.4048 41.5154 26.6175 41.5154 26.8668C41.5154 27.1528 41.629 27.3838 41.8564 27.5598C42.0837 27.7285 42.399 27.8128 42.8024 27.8128C43.1984 27.8128 43.543 27.7248 43.8364 27.5488C44.137 27.3728 44.3534 27.1161 44.4854 26.7788L44.6944 27.5048C44.555 27.8495 44.3094 28.1245 43.9574 28.3298C43.6054 28.5278 43.1617 28.6268 42.6264 28.6268ZM50.1379 28.6488C49.6539 28.6488 49.2249 28.5718 48.8509 28.4178C48.4843 28.2638 48.1689 28.0365 47.9049 27.7358C47.6409 27.4278 47.4393 27.0428 47.2999 26.5808C47.1679 26.1115 47.1019 25.5615 47.1019 24.9308C47.1019 24.4321 47.1459 23.9848 47.2339 23.5888C47.3219 23.1928 47.4466 22.8408 47.6079 22.5328C47.7766 22.2248 47.9819 21.9571 48.2239 21.7298C48.4733 21.5025 48.7519 21.3155 49.0599 21.1688C49.3753 21.0148 49.7199 20.8975 50.0939 20.8168L52.7559 20.2228L52.9099 21.2018L50.4569 21.7298C50.3103 21.7591 50.1343 21.8031 49.9289 21.8618C49.7236 21.9205 49.5146 22.0121 49.3019 22.1368C49.0893 22.2541 48.8913 22.4191 48.7079 22.6318C48.5246 22.8445 48.3779 23.1231 48.2679 23.4678C48.1579 23.8051 48.1029 24.2231 48.1029 24.7218C48.1029 24.8611 48.1066 24.9675 48.1139 25.0408C48.1213 25.1141 48.1286 25.1875 48.1359 25.2608C48.1506 25.3341 48.1616 25.4441 48.1689 25.5908L47.7289 25.1398C47.8463 24.7365 48.0333 24.3845 48.2899 24.0838C48.5466 23.7831 48.8546 23.5521 49.2139 23.3908C49.5806 23.2221 49.9803 23.1378 50.4129 23.1378C50.9556 23.1378 51.4359 23.2551 51.8539 23.4898C52.2793 23.7245 52.6129 24.0471 52.8549 24.4578C53.0969 24.8685 53.2179 25.3378 53.2179 25.8658C53.2179 26.4011 53.0896 26.8815 52.8329 27.3068C52.5836 27.7248 52.2279 28.0548 51.7659 28.2968C51.3039 28.5315 50.7613 28.6488 50.1379 28.6488ZM50.2369 27.7688C50.6109 27.7688 50.9409 27.6881 51.2269 27.5268C51.5129 27.3581 51.7366 27.1345 51.8979 26.8558C52.0593 26.5698 52.1399 26.2508 52.1399 25.8988C52.1399 25.5468 52.0593 25.2351 51.8979 24.9638C51.7366 24.6925 51.5129 24.4798 51.2269 24.3258C50.9409 24.1645 50.6036 24.0838 50.2149 24.0838C49.8483 24.0838 49.5183 24.1608 49.2249 24.3148C48.9316 24.4615 48.7043 24.6705 48.5429 24.9418C48.3816 25.2058 48.3009 25.5138 48.3009 25.8658C48.3009 26.2178 48.3816 26.5405 48.5429 26.8338C48.7116 27.1198 48.9389 27.3471 49.2249 27.5158C49.5183 27.6845 49.8556 27.7688 50.2369 27.7688ZM57.2231 28.6268C56.6365 28.6268 56.1158 28.4985 55.6611 28.2418C55.2065 27.9851 54.8471 27.6331 54.5831 27.1858C54.3191 26.7311 54.1871 26.2178 54.1871 25.6458C54.1871 25.0665 54.3191 24.5531 54.5831 24.1058C54.8471 23.6585 55.2065 23.3101 55.6611 23.0608C56.1158 22.8041 56.6365 22.6758 57.2231 22.6758C57.8025 22.6758 58.3195 22.8041 58.7741 23.0608C59.2361 23.3101 59.5955 23.6585 59.8521 24.1058C60.1161 24.5458 60.2481 25.0591 60.2481 25.6458C60.2481 26.2251 60.1161 26.7385 59.8521 27.1858C59.5955 27.6331 59.2361 27.9851 58.7741 28.2418C58.3195 28.4985 57.8025 28.6268 57.2231 28.6268ZM57.2231 27.7028C57.5971 27.7028 57.9308 27.6185 58.2241 27.4498C58.5248 27.2811 58.7595 27.0428 58.9281 26.7348C59.0968 26.4195 59.1811 26.0565 59.1811 25.6458C59.1811 25.2278 59.0968 24.8685 58.9281 24.5678C58.7595 24.2598 58.5248 24.0215 58.2241 23.8528C57.9308 23.6841 57.5971 23.5998 57.2231 23.5998C56.8491 23.5998 56.5155 23.6841 56.2221 23.8528C55.9288 24.0215 55.6941 24.2598 55.5181 24.5678C55.3421 24.8685 55.2541 25.2278 55.2541 25.6458C55.2541 26.0565 55.3421 26.4195 55.5181 26.7348C55.6941 27.0428 55.9288 27.2811 56.2221 27.4498C56.5155 27.6185 56.8491 27.7028 57.2231 27.7028ZM62.7132 28.5608V23.3798L62.9772 23.6548H60.5792V22.7308H65.9032V23.6548H63.5162L63.7692 23.3798V28.5608H62.7132ZM71.207 28.5608L68.952 25.7228L69.821 25.1948L72.45 28.5608H71.207ZM66.983 28.5608V22.7308H68.039V28.5608H66.983ZM67.72 26.0968V25.1948H69.645V26.0968H67.72ZM69.909 25.7668L68.93 25.6348L71.163 22.7308H72.296L69.909 25.7668ZM75.9598 28.6268C75.3365 28.6268 74.7865 28.4985 74.3098 28.2418C73.8405 27.9851 73.4738 27.6331 73.2098 27.1858C72.9532 26.7385 72.8248 26.2251 72.8248 25.6458C72.8248 25.0665 72.9495 24.5531 73.1988 24.1058C73.4555 23.6585 73.8038 23.3101 74.2438 23.0608C74.6912 22.8041 75.1935 22.6758 75.7508 22.6758C76.3155 22.6758 76.8142 22.8005 77.2468 23.0498C77.6795 23.2991 78.0168 23.6511 78.2588 24.1058C78.5082 24.5531 78.6328 25.0775 78.6328 25.6788C78.6328 25.7228 78.6292 25.7741 78.6218 25.8328C78.6218 25.8915 78.6182 25.9465 78.6108 25.9978H73.6498V25.2388H78.0608L77.6318 25.5028C77.6392 25.1288 77.5622 24.7951 77.4008 24.5018C77.2395 24.2085 77.0158 23.9811 76.7298 23.8198C76.4512 23.6511 76.1248 23.5668 75.7508 23.5668C75.3842 23.5668 75.0578 23.6511 74.7718 23.8198C74.4858 23.9811 74.2622 24.2121 74.1008 24.5128C73.9395 24.8061 73.8588 25.1435 73.8588 25.5248V25.7008C73.8588 26.0895 73.9468 26.4378 74.1228 26.7458C74.3062 27.0465 74.5592 27.2811 74.8818 27.4498C75.2045 27.6185 75.5748 27.7028 75.9928 27.7028C76.3375 27.7028 76.6492 27.6441 76.9278 27.5268C77.2138 27.4095 77.4632 27.2335 77.6758 26.9988L78.2588 27.6808C77.9948 27.9888 77.6648 28.2235 77.2688 28.3848C76.8802 28.5461 76.4438 28.6268 75.9598 28.6268Z" fill="#B1ACCE"/>
</svg>
