<svg width="23" height="23" viewBox="0 0 23 23" fill="none" xmlns="http://www.w3.org/2000/svg">
<path d="M2.875 9.58329V13.4166C2.875 13.9437 3.30625 14.375 3.83333 14.375H6.70833L9.86125 17.5279C10.465 18.1316 11.5 17.7004 11.5 16.8475V6.14288C11.5 5.28996 10.465 4.85871 9.86125 5.46246L6.70833 8.62496H3.83333C3.30625 8.62496 2.875 9.05621 2.875 9.58329ZM15.8125 11.5C15.8125 9.80371 14.835 8.34704 13.4167 7.63788V15.3525C14.835 14.6529 15.8125 13.1962 15.8125 11.5ZM13.4167 4.26454V4.45621C13.4167 4.82038 13.6563 5.13663 13.9917 5.27079C16.4642 6.25788 18.2083 8.68246 18.2083 11.5C18.2083 14.3175 16.4642 16.742 13.9917 17.7291C13.6467 17.8633 13.4167 18.1795 13.4167 18.5437V18.7354C13.4167 19.3391 14.0204 19.7608 14.5763 19.55C17.825 18.3137 20.125 15.18 20.125 11.5C20.125 7.81996 17.825 4.68621 14.5763 3.44996C14.0204 3.22954 13.4167 3.66079 13.4167 4.26454Z" fill="white"/>
</svg>
